<svg width="422" height="388" viewBox="0 0 422 388" fill="none" xmlns="http://www.w3.org/2000/svg">
<path d="M11.0211 199.78C11.0211 199.78 13.3111 270.73 72.5311 318.01C131.751 365.3 213.821 368.68 280.261 373.18C346.701 377.67 397.731 340.06 405.421 283.21C413.111 226.36 362.341 209.67 334.801 144.95C307.261 80.2298 309.711 58.9598 251.431 19.1598C193.151 -20.6502 101.981 3.78985 54.1811 71.9799C6.38108 140.17 11.0211 199.78 11.0211 199.78Z" fill="#FFAA29" style="fill:#FFAA29;fill:color(display-p3 1.0000 0.6650 0.1625);fill-opacity:1;"/>
<path opacity="0.7" d="M11.0211 199.78C11.0211 199.78 13.3111 270.73 72.5311 318.01C131.751 365.3 213.821 368.68 280.261 373.18C346.701 377.67 397.731 340.06 405.421 283.21C413.111 226.36 362.341 209.67 334.801 144.95C307.261 80.2298 309.711 58.9598 251.431 19.1598C193.151 -20.6502 101.981 3.78985 54.1811 71.9799C6.38108 140.17 11.0211 199.78 11.0211 199.78Z" fill="white" style="fill:white;fill-opacity:1;"/>
<path d="M299.962 344.71C338.732 344.71 370.162 335.384 370.162 323.88C370.162 312.376 338.732 303.05 299.962 303.05C261.191 303.05 229.762 312.376 229.762 323.88C229.762 335.384 261.191 344.71 299.962 344.71Z" fill="#2B3646" stroke="#2B3646" style="fill:#2B3646;fill:color(display-p3 0.1684 0.2133 0.2750);fill-opacity:1;stroke:#2B3646;stroke:color(display-p3 0.1684 0.2133 0.2750);stroke-opacity:1;" stroke-width="1.16" stroke-linecap="round" stroke-linejoin="round"/>
<path d="M299.962 312.63C333.172 312.63 360.982 319.48 368.272 328.67C369.492 327.13 370.162 325.53 370.162 323.88C370.162 312.38 338.732 303.05 299.962 303.05C261.192 303.05 229.762 312.38 229.762 323.88C229.762 325.53 230.432 327.13 231.652 328.67C238.952 319.48 266.752 312.63 299.962 312.63Z" fill="white" stroke="#2B3646" style="fill:white;fill-opacity:1;stroke:#2B3646;stroke:color(display-p3 0.1684 0.2133 0.2750);stroke-opacity:1;" stroke-width="1.16" stroke-linecap="round" stroke-linejoin="round"/>
<path d="M290.38 342.09C266.93 341.03 249.23 336.23 249.23 330.46C249.23 329.86 249.42 329.26 249.8 328.68" stroke="white" style="stroke:white;stroke-opacity:1;" stroke-width="1.16" stroke-linecap="round" stroke-linejoin="round"/>
<path d="M344.801 324.75C348.821 326.44 351.101 328.39 351.101 330.46C351.101 337 328.301 342.31 300.171 342.31C299.771 342.31 299.361 342.31 298.961 342.31" stroke="white" style="stroke:white;stroke-opacity:1;" stroke-width="1.16" stroke-linecap="round" stroke-linejoin="round"/>
<path d="M256.09 324.52C264.91 320.99 281.35 318.61 300.17 318.61C312.26 318.61 323.36 319.59 332.1 321.23" stroke="white" style="stroke:white;stroke-opacity:1;" stroke-width="1.16" stroke-linecap="round" stroke-linejoin="round"/>
<path d="M289.711 334.53C283.771 333.7 279.801 332.19 279.801 330.46C279.801 327.84 288.921 325.72 300.171 325.72C311.421 325.72 320.541 327.84 320.541 330.46C320.541 332.7 313.831 334.58 304.821 335.07" stroke="white" style="stroke:white;stroke-opacity:1;" stroke-width="1.16" stroke-linecap="round" stroke-linejoin="round"/>
<path d="M18.0391 240.15C48.6491 231.46 113.069 214.28 148.629 212.99C196.389 211.25 277.149 245.99 327.519 252.07C377.889 258.15 411.749 256.41 411.749 256.41" stroke="#2B3646" style="stroke:#2B3646;stroke:color(display-p3 0.1684 0.2133 0.2750);stroke-opacity:1;" stroke-width="1.16" stroke-linecap="round" stroke-linejoin="round"/>
<path d="M1 245.13C1 245.13 3.65 244.32 8.28 242.97" stroke="#2B3646" style="stroke:#2B3646;stroke:color(display-p3 0.1684 0.2133 0.2750);stroke-opacity:1;" stroke-width="1.16" stroke-linecap="round" stroke-linejoin="round"/>
<path d="M398.141 191C385.811 188.3 366.331 185.18 344.371 185.91C307.011 187.16 266.621 192.11 216.611 198.55C166.591 204.99 95.441 169.39 47.041 182.6C-1.349 195.81 2.301 199.79 2.301 199.79" stroke="#2B3646" style="stroke:#2B3646;stroke:color(display-p3 0.1684 0.2133 0.2750);stroke-opacity:1;" stroke-width="1.16" stroke-linecap="round" stroke-linejoin="round"/>
<path d="M411.909 194.58C411.909 194.58 410.019 193.96 406.609 193.05" stroke="#2B3646" style="stroke:#2B3646;stroke:color(display-p3 0.1684 0.2133 0.2750);stroke-opacity:1;" stroke-width="1.16" stroke-linecap="round" stroke-linejoin="round"/>
<path d="M322.282 102.75C321.202 98.3499 317.242 95.0799 312.512 95.0799C307.782 95.0799 303.822 98.3499 302.742 102.75H322.282Z" stroke="#2B3646" style="stroke:#2B3646;stroke:color(display-p3 0.1684 0.2133 0.2750);stroke-opacity:1;" stroke-width="1.16" stroke-linecap="round" stroke-linejoin="round"/>
<path d="M421.024 102.75C419.824 97.6999 415.574 93.8399 410.324 93.2499C410.644 91.5099 410.824 89.7199 410.824 87.8899C410.824 71.7299 397.724 58.6399 381.574 58.6399C367.174 58.6399 355.214 69.0499 352.784 82.7499C349.614 80.2699 345.634 78.7799 341.294 78.7799C330.964 78.7799 322.594 87.1499 322.594 97.4799C322.594 99.3099 322.874 101.08 323.364 102.76H421.034L421.024 102.75Z" stroke="#2B3646" style="stroke:#2B3646;stroke:color(display-p3 0.1684 0.2133 0.2750);stroke-opacity:1;" stroke-width="1.16" stroke-linecap="round" stroke-linejoin="round"/>
<path d="M148.361 126.21C147.811 123.98 145.801 122.32 143.401 122.32C141.001 122.32 138.991 123.98 138.441 126.21H148.361Z" stroke="#2B3646" style="stroke:#2B3646;stroke:color(display-p3 0.1684 0.2133 0.2750);stroke-opacity:1;" stroke-width="1.16" stroke-linecap="round" stroke-linejoin="round"/>
<path d="M198.49 126.21C197.88 123.65 195.72 121.69 193.06 121.39C193.22 120.51 193.31 119.6 193.31 118.67C193.31 110.47 186.66 103.82 178.46 103.82C171.15 103.82 165.08 109.1 163.84 116.06C162.23 114.8 160.21 114.05 158.01 114.05C152.77 114.05 148.52 118.3 148.52 123.54C148.52 124.47 148.66 125.37 148.91 126.22H198.49V126.21Z" stroke="#2B3646" style="stroke:#2B3646;stroke:color(display-p3 0.1684 0.2133 0.2750);stroke-opacity:1;" stroke-width="1.16" stroke-linecap="round" stroke-linejoin="round"/>
<path d="M193.44 141.91C193.09 140.5 191.83 139.45 190.31 139.45C188.79 139.45 187.52 140.5 187.18 141.91H193.44Z" stroke="#2B3646" style="stroke:#2B3646;stroke:color(display-p3 0.1684 0.2133 0.2750);stroke-opacity:1;" stroke-width="1.16" stroke-linecap="round" stroke-linejoin="round"/>
<path d="M225.081 141.91C224.701 140.29 223.331 139.06 221.651 138.86C221.751 138.3 221.811 137.73 221.811 137.14C221.811 131.96 217.611 127.77 212.441 127.77C207.831 127.77 203.991 131.1 203.221 135.49C202.201 134.7 200.931 134.22 199.541 134.22C196.231 134.22 193.551 136.9 193.551 140.21C193.551 140.8 193.641 141.36 193.801 141.9H225.091L225.081 141.91Z" stroke="#2B3646" style="stroke:#2B3646;stroke:color(display-p3 0.1684 0.2133 0.2750);stroke-opacity:1;" stroke-width="1.16" stroke-linecap="round" stroke-linejoin="round"/>
<path d="M126.091 253.91C125.771 253.91 125.451 253.83 125.151 253.65C124.261 253.12 123.951 251.96 124.471 251.05C124.951 250.22 245.161 119.13 300.161 71.0498C300.551 70.7098 301.141 70.7498 301.481 71.1498C301.821 71.5498 301.771 72.1498 301.381 72.4898C246.611 120.36 128.181 252.13 127.701 252.96C127.351 253.57 126.731 253.91 126.081 253.91H126.091Z" fill="#2B3646" style="fill:#2B3646;fill:color(display-p3 0.1684 0.2133 0.2750);fill-opacity:1;"/>
<path d="M132.722 227.81C132.722 227.81 138.682 221.45 142.262 221.45C145.842 221.45 152.592 227.41 152.202 230.59C151.802 233.77 145.842 230.99 145.842 230.99C145.842 230.99 140.282 238.54 134.712 237.35C129.152 236.16 132.722 227.81 132.722 227.81Z" fill="#FFAA29" stroke="#2B3646" style="fill:#FFAA29;fill:color(display-p3 1.0000 0.6650 0.1625);fill-opacity:1;stroke:#2B3646;stroke:color(display-p3 0.1684 0.2133 0.2750);stroke-opacity:1;" stroke-width="1.16" stroke-linecap="round" stroke-linejoin="round"/>
<path d="M145.841 230.99C145.841 230.99 149.491 233.51 149.811 235.29C150.131 237.07 145.761 242.09 140.911 243.22C136.051 244.35 133.461 241.6 134.921 239.01C136.381 236.42 142.191 231.21 145.841 230.98V230.99Z" fill="#FFAA29" stroke="#2B3646" style="fill:#FFAA29;fill:color(display-p3 1.0000 0.6650 0.1625);fill-opacity:1;stroke:#2B3646;stroke:color(display-p3 0.1684 0.2133 0.2750);stroke-opacity:1;" stroke-width="1.16" stroke-linecap="round" stroke-linejoin="round"/>
<path d="M295.611 207.96V76.4198C295.611 76.4198 292.961 85.9398 292.961 86.6298" stroke="#2B3646" style="stroke:#2B3646;stroke:color(display-p3 0.1684 0.2133 0.2750);stroke-opacity:1;" stroke-width="1.16" stroke-linecap="round" stroke-linejoin="round"/>
<path d="M330.46 214.89H269.59C258.544 214.89 249.59 223.844 249.59 234.89V275.71C249.59 286.756 258.544 295.71 269.59 295.71H330.46C341.506 295.71 350.46 286.756 350.46 275.71V234.89C350.46 223.844 341.506 214.89 330.46 214.89Z" fill="#FFAA29" style="fill:#FFAA29;fill:color(display-p3 1.0000 0.6650 0.1625);fill-opacity:1;"/>
<path d="M297.043 214.55V209.93C297.043 209.29 296.523 208.77 295.883 208.77C295.243 208.77 294.723 209.29 294.723 209.93V214.55H297.043Z" fill="#2B3646" style="fill:#2B3646;fill:color(display-p3 0.1684 0.2133 0.2750);fill-opacity:1;"/>
<path d="M306.332 203.29L306.312 203.52C306.112 203.18 305.752 202.93 305.322 202.93C304.682 202.93 304.162 203.45 304.162 204.09V216.45C304.162 218.42 302.562 220.01 300.602 220.01C300.092 220.01 299.622 219.9 299.182 219.71C298.872 220.16 298.562 221.02 299.482 222.22C299.842 222.29 300.222 222.33 300.602 222.33C303.842 222.33 306.482 219.69 306.482 216.45V210.72H309.142L306.332 203.28V203.29Z" fill="#2B3646" style="fill:#2B3646;fill:color(display-p3 0.1684 0.2133 0.2750);fill-opacity:1;"/>
<path d="M295.702 75.1798C295.702 75.1798 297.762 67.8598 295.932 68.5398C294.102 69.2298 295.702 75.1798 295.702 75.1798Z" stroke="#2B3646" style="stroke:#2B3646;stroke:color(display-p3 0.1684 0.2133 0.2750);stroke-opacity:1;" stroke-width="1.16" stroke-linecap="round" stroke-linejoin="round"/>
<path d="M295.7 75.1798C295.7 75.1798 287.92 72.4298 288.61 74.9498C289.3 77.4698 295.7 75.1798 295.7 75.1798Z" stroke="#2B3646" style="stroke:#2B3646;stroke:color(display-p3 0.1684 0.2133 0.2750);stroke-opacity:1;" stroke-width="1.16" stroke-linecap="round" stroke-linejoin="round"/>
<path d="M127.973 139C127.973 139 118.373 133.62 99.5529 136.31C80.7329 139 77.1429 154.52 80.2129 170.65C83.2829 186.78 101.083 200.44 103.773 199.29C106.463 198.14 103.003 162.04 109.153 155.12C115.293 148.21 135.273 149.36 136.423 143.98C137.573 138.6 127.973 138.99 127.973 138.99V139Z" fill="#2B3646" stroke="#2B3646" style="fill:#2B3646;fill:color(display-p3 0.1684 0.2133 0.2750);fill-opacity:1;stroke:#2B3646;stroke:color(display-p3 0.1684 0.2133 0.2750);stroke-opacity:1;" stroke-width="1.16" stroke-linecap="round" stroke-linejoin="round"/>
<path d="M94.5234 148.58L96.4834 161.29C96.4834 161.29 84.4234 194.2 86.3834 198.76C88.3334 203.32 106.583 204.95 106.583 204.95C106.583 204.95 136.233 208.53 145.033 204.95C153.833 201.37 149.273 190.94 148.293 188.01C147.313 185.08 141.773 161.62 141.773 161.62C141.773 161.62 143.733 156.08 143.733 153.15C143.733 150.22 143.403 142.07 142.103 140.12C140.803 138.17 117.993 135.88 107.893 137.51C97.7934 139.14 93.2334 141.75 94.5334 148.59L94.5234 148.58Z" fill="#757575" stroke="#2B3646" style="fill:#757575;fill:color(display-p3 0.4588 0.4588 0.4588);fill-opacity:1;stroke:#2B3646;stroke:color(display-p3 0.1684 0.2133 0.2750);stroke-opacity:1;" stroke-width="1.16" stroke-linecap="round" stroke-linejoin="round"/>
<path d="M99.7344 163.24C99.7344 163.24 99.4044 191.59 101.034 197.13C102.664 202.67 109.184 209.19 122.864 207.56C136.554 205.93 137.854 192.9 137.854 192.9L136.874 162.6L99.7244 163.25L99.7344 163.24Z" fill="white" stroke="#2B3646" style="fill:white;fill-opacity:1;stroke:#2B3646;stroke:color(display-p3 0.1684 0.2133 0.2750);stroke-opacity:1;" stroke-width="1.16" stroke-linecap="round" stroke-linejoin="round"/>
<path d="M141.43 349C141.43 349 146.55 345.93 149.39 344.72C149.69 344.59 149.97 344.48 150.21 344.4C152.72 343.56 159.82 343.98 166.51 339.8C173.2 335.62 169.85 330.6 164.84 329.35C159.83 328.1 154.39 326.42 154.39 326.42L153.14 306.77C153.14 306.77 138.09 310.95 133.08 313.04C128.06 315.13 130.99 344.81 131.41 347.32C131.83 349.83 131.83 351.5 141.44 348.99L141.43 349Z" fill="#2B3646" stroke="#2B3646" style="fill:#2B3646;fill:color(display-p3 0.1684 0.2133 0.2750);fill-opacity:1;stroke:#2B3646;stroke:color(display-p3 0.1684 0.2133 0.2750);stroke-opacity:1;" stroke-width="1.16" stroke-linecap="round" stroke-linejoin="round"/>
<path d="M158.15 339.8C149.37 341.47 149.37 343.14 139.76 344.82C135.68 345.53 132.96 345.63 131.18 345.52C131.28 346.41 131.35 347.04 131.4 347.33C131.82 349.84 131.82 351.51 141.43 349C141.43 349 146.55 345.93 149.39 344.72C149.69 344.59 149.97 344.48 150.21 344.4C152.72 343.56 159.82 343.98 166.51 339.8C168.65 338.46 169.76 337.04 170.11 335.68C167 337.18 162.69 338.94 158.15 339.8Z" fill="white" stroke="#2B3646" style="fill:white;fill-opacity:1;stroke:#2B3646;stroke:color(display-p3 0.1684 0.2133 0.2750);stroke-opacity:1;" stroke-width="1.16" stroke-linecap="round" stroke-linejoin="round"/>
<path d="M161.639 329.09C161.639 329.09 161.309 351.9 160.659 356.79C160.009 361.68 160.989 367.87 168.479 367.87C175.969 367.87 190.639 362.98 195.849 362C201.059 361.02 209.539 358.74 213.119 350.6C216.699 342.45 194.869 343.43 194.869 343.43L196.169 326.81C196.169 326.81 173.689 331.37 161.629 329.09H161.639Z" fill="#2B3646" stroke="#2B3646" style="fill:#2B3646;fill:color(display-p3 0.1684 0.2133 0.2750);fill-opacity:1;stroke:#2B3646;stroke:color(display-p3 0.1684 0.2133 0.2750);stroke-opacity:1;" stroke-width="1.16" stroke-linecap="round" stroke-linejoin="round"/>
<path d="M213.119 350.6C213.549 349.62 213.609 348.78 213.389 348.05C211.759 350.28 209.019 353.02 204.649 354.84C196.829 358.1 182.169 361.68 171.089 363.31C166.029 364.05 162.819 363.23 160.809 362.12C161.529 365.28 163.639 367.87 168.489 367.87C175.979 367.87 190.649 362.98 195.859 362C201.069 361.02 209.549 358.74 213.129 350.6H213.119Z" fill="white" stroke="#2B3646" style="fill:white;fill-opacity:1;stroke:#2B3646;stroke:color(display-p3 0.1684 0.2133 0.2750);stroke-opacity:1;" stroke-width="1.16" stroke-linecap="round" stroke-linejoin="round"/>
<path d="M194.879 343.43C194.879 343.43 196.509 348.97 191.949 352.55" stroke="white" style="stroke:white;stroke-opacity:1;" stroke-width="1.16" stroke-linecap="round" stroke-linejoin="round"/>
<path d="M159.36 317.03C159.36 317.03 158.86 326.94 159.41 328.93C161.5 336.45 162.16 334.69 177.8 334.36C193.44 334.03 199.76 327.78 201.39 323.87C203.02 319.96 201.39 311.49 200.74 308.56C200.09 305.63 194.87 304.65 192.92 304.98C190.97 305.31 160.34 313.78 159.36 317.04V317.03Z" fill="#757575" stroke="#2B3646" style="fill:#757575;fill:color(display-p3 0.4588 0.4588 0.4588);fill-opacity:1;stroke:#2B3646;stroke:color(display-p3 0.1684 0.2133 0.2750);stroke-opacity:1;" stroke-width="1.16" stroke-linecap="round" stroke-linejoin="round"/>
<path d="M51.832 341.8V363.7C51.832 365.46 52.812 367.07 54.372 367.88L89.572 386.06C90.842 386.72 92.342 386.76 93.652 386.17L145.502 366.41C147.192 365.65 148.282 363.97 148.282 362.12V335.62L88.982 353.54L51.832 341.81V341.8Z" fill="#FFAA29" style="fill:#FFAA29;fill:color(display-p3 1.0000 0.6650 0.1625);fill-opacity:1;"/>
<mask id="mask0_138_164" style="mask-type:luminance" maskUnits="userSpaceOnUse" x="51" y="335" width="98" height="52">
<path d="M51.832 341.8V363.7C51.832 365.46 52.812 367.07 54.372 367.88L89.572 386.06C90.842 386.72 92.342 386.76 93.652 386.17L145.502 366.41C147.192 365.65 148.282 363.97 148.282 362.12V335.62L88.982 353.54L51.832 341.81V341.8Z" fill="white" style="fill:white;fill-opacity:1;"/>
</mask>
<g mask="url(#mask0_138_164)">
<path opacity="0.18" d="M91.592 352.74L88.982 353.53L51.832 341.8V363.7C51.832 365.46 52.812 367.07 54.372 367.88L89.572 386.06C90.202 386.39 90.892 386.56 91.582 386.58V352.75L91.592 352.74Z" fill="black" style="fill:black;fill-opacity:1;"/>
</g>
<path d="M51.832 341.8V363.7C51.832 365.46 52.812 367.07 54.372 367.88L89.572 386.06C90.842 386.72 92.342 386.76 93.652 386.17L145.502 366.41C147.192 365.65 148.282 363.97 148.282 362.12V335.62L88.982 353.54L51.832 341.81V341.8Z" stroke="#2B3646" style="stroke:#2B3646;stroke:color(display-p3 0.1684 0.2133 0.2750);stroke-opacity:1;" stroke-width="1.16" stroke-linecap="round" stroke-linejoin="round"/>
<path d="M106.012 304.83L49.1316 323.06C48.2216 323.35 47.6016 324.2 47.6016 325.16V341.38C47.6016 342.23 48.0916 343.01 48.8616 343.37L88.4716 362.24C89.0116 362.5 89.6316 362.52 90.1916 362.32L149.792 340.05C150.652 339.73 151.222 338.9 151.222 337.98L151.332 322.77C151.332 321.73 150.612 320.84 149.602 320.61L107.172 304.77C106.792 304.69 106.392 304.71 106.022 304.82L106.012 304.83Z" fill="white" style="fill:white;fill-opacity:1;"/>
<mask id="mask1_138_164" style="mask-type:luminance" maskUnits="userSpaceOnUse" x="47" y="304" width="105" height="59">
<path d="M106.012 304.83L49.1316 323.06C48.2216 323.35 47.6016 324.2 47.6016 325.16V341.38C47.6016 342.23 48.0916 343.01 48.8616 343.37L88.4716 362.24C89.0116 362.5 89.6316 362.52 90.1916 362.32L149.792 340.05C150.652 339.73 151.222 338.9 151.222 337.98L151.332 322.77C151.332 321.73 150.612 320.84 149.602 320.61L107.172 304.77C106.792 304.69 106.392 304.71 106.022 304.82L106.012 304.83Z" fill="white" style="fill:white;fill-opacity:1;"/>
</mask>
<g mask="url(#mask1_138_164)">
<path d="M88.4414 362.24H88.4614C89.0014 362.51 89.6214 362.53 90.1814 362.32L149.781 340.05C150.641 339.73 151.211 338.9 151.211 337.98L151.321 322.77C151.321 322.24 151.131 321.74 150.801 321.35L89.3014 344.07L88.4414 362.23V362.24Z" fill="#FFAA29" style="fill:#FFAA29;fill:color(display-p3 1.0000 0.6650 0.1625);fill-opacity:1;"/>
<path opacity="0.5" d="M88.4414 362.24H88.4614C89.0014 362.51 89.6214 362.53 90.1814 362.32L149.781 340.05C150.641 339.73 151.211 338.9 151.211 337.98L151.321 322.77C151.321 322.24 151.131 321.74 150.801 321.35L89.3014 344.07L88.4414 362.23V362.24Z" fill="white" style="fill:white;fill-opacity:1;"/>
<path d="M47.6016 325.16V341.38C47.6016 342.23 48.0916 343.01 48.8616 343.37L88.4716 362.24C88.7416 362.37 89.0216 362.44 89.3116 362.45V344.07L47.6616 324.78C47.6416 324.9 47.6016 325.02 47.6016 325.15V325.16Z" fill="#FFAA29" style="fill:#FFAA29;fill:color(display-p3 1.0000 0.6650 0.1625);fill-opacity:1;"/>
</g>
<path d="M106.012 304.83L49.1316 323.06C48.2216 323.35 47.6016 324.2 47.6016 325.16V341.38C47.6016 342.23 48.0916 343.01 48.8616 343.37L88.4716 362.24C89.0116 362.5 89.6316 362.52 90.1916 362.32L149.792 340.05C150.652 339.73 151.222 338.9 151.222 337.98L151.332 322.77C151.332 321.73 150.612 320.84 149.602 320.61L107.172 304.77C106.792 304.69 106.392 304.71 106.022 304.82L106.012 304.83Z" stroke="#2B3646" style="stroke:#2B3646;stroke:color(display-p3 0.1684 0.2133 0.2750);stroke-opacity:1;" stroke-width="1.16" stroke-linecap="round" stroke-linejoin="round"/>
<path d="M184.123 275C184.123 275 191.613 278.58 195.523 285.75C199.433 292.92 196.503 306.6 194.223 310.84C191.943 315.08 176.623 317.03 171.413 317.03C166.203 317.03 165.223 316.38 165.223 316.38C165.223 316.38 148.603 319.64 138.183 321.59C127.753 323.55 130.363 299.11 133.623 288.03C136.883 276.95 155.133 271.41 162.623 271.41C170.113 271.41 184.133 274.99 184.133 274.99L184.123 275Z" fill="#2B3646" stroke="#2B3646" style="fill:#2B3646;fill:color(display-p3 0.1684 0.2133 0.2750);fill-opacity:1;stroke:#2B3646;stroke:color(display-p3 0.1684 0.2133 0.2750);stroke-opacity:1;" stroke-width="1.16" stroke-linecap="round" stroke-linejoin="round"/>
<path d="M165.234 316.38C165.234 316.38 179.244 311.49 185.114 299.11" stroke="white" style="stroke:white;stroke-opacity:1;" stroke-width="1.16" stroke-linecap="round" stroke-linejoin="round"/>
<path d="M178.582 309.21C178.582 309.21 184.772 306.93 190.642 301.06" stroke="white" style="stroke:white;stroke-opacity:1;" stroke-width="1.16" stroke-linecap="round" stroke-linejoin="round"/>
<path d="M145.672 285.75C145.672 285.75 149.582 306.28 147.622 314.75C145.672 323.22 134.262 324.53 131.652 323.55C129.042 322.57 130.352 302.37 130.352 292.27C130.352 282.17 140.452 282.82 145.662 285.75H145.672Z" fill="#757575" stroke="#2B3646" style="fill:#757575;fill:color(display-p3 0.4588 0.4588 0.4588);fill-opacity:1;stroke:#2B3646;stroke:color(display-p3 0.1684 0.2133 0.2750);stroke-opacity:1;" stroke-width="1.16" stroke-linecap="round" stroke-linejoin="round"/>
<path d="M62.5912 231.01C62.5912 231.01 60.3112 244.37 61.9412 250.89C63.5712 257.41 66.5012 260.99 66.5012 260.99C66.5012 260.99 58.3512 273.05 59.9812 283.15C61.6112 293.25 65.8512 294.55 65.8512 294.55C65.8512 294.55 62.2712 313.12 68.7812 319.64C75.3012 326.16 89.6312 333.33 105.601 330.39C121.571 327.46 132.321 326.81 135.581 321.27C138.841 315.73 136.881 291.29 136.881 291.29C136.881 291.29 136.231 264.25 135.581 247.63C134.931 231.01 132.651 217.65 124.831 211.14C117.011 204.62 82.4712 214.72 72.0412 221.57C61.6112 228.41 62.5912 231.02 62.5912 231.02V231.01Z" fill="#FFAA29" style="fill:#FFAA29;fill:color(display-p3 1.0000 0.6650 0.1625);fill-opacity:1;"/>
<mask id="mask2_138_164" style="mask-type:luminance" maskUnits="userSpaceOnUse" x="59" y="209" width="79" height="123">
<path d="M62.5912 231.01C62.5912 231.01 60.3112 244.37 61.9412 250.89C63.5712 257.41 66.5012 260.99 66.5012 260.99C66.5012 260.99 58.3512 273.05 59.9812 283.15C61.6112 293.25 65.8512 294.55 65.8512 294.55C65.8512 294.55 62.2712 313.12 68.7812 319.64C75.3012 326.16 89.6312 333.33 105.601 330.39C121.571 327.46 132.321 326.81 135.581 321.27C138.841 315.73 136.881 291.29 136.881 291.29C136.881 291.29 136.231 264.25 135.581 247.63C134.931 231.01 132.651 217.65 124.831 211.14C117.011 204.62 82.4712 214.72 72.0412 221.57C61.6112 228.41 62.5912 231.02 62.5912 231.02V231.01Z" fill="white" style="fill:white;fill-opacity:1;"/>
</mask>
<g mask="url(#mask2_138_164)">
<path opacity="0.3" d="M64.9115 231.01C64.9115 231.01 62.6315 244.37 64.2615 250.89C65.8915 257.41 68.8215 260.99 68.8215 260.99C68.8215 260.99 60.6715 273.05 62.3015 283.15C63.9315 293.25 68.1715 294.55 68.1715 294.55C68.1715 294.55 64.5915 313.12 71.1015 319.64C77.6215 326.16 91.9515 333.33 107.921 330.39C123.891 327.46 134.641 326.81 137.901 321.27C141.161 315.73 139.201 291.29 139.201 291.29C139.201 291.29 138.551 264.25 137.901 247.63C137.251 231.01 134.971 217.65 127.151 211.14C119.331 204.62 84.7915 214.72 74.3615 221.57C63.9315 228.41 64.9115 231.02 64.9115 231.02V231.01Z" fill="black" style="fill:black;fill-opacity:1;"/>
</g>
<path d="M62.5912 231.01C62.5912 231.01 60.3112 244.37 61.9412 250.89C63.5712 257.41 66.5012 260.99 66.5012 260.99C66.5012 260.99 58.3512 273.05 59.9812 283.15C61.6112 293.25 65.8512 294.55 65.8512 294.55C65.8512 294.55 62.2712 313.12 68.7812 319.64C75.3012 326.16 89.6312 333.33 105.601 330.39C121.571 327.46 132.321 326.81 135.581 321.27C138.841 315.73 136.881 291.29 136.881 291.29C136.881 291.29 136.231 264.25 135.581 247.63C134.931 231.01 132.651 217.65 124.831 211.14C117.011 204.62 82.4712 214.72 72.0412 221.57C61.6112 228.41 62.5912 231.02 62.5912 231.02V231.01Z" stroke="#2B3646" style="stroke:#2B3646;stroke:color(display-p3 0.1684 0.2133 0.2750);stroke-opacity:1;" stroke-width="1.16" stroke-linecap="round" stroke-linejoin="round"/>
<path d="M66.5 260.99C66.5 260.99 81.16 272.39 101.36 265.88" stroke="#2B3646" style="stroke:#2B3646;stroke:color(display-p3 0.1684 0.2133 0.2750);stroke-opacity:1;" stroke-width="1.16" stroke-linecap="round" stroke-linejoin="round"/>
<path d="M65.8398 294.55C65.8398 294.55 82.4598 310.84 109.83 295.2" stroke="#2B3646" style="stroke:#2B3646;stroke:color(display-p3 0.1684 0.2133 0.2750);stroke-opacity:1;" stroke-width="1.16" stroke-linecap="round" stroke-linejoin="round"/>
<path d="M130.692 215.05C130.692 215.05 124.502 205.6 116.032 200.39C107.562 195.18 85.7316 191.27 76.9316 189.64C68.1316 188.01 58.6816 188.66 56.0816 198.44C53.4716 208.22 53.8016 224.51 56.4116 231.68C59.0216 238.85 69.7716 243.08 78.2416 238.2C86.7116 233.31 110.172 214.41 118.322 213.44C126.472 212.46 130.052 218.65 130.702 215.07L130.692 215.05Z" fill="#757575" style="fill:#757575;fill:color(display-p3 0.4588 0.4588 0.4588);fill-opacity:1;"/>
<mask id="mask3_138_164" style="mask-type:luminance" maskUnits="userSpaceOnUse" x="54" y="188" width="77" height="53">
<path d="M130.692 215.05C130.692 215.05 124.502 205.6 116.032 200.39C107.562 195.18 85.7316 191.27 76.9316 189.64C68.1316 188.01 58.6816 188.66 56.0816 198.44C53.4716 208.22 53.8016 224.51 56.4116 231.68C59.0216 238.85 69.7716 243.08 78.2416 238.2C86.7116 233.31 110.172 214.41 118.322 213.44C126.472 212.46 130.052 218.65 130.702 215.07L130.692 215.05Z" fill="white" style="fill:white;fill-opacity:1;"/>
</mask>
<g mask="url(#mask3_138_164)">
<path opacity="0.3" d="M112.602 213.21C117.572 211.14 105.152 214.87 104.322 213.62C103.492 212.38 113.022 206.17 115.092 205.34C117.162 204.51 103.082 207.41 103.492 205.34C103.902 203.27 117.162 202.86 108.052 200.78C98.9415 198.71 69.1216 193.33 63.3316 191.26C62.7516 191.05 62.3516 190.84 62.0816 190.63C59.3016 192.05 57.1316 194.49 56.0816 198.43C53.4716 208.21 53.8016 224.5 56.4116 231.67C58.6816 237.91 67.1216 241.92 74.8516 239.63C78.4316 236.73 81.7516 232.89 87.3616 229.36C98.5416 222.32 107.652 215.28 112.622 213.21H112.602Z" fill="black" style="fill:black;fill-opacity:1;"/>
</g>
<path d="M130.692 215.05C130.692 215.05 124.502 205.6 116.032 200.39C107.562 195.18 85.7316 191.27 76.9316 189.64C68.1316 188.01 58.6816 188.66 56.0816 198.44C53.4716 208.22 53.8016 224.51 56.4116 231.68C59.0216 238.85 69.7716 243.08 78.2416 238.2C86.7116 233.31 110.172 214.41 118.322 213.44C126.472 212.46 130.052 218.65 130.702 215.07L130.692 215.05Z" stroke="#2B3646" style="stroke:#2B3646;stroke:color(display-p3 0.1684 0.2133 0.2750);stroke-opacity:1;" stroke-width="1.16" stroke-linecap="round" stroke-linejoin="round"/>
<path d="M165.882 259.36C165.882 259.36 173.372 260.34 178.262 262.29C183.152 264.24 186.412 276.3 184.452 277.93C182.502 279.56 178.582 277.6 178.582 277.6C178.582 277.6 173.042 279.56 169.132 279.88C165.222 280.21 160.982 261.63 165.872 259.35L165.882 259.36Z" fill="#FFAA29" stroke="#2B3646" style="fill:#FFAA29;fill:color(display-p3 1.0000 0.6650 0.1625);fill-opacity:1;stroke:#2B3646;stroke:color(display-p3 0.1684 0.2133 0.2750);stroke-opacity:1;" stroke-width="1.16" stroke-linecap="round" stroke-linejoin="round"/>
<path d="M141.114 258.38C141.114 258.38 142.414 258.38 149.584 255.12C156.754 251.86 162.614 251.86 167.184 259.03C171.744 266.2 173.704 275 171.094 280.21C168.484 285.42 158.714 289.01 153.494 289.01C148.274 289.01 147.624 282.17 147.624 282.17C147.624 282.17 146.974 271.42 143.714 267.51C140.454 263.6 139.804 259.36 141.104 258.39L141.114 258.38Z" fill="#757575" stroke="#2B3646" style="fill:#757575;fill:color(display-p3 0.4588 0.4588 0.4588);fill-opacity:1;stroke:#2B3646;stroke:color(display-p3 0.1684 0.2133 0.2750);stroke-opacity:1;" stroke-width="1.16" stroke-linecap="round" stroke-linejoin="round"/>
<path d="M117.003 215.05C124.173 212.44 133.293 214.07 136.553 223.2C139.813 232.32 142.743 259.04 142.743 259.04C142.743 259.04 150.893 260.02 154.143 263.6C157.403 267.18 159.033 276.31 158.383 280.87C157.733 285.43 146.323 293.9 133.293 294.23C120.263 294.56 110.813 288.36 106.253 271.75C101.693 255.13 103.503 229.78 103.503 229.78C103.503 229.78 105.163 222.33 107.643 220.67" fill="#FFAA29" style="fill:#FFAA29;fill:color(display-p3 1.0000 0.6650 0.1625);fill-opacity:1;"/>
<mask id="mask4_138_164" style="mask-type:luminance" maskUnits="userSpaceOnUse" x="103" y="213" width="56" height="82">
<path d="M117.003 215.05C124.173 212.44 133.293 214.07 136.553 223.2C139.813 232.32 142.743 259.04 142.743 259.04C142.743 259.04 150.893 260.02 154.143 263.6C157.403 267.18 159.033 276.31 158.383 280.87C157.733 285.43 146.323 293.9 133.293 294.23C120.263 294.56 110.813 288.36 106.253 271.75C101.693 255.13 103.503 229.78 103.503 229.78C103.503 229.78 105.163 222.33 107.643 220.67" fill="white" style="fill:white;fill-opacity:1;"/>
</mask>
<g mask="url(#mask4_138_164)">
<path opacity="0.3" d="M158.385 280.87C159.035 276.31 157.405 267.18 154.145 263.6C154.015 263.46 153.865 263.32 153.715 263.19C153.985 265.04 154.285 267.9 154.425 272.01C155.065 291.14 128.345 287.94 122.955 274.08C120.055 266.62 119.225 233.91 110.535 231.43C105.525 230 103.815 233.93 103.265 237.52C103.095 246.9 103.395 261.36 106.245 271.75C110.805 288.37 120.255 294.56 133.285 294.23C146.315 293.9 157.725 285.43 158.375 280.87H158.385Z" fill="black" style="fill:black;fill-opacity:1;"/>
</g>
<path d="M117.003 215.05C124.173 212.44 133.293 214.07 136.553 223.2C139.813 232.32 142.743 259.04 142.743 259.04C142.743 259.04 150.893 260.02 154.143 263.6C157.403 267.18 159.033 276.31 158.383 280.87C157.733 285.43 146.323 293.9 133.293 294.23C120.263 294.56 110.813 288.36 106.253 271.75C101.693 255.13 103.503 229.78 103.503 229.78C103.503 229.78 105.163 222.33 107.643 220.67" stroke="#2B3646" style="stroke:#2B3646;stroke:color(display-p3 0.1684 0.2133 0.2750);stroke-opacity:1;" stroke-width="1.16" stroke-linecap="round" stroke-linejoin="round"/>
<path d="M142.743 259.04C142.743 259.04 145.283 270.91 132.203 277.45" stroke="#2B3646" style="stroke:#2B3646;stroke:color(display-p3 0.1684 0.2133 0.2750);stroke-opacity:1;" stroke-width="1.16" stroke-linecap="round" stroke-linejoin="round"/>
<path d="M261.594 264.9L274.804 233.66H282.724V264.9H286.154V271.5H282.724V279.89H275.594V271.5H261.594V264.9ZM275.594 264.9V247.53L268.264 264.9H275.594Z" fill="white" style="fill:white;fill-opacity:1;"/>
<path d="M288.875 244.76C288.875 237.36 292.775 233.14 299.905 233.14C307.035 233.14 310.935 237.37 310.935 244.76V268.8C310.935 276.2 307.035 280.42 299.905 280.42C292.775 280.42 288.875 276.19 288.875 268.8V244.76ZM296.135 269.26C296.135 272.56 297.585 273.82 299.895 273.82C302.205 273.82 303.655 272.56 303.655 269.26V244.3C303.655 241 302.205 239.74 299.895 239.74C297.585 239.74 296.135 241 296.135 244.3V269.26Z" fill="white" style="fill:white;fill-opacity:1;"/>
<path d="M313.895 264.9L327.105 233.66H335.025V264.9H338.455V271.5H335.025V279.89H327.895V271.5H313.895V264.9ZM327.895 264.9V247.53L320.565 264.9H327.895Z" fill="white" style="fill:white;fill-opacity:1;"/>
</svg>
