<svg width="40" height="40" viewBox="0 0 40 40" fill="none" xmlns="http://www.w3.org/2000/svg">
<g clip-path="url(#clip0_96_14488)">
<path d="M3.65781 40H36.3422C38.3591 40 40 38.3591 40 36.3422C40 35.3652 39.6195 34.4466 38.9287 33.7557L36.9702 31.7972C37.4154 30.6781 37.6562 29.4305 37.6562 28.2031C37.6562 27.0488 37.4443 25.9428 37.0577 24.9207C37.4507 24.1225 37.6562 23.2427 37.6562 22.3438C37.6562 20.7117 36.9649 19.1415 35.7596 18.0359C35.5044 17.8018 35.3947 17.3921 35.4986 17.0619C35.9896 15.5017 35.8032 13.7963 34.9873 12.3828C34.1784 10.982 32.7662 9.96781 31.1127 9.60023C30.7747 9.52516 30.4748 9.22531 30.3998 8.88734C30.0323 7.23383 29.018 5.82156 27.6172 5.01273C26.2038 4.1968 24.4983 4.01039 22.9383 4.50141C22.6079 4.60547 22.1983 4.49563 21.9642 4.24039C20.8585 3.03508 19.2884 2.34375 17.6562 2.34375C16.7573 2.34375 15.8775 2.5493 15.0793 2.94227C14.0572 2.5557 12.9512 2.34375 11.7969 2.34375C10.5695 2.34375 9.32188 2.58461 8.20281 3.02992L6.24422 1.07133C5.55336 0.380469 4.63484 0 3.65781 0C1.64086 0 0 1.64086 0 3.65781V36.3422C0 38.3591 1.64086 40 3.65781 40ZM28.2031 21.1719C32.1233 21.1719 35.3125 24.3261 35.3125 28.2031C35.3125 28.7853 35.242 29.3716 35.1078 29.9349L26.5409 21.368C27.0793 21.2376 27.6346 21.1719 28.2031 21.1719ZM24.6851 19.5121L20.4879 15.3149C20.9368 14.203 21.1719 13.0025 21.1719 11.7969C25.0489 11.7969 28.2031 14.9511 28.2031 18.8281C26.9975 18.8281 25.797 19.0632 24.6851 19.5121ZM20.237 5.82469C21.0817 6.74547 22.4499 7.11211 23.6419 6.73695C24.591 6.43828 25.5867 6.54672 26.4453 7.04242C27.2668 7.51672 27.8898 8.39648 28.1119 9.39586C28.383 10.6155 29.3846 11.6171 30.6042 11.8881C31.6035 12.1102 32.4833 12.7333 32.9576 13.5546C33.4534 14.4133 33.5618 15.409 33.263 16.3581C32.888 17.55 33.2546 18.9183 34.1754 19.763C34.8265 20.3603 35.2171 21.1499 35.2967 22.0135C34.0586 20.6196 32.4108 19.592 30.5415 19.1186C30.5445 19.0217 30.547 18.9249 30.547 18.8281C30.547 13.6588 26.3413 9.45312 21.172 9.45312C21.0752 9.45312 20.9784 9.45562 20.8815 9.45859C20.408 7.58938 19.3804 5.94148 17.9866 4.70336C18.8501 4.78297 19.6398 5.17359 20.237 5.82469ZM11.7969 4.6875C15.6739 4.6875 18.8281 7.8768 18.8281 11.7969C18.8281 12.3654 18.7624 12.9207 18.632 13.4591L10.0652 4.89219C10.6284 4.75797 11.2148 4.6875 11.7969 4.6875ZM2.34375 3.65781C2.34375 2.9332 2.9332 2.34375 3.65781 2.34375C4.00883 2.34375 4.33883 2.48047 4.58703 2.72867L37.2714 35.413C37.5196 35.6612 37.6562 35.9912 37.6562 36.3422C37.6562 37.0667 37.0668 37.6562 36.3422 37.6562H3.65781C2.9332 37.6562 2.34375 37.0668 2.34375 36.3422V3.65781Z" fill="white"/>
<path d="M14.1406 25.8594H9.375C6.76375 25.8594 4.6875 28.0556 4.6875 30.625C4.6875 33.2097 6.79031 35.3125 9.375 35.3125H30.5469V32.9688H9.375C8.08266 32.9688 7.03125 31.9173 7.03125 30.625C7.03125 29.3122 8.10453 28.2031 9.375 28.2031H14.1406C16.7253 28.2031 18.8281 26.1003 18.8281 23.5156C18.8281 20.9309 16.7253 18.8281 14.1406 18.8281H9.375C8.08266 18.8281 7.03125 17.7767 7.03125 16.4844C7.03125 15.192 8.08266 14.1406 9.375 14.1406H11.7969V11.7969H9.375C6.79031 11.7969 4.6875 13.8997 4.6875 16.4844C4.6875 19.0691 6.79031 21.1719 9.375 21.1719H14.1406C15.433 21.1719 16.4844 22.2233 16.4844 23.5156C16.4844 24.808 15.433 25.8594 14.1406 25.8594Z" fill="white"/>
</g>
<defs>
<clipPath id="clip0_96_14488">
<rect width="40" height="40" fill="white"/>
</clipPath>
</defs>
</svg>
