<svg width="192" height="131" viewBox="0 0 192 131" fill="none" xmlns="http://www.w3.org/2000/svg">
<path d="M47.0539 90.86C38.1072 90.86 30.1139 88.88 23.0739 84.92C16.0339 80.96 10.5339 75.5333 6.57391 68.64C2.61391 61.7467 0.633906 53.8267 0.633906 44.88C0.633906 36.2267 2.61391 28.5267 6.57391 21.78C10.5339 15.0333 16.0339 9.75333 23.0739 5.93999C30.1139 2.12666 38.1072 0.219996 47.0539 0.219996C56.1472 0.219996 64.1406 2.2 71.0339 6.16C77.9272 9.97333 83.2806 15.3267 87.0939 22.22C90.9072 28.9667 92.8139 36.74 92.8139 45.54C92.8139 54.34 90.8339 62.1867 86.8739 69.08C83.0606 75.8267 77.7072 81.18 70.8139 85.14C63.9206 88.9533 56.0006 90.86 47.0539 90.86ZM49.2539 86.68C57.0272 86.68 62.7472 83.2333 66.4139 76.34C70.0806 69.4467 71.9139 60.1333 71.9139 48.4C71.9139 37.9867 70.6672 29.5533 68.1739 23.1C65.6806 16.6467 62.3806 11.9533 58.2739 9.01999C54.3139 5.93999 49.9139 4.39999 45.0739 4.39999C37.4472 4.39999 31.5806 7.92 27.4739 14.96C23.3672 22 21.3139 31.3133 21.3139 42.9C21.3139 51.4067 22.4139 58.96 24.6139 65.56C26.9606 72.16 30.2606 77.3667 34.5139 81.18C38.7672 84.8467 43.6806 86.68 49.2539 86.68ZM106.138 86.24C105.551 86.24 104.964 85.9467 104.378 85.36C103.938 84.7733 104.011 84.1867 104.598 83.6L171.478 0.879994C171.771 0.439995 172.358 0.293328 173.238 0.439993C174.264 0.586662 174.778 1.02666 174.778 1.76V119.02C174.778 120.633 174.191 121.66 173.018 122.1L158.498 129.36C157.178 130.093 156.518 129.653 156.518 128.04V23.98L170.378 13.64L117.358 77.44C116.918 78.0267 116.844 78.4667 117.138 78.76C117.431 78.9067 117.871 78.98 118.458 78.98C126.671 78.98 133.931 78.98 140.238 78.98C146.544 78.8333 152.411 78.76 157.838 78.76C163.264 78.6133 168.618 78.4667 173.898 78.32C179.324 78.0267 185.044 77.8067 191.058 77.66C191.498 77.66 191.718 78.54 191.718 80.3C191.864 81.9133 191.791 83.6 191.498 85.36C191.351 86.9733 191.058 87.78 190.618 87.78C185.044 87.4867 179.324 87.2667 173.458 87.12C167.738 86.8267 161.578 86.68 154.978 86.68C148.524 86.5333 141.264 86.46 133.198 86.46C125.278 86.3133 116.258 86.24 106.138 86.24Z" fill="url(#paint0_linear_96_14579)"/>
<defs>
<linearGradient id="paint0_linear_96_14579" x1="96.5" y1="-130.604" x2="96.5" y2="211.434" gradientUnits="userSpaceOnUse">
<stop offset="0.385" stop-color="white"/>
<stop offset="1" stop-color="white" stop-opacity="0"/>
</linearGradient>
</defs>
</svg>
