<svg width="40" height="40" viewBox="0 0 40 40" fill="none" xmlns="http://www.w3.org/2000/svg">
<g clip-path="url(#clip0_96_14493)">
<path fill-rule="evenodd" clip-rule="evenodd" d="M26.0126 0.020752L31.6995 3.11811L38.0652 1.92961L36.8767 8.29538L39.9742 13.9822L33.5527 14.819L29.1014 19.5223L26.3212 13.6737L20.4727 10.8936L25.1758 6.44213L26.0126 0.020752ZM27.8967 3.71853L27.3945 7.5726L24.5717 10.2443L28.0819 11.9129L29.7506 15.4232L32.4222 12.6003L36.2763 12.0981L34.4173 8.68493L35.1306 4.86423L31.31 5.57755L27.8967 3.71853Z" fill="white"/>
<path fill-rule="evenodd" clip-rule="evenodd" d="M3.31801 35.0193L26.369 11.9683L24.71 10.3093L0 35.0194L4.97705 39.9963L29.687 15.2864L28.028 13.6274L4.97703 36.6783L3.31801 35.0193Z" fill="white"/>
<path fill-rule="evenodd" clip-rule="evenodd" d="M9.34157 19.2066C8.16574 18.0307 6.25935 18.0307 5.08352 19.2066C3.90768 20.3824 3.90768 22.2888 5.08352 23.4646L9.14803 27.5291L7.48904 29.1881L3.42452 25.1236C1.33245 23.0315 1.33245 19.6396 3.42452 17.5476C5.5166 15.4555 8.9085 15.4555 11.0006 17.5476L22.4476 28.9946C23.6235 30.1705 25.5299 30.1705 26.7057 28.9946C27.8815 27.8188 27.8815 25.9124 26.7057 24.7366L26.4568 24.4877L28.1158 22.8287L28.3647 23.0776C30.4568 25.1697 30.4568 28.5616 28.3647 30.6536C26.2726 32.7457 22.8807 32.7457 20.7886 30.6536L9.34157 19.2066Z" fill="white"/>
<path fill-rule="evenodd" clip-rule="evenodd" d="M12.9911 31.3726L15.6178 33.9993L13.9587 35.6583L11.332 33.0315L12.9911 31.3726Z" fill="white"/>
<path fill-rule="evenodd" clip-rule="evenodd" d="M17.2801 38.9762L15.6211 37.3172L17.2801 35.6582L18.9391 37.3172L17.2801 38.9762Z" fill="white"/>
<path fill-rule="evenodd" clip-rule="evenodd" d="M12.4712 7.04197H10.125V4.6958H12.4712V7.04197Z" fill="white"/>
<path fill-rule="evenodd" clip-rule="evenodd" d="M10.1235 4.69578H7.77734V2.34961H10.1235V4.69578Z" fill="white"/>
<path fill-rule="evenodd" clip-rule="evenodd" d="M14.8188 4.69578H12.4727V2.34961H14.8188V4.69578Z" fill="white"/>
<path fill-rule="evenodd" clip-rule="evenodd" d="M12.4712 2.34959H10.125V0.00341797H12.4712V2.34959Z" fill="white"/>
<path fill-rule="evenodd" clip-rule="evenodd" d="M37.6548 32.2241H35.3086V29.8779H37.6548V32.2241Z" fill="white"/>
<path fill-rule="evenodd" clip-rule="evenodd" d="M35.3071 29.8779H32.9609V27.5317H35.3071V29.8779Z" fill="white"/>
<path fill-rule="evenodd" clip-rule="evenodd" d="M39.9985 29.8779H37.6523V27.5317H39.9985V29.8779Z" fill="white"/>
<path fill-rule="evenodd" clip-rule="evenodd" d="M37.6548 27.532H35.3086V25.1858H37.6548V27.532Z" fill="white"/>
</g>
<defs>
<clipPath id="clip0_96_14493">
<rect width="40" height="40" fill="white"/>
</clipPath>
</defs>
</svg>
