<svg width="168" height="91" viewBox="0 0 168 91" fill="none" xmlns="http://www.w3.org/2000/svg">
<path d="M46.9094 90.86C37.9627 90.86 29.9694 88.88 22.9294 84.92C15.8894 80.96 10.3894 75.5333 6.42938 68.64C2.46938 61.7467 0.489375 53.8267 0.489375 44.88C0.489375 36.2267 2.46938 28.5267 6.42938 21.78C10.3894 15.0333 15.8894 9.75333 22.9294 5.93999C29.9694 2.12666 37.9627 0.219996 46.9094 0.219996C56.0027 0.219996 63.996 2.2 70.8894 6.16C77.7827 9.97333 83.136 15.3267 86.9494 22.22C90.7627 28.9667 92.6694 36.74 92.6694 45.54C92.6694 54.34 90.6894 62.1867 86.7294 69.08C82.916 75.8267 77.5627 81.18 70.6694 85.14C63.776 88.9533 55.856 90.86 46.9094 90.86ZM49.1094 86.68C56.8827 86.68 62.6027 83.2333 66.2694 76.34C69.936 69.4467 71.7694 60.1333 71.7694 48.4C71.7694 37.9867 70.5227 29.5533 68.0294 23.1C65.536 16.6467 62.236 11.9533 58.1294 9.01999C54.1694 5.93999 49.7694 4.39999 44.9294 4.39999C37.3027 4.39999 31.436 7.92 27.3294 14.96C23.2227 22 21.1694 31.3133 21.1694 42.9C21.1694 51.4067 22.2694 58.96 24.4694 65.56C26.816 72.16 30.116 77.3667 34.3694 81.18C38.6227 84.8467 43.536 86.68 49.1094 86.68ZM109.073 88C108.633 88 108.413 87.56 108.413 86.68C108.413 85.8 108.633 85.36 109.073 85.36C114.793 85.36 119.046 84.9933 121.833 84.26C124.766 83.5267 126.746 82.06 127.773 79.86C128.946 77.66 129.533 74.4333 129.533 70.18V30.8C129.533 25.52 129.02 21.8533 127.993 19.8C126.966 17.6 124.913 16.72 121.833 17.16C118.9 17.4533 114.426 18.92 108.413 21.56C107.973 21.7067 107.533 21.4133 107.093 20.68C106.8 19.8 106.946 19.2867 107.533 19.14L145.153 1.1C145.74 0.806664 146.253 0.879996 146.693 1.31999C147.133 1.75999 147.353 2.19999 147.353 2.64V70.18C147.353 74.4333 147.793 77.66 148.673 79.86C149.553 82.06 151.386 83.5267 154.173 84.26C157.106 84.9933 161.433 85.36 167.153 85.36C167.593 85.36 167.813 85.8 167.813 86.68C167.813 87.56 167.593 88 167.153 88C163.193 88 158.793 87.9267 153.953 87.78C149.113 87.6333 143.833 87.56 138.113 87.56C132.686 87.56 127.48 87.6333 122.493 87.78C117.506 87.9267 113.033 88 109.073 88Z" fill="url(#paint0_linear_96_14285)"/>
<defs>
<linearGradient id="paint0_linear_96_14285" x1="83" y1="-130.604" x2="83" y2="211.434" gradientUnits="userSpaceOnUse">
<stop offset="0.385" stop-color="white"/>
<stop offset="1" stop-color="white" stop-opacity="0"/>
</linearGradient>
</defs>
</svg>
