<svg width="182" height="94" viewBox="0 0 182 94" fill="none" xmlns="http://www.w3.org/2000/svg">
<path d="M46.4406 93.86C37.494 93.86 29.5006 91.88 22.4606 87.92C15.4206 83.96 9.92063 78.5333 5.96063 71.64C2.00063 64.7467 0.0206252 56.8267 0.0206252 47.88C0.0206252 39.2267 2.00063 31.5267 5.96063 24.78C9.92063 18.0333 15.4206 12.7533 22.4606 8.93999C29.5006 5.12666 37.494 3.22 46.4406 3.22C55.534 3.22 63.5273 5.2 70.4206 9.16C77.314 12.9733 82.6673 18.3267 86.4806 25.22C90.294 31.9667 92.2006 39.74 92.2006 48.54C92.2006 57.34 90.2206 65.1867 86.2606 72.08C82.4473 78.8267 77.094 84.18 70.2006 88.14C63.3073 91.9533 55.3873 93.86 46.4406 93.86ZM48.6406 89.68C56.414 89.68 62.134 86.2333 65.8006 79.34C69.4673 72.4467 71.3006 63.1333 71.3006 51.4C71.3006 40.9867 70.054 32.5533 67.5606 26.1C65.0673 19.6467 61.7673 14.9533 57.6606 12.02C53.7006 8.93999 49.3006 7.39999 44.4606 7.39999C36.834 7.39999 30.9673 10.92 26.8606 17.96C22.754 25 20.7006 34.3133 20.7006 45.9C20.7006 54.4067 21.8006 61.96 24.0006 68.56C26.3473 75.16 29.6473 80.3667 33.9006 84.18C38.154 87.8467 43.0673 89.68 48.6406 89.68ZM106.624 85.94C115.571 78.1667 122.978 71.4933 128.844 65.92C134.858 60.2 139.551 55.2867 142.924 51.18C146.444 47.0733 148.938 43.3333 150.404 39.96C151.871 36.44 152.604 32.9933 152.604 29.62C152.604 24.0467 151.064 19.28 147.984 15.32C145.051 11.36 140.871 9.38 135.444 9.38C129.578 9.38 124.811 11.9467 121.144 17.08C117.478 22.0667 114.178 29.0333 111.244 37.98C111.098 38.2733 110.584 38.3467 109.704 38.2C108.824 38.0533 108.458 37.76 108.604 37.32L117.844 1.24C117.991 0.799996 118.504 0.726664 119.384 1.02C120.264 1.16666 120.558 1.38666 120.264 1.68C119.678 4.32 119.751 6.00666 120.484 6.74C121.364 7.47333 122.318 7.84 123.344 7.84C125.691 7.84 128.698 7.10666 132.364 5.64C136.178 4.02666 141.018 3.22 146.884 3.22C154.804 3.22 160.964 5.2 165.364 9.16C169.911 13.12 172.184 18.18 172.184 24.34C172.184 29.18 170.864 33.8 168.224 38.2C165.584 42.4533 162.138 46.6333 157.884 50.74C153.631 54.7 148.938 58.66 143.804 62.62C138.818 66.4333 133.684 70.32 128.404 74.28C127.964 74.72 127.891 75.0867 128.184 75.38C128.478 75.6733 128.918 75.82 129.504 75.82C138.011 75.82 145.271 75.7467 151.284 75.6C157.298 75.3067 162.138 74.7933 165.804 74.06C169.618 73.3267 172.551 72.1533 174.604 70.54C176.658 68.78 178.051 66.5067 178.784 63.72C178.931 63.1333 179.371 62.9133 180.104 63.06C180.984 63.2067 181.424 63.4267 181.424 63.72L177.244 88.58C177.244 89.1667 177.024 89.7533 176.584 90.34C176.291 90.78 175.851 91 175.264 91C164.998 91 153.924 91 142.044 91C130.164 91 118.798 91 107.944 91C107.358 91 106.844 90.34 106.404 89.02C105.964 87.5533 106.038 86.5267 106.624 85.94Z" fill="url(#paint0_linear_96_14287)"/>
<defs>
<linearGradient id="paint0_linear_96_14287" x1="90" y1="-127.604" x2="90" y2="214.434" gradientUnits="userSpaceOnUse">
<stop offset="0.385" stop-color="white"/>
<stop offset="1" stop-color="white" stop-opacity="0"/>
</linearGradient>
</defs>
</svg>
