<svg width="40" height="40" viewBox="0 0 40 40" fill="none" xmlns="http://www.w3.org/2000/svg">
<g clip-path="url(#clip0_96_14537)">
<path fill-rule="evenodd" clip-rule="evenodd" d="M29.2046 27.6211C27.7956 26.5192 25.9131 26.235 24.2429 26.8726C23.4152 27.1886 22.5182 27.5009 21.7084 27.7157C21.3036 27.823 20.9008 27.9113 20.527 27.9612C20.1696 28.0089 19.7605 28.0329 19.3762 27.9603L13.2976 26.8128C12.5864 26.6781 11.8962 27.1306 11.7361 27.8364C11.622 28.3396 11.8061 28.8374 12.1674 29.1507L12.2431 29.2117C12.4116 29.3377 12.6125 29.4259 12.8357 29.4615L12.859 29.4652L20.2926 30.9569L19.8287 33.2687L12.4391 31.7859C11.825 31.6838 11.2727 31.4364 10.8106 31.0855L10.8085 31.0839C10.7535 31.0421 10.6998 30.9988 10.6474 30.9541L6.67557 27.7543C5.58928 26.8791 4.22989 26.99 3.24138 28.0628L14.168 37.6147L37.6422 37.6229V31.2029L33.8018 31.2165L29.2046 27.6211ZM10.0657 27.4575L9.51749 27.0159C10.0763 25.2451 11.8805 24.1445 13.7365 24.4961L13.7358 24.4959L13.5171 25.6544L13.7365 24.4961L19.8136 25.6433C19.8134 25.6433 19.8224 25.6449 19.8424 25.6464C19.8623 25.6478 19.8899 25.6487 19.9259 25.6482C19.9993 25.6471 20.095 25.64 20.215 25.624C20.4569 25.5917 20.7563 25.5287 21.104 25.4365C21.7993 25.2521 22.6091 24.9723 23.402 24.6697C25.8452 23.7371 28.5977 24.1532 30.6571 25.7637L34.6107 28.8557L40.0002 28.8367V39.9817L13.2823 39.9723L0 28.3612L1.1951 26.8329C2.91983 24.6276 5.86971 24.077 8.15488 25.9181C8.15487 25.9181 8.15488 25.9181 8.15488 25.9181L9.51749 27.0159C9.48666 27.1135 9.45963 27.2132 9.43658 27.3148" fill="white"/>
<path fill-rule="evenodd" clip-rule="evenodd" d="M33.0273 38.8024V30.0361H35.3853V38.8024H33.0273Z" fill="white"/>
<path fill-rule="evenodd" clip-rule="evenodd" d="M20.9547 8.84397C20.9547 8.84399 20.9547 8.84396 20.9547 8.84397L20.1501 9.48493L19.3454 8.84398C19.3454 8.84397 19.3454 8.844 19.3454 8.84398C17.6804 7.51792 15.2128 8.1058 14.3245 10.0402C13.7609 11.2675 14.0079 12.715 14.9466 13.6861C14.9466 13.6861 14.9466 13.6861 14.9466 13.6861L20.1501 19.0691L25.3536 13.6862C25.3536 13.6862 25.3536 13.6861 25.3536 13.6862C26.2923 12.715 26.5393 11.2676 25.9756 10.0402C25.0874 8.1058 22.6197 7.51791 20.9547 8.84397ZM27.9635 9.12733C26.5789 6.11193 22.8926 5.0589 20.1501 6.74132C17.4074 5.05891 13.7212 6.11202 12.3366 9.12732C11.3969 11.1739 11.8087 13.5873 13.3738 15.2065L20.1501 22.2165L26.9264 15.2065C28.4915 13.5873 28.9034 11.1739 27.9635 9.12733Z" fill="white"/>
<path fill-rule="evenodd" clip-rule="evenodd" d="M21.3287 0.0183105V3.30137H18.9707V0.0183105H21.3287Z" fill="white"/>
<path fill-rule="evenodd" clip-rule="evenodd" d="M34.4178 13.0852H31.1348V10.7273H34.4178V13.0852Z" fill="white"/>
<path fill-rule="evenodd" clip-rule="evenodd" d="M9.16392 13.0852H5.88086V10.7273H9.16392V13.0852Z" fill="white"/>
<path fill-rule="evenodd" clip-rule="evenodd" d="M10.7518 2.07983L12.9064 4.55702L11.1272 6.10445L8.97266 3.62726L10.7518 2.07983Z" fill="white"/>
<path fill-rule="evenodd" clip-rule="evenodd" d="M31.5138 3.62726L29.3592 6.10445L27.5801 4.55702L29.7346 2.07983L31.5138 3.62726Z" fill="white"/>
<path fill-rule="evenodd" clip-rule="evenodd" d="M8.97266 19.5954L11.1272 17.1182L12.9064 18.6656L10.7518 21.1428L8.97266 19.5954Z" fill="white"/>
<path fill-rule="evenodd" clip-rule="evenodd" d="M29.7346 21.1428L27.5801 18.6656L29.3592 17.1182L31.5138 19.5954L29.7346 21.1428Z" fill="white"/>
</g>
<defs>
<clipPath id="clip0_96_14537">
<rect width="40" height="40" fill="white"/>
</clipPath>
</defs>
</svg>
