<svg width="178" height="155" viewBox="0 0 178 155" fill="none" xmlns="http://www.w3.org/2000/svg">
<path d="M46.9367 96.86C37.9901 96.86 29.9967 94.88 22.9567 90.92C15.9167 86.96 10.4167 81.5333 6.45672 74.64C2.49672 67.7467 0.516719 59.8267 0.516719 50.88C0.516719 42.2267 2.49672 34.5267 6.45672 27.78C10.4167 21.0333 15.9167 15.7533 22.9567 11.94C29.9967 8.12666 37.9901 6.22 46.9367 6.22C56.0301 6.22 64.0234 8.2 70.9167 12.16C77.8101 15.9733 83.1634 21.3267 86.9767 28.22C90.7901 34.9667 92.6967 42.74 92.6967 51.54C92.6967 60.34 90.7167 68.1867 86.7567 75.08C82.9434 81.8267 77.5901 87.18 70.6967 91.14C63.8034 94.9533 55.8834 96.86 46.9367 96.86ZM49.1367 92.68C56.9101 92.68 62.6301 89.2333 66.2967 82.34C69.9634 75.4467 71.7967 66.1333 71.7967 54.4C71.7967 43.9867 70.5501 35.5533 68.0567 29.1C65.5634 22.6467 62.2634 17.9533 58.1567 15.02C54.1967 11.94 49.7967 10.4 44.9567 10.4C37.3301 10.4 31.4634 13.92 27.3567 20.96C23.2501 28 21.1967 37.3133 21.1967 48.9C21.1967 57.4067 22.2967 64.96 24.4967 71.56C26.8434 78.16 30.1434 83.3667 34.3967 87.18C38.6501 90.8467 43.5634 92.68 49.1367 92.68ZM116.14 50.88C130.954 50.88 142.834 52.64 151.78 56.16C160.727 59.68 167.254 64.52 171.36 70.68C175.467 76.84 177.52 83.9533 177.52 92.02C177.52 100.38 175.32 107.933 170.92 114.68C166.52 121.573 159.7 128.173 150.46 134.48C141.22 140.933 129.047 147.607 113.94 154.5C113.354 154.647 112.84 154.353 112.4 153.62C111.96 152.887 112.034 152.373 112.62 152.08C124.354 145.773 133.447 139.467 139.9 133.16C146.5 127 151.12 120.767 153.76 114.46C156.4 108.3 157.72 102.067 157.72 95.76C157.72 83.7333 153.98 74.3467 146.5 67.6C139.02 60.7067 128.167 57.26 113.94 57.26C112.18 57.26 111.447 56.38 111.74 54.62L118.78 15.46C118.927 14.4333 119.147 13.8467 119.44 13.7C119.734 13.4067 120.467 13.1867 121.64 13.04C134.254 11.5733 144.08 10.4 151.12 9.52C158.16 8.49333 163.294 7.68666 166.52 7.1C169.747 6.36667 171.8 5.56 172.68 4.68C173.707 3.65333 174.44 2.40666 174.88 0.939998C175.027 0.499995 175.467 0.353328 176.2 0.499997C177.08 0.499997 177.447 0.793329 177.3 1.37999L172.9 22.94C172.46 24.7 171.727 25.8 170.7 26.24C169.82 26.68 168.5 26.9 166.74 26.9L124.94 27.78C123.034 27.78 121.934 28.8067 121.64 30.86L117.24 55.28L116.14 50.88Z" fill="url(#paint0_linear_96_14295)"/>
<defs>
<linearGradient id="paint0_linear_96_14295" x1="91.5" y1="-124.604" x2="91.5" y2="217.434" gradientUnits="userSpaceOnUse">
<stop offset="0.385" stop-color="white"/>
<stop offset="1" stop-color="white" stop-opacity="0"/>
</linearGradient>
</defs>
</svg>
