<svg width="25" height="31" viewBox="0 0 25 31" fill="none" xmlns="http://www.w3.org/2000/svg">
<path d="M20.8901 16.6339C20.8552 12.8575 24.0614 11.0203 24.2081 10.9348C22.3922 8.35355 19.5778 8.00087 18.5887 7.97275C16.2249 7.73021 13.932 9.35184 12.7279 9.35184C11.4997 9.35184 9.64541 7.99619 7.64692 8.03602C5.07521 8.07469 2.66933 9.52642 1.34982 11.7808C-1.37331 16.3773 0.657624 23.1321 3.26659 26.8476C4.57168 28.6672 6.09668 30.6989 8.09277 30.6274C10.0456 30.5489 10.775 29.4136 13.1316 29.4136C15.4666 29.4136 16.1516 30.6274 18.1874 30.5817C20.2832 30.5489 21.6027 28.7539 22.8621 26.9179C24.3703 24.8322 24.976 22.7783 25 22.6728C24.9507 22.6564 20.9297 21.1602 20.8901 16.6339Z" fill="white"/>
<path d="M17.0445 5.5286C18.0948 4.24794 18.8135 2.50563 18.614 0.737549C17.0938 0.803164 15.1926 1.76278 14.0978 3.01532C13.1292 4.11906 12.264 5.92815 12.4875 7.62945C14.1952 7.75365 15.9485 6.78934 17.0445 5.5286Z" fill="white"/>
</svg>
