<svg width="88" height="29" viewBox="0 0 88 29" fill="none" xmlns="http://www.w3.org/2000/svg">
<path d="M12.3979 24.8469H9.89181L8.51905 20.6948H3.7475L2.43984 24.8469H0L4.72741 10.7115H7.64728L12.3979 24.8469ZM8.10523 18.9529L6.86379 15.2618C6.73248 14.8847 6.48639 13.9968 6.12334 12.5989H6.0792C5.93464 13.2001 5.7018 14.0881 5.38178 15.2618L4.16241 18.9529H8.10523Z" fill="white"/>
<path d="M24.5552 19.6252C24.5552 21.3587 24.0685 22.7289 23.0952 23.7348C22.2235 24.6302 21.1409 25.0774 19.8487 25.0774C18.4539 25.0774 17.4519 24.5952 16.8417 23.6307H16.7975V29H14.4449V18.0097C14.4449 16.9199 14.4151 15.8014 14.3577 14.6543H16.4268L16.5581 16.2698H16.6022C17.3868 15.0526 18.5775 14.445 20.1754 14.445C21.4245 14.445 22.4673 14.9198 23.3016 15.8705C24.138 16.8222 24.5552 18.0734 24.5552 19.6252ZM22.1583 19.7081C22.1583 18.716 21.9266 17.8982 21.4609 17.2545C20.9522 16.5832 20.2691 16.2475 19.4128 16.2475C18.8324 16.2475 18.3049 16.4345 17.8337 16.803C17.3614 17.1748 17.0524 17.6602 16.9079 18.2614C16.835 18.5418 16.7986 18.7713 16.7986 18.9518V20.6513C16.7986 21.3927 17.0348 22.0183 17.5071 22.5292C17.9794 23.0401 18.5929 23.2951 19.3477 23.2951C20.2338 23.2951 20.9235 22.9658 21.4168 22.3094C21.9112 21.6519 22.1583 20.7851 22.1583 19.7081Z" fill="white"/>
<path d="M36.7345 19.6252C36.7345 21.3587 36.2479 22.7289 35.2735 23.7348C34.4028 24.6302 33.3203 25.0774 32.0281 25.0774C30.6333 25.0774 29.6313 24.5952 29.0222 23.6307H28.978V29H26.6253V18.0097C26.6253 16.9199 26.5955 15.8014 26.5382 14.6543H28.6072L28.7386 16.2698H28.7827C29.5662 15.0526 30.7569 14.445 32.3558 14.445C33.6039 14.445 34.6467 14.9198 35.4832 15.8705C36.3163 16.8222 36.7345 18.0734 36.7345 19.6252ZM34.3377 19.7081C34.3377 18.716 34.1049 17.8982 33.6392 17.2545C33.1305 16.5832 32.4496 16.2475 31.5922 16.2475C31.0107 16.2475 30.4843 16.4345 30.012 16.803C29.5397 17.1748 29.2318 17.6602 29.0873 18.2614C29.0155 18.5418 28.978 18.7713 28.978 18.9518V20.6513C28.978 21.3927 29.2142 22.0183 29.6843 22.5292C30.1566 23.0391 30.7701 23.2951 31.5271 23.2951C32.4132 23.2951 33.1029 22.9658 33.5962 22.3094C34.0906 21.6519 34.3377 20.7851 34.3377 19.7081Z" fill="white"/>
<path d="M50.3518 20.8829C50.3518 22.0852 49.9181 23.0635 49.0474 23.8187C48.0907 24.644 46.7588 25.0561 45.0472 25.0561C43.467 25.0561 42.2002 24.763 41.2412 24.1756L41.7864 22.2881C42.8193 22.8893 43.9526 23.191 45.1874 23.191C46.0735 23.191 46.7632 22.9976 47.2587 22.6131C47.7519 22.2286 47.998 21.7124 47.998 21.0687C47.998 20.4952 47.795 20.0119 47.3878 19.6199C46.9828 19.228 46.3063 18.8637 45.3617 18.527C42.7906 17.6039 41.5061 16.2518 41.5061 14.4737C41.5061 13.3117 41.9563 12.3589 42.8579 11.6175C43.7561 10.875 44.9545 10.5043 46.4531 10.5043C47.7894 10.5043 48.8996 10.7285 49.7857 11.1756L49.1975 13.0217C48.3699 12.5883 47.4341 12.3717 46.3869 12.3717C45.5593 12.3717 44.9126 12.5682 44.4491 12.959C44.0574 13.3085 43.861 13.7344 43.861 14.239C43.861 14.7977 44.085 15.2597 44.5352 15.623C44.9269 15.9586 45.6387 16.3219 46.6716 16.7138C47.9351 17.2035 48.8632 17.776 49.4601 18.4324C50.0549 19.0867 50.3518 19.9057 50.3518 20.8829Z" fill="white"/>
<path d="M58.1304 16.3537H55.5371V21.3024C55.5371 22.5611 55.994 23.1899 56.9099 23.1899C57.3303 23.1899 57.679 23.1548 57.9549 23.0847L58.02 24.8044C57.5566 24.9712 56.9463 25.0551 56.1904 25.0551C55.2613 25.0551 54.5352 24.7821 54.011 24.2372C53.489 23.6912 53.2264 22.7756 53.2264 21.4893V16.3516H51.6815V14.6521H53.2264V12.7859L55.5371 12.1146V14.6521H58.1304V16.3537Z" fill="white"/>
<path d="M69.8308 19.6667C69.8308 21.2334 69.3651 22.5197 68.436 23.5255C67.4616 24.5612 66.1683 25.0774 64.5561 25.0774C63.0023 25.0774 61.7653 24.5813 60.8428 23.5893C59.9202 22.5972 59.459 21.3449 59.459 19.8355C59.459 18.2561 59.9335 16.9624 60.8858 15.9565C61.8359 14.9495 63.1182 14.4461 64.7304 14.4461C66.2841 14.4461 67.5344 14.9421 68.4779 15.9352C69.3806 16.8986 69.8308 18.1424 69.8308 19.6667ZM67.3899 19.74C67.3899 18.7999 67.1813 17.9937 66.7587 17.3214C66.2654 16.5078 65.5602 16.102 64.6465 16.102C63.7008 16.102 62.9825 16.5088 62.4892 17.3214C62.0666 17.9948 61.858 18.8137 61.858 19.7824C61.858 20.7225 62.0666 21.5287 62.4892 22.1999C62.9979 23.0136 63.7086 23.4193 64.6256 23.4193C65.5238 23.4193 66.229 23.0051 66.7377 22.1787C67.1714 21.4936 67.3899 20.6789 67.3899 19.74Z" fill="white"/>
<path d="M77.4781 16.6458C77.2453 16.6044 76.997 16.5832 76.7366 16.5832C75.9089 16.5832 75.2689 16.8838 74.8187 17.486C74.4269 18.0171 74.2305 18.6884 74.2305 19.4988V24.8469H71.8789L71.901 17.8642C71.901 16.6894 71.8712 15.6198 71.8127 14.6553H73.8619L73.948 16.6055H74.0131C74.2614 15.9353 74.6531 15.3957 75.1894 14.991C75.7136 14.6267 76.2797 14.445 76.8899 14.445C77.1073 14.445 77.3038 14.4599 77.4781 14.4864V16.6458Z" fill="white"/>
<path d="M88 19.2683C88 19.6741 87.9724 20.0161 87.9139 20.2955H80.8559C80.8835 21.3024 81.2245 22.0725 81.88 22.6036C82.4748 23.0784 83.2439 23.3163 84.1885 23.3163C85.2335 23.3163 86.187 23.1559 87.0444 22.8341L87.4129 24.4061C86.411 24.8267 85.228 25.0359 83.863 25.0359C82.221 25.0359 80.9321 24.5707 79.9941 23.6413C79.0583 22.7119 78.5893 21.4639 78.5893 19.8982C78.5893 18.3612 79.0252 17.0813 79.8981 16.0606C80.8118 14.9708 82.0466 14.4259 83.6003 14.4259C85.1265 14.4259 86.2819 14.9708 87.0664 16.0606C87.6877 16.9263 88 17.9969 88 19.2683ZM85.7566 18.681C85.772 18.0097 85.6187 17.4297 85.2997 16.9401C84.8925 16.3102 84.2669 15.9958 83.4249 15.9958C82.6557 15.9958 82.0301 16.3028 81.5522 16.9188C81.1605 17.4085 80.9277 17.9959 80.8559 18.6799H85.7566V18.681Z" fill="white"/>
<path d="M2.61076 4.36615C2.5849 4.79383 2.5364 5.14012 2.46528 5.40503C2.39739 5.66993 2.28262 5.89973 2.12097 6.09442V6.13272H5.51554V0.775566H2.83868L2.61076 4.36615ZM1.33052 6.90828V8.27271H0.520677V6.13272H1.03956C1.28203 6.00505 1.45984 5.796 1.57299 5.50556C1.68938 5.21193 1.76212 4.82574 1.79122 4.347L2.05793 0H6.38843V6.13272H7.26132V8.27271H6.45147V6.90828H1.33052Z" fill="white"/>
<path d="M10.2388 6.99446C9.53406 6.99446 8.9683 6.76306 8.54155 6.30028C8.11481 5.8343 7.90144 5.20714 7.90144 4.41881C7.90144 3.63048 8.11481 3.00492 8.54155 2.54213C8.9683 2.07616 9.53406 1.84317 10.2388 1.84317C10.9404 1.84317 11.5045 2.07616 11.9313 2.54213C12.358 3.00492 12.5714 3.63048 12.5714 4.41881C12.5714 5.20395 12.358 5.82951 11.9313 6.29549C11.5045 6.76147 10.9404 6.99446 10.2388 6.99446ZM9.15743 5.77366C9.42576 6.0992 9.78623 6.26198 10.2388 6.26198C10.6914 6.26198 11.0503 6.1008 11.3154 5.77845C11.5805 5.4529 11.7131 4.99969 11.7131 4.41881C11.7131 3.83793 11.5805 3.38632 11.3154 3.06396C11.0503 2.73842 10.6914 2.57565 10.2388 2.57565C9.78623 2.57565 9.42576 2.73842 9.15743 3.06396C8.89233 3.38951 8.75978 3.84113 8.75978 4.41881C8.75978 4.9965 8.89233 5.44811 9.15743 5.77366Z" fill="white"/>
<path d="M17.6826 3.46132H16.8485C16.771 3.2028 16.6239 2.99056 16.4073 2.82459C16.1906 2.65863 15.9142 2.57565 15.578 2.57565C15.1383 2.57565 14.7859 2.7448 14.5208 3.08311C14.2557 3.41824 14.1232 3.86347 14.1232 4.41881C14.1232 4.98373 14.2557 5.43215 14.5208 5.76408C14.7892 6.09601 15.1448 6.26198 15.5877 6.26198C15.9175 6.26198 16.1906 6.18538 16.4073 6.03218C16.6271 5.87898 16.7774 5.66355 16.8582 5.38588H17.6923C17.6083 5.86462 17.3755 6.2524 16.994 6.54922C16.6125 6.84605 16.1422 6.99446 15.5829 6.99446C14.8781 6.99446 14.3156 6.76306 13.8953 6.30028C13.475 5.8343 13.2649 5.20714 13.2649 4.41881C13.2649 3.64325 13.475 3.02088 13.8953 2.55171C14.3156 2.07935 14.8748 1.84317 15.5732 1.84317C16.1519 1.84317 16.6271 1.99956 16.9989 2.31234C17.3739 2.62512 17.6018 3.00811 17.6826 3.46132Z" fill="white"/>
<path d="M22.1635 1.92934V2.61394H20.5341V6.90828H19.7V2.61394H18.0706V1.92934H22.1635Z" fill="white"/>
<path d="M23.3661 8.7706C23.2142 8.7706 23.0929 8.76102 23.0024 8.74187V8.04291C23.08 8.05887 23.1899 8.06684 23.3322 8.06684C23.5682 8.06684 23.7573 8.00461 23.8995 7.88013C24.0418 7.75885 24.1614 7.55299 24.2584 7.26255L24.3748 6.91307L22.5126 1.92934H23.4146L24.8112 6.07527H24.8258L26.2224 1.92934H27.1098L25.1264 7.25777C24.9098 7.83864 24.6754 8.236 24.4233 8.44984C24.1743 8.66368 23.822 8.7706 23.3661 8.7706Z" fill="white"/>
<path d="M31.1348 6.90828V2.61394H28.6956V6.90828H27.8615V1.92934H31.9738V6.90828H31.1348Z" fill="white"/>
<path d="M36.4788 6.90828V4.66776H33.9911V6.90828H33.157V1.92934H33.9911V3.98315H36.4788V1.92934H37.3129V6.90828H36.4788Z" fill="white"/>
<path d="M40.596 6.99446C39.8912 6.99446 39.3254 6.76306 38.8987 6.30028C38.4719 5.8343 38.2586 5.20714 38.2586 4.41881C38.2586 3.63048 38.4719 3.00492 38.8987 2.54213C39.3254 2.07616 39.8912 1.84317 40.596 1.84317C41.2975 1.84317 41.8617 2.07616 42.2884 2.54213C42.7151 3.00492 42.9285 3.63048 42.9285 4.41881C42.9285 5.20395 42.7151 5.82951 42.2884 6.29549C41.8617 6.76147 41.2975 6.99446 40.596 6.99446ZM39.5146 5.77366C39.7829 6.0992 40.1434 6.26198 40.596 6.26198C41.0486 6.26198 41.4074 6.1008 41.6725 5.77845C41.9376 5.4529 42.0702 4.99969 42.0702 4.41881C42.0702 3.83793 41.9376 3.38632 41.6725 3.06396C41.4074 2.73842 41.0486 2.57565 40.596 2.57565C40.1434 2.57565 39.7829 2.73842 39.5146 3.06396C39.2495 3.38951 39.1169 3.84113 39.1169 4.41881C39.1169 4.9965 39.2495 5.44811 39.5146 5.77366Z" fill="white"/>
<path d="M47.9428 2.60437H46.7353V3.99752H47.8167C48.4439 3.99752 48.7575 3.76134 48.7575 3.28897C48.7575 3.06875 48.688 2.8996 48.549 2.78151C48.4099 2.66342 48.2079 2.60437 47.9428 2.60437ZM47.8846 4.66776H46.7353V6.23325H48.0349C48.3388 6.23325 48.5716 6.16782 48.7332 6.03697C48.8949 5.90292 48.9757 5.70983 48.9757 5.45769C48.9757 4.93107 48.612 4.66776 47.8846 4.66776ZM45.9012 6.90828V1.92934H48.0592C48.5312 1.92934 48.903 2.04264 49.1745 2.26925C49.4461 2.49585 49.5819 2.80704 49.5819 3.2028C49.5819 3.45494 49.501 3.68474 49.3394 3.89219C49.181 4.09965 48.9854 4.22731 48.7526 4.27519V4.31349C49.0695 4.35817 49.3232 4.48584 49.514 4.69648C49.708 4.90713 49.8049 5.16725 49.8049 5.47684C49.8049 5.91728 49.6498 6.26677 49.3394 6.52529C49.0323 6.78062 48.6104 6.90828 48.0737 6.90828H45.9012Z" fill="white"/>
</svg>
