<svg width="20" height="20" viewBox="0 0 20 20" fill="none" xmlns="http://www.w3.org/2000/svg">
<circle cx="10" cy="10" r="10" fill="#B81B37"/>
<path fill-rule="evenodd" clip-rule="evenodd" d="M5.80788 3.60004C7.01218 2.80974 8.45341 2.3501 10 2.3501C11.7318 2.3501 13.3308 2.9263 14.6133 3.89715C14.6778 3.94597 14.7415 3.99579 14.8044 4.04659C16.5389 5.44792 17.65 7.59449 17.65 10.0001C17.65 12.5764 16.3759 14.855 14.4263 16.2402C13.1768 17.128 11.6484 17.6501 10 17.6501C8.37017 17.6501 6.85761 17.1397 5.61593 16.27C5.51663 16.2004 5.41907 16.1286 5.32331 16.0545C3.51581 14.6565 2.35001 12.4643 2.35001 10.0001C2.35001 7.32202 3.72667 4.9658 5.80788 3.60004ZM6.80904 4.50876L6.67612 13.2816L13.4673 4.67935C12.4706 4.02833 11.2802 3.6501 10 3.6501C8.8358 3.6501 7.74626 3.96283 6.80904 4.50876ZM13.5365 6.68979L6.65899 15.4012C7.62924 16.0028 8.77327 16.3501 10 16.3501C11.2538 16.3501 12.4213 15.9873 13.4051 15.361L13.5365 6.68979ZM14.7221 14.2458C15.7347 13.1204 16.35 11.6321 16.35 10.0001C16.35 8.43705 15.7857 7.00608 14.8486 5.89933L14.7221 14.2458ZM5.36 14.3353C4.29864 13.1999 3.65001 11.6759 3.65001 10.0001C3.65001 8.25534 4.35336 6.67465 5.49347 5.52634L5.36 14.3353Z" fill="white"/>
</svg>
