<svg width="13" height="13" viewBox="0 0 13 13" fill="none" xmlns="http://www.w3.org/2000/svg">
<path d="M11.4354 0.231201L2.36087 0.231204C1.85464 0.231205 1.44434 0.641502 1.44434 1.14773C1.44434 1.65396 1.85464 2.06426 2.36087 2.06426L9.22252 2.06426L0.416325 10.8705C0.0585287 11.2282 0.0585285 11.809 0.416325 12.1668C0.774121 12.5246 1.35489 12.5246 1.71269 12.1668L10.5189 3.36062L10.5189 10.2223C10.5189 10.7285 10.9292 11.1388 11.4354 11.1388C11.6888 11.1388 11.9177 11.0364 12.0836 10.8704C12.2495 10.7045 12.3519 10.4757 12.3519 10.2223L12.3519 1.14773C12.3519 0.6415 11.9416 0.231202 11.4354 0.231201Z" fill="#B81B37"/>
</svg>
