<svg width="63" height="63" viewBox="0 0 63 63" fill="none" xmlns="http://www.w3.org/2000/svg">
<path d="M57.8573 32.7084L58.197 32.7373C58.1811 32.9242 58.1928 33.0845 58.2321 33.2182C58.275 33.3522 58.3368 33.4552 58.4176 33.5273C58.5017 33.6032 58.5976 33.6458 58.7055 33.6549C58.8061 33.6635 58.8981 33.646 58.9815 33.6024C59.0681 33.5627 59.1373 33.4943 59.189 33.3974C59.2404 33.304 59.2724 33.1836 59.2849 33.0362C59.2968 32.896 59.2842 32.7682 59.2469 32.6528C59.2129 32.5413 59.159 32.4516 59.0851 32.3838C59.0112 32.3159 58.924 32.2777 58.8233 32.2692L58.8742 31.6707C59.0827 31.6884 59.2616 31.7561 59.4109 31.8738C59.5599 31.9951 59.6709 32.1584 59.744 32.3638C59.8206 32.5694 59.8473 32.8089 59.8241 33.0821C59.8006 33.3589 59.7338 33.5903 59.6238 33.7765C59.5139 33.9627 59.3773 34.0995 59.2142 34.187C59.0543 34.2784 58.8809 34.3162 58.694 34.3003C58.5502 34.288 58.4222 34.2391 58.31 34.1536C58.1978 34.068 58.1044 33.9532 58.0297 33.8093C57.9548 33.6689 57.9019 33.5033 57.8711 33.3124C57.8435 33.1254 57.8389 32.9241 57.8573 32.7084ZM55.9261 32.7451C55.9472 32.4971 55.9943 32.2838 56.0674 32.1054C56.1441 31.9273 56.2399 31.7797 56.3549 31.6628C56.4731 31.5497 56.6031 31.4685 56.7449 31.419C56.8903 31.3698 57.0403 31.3518 57.1949 31.3649L57.1408 32.0012C57.0176 32.0016 56.9084 32.0303 56.813 32.0873C56.7212 32.1447 56.6451 32.2306 56.5847 32.3449C56.5276 32.4632 56.4917 32.6085 56.477 32.7811C56.455 33.0399 56.4905 33.2403 56.5834 33.3821C56.6763 33.524 56.8163 33.6029 57.0032 33.6188C57.1398 33.6304 57.2582 33.6006 57.3584 33.5295C57.4586 33.4584 57.5401 33.3513 57.6029 33.2082C57.6655 33.0686 57.7053 32.8982 57.7225 32.6969L58.0837 32.7277C58.0577 33.0332 57.9966 33.305 57.9003 33.543C57.8076 33.7813 57.678 33.964 57.5116 34.0911C57.3448 34.2217 57.1337 34.2762 56.8785 34.2545C56.6664 34.2364 56.4842 34.1648 56.332 34.0396C56.1794 33.918 56.0672 33.7474 55.9953 33.5276C55.9232 33.3115 55.9001 33.0506 55.9261 32.7451Z" fill="#B81B37"/>
<path d="M56.5345 36.4061L57.0257 36.6625L56.5656 38.36L56.0108 38.3386L56.5345 36.4061ZM57.9573 37.8177L56.7707 36.8794L56.6377 36.8321L55.6311 36.0155L55.8194 35.3208L59.1952 38.1531L54.8512 38.8934L55.0395 38.1988L56.2865 38.0041L56.4422 38.0294L57.9573 37.8177Z" fill="#B81B37"/>
<path d="M57.8248 41.903L57.5408 42.493L54.1275 40.8503L54.4115 40.2603L57.8248 41.903ZM56.9307 43.7608L56.5974 44.4533L55.6904 42.245L53.1489 42.8837L53.4892 42.1766L56.0113 41.5407L56.9307 43.7608Z" fill="#B81B37"/>
<path d="M53.0103 45.1155L53.3779 45.5301L52.3433 46.9523L51.8324 46.7347L53.0103 45.1155ZM53.8369 46.9413L53.0623 45.6419L52.9549 45.5503L52.3053 44.4287L52.7287 43.8467L54.874 47.6958L50.5513 46.84L50.9747 46.2579L52.2092 46.5203L52.3457 46.5994L53.8369 46.9413Z" fill="#B81B37"/>
<path d="M50.0971 50.0953L50.332 50.3425C50.196 50.4717 50.0983 50.5994 50.039 50.7254C49.9821 50.8541 49.9599 50.9722 49.9725 51.0797C49.985 51.1923 50.0285 51.2879 50.103 51.3663C50.1726 51.4395 50.2531 51.4875 50.3443 51.5103C50.4355 51.5381 50.5326 51.5329 50.6357 51.4947C50.7361 51.459 50.8399 51.3902 50.9471 51.2883C51.0491 51.1913 51.1245 51.0874 51.1732 50.9763C51.2219 50.8704 51.2411 50.7675 51.2309 50.6677C51.2206 50.5679 51.1807 50.4814 51.1111 50.4082L51.5465 49.9944C51.6907 50.1461 51.7795 50.3155 51.813 50.5026C51.8439 50.6923 51.8185 50.8881 51.7369 51.0902C51.6576 51.2949 51.5187 51.4916 51.3199 51.6805C51.1186 51.8719 50.915 52.0007 50.7091 52.0669C50.5033 52.1331 50.3103 52.1448 50.1303 52.1019C49.95 52.0642 49.7953 51.9773 49.6661 51.8413C49.5667 51.7367 49.5034 51.6152 49.4763 51.4767C49.4492 51.3382 49.4555 51.1904 49.4952 51.0331C49.5324 50.8784 49.6027 50.7195 49.7064 50.5562C49.81 50.3981 49.9402 50.2445 50.0971 50.0953ZM48.6285 48.8408C48.809 48.6693 48.9858 48.5411 49.1589 48.4562C49.3345 48.3739 49.5041 48.3272 49.6677 48.316C49.8312 48.31 49.9824 48.3355 50.1213 48.3926C50.2627 48.4524 50.3868 48.5384 50.4936 48.6509L50.0308 49.0908C49.9384 49.0093 49.8377 48.9583 49.7285 48.9376C49.6217 48.9196 49.5078 48.9333 49.3867 48.9787C49.2655 49.0292 49.1421 49.1141 49.0166 49.2334C48.8283 49.4124 48.7219 49.5857 48.6972 49.7535C48.6725 49.9213 48.7248 50.0732 48.854 50.2092C48.9484 50.3086 49.0567 50.3649 49.1789 50.3782C49.301 50.3915 49.4331 50.3655 49.5751 50.3003C49.7145 50.2374 49.8574 50.1365 50.0039 49.9973L50.2537 50.2601C50.0314 50.4713 49.8052 50.634 49.5752 50.7481C49.3477 50.8648 49.1295 50.9154 48.9206 50.8999C48.7092 50.8868 48.5152 50.7875 48.3388 50.6018C48.1921 50.4475 48.1034 50.273 48.0726 50.0783C48.0393 49.8861 48.0686 49.6839 48.1608 49.4719C48.2503 49.2624 48.4062 49.052 48.6285 48.8408Z" fill="#B81B37"/>
<path d="M46.6271 51.9952L46.8247 52.5128L45.3549 53.4786L44.9537 53.0947L46.6271 51.9952ZM46.7563 53.9953L46.4901 52.5061L46.4218 52.3826L46.2097 51.1039L46.8112 50.7086L47.4606 55.0671L43.7178 52.7412L44.3193 52.346L45.3819 53.027L45.4817 53.1493L46.7563 53.9953Z" fill="#B81B37"/>
<path d="M44.0954 56.2261L44.3313 56.7667L41.9107 57.8226L41.6749 57.282L42.5925 56.8817L41.3137 53.9503L41.904 53.6928L43.1828 56.6242L44.0954 56.2261Z" fill="#B81B37"/>
<path d="M39.981 58.5737L39.3628 58.7337L38.4137 55.0665L39.0319 54.9065L39.981 58.5737ZM39.114 56.7355L39.255 57.2803L38.5163 57.4715C38.2509 57.5402 38.0081 57.5527 37.7882 57.509C37.5656 57.4698 37.378 57.3786 37.2254 57.2354C37.0738 57.0958 36.9672 56.9073 36.9058 56.6698C36.8461 56.4393 36.8483 56.2244 36.9122 56.0253C36.9762 55.8261 37.0955 55.6536 37.2702 55.5078C37.4423 55.3664 37.6611 55.2613 37.9265 55.1926L38.6652 55.0014L38.8062 55.5463L38.0675 55.7374C37.9278 55.7736 37.811 55.8262 37.717 55.8952C37.6205 55.9686 37.5539 56.0567 37.5171 56.1594C37.4812 56.2656 37.48 56.3833 37.5135 56.5125C37.5478 56.6452 37.606 56.7475 37.6879 56.8195C37.7708 56.8949 37.8718 56.9396 37.9909 56.9535C38.1075 56.9718 38.2356 56.9628 38.3753 56.9267L39.114 56.7355Z" fill="#B81B37"/>
<path d="M28.6463 57.8897L28.6069 58.2284C28.4206 58.2067 28.26 58.2135 28.1252 58.2487C27.9899 58.2875 27.885 58.3461 27.8105 58.4246C27.7321 58.5063 27.6866 58.6009 27.6741 58.7084C27.6624 58.8088 27.6771 58.9013 27.7181 58.9859C27.7551 59.0738 27.8213 59.145 27.9167 59.1997C28.0084 59.2539 28.1278 59.2896 28.2747 59.3066C28.4144 59.3229 28.5426 59.3141 28.6591 59.2804C28.7716 59.2499 28.8629 59.1988 28.9329 59.127C29.003 59.0553 29.0439 58.9692 29.0555 58.8689L29.6522 58.9382C29.6281 59.146 29.5549 59.3227 29.4326 59.4684C29.3068 59.6135 29.1402 59.7195 28.9327 59.7862C28.7247 59.8565 28.4846 59.8758 28.2123 59.8442C27.9363 59.8121 27.707 59.7383 27.5243 59.6226C27.3416 59.507 27.2091 59.3663 27.1266 59.2005C27.0402 59.0379 27.0078 58.8635 27.0294 58.6771C27.0461 58.5338 27.0989 58.4073 27.1879 58.2978C27.2769 58.1883 27.3944 58.0985 27.5406 58.0283C27.6832 57.9577 27.8504 57.9099 28.0421 57.8849C28.2299 57.8632 28.4313 57.8648 28.6463 57.8897ZM28.669 55.9584C28.9163 55.9871 29.128 56.0407 29.3041 56.1193C29.4798 56.2015 29.6243 56.3018 29.7376 56.4203C29.847 56.5419 29.9242 56.6744 29.9693 56.8176C30.014 56.9645 30.0274 57.1149 30.0095 57.269L29.3752 57.1954C29.3786 57.0723 29.3533 56.9622 29.2992 56.8651C29.2447 56.7716 29.1612 56.6929 29.0488 56.629C28.9323 56.5683 28.7881 56.5279 28.6161 56.5079C28.3581 56.478 28.1567 56.5072 28.0121 56.5958C27.8674 56.6843 27.7843 56.8217 27.7626 57.0081C27.7468 57.1442 27.7729 57.2635 27.8409 57.3658C27.9089 57.4681 28.0135 57.5529 28.1546 57.6202C28.2921 57.687 28.4612 57.7321 28.6619 57.7554L28.6201 58.1155C28.3154 58.0801 28.0457 58.0107 27.8107 57.9071C27.5754 57.8071 27.3968 57.672 27.2749 57.5016C27.1495 57.3309 27.1015 57.1183 27.1311 56.8639C27.1556 56.6525 27.2328 56.4726 27.3626 56.3242C27.4889 56.1754 27.6629 56.0685 27.8847 56.0035C28.103 55.938 28.3644 55.923 28.669 55.9584Z" fill="#B81B37"/>
<path d="M24.9689 56.4335L24.6958 56.9157L23.015 56.3981L23.0553 55.8443L24.9689 56.4335ZM23.5096 57.8074L24.4878 56.6534L24.5396 56.5221L25.39 55.544L26.0779 55.7558L23.1322 59.0332L22.5403 54.6665L23.2282 54.8783L23.3803 56.1312L23.3496 56.286L23.5096 57.8074Z" fill="#B81B37"/>
<path d="M19.471 57.547L18.8908 57.2435L20.6465 53.8869L21.2267 54.1904L19.471 57.547ZM17.644 56.5914L16.9631 56.2352L19.2004 55.4023L18.6469 52.841L19.3422 53.2047L19.8936 55.7466L17.644 56.5914Z" fill="#B81B37"/>
<path d="M16.4294 52.6297L16.003 52.9835L14.6155 51.9028L14.8498 51.3994L16.4294 52.6297ZM14.5774 53.3959L15.9016 52.6645L15.9966 52.5602L17.139 51.9477L17.7068 52.39L13.7893 54.4078L14.7866 50.1155L15.3544 50.5578L15.0517 51.783L14.9681 51.9168L14.5774 53.3959Z" fill="#B81B37"/>
<path d="M11.562 49.5684L11.3074 49.795C11.1827 49.6549 11.0583 49.5531 10.9342 49.4896C10.8074 49.4286 10.6901 49.4026 10.5823 49.4117C10.4693 49.4204 10.3724 49.4608 10.2916 49.5327C10.2161 49.5999 10.1655 49.6787 10.1398 49.7692C10.109 49.8594 10.111 49.9566 10.1458 50.0609C10.1782 50.1624 10.2436 50.2684 10.342 50.3789C10.4355 50.484 10.537 50.5628 10.6464 50.6151C10.7506 50.6672 10.8528 50.6898 10.9529 50.6828C11.0529 50.6758 11.1407 50.6388 11.2162 50.5716L11.6155 51.0203C11.4592 51.1595 11.287 51.2427 11.0988 51.2701C10.9083 51.2948 10.7134 51.263 10.5141 51.1747C10.3121 51.0888 10.12 50.9435 9.93772 50.7387C9.75304 50.5312 9.63098 50.3235 9.57153 50.1156C9.51208 49.9077 9.50672 49.7145 9.55545 49.5359C9.59908 49.357 9.69096 49.2052 9.8311 49.0805C9.9389 48.9845 10.0624 48.9253 10.2017 48.9027C10.341 48.8802 10.4886 48.8913 10.6444 48.9362C10.7979 48.9783 10.9544 49.0539 11.1142 49.1628C11.2689 49.2715 11.4181 49.4067 11.562 49.5684ZM12.864 48.1416C13.0295 48.3276 13.1518 48.5085 13.231 48.6843C13.3075 48.8625 13.3487 49.0335 13.3545 49.1974C13.3552 49.361 13.3247 49.5113 13.2631 49.6482C13.1987 49.7876 13.1086 49.9088 12.9928 50.0119L12.5682 49.5349C12.6527 49.4453 12.707 49.3463 12.7312 49.2378C12.7527 49.1317 12.7427 49.0174 12.7013 48.8949C12.6548 48.7721 12.574 48.646 12.4589 48.5167C12.2862 48.3226 12.1164 48.2105 11.9495 48.1804C11.7826 48.1502 11.6291 48.1975 11.4889 48.3222C11.3865 48.4134 11.3267 48.5198 11.3094 48.6414C11.2921 48.763 11.3137 48.8959 11.3743 49.04C11.4325 49.1814 11.5288 49.3275 11.6631 49.4784L11.3923 49.7195C11.1884 49.4904 11.0332 49.259 10.9267 49.0254C10.8175 48.7942 10.7741 48.5745 10.7964 48.3662C10.8164 48.1553 10.922 47.9647 11.1134 47.7944C11.2724 47.6529 11.4497 47.5699 11.6453 47.5456C11.8385 47.5185 12.0396 47.5545 12.2485 47.6535C12.4549 47.7498 12.6601 47.9125 12.864 48.1416Z" fill="#B81B37"/>
<path d="M9.78928 46.0572L9.2654 46.2377L8.34868 44.7367L8.74563 44.3484L9.78928 46.0572ZM7.78602 46.1203L9.28318 45.9034L9.4089 45.8393L10.6939 45.6696L11.069 46.2838L6.69149 46.7888L9.13971 43.1249L9.51486 43.7391L8.79914 44.7787L8.67367 44.8743L7.78602 46.1203Z" fill="#B81B37"/>
<path d="M5.63961 43.3906L5.09133 43.6081L4.11742 41.1535L4.6657 40.9359L5.03491 41.8665L8.00767 40.687L8.24516 41.2856L5.2724 42.4651L5.63961 43.3906Z" fill="#B81B37"/>
<path d="M3.42141 39.1868L3.28267 38.5635L6.98024 37.7405L7.11898 38.3638L3.42141 39.1868ZM5.28826 38.3832L4.7389 38.5054L4.57313 37.7606C4.51356 37.493 4.50937 37.25 4.56055 37.0316C4.60743 36.8105 4.705 36.6262 4.85326 36.4786C4.99799 36.3318 5.19009 36.2318 5.42955 36.1785C5.66197 36.1268 5.87661 36.1363 6.07346 36.207C6.27031 36.2778 6.43861 36.403 6.57837 36.5825C6.71382 36.7593 6.81133 36.9816 6.8709 37.2492L7.03668 37.994L6.48733 38.1163L6.32155 37.3715C6.2902 37.2306 6.24163 37.1121 6.17586 37.0158C6.10578 36.9169 6.02007 36.8472 5.9187 36.807C5.81382 36.7675 5.69623 36.7622 5.56593 36.7912C5.43212 36.821 5.32785 36.8756 5.25314 36.9551C5.17491 37.0353 5.12681 37.1348 5.10885 37.2533C5.08658 37.3692 5.09113 37.4975 5.12248 37.6384L5.28826 38.3832Z" fill="#B81B37"/>
<path d="M4.46693 27.9295L4.12985 27.8785C4.15792 27.693 4.1567 27.5322 4.12619 27.3963C4.09212 27.2598 4.03713 27.1529 3.96124 27.0758C3.88232 26.9945 3.78935 26.9458 3.68234 26.9296C3.58246 26.9145 3.48951 26.9259 3.40348 26.964C3.31442 26.9979 3.24093 27.0616 3.18301 27.155C3.12563 27.2449 3.08588 27.3629 3.06374 27.5091C3.04269 27.6483 3.04699 27.7766 3.07662 27.8942C3.10324 28.0077 3.15119 28.1007 3.22049 28.1732C3.28979 28.2457 3.37438 28.2896 3.47425 28.3047L3.38438 28.8986C3.17749 28.8673 3.0034 28.788 2.8621 28.6608C2.72134 28.5301 2.62122 28.3598 2.56173 28.1502C2.49868 27.9399 2.48766 27.6993 2.52869 27.4282C2.57025 27.1535 2.65198 26.9269 2.77387 26.7483C2.89576 26.5697 3.04096 26.4421 3.20945 26.3654C3.37492 26.2847 3.5504 26.2583 3.73589 26.2864C3.87857 26.308 4.0031 26.3651 4.10948 26.4578C4.21586 26.5506 4.30159 26.6712 4.36669 26.8197C4.43233 26.9646 4.4743 27.1333 4.4926 27.3258C4.50788 27.5142 4.49932 27.7154 4.46693 27.9295ZM6.39635 28.0189C6.35911 28.2651 6.29818 28.4748 6.21358 28.648C6.12541 28.8208 6.02016 28.9618 5.89782 29.071C5.77246 29.176 5.63741 29.2486 5.49269 29.2888C5.3444 29.3284 5.19356 29.3366 5.04017 29.3133L5.13572 28.682C5.25862 28.6896 5.36951 28.6681 5.46841 28.6174C5.56373 28.5661 5.64527 28.4854 5.71302 28.3753C5.77775 28.261 5.82306 28.1183 5.84897 27.947C5.88784 27.6902 5.86553 27.488 5.78206 27.3403C5.69859 27.1927 5.56411 27.1049 5.37862 27.0768C5.24307 27.0563 5.12299 27.0782 5.01837 27.1427C4.91375 27.2071 4.82541 27.3087 4.75334 27.4474C4.68181 27.5825 4.63093 27.75 4.6007 27.9497L4.24221 27.8955C4.28809 27.5923 4.36684 27.325 4.47845 27.0938C4.5865 26.8621 4.72774 26.6882 4.90218 26.5723C5.07715 26.4528 5.29127 26.4123 5.54453 26.4506C5.75499 26.4824 5.93211 26.5658 6.07589 26.7007C6.22022 26.832 6.32104 27.0096 6.37837 27.2336C6.43624 27.4539 6.44223 27.7157 6.39635 28.0189Z" fill="#B81B37"/>
<path d="M6.03179 24.3031L5.55919 24.0139L6.13351 22.3516L6.68564 22.4106L6.03179 24.3031ZM4.70821 22.7981L5.82833 23.8149L5.95778 23.8711L6.90652 24.7542L6.67149 25.4345L3.49599 22.3793L7.88022 21.9359L7.64519 22.6162L6.38785 22.7257L6.23422 22.6898L4.70821 22.7981Z" fill="#B81B37"/>
<path d="M5.09473 18.7601L5.41733 18.1903L8.71375 20.0565L8.39114 20.6263L5.09473 18.7601ZM6.11053 16.9659L6.48912 16.2972L7.24721 18.5609L9.82552 18.0928L9.43893 18.7756L6.88009 19.2423L6.11053 16.9659Z" fill="#B81B37"/>
<path d="M10.062 15.9237L9.72238 15.4858L10.848 14.1345L11.3435 14.3852L10.062 15.9237ZM9.35691 14.0475L10.0445 15.395L10.1457 15.4934L10.7204 16.6552L10.2597 17.2082L8.37146 13.2267L12.6287 14.3641L12.1681 14.9171L10.9534 14.5744L10.8224 14.4865L9.35691 14.0475Z" fill="#B81B37"/>
<path d="M13.314 11.106L13.0958 10.8441C13.24 10.724 13.3458 10.603 13.4132 10.4811C13.4784 10.3564 13.5082 10.24 13.5027 10.1319C13.4976 10.0187 13.4605 9.92055 13.3912 9.83739C13.3266 9.75978 13.2494 9.70664 13.1598 9.67798C13.0707 9.64424 12.9734 9.64306 12.8681 9.67445C12.7656 9.70353 12.6575 9.7654 12.5438 9.86007C12.4357 9.95011 12.3537 10.0489 12.2978 10.1566C12.2423 10.2591 12.2164 10.3605 12.2201 10.4607C12.2238 10.5609 12.2579 10.6499 12.3226 10.7275L11.8611 11.1119C11.7271 10.9512 11.6496 10.7763 11.6284 10.5874C11.6099 10.3961 11.6481 10.2024 11.7428 10.0061C11.8352 9.80702 11.9868 9.61974 12.1975 9.44426C12.4109 9.26648 12.6225 9.15127 12.8322 9.09866C13.0419 9.04605 13.2353 9.04702 13.4122 9.10157C13.5895 9.15103 13.7382 9.24784 13.8583 9.39198C13.9507 9.50286 14.0058 9.62828 14.0238 9.76825C14.0418 9.90821 14.0258 10.0553 13.9759 10.2096C13.9288 10.3616 13.8481 10.5156 13.734 10.6717C13.6203 10.8227 13.4803 10.9675 13.314 11.106ZM14.6974 12.454C14.5061 12.6133 14.3213 12.7297 14.143 12.8031C13.9624 12.8737 13.7901 12.9092 13.6261 12.9096C13.4626 12.905 13.3134 12.8696 13.1785 12.8035C13.0413 12.7347 12.9231 12.6406 12.8238 12.5215L13.3145 12.1128C13.4013 12.2001 13.4985 12.2576 13.6061 12.2854C13.7114 12.3103 13.826 12.3041 13.9498 12.2667C14.0741 12.2243 14.2027 12.1476 14.3358 12.0368C14.5354 11.8705 14.653 11.7045 14.6886 11.5387C14.7242 11.3729 14.6819 11.2179 14.5619 11.0737C14.4741 10.9684 14.3698 10.9051 14.2487 10.8838C14.1277 10.8625 13.9942 10.8798 13.8482 10.9357C13.705 10.9892 13.5558 11.0807 13.4006 11.21L13.1685 10.9314C13.4042 10.7351 13.6405 10.5876 13.8775 10.4888C14.1121 10.3872 14.3332 10.351 14.5406 10.3802C14.7507 10.407 14.9378 10.5188 15.1017 10.7156C15.2379 10.8792 15.315 11.0591 15.333 11.2554C15.3537 11.4495 15.3112 11.6492 15.2054 11.8548C15.1023 12.058 14.933 12.2577 14.6974 12.454Z" fill="#B81B37"/>
<path d="M16.8299 9.46588L16.6669 8.93631L18.1973 8.06982L18.5723 8.47941L16.8299 9.46588ZM16.8331 7.46163L17.0003 8.96516L17.0602 9.09293L17.1873 10.3828L16.561 10.7374L16.2013 6.34556L19.7821 8.91381L19.1558 9.26841L18.1405 8.51864L18.0491 8.39007L16.8331 7.46163Z" fill="#B81B37"/>
<path d="M19.693 5.36407L19.4941 4.80877L21.9803 3.91828L22.1792 4.47359L21.2367 4.81117L22.3151 7.82206L21.7089 8.03921L20.6304 5.02832L19.693 5.36407Z" fill="#B81B37"/>
<path d="M23.8422 3.31049L24.4695 3.19085L25.1792 6.91182L24.552 7.03146L23.8422 3.31049ZM24.5885 5.201L24.483 4.64817L25.2325 4.50521C25.5019 4.45384 25.7449 4.45707 25.9616 4.5149C26.1811 4.56851 26.3624 4.67166 26.5054 4.82435C26.6477 4.9735 26.7418 5.16856 26.7878 5.40954C26.8324 5.64343 26.8163 5.85767 26.7396 6.05227C26.6629 6.24687 26.5326 6.41128 26.3489 6.54549C26.168 6.67548 25.9429 6.76616 25.6736 6.81753L24.9241 6.96049L24.8186 6.40766L25.5681 6.2647C25.7099 6.23766 25.8299 6.19274 25.9281 6.12994C26.0291 6.06292 26.1013 5.97936 26.1447 5.87928C26.1873 5.77565 26.1962 5.65827 26.1712 5.52715C26.1455 5.39249 26.0941 5.2866 26.0169 5.2095C25.9391 5.12885 25.8412 5.07774 25.7232 5.05617C25.6081 5.03038 25.4797 5.031 25.338 5.05804L24.5885 5.201Z" fill="#B81B37"/>
<path d="M35.25 4.69385L35.3126 4.35872C35.497 4.39317 35.6577 4.39749 35.7946 4.37168C35.9322 4.34234 36.0409 4.29107 36.1206 4.21788C36.2046 4.1418 36.2565 4.05057 36.2763 3.94418C36.2949 3.84488 36.2866 3.75159 36.2515 3.6643C36.2207 3.57412 36.1596 3.49848 36.0682 3.43738C35.9804 3.37694 35.8638 3.33314 35.7184 3.30598C35.5801 3.28015 35.4517 3.28001 35.3331 3.30558C35.2188 3.32827 35.1242 3.37299 35.0493 3.43975C34.9745 3.50651 34.9278 3.58954 34.9092 3.68883L34.3188 3.57855C34.3572 3.37286 34.4424 3.2016 34.5744 3.06477C34.7099 2.9286 34.8835 2.83441 35.0951 2.78218C35.3074 2.7264 35.5482 2.72369 35.8178 2.77403C36.0908 2.82503 36.3145 2.91452 36.4888 3.04249C36.6631 3.17047 36.7856 3.31997 36.8564 3.49101C36.9315 3.65917 36.9518 3.83545 36.9173 4.01986C36.8908 4.16171 36.8294 4.2842 36.7331 4.38732C36.6367 4.49044 36.5132 4.57197 36.3626 4.63191C36.2155 4.69251 36.0454 4.72865 35.8524 4.74031C35.6636 4.74908 35.4628 4.7336 35.25 4.69385ZM35.0941 6.61904C34.8494 6.57334 34.6419 6.50523 34.4717 6.4147C34.3021 6.32063 34.1648 6.21059 34.0599 6.08456C33.9592 5.95565 33.8913 5.81818 33.8562 5.67216C33.8217 5.52259 33.8187 5.37156 33.8472 5.21907L34.4749 5.33631C34.463 5.45887 34.4807 5.57044 34.528 5.67103C34.5759 5.76806 34.6538 5.85233 34.7615 5.92384C34.8735 5.99246 35.0146 6.04267 35.1848 6.07447C35.4401 6.12216 35.643 6.10683 35.7934 6.0285C35.9439 5.95016 36.0363 5.81879 36.0707 5.63438C36.0959 5.49962 36.0781 5.37885 36.0173 5.27207C35.9565 5.1653 35.858 5.0735 35.7219 4.9967C35.5893 4.92055 35.4238 4.86393 35.2252 4.82684L35.2917 4.47043C35.5932 4.52674 35.8575 4.61464 36.0847 4.73416C36.3127 4.85013 36.4815 4.99727 36.5913 5.1756C36.7047 5.35459 36.7379 5.56998 36.6909 5.82177C36.6518 6.031 36.5624 6.20514 36.4226 6.3442C36.2864 6.48391 36.1054 6.57856 35.8796 6.62814C35.6574 6.67838 35.3955 6.67535 35.0941 6.61904Z" fill="#B81B37"/>
<path d="M38.7915 6.37278L39.0965 5.91022L40.7385 6.54042L40.6608 7.09023L38.7915 6.37278ZM40.3404 5.10083L39.2863 6.18594L39.2258 6.31342L38.3111 7.23176L37.6392 6.97386L40.8 3.90346L41.0948 8.30018L40.4229 8.04228L40.356 6.78196L40.397 6.62963L40.3404 5.10083Z" fill="#B81B37"/>
<path d="M44.3567 5.61748L44.9155 5.95878L42.941 9.19156L42.3822 8.85026L44.3567 5.61748ZM46.1162 6.69216L46.772 7.09269L44.4845 7.77538L44.8668 10.3678L44.1972 9.95878L43.8156 7.38588L46.1162 6.69216Z" fill="#B81B37"/>
<path d="M47.0254 10.6734L47.4742 10.3483L48.7879 11.5175L48.5211 12.0045L47.0254 10.6734ZM48.9237 10.0301L47.5544 10.6733L47.4528 10.7712L46.2728 11.3075L45.7351 10.829L49.7763 9.07206L48.5001 13.2898L47.9625 12.8113L48.3448 11.6085L48.437 11.4805L48.9237 10.0301Z" fill="#B81B37"/>
<path d="M51.7462 14.0915L52.0152 13.8821C52.1304 14.0301 52.2479 14.1398 52.3676 14.2112C52.4901 14.2804 52.6054 14.314 52.7136 14.3121C52.8269 14.3107 52.9262 14.2768 53.0116 14.2103C53.0913 14.1482 53.147 14.0729 53.1785 13.9842C53.2152 13.8963 53.2195 13.7991 53.1916 13.6928C53.1659 13.5894 53.1076 13.4793 53.0167 13.3626C52.9303 13.2516 52.8342 13.1664 52.7285 13.107C52.6278 13.0482 52.5273 13.019 52.427 13.0194C52.3267 13.0198 52.2367 13.051 52.157 13.1131L51.7879 12.6392C51.953 12.5106 52.1303 12.4388 52.3198 12.4238C52.5116 12.4117 52.704 12.4561 52.8971 12.5573C53.093 12.6562 53.2752 12.8138 53.4437 13.0301C53.6144 13.2492 53.7226 13.4645 53.7683 13.6758C53.814 13.8871 53.8067 14.0803 53.7464 14.2553C53.6911 14.431 53.5895 14.5765 53.4415 14.6917C53.3276 14.7804 53.2005 14.8314 53.06 14.8448C52.9195 14.8582 52.773 14.8374 52.6205 14.7825C52.4701 14.7304 52.3188 14.6447 52.1665 14.5255C52.0193 14.407 51.8792 14.2623 51.7462 14.0915ZM50.3536 15.43C50.2007 15.2336 50.0904 15.0451 50.0229 14.8645C49.9582 14.6816 49.9284 14.5082 49.9333 14.3443C49.9433 14.1811 49.9836 14.0331 50.0541 13.9005C50.1274 13.7656 50.2252 13.6506 50.3476 13.5552L50.74 14.059C50.6499 14.1429 50.5892 14.2382 50.5579 14.3449C50.5295 14.4493 50.532 14.564 50.5653 14.689C50.6037 14.8145 50.676 14.9457 50.7825 15.0823C50.9421 15.2872 51.1042 15.4102 51.2687 15.4512C51.4333 15.4922 51.5896 15.4551 51.7376 15.3398C51.8457 15.2556 51.9124 15.1533 51.9377 15.0331C51.9629 14.9128 51.95 14.7788 51.8989 14.6311C51.8501 14.4862 51.7636 14.3341 51.6395 14.1747L51.9255 13.9519C52.1139 14.1938 52.2537 14.4348 52.3446 14.6749C52.4385 14.9128 52.4674 15.1349 52.4315 15.3412C52.3978 15.5504 52.2799 15.7337 52.0778 15.8911C51.9099 16.0219 51.7275 16.093 51.5307 16.1046C51.3361 16.1189 51.1378 16.0699 50.9359 15.9574C50.7362 15.8477 50.5421 15.6719 50.3536 15.43Z" fill="#B81B37"/>
<path d="M53.2844 17.6902L53.819 17.5449L54.6342 19.1033L54.2124 19.4644L53.2844 17.6902ZM55.2874 17.7601L53.7791 17.8772L53.6494 17.9329L52.356 18.017L52.0224 17.3793L56.4238 17.1657L53.738 20.6592L53.4044 20.0214L54.1875 19.0316L54.319 18.9445L55.2874 17.7601Z" fill="#B81B37"/>
<path d="M57.2845 20.6956L57.8462 20.5157L58.6519 23.0306L58.0902 23.2105L57.7847 22.2571L54.739 23.2329L54.5425 22.6196L57.5882 21.6439L57.2845 20.6956Z" fill="#B81B37"/>
<path d="M59.2042 24.9825L59.3022 25.6135L55.5589 26.1946L55.461 25.5636L59.2042 24.9825ZM57.2891 25.6632L57.8452 25.5768L57.9623 26.3308C58.0043 26.6018 57.9928 26.8445 57.9275 27.0591C57.8663 27.2767 57.757 27.4543 57.5995 27.5919C57.4455 27.729 57.2473 27.8164 57.0049 27.854C56.7696 27.8905 56.5561 27.8671 56.3642 27.7837C56.1724 27.7003 56.0126 27.5645 55.8848 27.3762C55.7611 27.191 55.6782 26.9629 55.6361 26.692L55.5191 25.938L56.0752 25.8516L56.1923 26.6056C56.2144 26.7482 56.2552 26.8697 56.3146 26.97C56.3781 27.0733 56.4591 27.1483 56.5576 27.1951C56.6597 27.2413 56.7767 27.2542 56.9086 27.2337C57.0441 27.2127 57.1517 27.1649 57.2314 27.0905C57.3147 27.0155 57.3691 26.9194 57.3947 26.8023C57.4245 26.6881 57.4283 26.5598 57.4062 26.4172L57.2891 25.6632Z" fill="#B81B37"/>
</svg>
