<svg width="119" height="119" viewBox="0 0 119 119" fill="none" xmlns="http://www.w3.org/2000/svg">
<path d="M111.061 62.2819L111.711 62.3373C111.681 62.6953 111.703 63.0023 111.779 63.2583C111.861 63.5149 111.979 63.7122 112.134 63.8502C112.295 63.9956 112.479 64.0771 112.685 64.0947C112.878 64.1111 113.054 64.0775 113.214 63.994C113.38 63.918 113.512 63.7871 113.611 63.6014C113.71 63.4225 113.771 63.192 113.795 62.9097C113.818 62.6412 113.794 62.3965 113.722 62.1755C113.657 61.9619 113.554 61.7902 113.412 61.6603C113.271 61.5303 113.104 61.4572 112.911 61.4408L113.009 60.2946C113.408 60.3285 113.75 60.4582 114.036 60.6836C114.322 60.9159 114.534 61.2287 114.674 61.622C114.821 62.0158 114.872 62.4743 114.828 62.9976C114.783 63.5276 114.655 63.971 114.444 64.3275C114.234 64.684 113.972 64.9461 113.66 65.1136C113.353 65.2887 113.021 65.361 112.663 65.3306C112.388 65.3071 112.143 65.2135 111.928 65.0496C111.713 64.8857 111.534 64.6659 111.391 64.3903C111.248 64.1215 111.146 63.8043 111.087 63.4387C111.035 63.0806 111.026 62.695 111.061 62.2819ZM107.363 62.3522C107.403 61.8772 107.493 61.4688 107.633 61.1271C107.78 60.786 107.964 60.5034 108.184 60.2794C108.41 60.0629 108.659 59.9073 108.931 59.8125C109.209 59.7183 109.496 59.6838 109.792 59.709L109.689 60.9275C109.453 60.9282 109.244 60.9832 109.061 61.0925C108.885 61.2024 108.74 61.3668 108.624 61.5858C108.514 61.8123 108.446 62.0907 108.418 62.4212C108.375 62.9168 108.443 63.3005 108.621 63.5722C108.799 63.8439 109.067 63.995 109.425 64.0254C109.687 64.0477 109.914 63.9907 110.105 63.8545C110.297 63.7182 110.453 63.5131 110.574 63.239C110.694 62.9718 110.77 62.6455 110.803 62.26L111.495 62.3188C111.445 62.904 111.328 63.4245 111.143 63.8803C110.966 64.3367 110.718 64.6866 110.399 64.9299C110.079 65.1801 109.675 65.2844 109.187 65.2429C108.78 65.2083 108.431 65.0711 108.14 64.8314C107.848 64.5985 107.633 64.2717 107.495 63.8509C107.357 63.4369 107.313 62.9374 107.363 62.3522Z" fill="#B81B37"/>
<path d="M108.51 69.4502L109.451 69.9414L108.57 73.1923L107.507 73.1513L108.51 69.4502ZM111.235 72.1536L108.963 70.3567L108.708 70.2662L106.78 68.7022L107.141 67.3718L113.606 72.7961L105.287 74.2138L105.647 72.8835L108.035 72.5106L108.334 72.5592L111.235 72.1536Z" fill="#B81B37"/>
<path d="M110.952 80.062L110.408 81.192L103.871 78.0459L104.415 76.916L110.952 80.062ZM109.239 83.62L108.601 84.9461L106.864 80.717L101.997 81.9401L102.649 80.586L107.479 79.3682L109.239 83.62Z" fill="#B81B37"/>
<path d="M101.686 86.2899L102.39 87.0839L100.409 89.8077L99.4303 89.3908L101.686 86.2899ZM103.269 89.7866L101.786 87.2979L101.58 87.1227L100.336 84.9746L101.147 83.8599L105.255 91.2315L96.9768 89.5925L97.7876 88.4778L100.152 88.9802L100.413 89.1318L103.269 89.7866Z" fill="#B81B37"/>
<path d="M96.049 95.8943L96.4988 96.3675C96.2384 96.6151 96.0513 96.8595 95.9377 97.101C95.8288 97.3475 95.7864 97.5736 95.8105 97.7795C95.8343 97.9951 95.9176 98.1781 96.0604 98.3283C96.1937 98.4686 96.3477 98.5604 96.5225 98.604C96.6971 98.6573 96.8831 98.6474 97.0804 98.5742C97.2728 98.5058 97.4716 98.374 97.6769 98.1789C97.8723 97.9932 98.0166 97.7941 98.11 97.5814C98.2031 97.3785 98.2399 97.1816 98.2203 96.9905C98.2007 96.7994 98.1243 96.6337 97.991 96.4935L98.8249 95.701C99.101 95.9915 99.2711 96.3159 99.3353 96.6743C99.3945 97.0374 99.3458 97.4125 99.1894 97.7995C99.0377 98.1915 98.7715 98.5683 98.3909 98.9301C98.0053 99.2966 97.6153 99.5432 97.2212 99.67C96.827 99.7969 96.4574 99.8192 96.1125 99.7371C95.7674 99.6648 95.4711 99.4985 95.2236 99.238C95.0332 99.0377 94.912 98.8049 94.8601 98.5397C94.8082 98.2745 94.8203 97.9913 94.8964 97.6903C94.9675 97.394 95.1023 97.0895 95.3008 96.7769C95.4991 96.4741 95.7485 96.1799 96.049 95.8943ZM93.2365 93.4916C93.5821 93.1632 93.9207 92.9177 94.2522 92.755C94.5886 92.5974 94.9134 92.508 95.2267 92.4866C95.5398 92.475 95.8293 92.5239 96.0953 92.6333C96.3661 92.7477 96.6038 92.9126 96.8085 93.128L95.922 93.9704C95.7452 93.8144 95.5522 93.7167 95.343 93.6771C95.1386 93.6426 94.9205 93.6688 94.6886 93.7558C94.4564 93.8525 94.2202 94.0151 93.9798 94.2436C93.6192 94.5863 93.4153 94.9183 93.368 95.2396C93.3207 95.561 93.4208 95.8519 93.6683 96.1123C93.8492 96.3026 94.0566 96.4105 94.2905 96.436C94.5245 96.4615 94.7774 96.4117 95.0494 96.2867C95.3164 96.1664 95.5901 95.973 95.8705 95.7065L96.3489 96.2098C95.9232 96.6144 95.4901 96.9259 95.0496 97.1444C94.6138 97.3679 94.1959 97.4648 93.796 97.435C93.391 97.4101 93.0195 97.2198 92.6816 96.8642C92.4007 96.5687 92.2309 96.2345 92.1719 95.8616C92.108 95.4935 92.1643 95.1064 92.3408 94.7003C92.5122 94.2991 92.8108 93.8962 93.2365 93.4916Z" fill="#B81B37"/>
<path d="M89.3342 99.5871L89.7127 100.578L86.8978 102.428L86.1295 101.693L89.3342 99.5871ZM89.5817 103.418L89.0718 100.566L88.9412 100.329L88.535 97.8801L89.6869 97.1232L90.9305 105.47L83.7626 101.016L84.9146 100.259L86.9496 101.563L87.1406 101.797L89.5817 103.418Z" fill="#B81B37"/>
<path d="M84.4128 107.73L84.8644 108.765L80.2288 110.787L79.7771 109.752L81.5345 108.985L79.0855 103.371L80.2159 102.878L82.6649 108.492L84.4128 107.73Z" fill="#B81B37"/>
<path d="M76.4611 112.251L75.2772 112.557L73.4596 105.534L74.6435 105.228L76.4611 112.251ZM74.8006 108.73L75.0707 109.774L73.656 110.14C73.1477 110.271 72.6828 110.295 72.2615 110.212C71.8353 110.137 71.476 109.962 71.1839 109.688C70.8934 109.42 70.6893 109.059 70.5716 108.604C70.4574 108.163 70.4615 107.752 70.584 107.37C70.7066 106.989 70.9351 106.658 71.2696 106.379C71.5992 106.108 72.0181 105.907 72.5265 105.775L73.9411 105.409L74.2112 106.453L72.7965 106.819C72.529 106.888 72.3053 106.989 72.1254 107.121C71.9405 107.262 71.8129 107.43 71.7424 107.627C71.6737 107.83 71.6714 108.056 71.7355 108.303C71.8013 108.557 71.9126 108.753 72.0696 108.891C72.2283 109.036 72.4218 109.121 72.6499 109.148C72.8731 109.183 73.1184 109.166 73.386 109.096L74.8006 108.73Z" fill="#B81B37"/>
<path d="M54.5732 110.953L54.4979 111.602C54.141 111.56 53.8334 111.573 53.5752 111.641C53.3162 111.715 53.1153 111.827 52.9727 111.977C52.8223 112.134 52.7352 112.315 52.7113 112.521C52.689 112.713 52.7171 112.89 52.7957 113.052C52.8665 113.221 52.9933 113.357 53.1759 113.462C53.3516 113.566 53.5802 113.634 53.8616 113.667C54.1292 113.698 54.3746 113.681 54.5977 113.616C54.8132 113.558 54.988 113.46 55.1222 113.323C55.2564 113.185 55.3347 113.02 55.357 112.828L56.4997 112.961C56.4535 113.359 56.3133 113.697 56.0792 113.976C55.8382 114.254 55.5191 114.457 55.1217 114.585C54.7235 114.72 54.2636 114.757 53.742 114.696C53.2135 114.635 52.7744 114.493 52.4245 114.272C52.0746 114.05 51.8207 113.781 51.6628 113.463C51.4973 113.152 51.4353 112.818 51.4767 112.461C51.5086 112.186 51.6097 111.944 51.7802 111.735C51.9506 111.525 52.1758 111.353 52.4557 111.218C52.7288 111.083 53.0489 110.992 53.4162 110.944C53.7757 110.902 54.1614 110.905 54.5732 110.953ZM54.6168 107.254C55.0903 107.309 55.4957 107.412 55.833 107.562C56.1694 107.72 56.4462 107.912 56.6633 108.139C56.8727 108.372 57.0206 108.626 57.107 108.9C57.1926 109.181 57.2183 109.469 57.184 109.764L55.9692 109.623C55.9757 109.388 55.9272 109.177 55.8236 108.991C55.7192 108.812 55.5593 108.661 55.344 108.539C55.121 108.422 54.8448 108.345 54.5154 108.307C54.0213 108.249 53.6357 108.305 53.3586 108.475C53.0816 108.644 52.9223 108.908 52.8809 109.265C52.8506 109.525 52.9006 109.754 53.0308 109.95C53.1611 110.146 53.3613 110.308 53.6316 110.437C53.8949 110.565 54.2188 110.651 54.6031 110.696L54.523 111.385C53.9396 111.318 53.423 111.185 52.973 110.986C52.5223 110.795 52.1802 110.536 51.9468 110.21C51.7066 109.883 51.6148 109.476 51.6714 108.988C51.7184 108.584 51.8662 108.239 52.1149 107.955C52.3566 107.67 52.6899 107.465 53.1148 107.341C53.5327 107.215 54.0334 107.187 54.6168 107.254Z" fill="#B81B37"/>
<path d="M47.4425 108.146L46.9196 109.069L43.7006 108.078L43.7778 107.017L47.4425 108.146ZM44.6479 110.777L46.5212 108.567L46.6203 108.316L48.249 106.442L49.5664 106.848L43.925 113.124L42.7915 104.762L44.1088 105.167L44.4002 107.567L44.3414 107.863L44.6479 110.777Z" fill="#B81B37"/>
<path d="M36.8316 110.244L35.7204 109.663L39.0828 103.234L40.194 103.816L36.8316 110.244ZM33.3328 108.414L32.0287 107.732L36.3133 106.137L35.2534 101.231L36.5849 101.928L37.641 106.796L33.3328 108.414Z" fill="#B81B37"/>
<path d="M30.9335 100.779L30.1168 101.457L27.4595 99.387L27.9083 98.4229L30.9335 100.779ZM27.3866 102.247L29.9227 100.846L30.1046 100.646L32.2924 99.473L33.3798 100.32L25.8773 104.184L27.7873 95.9641L28.8747 96.8111L28.295 99.1576L28.1348 99.4138L27.3866 102.247Z" fill="#B81B37"/>
<path d="M21.5463 94.8566L21.0586 95.2906C20.8197 95.0223 20.5815 94.8273 20.3439 94.7058C20.1011 94.5889 19.8765 94.5391 19.6699 94.5565C19.4536 94.5732 19.268 94.6505 19.1132 94.7883C18.9687 94.9169 18.8718 95.0679 18.8226 95.2412C18.7636 95.414 18.7674 95.6001 18.8341 95.7998C18.8962 95.9943 19.0214 96.1973 19.2097 96.4089C19.3889 96.6102 19.5832 96.761 19.7927 96.8612C19.9924 96.961 20.1881 97.0042 20.3797 96.9909C20.5713 96.9775 20.7394 96.9066 20.8839 96.778L21.6487 97.6373C21.3494 97.9037 21.0196 98.0631 20.6593 98.1156C20.2944 98.1628 19.9211 98.102 19.5394 97.9329C19.1526 97.7685 18.7846 97.4901 18.4355 97.0979C18.0819 96.7005 17.8481 96.3027 17.7342 95.9046C17.6204 95.5065 17.6101 95.1364 17.7034 94.7944C17.787 94.4518 17.963 94.161 18.2314 93.9222C18.4378 93.7385 18.6744 93.625 18.9412 93.5818C19.208 93.5386 19.4906 93.5599 19.789 93.6458C20.0828 93.7265 20.3827 93.8712 20.6886 94.0799C20.9848 94.288 21.2707 94.5469 21.5463 94.8566ZM24.0397 92.1242C24.3567 92.4803 24.591 92.8267 24.7426 93.1634C24.8892 93.5047 24.968 93.8323 24.9791 94.1461C24.9804 94.4594 24.9221 94.7472 24.804 95.0095C24.6808 95.2764 24.5083 95.5086 24.2863 95.7061L23.4733 94.7926C23.635 94.6209 23.739 94.4312 23.7854 94.2235C23.8266 94.0203 23.8075 93.8014 23.7282 93.5668C23.6391 93.3316 23.4843 93.0902 23.2638 92.8424C22.9331 92.4708 22.6079 92.2561 22.2883 92.1984C21.9687 92.1406 21.6747 92.2312 21.4063 92.47C21.2102 92.6446 21.0956 92.8483 21.0624 93.0813C21.0293 93.3143 21.0707 93.5687 21.1868 93.8446C21.2983 94.1154 21.4826 94.3953 21.7399 94.6843L21.2212 95.1459C20.8307 94.7072 20.5335 94.2642 20.3296 93.8168C20.1205 93.3739 20.0373 92.9531 20.0801 92.5543C20.1183 92.1504 20.3206 91.7853 20.687 91.4592C20.9915 91.1882 21.3311 91.0293 21.7058 90.9826C22.0758 90.9308 22.4609 90.9997 22.8609 91.1893C23.2563 91.3739 23.6493 91.6855 24.0397 92.1242Z" fill="#B81B37"/>
<path d="M18.0972 88.0618L17.0939 88.4074L15.3383 85.5329L16.0985 84.7893L18.0972 88.0618ZM14.2607 88.1827L17.1279 87.7673L17.3687 87.6445L19.8296 87.3194L20.5481 88.4957L12.1645 89.4629L16.8532 82.4461L17.5716 83.6224L16.2009 85.6132L15.9606 85.7964L14.2607 88.1827Z" fill="#B81B37"/>
<path d="M10.1127 82.8802L9.06263 83.2968L7.19747 78.5958L8.24749 78.1792L8.95457 79.9613L14.6478 77.7025L15.1026 78.8488L9.40939 81.1077L10.1127 82.8802Z" fill="#B81B37"/>
<path d="M5.84114 74.7539L5.57545 73.5602L12.6568 71.984L12.9225 73.1777L5.84114 74.7539ZM9.41639 73.2149L8.36431 73.4491L8.04683 72.0227C7.93275 71.5101 7.92472 71.0448 8.02275 70.6266C8.11254 70.2031 8.29939 69.8501 8.58332 69.5675C8.8605 69.2864 9.22839 69.0948 9.68699 68.9927C10.1321 68.8936 10.5432 68.9118 10.9202 69.0473C11.2971 69.1829 11.6195 69.4226 11.8871 69.7664C12.1465 70.1051 12.3333 70.5307 12.4474 71.0432L12.7648 72.4696L11.7128 72.7038L11.3953 71.2774C11.3352 71.0076 11.2422 70.7806 11.1163 70.5963C10.9821 70.4067 10.8179 70.2734 10.6238 70.1963C10.4229 70.1207 10.1977 70.1106 9.94818 70.1662C9.69191 70.2232 9.49223 70.3278 9.34914 70.48C9.19931 70.6337 9.1072 70.824 9.07281 71.0511C9.03017 71.273 9.03887 71.5188 9.09891 71.7885L9.41639 73.2149Z" fill="#B81B37"/>
<path d="M7.83766 53.0144L7.1921 52.9167C7.24585 52.5615 7.24352 52.2537 7.18509 51.9933C7.11984 51.7318 7.01454 51.5272 6.86919 51.3795C6.71805 51.2238 6.54001 51.1305 6.33507 51.0995C6.14379 51.0705 5.96577 51.0925 5.80101 51.1654C5.63044 51.2304 5.4897 51.3524 5.37878 51.5313C5.26889 51.7033 5.19276 51.9294 5.15037 52.2095C5.11006 52.4759 5.11828 52.7217 5.17504 52.9469C5.226 53.1642 5.31784 53.3424 5.45056 53.4812C5.58328 53.6201 5.74527 53.704 5.93655 53.733L5.76443 54.8704C5.36821 54.8104 5.0348 54.6587 4.7642 54.4151C4.49463 54.1646 4.30288 53.8386 4.18896 53.4371C4.0682 53.0345 4.0471 52.5736 4.12567 52.0544C4.20527 51.5284 4.36179 51.0944 4.59523 50.7523C4.82866 50.4103 5.10673 50.1659 5.42942 50.0191C5.74632 49.8644 6.08239 49.8139 6.43762 49.8677C6.71087 49.909 6.94936 50.0185 7.15309 50.1961C7.35681 50.3736 7.52101 50.6046 7.64568 50.889C7.77139 51.1666 7.85176 51.4897 7.88682 51.8584C7.91607 52.2192 7.89969 52.6045 7.83766 53.0144ZM11.5327 53.1857C11.4614 53.6571 11.3447 54.0587 11.1827 54.3906C11.0139 54.7214 10.8123 54.9914 10.578 55.2005C10.3379 55.4018 10.0793 55.5408 9.80211 55.6177C9.51811 55.6935 9.22924 55.7092 8.93549 55.6647L9.11846 54.4556C9.35383 54.4702 9.56621 54.429 9.7556 54.3319C9.93816 54.2337 10.0943 54.0791 10.2241 53.8682C10.348 53.6493 10.4348 53.376 10.4844 53.0481C10.5589 52.5562 10.5162 52.1689 10.3563 51.8862C10.1964 51.6034 9.93889 51.4352 9.58366 51.3814C9.32406 51.3422 9.09409 51.3842 8.89373 51.5076C8.69337 51.631 8.52418 51.8256 8.38616 52.0912C8.24917 52.35 8.15173 52.6706 8.09384 53.0532L7.40728 52.9493C7.49515 52.3686 7.64597 51.8569 7.85972 51.414C8.06664 50.9702 8.33714 50.6373 8.6712 50.4153C9.0063 50.1865 9.41637 50.1088 9.90139 50.1822C10.3044 50.2432 10.6437 50.4028 10.919 50.6611C11.1954 50.9126 11.3885 51.2528 11.4983 51.6817C11.6091 52.1037 11.6206 52.6051 11.5327 53.1857Z" fill="#B81B37"/>
<path d="M10.8563 45.983L9.95123 45.429L11.0511 42.2455L12.1085 42.3586L10.8563 45.983ZM8.3215 43.1006L10.4667 45.0479L10.7146 45.1555L12.5315 46.8468L12.0814 48.1496L5.99995 42.2985L14.3963 41.4495L13.9462 42.7523L11.5382 42.962L11.244 42.8932L8.3215 43.1006Z" fill="#B81B37"/>
<path d="M9.09798 35.2854L9.71581 34.1941L16.0289 37.7683L15.411 38.8596L9.09798 35.2854ZM11.0434 31.8493L11.7684 30.5686L13.2203 34.9039L18.158 34.0075L17.4177 35.3152L12.5172 36.2089L11.0434 31.8493Z" fill="#B81B37"/>
<path d="M18.6635 29.7814L18.0131 28.9429L20.1688 26.3549L21.1177 26.835L18.6635 29.7814ZM17.3132 26.1884L18.6301 28.7689L18.8239 28.9573L19.9244 31.1824L19.0422 32.2415L15.4259 24.6164L23.5791 26.7947L22.697 27.8538L20.3707 27.1975L20.1199 27.029L17.3132 26.1884Z" fill="#B81B37"/>
<path d="M24.9526 20.4917L24.5347 19.9901C24.8108 19.7601 25.0134 19.5284 25.1426 19.2949C25.2674 19.0561 25.3245 18.8332 25.3139 18.6262C25.3042 18.4094 25.2331 18.2214 25.1004 18.0622C24.9766 17.9135 24.8289 17.8117 24.6573 17.7569C24.4866 17.6922 24.3004 17.69 24.0986 17.7501C23.9022 17.8058 23.6952 17.9243 23.4776 18.1056C23.2705 18.278 23.1135 18.4673 23.0064 18.6734C22.9002 18.8698 22.8506 19.0639 22.8576 19.2559C22.8647 19.4479 22.9301 19.6182 23.0539 19.7668L22.17 20.5031C21.9135 20.1952 21.765 19.8603 21.7244 19.4985C21.6891 19.1322 21.7621 18.7611 21.9436 18.3852C22.1206 18.004 22.4108 17.6453 22.8143 17.3093C23.223 16.9688 23.6283 16.7482 24.0299 16.6474C24.4315 16.5466 24.8018 16.5485 25.1405 16.653C25.4802 16.7477 25.765 16.9331 25.995 17.2091C26.1718 17.4215 26.2775 17.6617 26.3119 17.9297C26.3464 18.1978 26.3158 18.4795 26.2202 18.775C26.1299 19.066 25.9755 19.361 25.7569 19.6599C25.5392 19.9492 25.2711 20.2264 24.9526 20.4917ZM27.6019 23.0732C27.2356 23.3784 26.8817 23.6012 26.5402 23.7418C26.1943 23.877 25.8643 23.9451 25.5502 23.9459C25.2371 23.937 24.9514 23.8693 24.6931 23.7427C24.4304 23.6108 24.204 23.4307 24.0138 23.2025L24.9535 22.4198C25.1197 22.587 25.3059 22.6972 25.512 22.7503C25.7137 22.7981 25.9331 22.7862 26.1702 22.7146C26.4082 22.6333 26.6546 22.4865 26.9094 22.2743C27.2916 21.9559 27.5168 21.6379 27.585 21.3204C27.6532 21.0028 27.5723 20.706 27.3424 20.4299C27.1744 20.2282 26.9745 20.107 26.7427 20.0662C26.511 20.0255 26.2553 20.0586 25.9757 20.1656C25.7015 20.2681 25.4157 20.4432 25.1184 20.6908L24.674 20.1573C25.1252 19.7814 25.5778 19.4989 26.0316 19.3097C26.4811 19.1152 26.9044 19.0458 27.3016 19.1016C27.7041 19.153 28.0623 19.3672 28.3762 19.7441C28.6371 20.0573 28.7848 20.4019 28.8192 20.7779C28.8589 21.1495 28.7775 21.532 28.5748 21.9257C28.3774 22.3149 28.0531 22.6974 27.6019 23.0732Z" fill="#B81B37"/>
<path d="M31.7573 17.3006L31.4451 16.2865L34.3762 14.627L35.0942 15.4114L31.7573 17.3006ZM31.7636 13.4623L32.0838 16.3417L32.1985 16.5864L32.4419 19.0568L31.2424 19.7358L30.5535 11.3248L37.4111 16.2434L36.2117 16.9225L34.2673 15.4866L34.0922 15.2403L31.7636 13.4623Z" fill="#B81B37"/>
<path d="M37.3152 9.41044L36.9343 8.34696L41.6956 6.64156L42.0765 7.70505L40.2715 8.35156L42.3368 14.1178L41.1758 14.5337L39.1104 8.76743L37.3152 9.41044Z" fill="#B81B37"/>
<path d="M45.3391 5.45743L46.5403 5.2283L47.8995 12.3544L46.6983 12.5836L45.3391 5.45743ZM46.7682 9.078L46.5662 8.01926L48.0016 7.74547C48.5174 7.64709 48.9828 7.65327 49.3978 7.76403C49.8183 7.8667 50.1655 8.06424 50.4393 8.35667C50.7119 8.6423 50.8921 9.01587 50.9802 9.47738C51.0656 9.9253 51.0348 10.3356 50.8879 10.7083C50.7409 11.081 50.4915 11.3958 50.1396 11.6529C49.7932 11.9018 49.3621 12.0755 48.8463 12.1739L47.4109 12.4476L47.2089 11.3889L48.6443 11.1151C48.9158 11.0633 49.1456 10.9773 49.3337 10.857C49.5272 10.7287 49.6655 10.5687 49.7485 10.377C49.8302 10.1785 49.8472 9.95373 49.7993 9.70262C49.7501 9.44472 49.6516 9.24194 49.5039 9.09428C49.3548 8.93982 49.1674 8.84194 48.9414 8.80063C48.721 8.75124 48.475 8.75243 48.2036 8.80421L46.7682 9.078Z" fill="#B81B37"/>
<path d="M67.3681 8.10648L67.4879 7.46466C67.8411 7.53063 68.1488 7.5389 68.4111 7.48948C68.6746 7.43327 68.8827 7.33509 69.0354 7.19492C69.1962 7.04923 69.2956 6.87451 69.3336 6.67076C69.3691 6.48059 69.3533 6.30192 69.2861 6.13474C69.227 5.96204 69.11 5.81718 68.935 5.70016C68.7669 5.58441 68.5436 5.50053 68.2651 5.44852C68.0003 5.39905 67.7543 5.3988 67.5273 5.44776C67.3083 5.49121 67.1271 5.57686 66.9838 5.70471C66.8404 5.83256 66.7509 5.99157 66.7154 6.18174L65.5846 5.97053C65.6582 5.57661 65.8214 5.24863 66.0741 4.98658C66.3337 4.7258 66.6661 4.5454 67.0714 4.44538C67.4779 4.33856 67.9392 4.33336 68.4554 4.42977C68.9784 4.52744 69.4067 4.69883 69.7405 4.94391C70.0743 5.189 70.309 5.47532 70.4446 5.80288C70.5883 6.12492 70.6271 6.46252 70.5612 6.81569C70.5104 7.08736 70.3928 7.32194 70.2083 7.51942C70.0238 7.71691 69.7873 7.87305 69.4988 7.98785C69.2171 8.10391 68.8914 8.17311 68.5217 8.19544C68.1601 8.21224 67.7756 8.18259 67.3681 8.10648ZM67.0695 11.7935C66.6009 11.7059 66.2035 11.5755 65.8774 11.4021C65.5526 11.222 65.2898 11.0112 65.0888 10.7699C64.896 10.523 64.7659 10.2597 64.6987 9.98006C64.6327 9.69361 64.627 9.40437 64.6815 9.11233L65.8836 9.33686C65.8609 9.57158 65.8948 9.78526 65.9853 9.97788C66.0771 10.1637 66.2262 10.3251 66.4326 10.4621C66.647 10.5935 66.9172 10.6896 67.2432 10.7505C67.7322 10.8419 68.1207 10.8125 68.4088 10.6625C68.6969 10.5125 68.8739 10.2609 68.9399 9.9077C68.9881 9.64962 68.954 9.41833 68.8375 9.21384C68.7211 9.00935 68.5325 8.83355 68.2718 8.68646C68.0179 8.54063 67.7008 8.4322 67.3205 8.36116L67.448 7.6786C68.0253 7.78643 68.5315 7.95478 68.9667 8.18367C69.4032 8.40576 69.7266 8.68757 69.9369 9.02908C70.154 9.37187 70.2175 9.78436 70.1275 10.2666C70.0526 10.6673 69.8814 11.0008 69.6138 11.2671C69.3529 11.5347 69.0063 11.7159 68.5739 11.8109C68.1483 11.9071 67.6468 11.9013 67.0695 11.7935Z" fill="#B81B37"/>
<path d="M74.2367 11.3461L74.8209 10.4603L77.9655 11.6672L77.8167 12.7201L74.2367 11.3461ZM77.2031 8.91018L75.1844 10.9883L75.0685 11.2324L73.3167 12.9912L72.0299 12.4973L78.0832 6.61707L78.648 15.0373L77.3611 14.5434L77.2329 12.1298L77.3116 11.838L77.2031 8.91018Z" fill="#B81B37"/>
<path d="M84.973 9.93889L86.0432 10.5925L82.2618 16.7837L81.1916 16.1301L84.973 9.93889ZM88.3428 11.997L89.5987 12.7641L85.2177 14.0715L85.95 19.0363L84.6675 18.253L83.9367 13.3256L88.3428 11.997Z" fill="#B81B37"/>
<path d="M90.1545 19.6737L91.0138 19.0511L93.5299 21.2904L93.0189 22.223L90.1545 19.6737ZM93.7898 18.4418L91.1675 19.6735L90.9729 19.861L88.713 20.8881L87.6834 19.9717L95.4227 16.607L92.9787 24.6845L91.9491 23.7681L92.6812 21.4646L92.8577 21.2194L93.7898 18.4418Z" fill="#B81B37"/>
<path d="M99.2558 26.285L99.7709 25.8837C99.9917 26.1672 100.217 26.3773 100.446 26.5141C100.68 26.6466 100.901 26.711 101.109 26.7073C101.325 26.7047 101.516 26.6397 101.679 26.5123C101.832 26.3935 101.938 26.2492 101.999 26.0795C102.069 25.911 102.077 25.7249 102.024 25.5213C101.975 25.3232 101.863 25.1124 101.689 24.8889C101.523 24.6764 101.339 24.5132 101.137 24.3994C100.944 24.2868 100.752 24.2309 100.56 24.2316C100.368 24.2324 100.195 24.2922 100.043 24.411L99.3357 23.5035C99.6518 23.2572 99.9914 23.1198 100.354 23.091C100.722 23.0677 101.09 23.1529 101.46 23.3466C101.835 23.536 102.184 23.8378 102.507 24.2521C102.834 24.6718 103.041 25.084 103.128 25.4888C103.216 25.8935 103.202 26.2635 103.086 26.5986C102.981 26.935 102.786 27.2136 102.502 27.4344C102.284 27.6042 102.041 27.7019 101.772 27.7276C101.503 27.7532 101.222 27.7134 100.93 27.6082C100.642 27.5084 100.352 27.3443 100.061 27.1161C99.7789 26.8891 99.5105 26.612 99.2558 26.285ZM96.5889 28.8482C96.2959 28.4721 96.0848 28.1111 95.9555 27.7652C95.8316 27.415 95.7744 27.083 95.7839 26.7691C95.8031 26.4564 95.8802 26.173 96.0151 25.9191C96.1555 25.6608 96.3429 25.4404 96.5773 25.2579L97.3288 26.2227C97.1562 26.3834 97.04 26.5658 96.9801 26.7701C96.9257 26.9701 96.9304 27.1898 96.9942 27.4291C97.0677 27.6696 97.2063 27.9207 97.4101 28.1823C97.7158 28.5748 98.0262 28.8103 98.3414 28.8888C98.6565 28.9674 98.9558 28.8963 99.2393 28.6755C99.4464 28.5142 99.5741 28.3184 99.6224 28.0881C99.6708 27.8578 99.646 27.6012 99.5483 27.3182C99.4548 27.0408 99.2891 26.7494 99.0514 26.4442L99.5992 26.0175C99.9601 26.4808 100.228 26.9424 100.402 27.4022C100.582 27.8578 100.637 28.2831 100.568 28.6782C100.504 29.0788 100.278 29.4299 99.8908 29.7313C99.5692 29.9818 99.22 30.1181 98.8431 30.1401C98.4704 30.1677 98.0907 30.0737 97.7039 29.8582C97.3214 29.6482 96.9497 29.3116 96.5889 28.8482Z" fill="#B81B37"/>
<path d="M102.251 33.2511L103.275 32.9727L104.836 35.9573L104.028 36.6489L102.251 33.2511ZM106.087 33.3849L103.198 33.6092L102.95 33.7157L100.473 33.8769L99.8341 32.6555L108.263 32.2465L103.12 38.9369L102.481 37.7155L103.981 35.82L104.232 35.6531L106.087 33.3849Z" fill="#B81B37"/>
<path d="M109.945 39.0846L111.02 38.74L112.564 43.5563L111.488 43.901L110.903 42.0751L105.07 43.9438L104.694 42.7694L110.527 40.9006L109.945 39.0846Z" fill="#B81B37"/>
<path d="M113.639 47.3701L113.826 48.5785L106.658 49.6915L106.47 48.483L113.639 47.3701ZM109.971 48.6736L111.036 48.5083L111.26 49.9523C111.341 50.4712 111.319 50.9361 111.194 51.347C111.077 51.7637 110.867 52.1039 110.566 52.3675C110.271 52.63 109.891 52.7973 109.427 52.8694C108.976 52.9393 108.567 52.8945 108.2 52.7348C107.832 52.575 107.526 52.3149 107.282 51.9544C107.045 51.5996 106.886 51.1628 106.806 50.6439L106.581 49.1999L107.646 49.0346L107.871 50.4785C107.913 50.7516 107.991 50.9842 108.105 51.1763C108.226 51.3742 108.382 51.5179 108.57 51.6075C108.766 51.696 108.99 51.7206 109.242 51.6814C109.502 51.6411 109.708 51.5497 109.861 51.4072C110.02 51.2635 110.124 51.0795 110.173 50.8552C110.23 50.6366 110.238 50.3907 110.195 50.1176L109.971 48.6736Z" fill="#B81B37"/>
</svg>
