<svg width="18" height="18" viewBox="0 0 18 18" fill="none" xmlns="http://www.w3.org/2000/svg">
<path d="M4.01853 8.03721C4.70744 6.17543 6.17532 4.70753 8.03706 4.0186C6.17532 3.32968 4.70744 1.86178 4.01853 0C3.32962 1.86178 1.86175 3.32968 0 4.0186C1.86175 4.70753 3.32962 6.17543 4.01853 8.03721Z" fill="#B81B37"/>
<path d="M4.01853 17.9999C4.70744 16.1381 6.17532 14.6702 8.03706 13.9813C6.17532 13.2923 4.70744 11.8244 4.01853 9.96265C3.32962 11.8244 1.86175 13.2923 0 13.9813C1.86175 14.6702 3.32962 16.1381 4.01853 17.9999Z" fill="#B81B37"/>
<path d="M13.9814 8.03721C14.6703 6.17543 16.1382 4.70753 18 4.0186C16.1382 3.32968 14.6703 1.86178 13.9814 0C13.2925 1.86178 11.8246 3.32968 9.96289 4.0186C11.8246 4.70753 13.2925 6.17543 13.9814 8.03721Z" fill="#B81B37"/>
<path d="M13.9814 17.9999C14.6703 16.1381 16.1382 14.6702 18 13.9813C16.1382 13.2923 14.6703 11.8244 13.9814 9.96265C13.2925 11.8244 11.8246 13.2923 9.96289 13.9813C11.8246 14.6702 13.2925 16.1381 13.9814 17.9999Z" fill="#B81B37"/>
</svg>
