<svg width="54" height="54" viewBox="0 0 54 54" fill="none" xmlns="http://www.w3.org/2000/svg">
<path d="M10.125 11.1797H43.875C46.1953 11.1797 48.0938 13.0781 48.0938 15.3984V38.6016C48.0938 40.9219 46.1953 42.8203 43.875 42.8203H10.125C7.80469 42.8203 5.90625 40.9219 5.90625 38.6016V15.3984C5.90625 13.0781 7.80469 11.1797 10.125 11.1797Z" fill="#FFAA29" style="fill:#FFAA29;fill:color(display-p3 1.0000 0.6650 0.1625);fill-opacity:1;"/>
<path d="M18.5625 11.1797H43.875C46.1953 11.1797 48.0938 13.0781 48.0938 15.3984V38.6016C48.0938 40.9219 46.1953 42.8203 43.875 42.8203H18.5625V11.1797Z" fill="white" style="fill:white;fill-opacity:1;"/>
<path d="M32.4844 42.8203H22.7812V15.4828C22.7812 15.4406 22.8234 15.3984 22.8656 15.3984H30.375C31.5562 15.3984 32.4844 16.3266 32.4844 17.5078V42.8203Z" fill="#C3DBEA" style="fill:#C3DBEA;fill:color(display-p3 0.7647 0.8588 0.9176);fill-opacity:1;"/>
<path d="M35.4375 36.7031C32.4 36.7031 29.9531 34.2563 29.9531 31.2188C29.9531 28.1813 32.4 25.7344 35.4375 25.7344C38.475 25.7344 40.9219 28.1813 40.9219 31.2188C40.9219 34.2563 38.475 36.7031 35.4375 36.7031ZM35.4375 28.2656C33.7922 28.2656 32.4844 29.5734 32.4844 31.2188C32.4844 32.8641 33.7922 34.1719 35.4375 34.1719C37.0828 34.1719 38.3906 32.8641 38.3906 31.2188C38.3906 29.5734 37.0828 28.2656 35.4375 28.2656Z" fill="#C3DBEA" style="fill:#C3DBEA;fill:color(display-p3 0.7647 0.8588 0.9176);fill-opacity:1;"/>
<path d="M18.8574 37.4203C15.3559 37.4203 12.1496 35.564 10.4199 32.5687C12.1496 29.5734 15.3559 27.7172 18.8574 27.7172M18.8574 26.0297C15.3559 26.0297 12.1496 24.1734 10.4199 21.1781C12.1496 18.1828 15.3559 16.3265 18.8574 16.3265" fill="white" style="fill:white;fill-opacity:1;"/>
<path d="M27 42.8203H18.5625V11.2641C18.5625 11.2219 18.6047 11.1797 18.6469 11.1797H27V42.8203Z" fill="white" style="fill:white;fill-opacity:1;"/>
<path d="M10.125 9.91406C7.0875 9.91406 4.64062 12.3609 4.64062 15.3984V38.6016C4.64062 41.6391 7.0875 44.0859 10.125 44.0859H14.6391C15.3563 44.0859 15.9047 43.5375 15.9047 42.8203C15.9047 42.1031 15.3563 41.5547 14.6391 41.5547H10.125C8.47969 41.5547 7.17188 40.2469 7.17188 38.6016V15.3984C7.17188 13.7531 8.47969 12.4453 10.125 12.4453H14.3438C15.0609 12.4453 15.6094 11.8969 15.6094 11.1797C15.6094 10.4625 15.0609 9.91406 14.3438 9.91406H10.125Z" fill="#2B3646" style="fill:#2B3646;fill:color(display-p3 0.1686 0.2118 0.2745);fill-opacity:1;"/>
<path d="M27.0008 19.8281C27.718 19.8281 28.2664 19.2797 28.2664 18.5625V11.1797C28.2664 10.4625 27.718 9.91406 27.0008 9.91406H18.5633C17.8461 9.91406 17.2977 10.4625 17.2977 11.1797V15.1453C13.9648 15.6094 11.0117 17.5922 9.32422 20.5453C9.11328 20.925 9.11328 21.4313 9.32422 21.8109C11.0117 24.7641 14.007 26.7469 17.2977 27.2109V36.0281C15.1461 35.6063 13.1633 34.3828 11.8977 32.5687C12.4039 31.8516 12.9945 31.2609 13.6695 30.7125C14.218 30.2906 14.3445 29.4891 13.9227 28.9406C13.5008 28.3922 12.6992 28.2656 12.1508 28.6875C11.0117 29.5734 10.0414 30.6703 9.32422 31.9359C9.11328 32.3156 9.11328 32.8219 9.32422 33.2016C11.0117 36.1547 14.007 38.1375 17.2977 38.6016V42.8203C17.2977 43.5375 17.8461 44.0859 18.5633 44.0859H27.0008H43.8758C46.9133 44.0859 49.3602 41.6391 49.3602 38.6016V15.3984C49.3602 12.3609 46.9133 9.91406 43.8758 9.91406H31.2195C30.5023 9.91406 29.9539 10.4625 29.9539 11.1797C29.9539 11.8969 30.5023 12.4453 31.2195 12.4453H43.8758C45.5211 12.4453 46.8289 13.7531 46.8289 15.3984V38.6016C46.8289 40.2469 45.5211 41.5547 43.8758 41.5547H28.2664V31.5984C29.1102 32.1469 30.1227 32.4844 31.2195 32.4844C34.257 32.4844 36.7039 30.0375 36.7039 27C36.7039 23.9625 34.257 21.5156 31.2195 21.5156C28.182 21.5156 25.7352 23.9625 25.7352 27V41.5547H19.8289V12.4453H25.7352V18.5625C25.7352 19.2797 26.2836 19.8281 27.0008 19.8281ZM31.2195 24.0469C32.8648 24.0469 34.1727 25.3547 34.1727 27C34.1727 28.6453 32.8648 29.9531 31.2195 29.9531C29.5742 29.9531 28.2664 28.6453 28.2664 27C28.2664 25.3547 29.5742 24.0469 31.2195 24.0469ZM11.8977 21.1781C13.1633 19.3641 15.1039 18.1406 17.2977 17.7188V24.6375C15.1461 24.2156 13.1633 22.9922 11.8977 21.1781Z" fill="#2B3646" style="fill:#2B3646;fill:color(display-p3 0.1686 0.2118 0.2745);fill-opacity:1;"/>
</svg>
