<svg width="80" height="80" viewBox="0 0 80 80" fill="none" xmlns="http://www.w3.org/2000/svg">
<g clip-path="url(#clip0_77_11811)">
<path d="M19.625 17.25L36.5 29.6875L61.3125 29L24.875 2.5H4.375C3.3125 2.5 2.5 3.3125 2.5 4.375V29.375L19.625 17.25Z" fill="#F2F4F6" style="fill:#F2F4F6;fill:color(display-p3 0.9490 0.9569 0.9647);fill-opacity:1;"/>
<path d="M16.875 29.375H71.25C74.6875 29.375 77.5 32.1875 77.5 35.625V71.25C77.5 74.6875 74.6875 77.5 71.25 77.5H16.875C13.4375 77.5 10.625 74.6875 10.625 71.25V35.625C10.625 32.1875 13.4375 29.375 16.875 29.375Z" fill="#FFAA29" style="fill:#FFAA29;fill:color(display-p3 1.0000 0.6650 0.1625);fill-opacity:1;"/>
<path d="M28.125 51.25H18.75C17.6875 51.25 16.875 50.4375 16.875 49.375C16.875 48.3125 17.6875 47.5 18.75 47.5H28.125C29.1875 47.5 30 48.3125 30 49.375C30 50.4375 29.1875 51.25 28.125 51.25Z" fill="#F2F4F6" style="fill:#F2F4F6;fill:color(display-p3 0.9490 0.9569 0.9647);fill-opacity:1;"/>
<path d="M59.375 41.25H40.625C39.5625 41.25 38.75 40.4375 38.75 39.375C38.75 38.3125 39.5625 37.5 40.625 37.5H59.375C60.4375 37.5 61.25 38.3125 61.25 39.375C61.25 40.4375 60.4375 41.25 59.375 41.25Z" fill="#F2F4F6" style="fill:#F2F4F6;fill:color(display-p3 0.9490 0.9569 0.9647);fill-opacity:1;"/>
<path d="M71.25 27.5H49.5C48.4375 27.5 47.625 28.3125 47.625 29.375C47.625 30.4375 48.4375 31.25 49.5 31.25H71.25C73.6875 31.25 75.625 33.1875 75.625 35.625V57.5H12.5V53.75C12.5 52.6875 11.6875 51.875 10.625 51.875C9.5625 51.875 8.75 52.6875 8.75 53.75V71.25C8.75 75.75 12.375 79.375 16.875 79.375H71.25C75.75 79.375 79.375 75.75 79.375 71.25V35.625C79.375 31.125 75.75 27.5 71.25 27.5ZM71.25 75.625H16.875C14.4375 75.625 12.5 73.6875 12.5 71.25V68.75H75.625V71.25C75.625 73.6875 73.6875 75.625 71.25 75.625Z" fill="#2B3646" style="fill:#2B3646;fill:color(display-p3 0.1686 0.2118 0.2745);fill-opacity:1;"/>
<path d="M33.75 29.375H2.5V44.375H33.75C37.875 44.375 41.25 41 41.25 36.875C41.25 32.75 37.875 29.375 33.75 29.375Z" fill="#F2F4F6" style="fill:#F2F4F6;fill:color(display-p3 0.9490 0.9569 0.9647);fill-opacity:1;"/>
<path d="M51.1259 23.625C50.7509 23.625 50.3759 23.5 50.0009 23.25L23.8134 4.00002C23.0009 3.37502 22.8134 2.18752 23.4384 1.37502C24.0634 0.562516 25.2509 0.375016 26.0634 1.00002L52.2509 20.25C53.0634 20.875 53.2509 22.0625 52.6259 22.875C52.2509 23.3125 51.6884 23.625 51.1259 23.625Z" fill="#2B3646" style="fill:#2B3646;fill:color(display-p3 0.1686 0.2118 0.2745);fill-opacity:1;"/>
<path d="M33.7504 46.25H2.50037C1.43787 46.25 0.625365 45.4375 0.625365 44.375C0.625365 43.3125 1.43787 42.5 2.50037 42.5H33.7504C36.8754 42.5 39.3754 40 39.3754 36.875C39.3754 33.75 36.8754 31.25 33.7504 31.25H2.50037C1.68787 31.25 0.937865 30.75 0.687865 29.9375C0.437865 29.1875 0.750365 28.3125 1.37537 27.8125L18.5004 15.6875C18.6879 15.5625 18.8754 15.5 19.0629 15.4375C19.1879 15.375 19.3129 15.375 19.4379 15.375C19.8754 15.3125 20.3129 15.4375 20.6879 15.75L27.8129 20.9375C28.3129 21.3125 28.5629 21.875 28.5629 22.4375C28.5629 22.8125 28.4379 23.1875 28.1879 23.5625C27.5629 24.375 26.3754 24.5625 25.5629 23.9375L19.5629 19.5625L8.37536 27.5H33.7504C38.9379 27.5 43.1254 31.6875 43.1254 36.875C43.1254 42.0625 38.9379 46.25 33.7504 46.25Z" fill="#2B3646" style="fill:#2B3646;fill:color(display-p3 0.1686 0.2118 0.2745);fill-opacity:1;"/>
</g>
<defs>
<clipPath id="clip0_77_11811">
<rect width="80" height="80" fill="white" style="fill:white;fill-opacity:1;"/>
</clipPath>
</defs>
</svg>
