<svg width="170" height="170" viewBox="0 0 170 170" fill="none" xmlns="http://www.w3.org/2000/svg">
<path d="M192.571 145.428C192.469 146.976 192.402 148.448 192.402 149.882C192.402 150.675 192.402 151.392 192.436 152.109L192.537 154.336C192.706 157.28 193.045 160.262 193.519 163.168C193.79 164.867 194.061 166.226 194.331 167.547C194.501 168.415 194.704 169.17 194.873 169.924H195.821V169.887C195.618 169.094 195.415 168.226 195.211 167.32C194.941 166.037 194.704 164.678 194.433 163.017C193.993 160.149 193.688 157.205 193.519 154.298L193.417 152.109C193.383 151.43 193.383 150.713 193.383 149.92C193.383 148.524 193.451 147.051 193.553 145.542C193.756 142.711 194.128 139.767 194.602 136.861C195.144 133.652 195.787 130.859 196.532 128.368C197.006 126.821 197.48 125.5 197.987 124.329C198.495 123.159 199.24 121.763 200.12 120.895C200.594 120.442 201.034 120.215 201.474 120.215C201.508 120.215 201.508 120.215 201.542 120.215C202.016 120.215 202.557 120.404 203.2 120.782C203.708 121.046 204.216 121.423 204.791 121.914C205.333 122.367 205.807 122.82 206.281 123.31C208.38 125.462 210.208 127.877 211.596 129.765C214.067 133.199 217.012 137.804 219.517 142.409C220.363 143.994 221.988 146.863 223.444 147.655C223.884 147.882 224.324 147.957 224.73 147.655C225.576 147.014 225.576 145.278 225.543 144.145C225.441 141.843 224.866 139.05 224.053 135.389C222.496 128.708 220.803 123.386 218.671 118.668C216.233 113.27 214.507 111.119 209.328 104.325C205.198 98.9276 201.914 94.8512 198.732 91.1146C196.599 88.6234 194.771 86.6607 193.045 84.8868C190.777 82.5844 189.017 80.6217 187.493 78.659C185.767 76.4698 184.244 74.0542 182.923 71.563C181.671 69.1474 180.554 66.4676 179.64 63.599C178.827 61.0702 178.116 58.3148 177.439 55.1443C176.83 52.2003 176.39 49.294 176.119 46.4631C175.814 43.2549 175.713 40.3863 175.848 37.7065C175.984 34.4227 176.424 31.5919 177.101 29.1008C177.473 27.742 177.846 26.2322 177.981 24.6847C178.286 21.2877 177.338 18.5702 175.341 16.2678C173.817 14.4938 171.955 13.2482 170.5 12.2669C169.687 11.7385 167.487 10.3419 165.287 9.02087C163.086 7.69982 160.818 6.34103 158.279 4.83126C155.842 3.39698 153.202 1.84947 150.053 0H148.09L148.361 0.150977C152.084 2.3024 155.131 4.03863 157.907 5.66163C160.412 7.13366 162.714 8.49245 164.914 9.8135C166.641 10.8703 167.69 11.512 168.875 12.2669C170.94 13.5879 173.14 14.9845 174.799 16.9094C178.15 20.7216 177.507 24.8357 176.39 28.7988C175.679 31.3654 175.239 34.234 175.104 37.631C174.968 40.3486 175.07 43.2549 175.374 46.5386C175.645 49.3694 176.085 52.3135 176.728 55.2953C177.405 58.5035 178.116 61.2966 178.929 63.8255C179.877 66.7318 180.994 69.4494 182.28 71.9027C183.6 74.4694 185.191 76.885 186.952 79.1496C188.509 81.1501 190.303 83.1505 192.571 85.4529C194.297 87.1892 196.092 89.1519 198.224 91.643C201.406 95.3419 204.656 99.4183 208.786 104.816C210.512 107.08 212.205 109.307 213.864 111.61C219.246 119.121 222.428 130.482 224.256 139.842C224.561 141.465 225.103 144.598 224.696 146.221C224.629 146.523 224.459 146.938 224.189 146.938C223.613 146.938 222.801 145.957 222.428 145.466C222.056 144.976 221.683 144.447 221.243 143.73C220.634 142.749 213.491 129.236 206.992 122.405C206.518 121.914 206.01 121.423 205.435 120.933C204.825 120.404 204.25 119.989 203.708 119.649C203.133 119.309 202.422 118.97 201.576 118.932C201.508 118.932 201.44 118.932 201.406 118.932C201.271 118.932 201.136 118.932 201 118.97C200.899 118.97 200.797 119.008 200.695 119.045C200.255 119.159 199.781 119.536 199.443 119.838C195.922 123.386 193.214 135.54 192.571 145.428ZM-79.3934 164.074C-79.0888 163.999 -78.818 163.923 -78.5133 163.848C-72.183 162.036 -65.9882 158.903 -60.0303 154.487C-52.9891 149.241 -47.6405 143.315 -43.9846 139.654C-41.2087 136.861 -39.7193 135.54 -37.7559 134.86C-30.0715 132.029 -17.6141 138.182 -10.5052 142.484C-7.25549 144.485 -4.81815 146.221 3.78018 148.335C8.75638 149.58 13.1571 150.335 15.4929 152.298C15.6283 152.411 15.7637 152.524 15.9329 152.713C16.61 153.581 17.05 154.525 17.524 155.619C19.1827 159.507 21.0107 165.773 22.1278 169.849V169.887H21.0784C20.2998 167.169 19.4535 164.263 18.4718 161.357C17.8625 159.583 16.3391 155.053 15.1543 153.619C14.9512 153.393 14.9512 153.393 14.782 153.242C12.6832 151.468 8.14705 150.637 3.54321 149.505C-7.39088 146.787 -7.93251 144.938 -15.583 140.899C-19.0359 139.087 -22.1502 137.729 -25.0953 136.785C-28.142 135.804 -31.8995 135.011 -35.0477 135.389C-38.8391 135.841 -40.3286 137.427 -45.2032 142.447C-48.9946 146.372 -53.4969 151.015 -59.4209 155.431C-65.3788 159.885 -71.7091 163.055 -78.2763 164.905C-79.4612 165.244 -80.6798 165.546 -81.8985 165.773H-81.9323V164.603L-81.0183 164.414C-80.4767 164.376 -79.9351 164.225 -79.3934 164.074ZM201.237 133.048C201.406 132.746 201.305 132.935 201.44 132.671C202.219 131.388 203.268 130.708 204.588 131.161C208.752 132.52 214.27 143.805 220.329 154.714L220.465 154.978L220.499 155.053C220.702 155.431 220.939 155.808 221.142 156.186L221.21 156.299C221.413 156.676 221.616 157.054 221.785 157.431L221.853 157.62C222.022 157.997 222.191 158.337 222.327 158.714L222.428 158.979C222.564 159.318 222.699 159.658 222.834 160.036C223.444 161.696 223.985 163.47 224.459 165.433C224.832 166.98 225.136 168.49 225.373 169.962V170H224.459C224.019 166.603 223.241 163.357 222.191 160.375C222.056 159.998 221.92 159.62 221.751 159.243L221.683 159.092C221.548 158.714 221.379 158.375 221.21 158.035L221.142 157.846C220.973 157.469 220.803 157.091 220.6 156.752L220.533 156.639C220.329 156.261 220.126 155.884 219.923 155.506L219.889 155.468C214.778 146.259 209.057 135.766 205.232 132.973C203.945 132.029 203.099 132.218 202.354 133.426C201.813 134.332 201.44 135.615 201.169 136.672C200.729 138.521 200.458 140.522 200.255 142.333C200.154 143.164 200.052 144.07 199.985 144.9C199.815 146.561 199.646 148.41 199.544 150.486C199.477 152.185 199.409 154.147 199.443 156.072C199.511 158.262 199.612 160.036 199.815 161.621C200.052 163.621 200.357 165.433 200.763 167.094C200.966 168 201.237 168.905 201.508 169.924V169.962H200.594C200.357 169.132 200.12 168.226 199.917 167.32C199.511 165.622 199.206 163.772 198.969 161.734C198.224 155.28 198.597 148.41 199.24 141.956C199.578 139.314 200.086 135.275 201.237 133.048ZM140.27 169.66C140.338 169.585 140.372 169.472 140.439 169.396C141.963 166.678 143.283 163.772 144.4 160.79C144.671 159.998 144.942 159.281 145.145 158.526C145.314 157.96 145.449 157.356 145.619 156.79C145.686 156.601 145.72 156.374 145.788 156.186L145.822 156.035C146.228 154.525 146.634 152.977 147.176 151.468C147.481 150.675 147.785 149.92 148.225 149.165C148.361 148.939 148.496 148.75 148.632 148.599C148.699 148.524 148.767 148.448 148.835 148.41C148.869 148.373 148.868 148.373 148.902 148.335C148.97 148.297 149.004 148.259 149.072 148.222L149.105 148.184C149.173 148.146 149.241 148.108 149.342 148.071C149.444 148.033 149.546 147.995 149.681 147.995C149.749 147.995 149.816 147.995 149.85 147.995C149.918 148.033 150.019 148.033 150.087 148.071C150.155 148.108 150.223 148.146 150.256 148.146L150.29 148.184C150.392 148.259 150.493 148.335 150.561 148.448C150.595 148.486 150.595 148.486 150.629 148.524C150.696 148.599 150.764 148.712 150.798 148.788C150.832 148.825 150.832 148.863 150.866 148.863C151.103 149.316 151.204 149.731 151.306 150.184C151.407 150.637 151.475 151.052 151.509 151.468C151.61 152.222 151.644 153.015 151.678 153.959C151.78 157.469 151.543 160.904 151.306 163.772C151.17 165.395 151.001 167.018 150.764 168.641C150.73 169.019 150.663 169.396 150.629 169.736V169.849H150.019V169.736C150.053 169.358 150.087 168.943 150.121 168.566C150.29 166.98 150.426 165.32 150.527 163.734C150.764 159.998 150.764 156.94 150.629 154.034C150.561 152.977 150.358 150.109 149.681 149.354L149.647 149.316H149.613C149.579 149.316 149.579 149.354 149.579 149.354C149.546 149.392 149.546 149.392 149.512 149.392C149.478 149.429 149.478 149.429 149.444 149.467C149.342 149.58 149.241 149.694 149.173 149.845C148.801 150.448 148.53 151.203 148.259 151.921C147.988 152.675 147.718 153.43 147.481 154.185L146.736 156.488L145.991 158.79C145.89 159.092 145.754 159.545 145.585 159.96L145.145 161.092C143.96 164.112 142.538 167.018 140.947 169.736C140.913 169.774 140.88 169.811 140.88 169.887H140.101L140.169 169.811L140.27 169.66ZM-30.3085 159.356C-26.7202 158.413 -22.5903 161.734 -13.992 163.546C-11.1823 164.15 -4.41194 165.093 -2.6178 169.924H-3.49794C-3.5318 169.811 -3.59949 169.736 -3.63335 169.623C-4.61505 167.886 -6.40919 166.792 -8.30489 166.037C-11.7239 164.678 -13.8904 164.98 -20.0853 162.942C-25.6369 161.13 -28.7174 159.205 -31.3579 160.941C-31.3579 160.941 -32.1365 161.545 -36.4695 164.527C-39.3807 166.49 -41.9873 168.264 -44.4585 169.887H-46.0833C-39.8885 165.659 -34.743 162.187 -32.7119 160.639C-31.9672 160.111 -31.3579 159.62 -30.3085 159.356ZM133.703 166.414C134.008 166.075 133.838 166.263 134.346 165.659C134.922 164.867 135.294 164.376 136.208 162.753C137.934 159.583 139.492 155.582 140.71 152.147C141.421 150.147 142.064 148.146 142.538 146.599C143.621 143.051 144.637 139.352 145.653 135.313C146.634 131.388 147.447 127.538 148.124 123.839C148.665 120.932 149.038 118.63 149.241 115.12C149.275 114.818 149.275 114.516 149.275 114.252C149.275 114.063 149.275 113.874 149.309 113.686V112.968V112.591V112.214V111.836L149.342 111.421C149.342 111.194 149.41 110.93 149.444 110.704V110.628C149.579 110.062 149.681 109.534 150.019 109.005C150.46 108.25 151.17 107.76 152.118 107.76C153.269 107.76 154.556 108.477 155.537 109.119C157.061 110.138 158.516 111.383 159.904 112.629C160.48 113.157 160.513 113.157 160.683 113.346C160.784 113.459 160.886 113.535 160.954 113.648C161.563 114.327 161.969 115.422 161.969 116.705C161.969 118.139 161.495 119.838 161.089 121.197C160.818 122.14 160.48 123.084 160.209 123.99C159.904 124.896 159.599 125.839 159.329 126.783C158.685 128.859 158.212 130.708 157.839 132.407C156.959 136.181 156.654 140.069 156.417 144.032C155.944 152.109 155.74 160.187 155.605 167.698C155.605 168.264 155.571 168.868 155.571 169.434V170H154.826V169.434C154.826 168.868 154.826 168.264 154.826 167.698C155.199 140.522 155.876 135.011 158.482 126.443C158.753 125.537 159.058 124.594 159.363 123.688C160.141 121.272 160.683 119.611 160.954 118.064C161.089 117.196 161.157 116.214 160.92 115.384C160.649 114.516 160.243 114.176 159.566 113.61C159.227 113.308 158.245 112.478 157.23 111.647C156.011 110.666 154.217 109.345 152.761 109.043C152.423 108.968 152.051 108.968 151.712 109.081C151.441 109.194 151.204 109.383 151.035 109.722C150.73 110.289 150.561 111.119 150.527 112.251L150.46 113.723C150.46 113.912 150.426 114.063 150.426 114.214C150.392 114.554 150.358 114.893 150.324 115.233C150.223 116.139 150.087 117.12 149.884 118.177C149.749 118.894 149.647 119.574 149.546 120.291C149.342 121.499 149.139 122.782 148.902 124.028C147.65 130.972 145.788 138.899 143.385 146.976C142.911 148.524 142.301 150.562 141.59 152.562C140.846 154.714 140.202 156.45 139.559 158.073C138.544 160.602 137.122 163.772 135.599 165.924C135.091 166.641 135.294 166.377 134.685 167.094C134.38 167.433 134.515 167.32 134.211 167.622C133.601 168.264 133.906 167.924 132.755 169.132L131.909 169.962H130.149C132.721 167.433 131.096 169.056 132.958 167.169C133.568 166.528 133.432 166.678 133.703 166.414ZM-46.388 153.619C-43.0706 149.014 -38.1621 141.012 -29.5299 142.635C-26.9572 143.088 -24.8245 144.258 -23.0304 145.202C-10.5391 151.958 0.598114 154.223 2.59537 154.865C4.22025 155.393 5.47275 156.299 6.45445 157.544C8.85793 160.602 10.0089 165.735 10.6859 169.924V169.962H9.43341C8.62097 165.244 7.26689 159.356 4.01714 157.129C2.62921 156.148 1.68137 156.148 -1.87306 155.129C-15.3122 151.317 -23.7412 146.07 -25.7385 145.127C-31.4256 142.484 -36.1987 143.277 -40.7686 148.222C-44.7632 152.449 -46.9635 158.526 -59.1501 167.849C-59.6917 168.264 -60.3011 168.717 -60.9104 169.17C-61.2489 169.434 -61.6213 169.698 -62.0952 170H-63.9909L-63.7878 169.849C-56.8482 164.942 -51.4996 160.186 -46.388 153.619ZM-38.5006 155.846C-35.3185 153.053 -31.7979 151.43 -28.142 153.506C-20.593 157.733 -1.73766 160.564 0.124191 161.281C0.428864 161.394 0.767365 161.545 1.03818 161.734C3.47549 163.282 4.11868 166.754 4.22025 169.887H3.13698C3.00157 166.678 2.25684 163.093 -0.5867 162.451C-2.6855 161.885 -21.0331 158.941 -28.6159 154.638C-30.6808 153.43 -32.8135 153.581 -34.98 154.714C-37.6543 156.11 -39.9562 158.639 -42.055 160.979C-43.3075 162.376 -43.3075 162.376 -43.9169 162.942C-44.12 163.131 -44.5939 163.621 -44.8647 163.885C-45.1355 164.187 -45.4402 164.452 -45.7448 164.716C-47.7421 166.528 -49.6378 168.037 -51.4996 169.396C-51.7366 169.585 -52.0074 169.736 -52.2444 169.924H-53.6323C-43.6799 162.678 -42.969 159.771 -38.5006 155.846ZM-30.6808 165.433C-29.97 165.018 -30.2408 165.169 -29.1237 164.603C-28.9883 164.527 -28.4128 164.338 -28.2774 164.263C-28.2435 164.263 -28.0743 164.225 -28.0743 164.225C-24.9938 163.659 -15.4476 168.452 -12.604 169.887H-14.432C-18.4604 168.075 -23.7074 165.81 -26.7202 165.32C-26.9233 165.282 -27.1264 165.282 -27.3295 165.244C-28.0404 165.282 -27.8035 165.206 -28.7513 165.584C-30.4778 166.452 -31.7979 167.207 -35.7924 169.887H-37.3496L-37.1465 169.736C-35.4201 168.49 -32.5765 166.49 -30.6808 165.433ZM113.663 14.5315C113.697 14.909 113.595 15.3242 113.392 15.6261C112.783 16.4565 111.192 16.9094 110.379 16.9094C104.523 17.0981 80.3527 10.6816 73.1761 13.4369C72.7022 13.6257 72.9392 13.5124 72.2283 13.8899C72.1267 13.9276 71.0773 14.7202 70.7388 14.9845C67.8276 17.3623 65.4241 20.4951 66.0334 24.4583C66.1688 25.2509 66.3042 25.6283 66.5073 26.1945C66.9813 27.4778 67.6922 29.2895 67.3875 30.4973C67.2182 31.1767 66.6766 31.7051 65.7626 31.7429C63.7992 31.8184 60.3125 29.8557 58.5522 28.8366C56.5888 27.7043 54.6593 26.3455 51.3079 23.0617C44.8761 16.6452 38.4443 8.49245 31.9109 0.0377442H33.2989C38.4782 6.60524 51.1725 22.9862 57.8075 27.0626C58.4845 27.5155 63.6299 30.6861 65.6949 30.6106C66.2704 30.6106 66.6427 30.3841 66.3042 28.8743C65.9319 27.2513 65.2887 26.3455 65.0517 24.6847C64.8148 23.2882 64.9163 21.9294 65.3225 20.6461C65.7287 19.2873 66.3381 18.3437 67.049 17.2869C67.4213 16.7584 68.403 15.6261 68.9447 15.1732C70.2649 13.9654 70.7727 13.6257 71.382 13.1727C71.4836 13.0972 71.5851 13.0218 71.7205 12.9463C72.4991 12.4933 72.296 12.6066 72.8038 12.4179C74.4963 11.7762 76.6628 11.663 78.457 11.663C88.4771 11.663 104.455 15.9658 110.345 16.0413C111.056 16.0413 112.952 15.5506 112.816 14.6825C112.613 12.7198 106.452 9.24734 104.827 8.37922C99.2419 5.28419 93.2163 2.6421 87.4277 0.113233H89.1203C94.1642 2.26465 108.991 8.56794 112.783 12.9085C113.155 13.2482 113.561 13.7766 113.663 14.5315ZM234.581 54.5404C232.99 50.5773 233.904 47.067 237.898 44.4249L237.966 44.3495V45.4818C234.716 47.8219 234.039 50.6527 235.393 54.1252C235.969 55.5972 237.086 57.409 237.966 58.6923V60.3153L237.831 60.1643C237.357 59.4849 235.461 56.6918 234.581 54.5404ZM237.831 6.98268C237.695 6.79396 234.141 0.26421 234.039 0.0754884H235.393C236.274 1.623 237.12 3.13277 237.966 4.68028V7.24689L237.831 7.02043V6.98268ZM223.85 0.0754884H225.069C229.3 7.47336 234.006 15.9658 237.966 23.5524V25.8548L237.831 25.6283C227.269 6.41652 228.251 8.1905 223.85 0.0754884ZM129.505 18.1927C129.505 18.6079 129.336 19.0608 129.065 19.325C128.794 19.5893 128.591 19.7025 128.287 19.9289C128.016 20.1177 127.779 20.2309 127.508 20.4196C127.17 20.6461 126.831 20.7593 126.459 20.948C124.529 21.8539 120.67 22.9107 115.525 23.2127C113.189 23.3637 110.481 23.2127 109.397 23.175C105.2 22.8353 102.999 22.6088 96.2968 21.1745C82.9254 18.306 75.0041 17.4001 71.9913 22.3446C71.0435 23.8921 70.5357 25.5906 71.7882 29.2895C72.9053 32.611 74.9026 35.857 72.5329 36.8761C71.8898 37.1026 71.3143 37.1026 70.6373 37.0648C69.1478 37.0648 66.0334 36.6496 62.0051 35.2908C57.8752 33.9321 53.1698 31.2522 52.3573 30.6861L50.5632 29.5537C50.0554 29.2518 50.1231 29.2895 49.3445 28.7234C45.587 26.0813 41.8633 22.873 38.3427 19.1363C35.4653 15.8903 36.0747 16.5697 35.2623 15.6639C34.5175 14.7202 34.8899 15.2109 33.5358 13.4747C31.1662 10.4552 28.8981 7.1714 20.2998 0.0754884H21.7554C22.6356 0.792629 23.3803 1.43428 24.0912 2.07593C24.8021 2.67984 25.4791 3.32149 26.1561 3.9254C30.523 7.96403 32.2833 10.3797 34.2128 12.7953C35.6346 14.607 35.2284 14.0786 35.9393 14.9467C36.7179 15.8148 36.1085 15.1354 38.9859 18.3814C43.9621 23.6656 47.7535 26.3832 50.5632 28.3837C50.8002 28.5346 51.071 28.6856 51.3079 28.8743C53.813 30.4596 52.7974 29.8557 55.8779 31.5919C57.8752 32.611 60.0417 33.6301 62.2759 34.3472C66.7782 35.8948 71.0096 36.4232 72.2283 35.9325C72.6006 35.7438 72.8038 35.5928 72.7361 34.9134C72.4652 32.0071 68.1999 26.421 71.2466 21.7784C73.4808 18.3059 77.1706 17.7398 80.9959 17.7775C88.0709 17.9285 96.5338 20.3441 102.458 21.3632C109.499 22.571 117.319 22.9107 124.224 20.8726C125.782 20.4196 127.407 19.5893 127.847 19.2496C128.422 18.8344 129.708 18.3814 127.474 16.079C122.532 11.0591 105.708 3.09503 99.5466 0.226465L99.2081 0.0754884H100.528C106.757 2.94405 123.006 10.5306 127.948 15.5129C128.693 16.1923 129.505 17.2114 129.505 18.1927ZM68.8431 2.18916C68.5384 2.41563 68.1999 2.52886 67.9291 2.60435C66.7105 2.94405 65.4918 3.35924 63.9346 4.22735C56.4534 8.41696 55.6748 16.1923 45.5193 0.0377442H46.3656C57.4012 16.7207 55.9118 4.94449 67.6244 1.9627C67.8952 1.88721 68.2676 1.81172 68.5046 1.623C68.64 1.50977 68.7077 1.39654 68.5046 1.09458C68.1999 0.641652 67.726 0.301954 67.4213 0.0754884H68.403C69.4863 1.01909 69.3509 1.81172 68.8431 2.18916ZM-61.3505 143.202C-56.4081 139.087 -44.9662 129.463 -39.8208 126.783C-37.4173 125.5 -33.389 125.198 -30.7485 125.198C-26.754 125.198 -22.4887 125.915 -18.9005 127.802C-13.2134 130.821 1.74905 141.541 13.394 141.956C15.0528 141.994 17.2193 142.145 19.352 142.9C21.2138 143.541 23.0756 144.674 24.6667 146.221C26.0546 147.58 27.3748 149.203 28.6612 151.203C29.6767 152.826 30.6923 154.6 31.7755 156.827C33.4004 160.186 34.9576 163.885 36.7517 168.754C36.8871 169.094 36.9887 169.396 37.0902 169.736L37.1579 169.924L37.1918 170H35.9054C27.104 146.146 21.4846 143.617 13.3264 143.315C1.27515 142.824 -13.755 131.878 -19.3744 128.897C-26.314 125.311 -36.0633 126.368 -39.0084 127.764C-39.6516 128.104 -39.9224 128.217 -41.5472 129.274C-48.4191 133.841 -59.7256 143.617 -63.0092 146.297C-63.9909 147.089 -64.7357 147.655 -65.4804 148.146C-67.2068 149.354 -68.9333 150.448 -70.6597 151.354C-74.2818 153.279 -78.0732 154.714 -81.8985 155.544H-81.9323V154.261C-78.2425 153.393 -74.6204 152.034 -71.1675 150.147C-67.9854 148.41 -64.7695 146.146 -61.3505 143.202ZM86.1752 6.60524C85.8367 6.8317 85.7012 6.90719 83.8733 7.05817C79.2017 7.43561 67.2182 8.00178 63.8669 11.5875C61.8697 13.7389 61.7681 18.9476 61.2942 21.5142C61.1588 22.2313 60.9557 23.1372 60.4818 23.6656C60.4479 23.7034 60.2448 23.8921 60.1771 23.8921C59.8724 24.0431 59.8386 24.0431 59.5 24.0808C59.4323 24.0808 59.2292 24.0431 59.1954 24.0431C58.2814 23.8166 57.4012 22.9485 56.7242 22.1936C52.7297 17.7775 43.8944 4.79352 40.6447 0.0754884H41.5248C54.3208 18.1172 58.2137 22.9485 59.5339 22.9485C60.4479 22.9485 60.4817 18.5702 61.1926 15.3242C62.0728 11.3988 63.2237 10.2664 65.8642 9.02087C71.9913 6.26554 83.6702 6.45426 85.5658 5.96359C85.6335 5.96359 85.8028 5.85035 85.8705 5.81261C85.9721 5.73712 86.0059 5.69938 86.1075 5.58615C86.1752 5.47291 86.1413 5.32194 86.0398 5.09547C85.0919 3.35924 80.0142 0.905861 78.3554 0.0754884H80.0142C81.5375 0.830373 86.3444 3.17051 86.8184 4.98224C87.0215 5.66163 86.7507 6.2278 86.1752 6.60524ZM217.012 105.269C210.919 94.7758 204.081 85.6794 197.006 78.2815C195.211 76.4698 195.888 77.1115 194.061 75.3752C193.553 74.9223 193.045 74.4316 192.537 73.9787C192.266 73.7522 191.996 73.488 191.759 73.2615L191.386 72.8841L191.014 72.4689C190.1 71.4498 189.22 70.242 188.441 68.921C187.764 67.7509 187.121 66.4298 186.478 64.9956C185.428 62.5422 184.548 59.7868 183.77 56.6163C182.009 49.3694 181.095 41.2544 181.028 34.6869C180.994 32.4223 181.028 30.2331 181.502 27.9685C182.957 20.9103 187.561 19.2118 185.462 17.4378C182.754 14.9845 165.997 4.52931 162.985 2.60435C162.071 2.03819 161.191 1.47202 160.277 0.905861L159.193 0.226465L158.956 0.0754884H160.412L161.292 0.603908C161.969 1.01909 162.68 1.43428 163.357 1.84947C166.065 3.51021 184.007 14.4938 186.308 16.7584C186.647 17.0604 186.986 17.6643 187.019 18.3437C187.053 19.627 186.004 20.7216 184.921 22.4201C183.803 24.1563 182.991 26.0435 182.551 28.1949C182.111 30.2709 182.111 32.4978 182.111 34.6492C182.145 36.0457 182.179 37.48 182.28 39.0275C182.686 45.1798 183.566 50.9924 184.853 56.2766C185.631 59.3717 186.512 62.0515 187.527 64.4671C188.136 65.8637 188.746 67.1092 189.423 68.2416C190.168 69.4871 190.946 70.5817 191.826 71.563L192.165 71.9405L192.537 72.2802C192.74 72.5067 193.011 72.7331 193.282 72.9596C193.451 73.1106 193.654 73.2993 193.824 73.4503C194.771 74.2806 194.636 74.1674 196.329 75.8281C200.188 79.7535 201.846 81.6785 204.758 85.2265C210.919 92.813 216.91 102.249 220.059 108.401C227.878 123.31 230.993 152.675 231.805 169.924H230.959C230.113 154.487 227.777 135.728 223.681 121.008C221.48 113.27 219.889 110.477 217.012 105.269ZM225.949 113.535C224.866 110.742 225.272 111.761 224.764 110.553C223.681 108.099 224.189 109.194 222.496 105.759C222.327 105.457 222.157 105.118 221.988 104.816C220.194 101.456 221.04 103.042 219.923 101.117C213.796 90.6616 206.823 81.2633 200.188 74.1297C198.36 72.167 196.972 70.5817 195.076 67.298C192.943 63.5613 191.319 59.3717 190.168 55.2198C189.389 52.4267 188.78 49.5204 188.373 46.6141C187.595 40.8015 187.493 34.6492 188.949 28.9876C189.727 26.0435 190.98 23.175 193.18 21.3632C193.451 21.1368 193.722 20.9103 193.993 20.7216C194.805 20.1177 194.873 20.0044 194.771 19.6647C194.738 19.5138 194.67 19.325 194.636 19.2873C194.568 19.1741 194.534 19.0608 194.433 18.9476C192.131 16.0413 173.648 3.09503 170.5 0.868117C170.195 0.641652 169.89 0.452931 169.586 0.226465L169.383 0.0754884H170.737C170.906 0.188721 171.075 0.301954 171.278 0.452931C173.648 2.07593 193.756 15.8903 195.381 18.3814C195.482 18.5324 195.584 18.7589 195.685 18.9853C195.855 19.3628 195.922 19.7402 195.855 20.1554C195.753 20.8348 195.11 21.2877 194.636 21.6652C194.365 21.8539 194.094 22.0804 193.857 22.2691C192.91 23.0617 192.097 24.1186 191.454 25.4019C189.727 28.8366 189.017 33.8943 188.983 37.8197C188.949 40.5373 189.118 43.4059 189.524 46.4631C189.931 49.294 190.506 52.1625 191.285 54.8801C192.097 57.7109 193.079 60.4285 194.196 62.8819C195.787 66.3543 197.141 68.5058 199.003 70.9214C199.714 71.7518 199.646 71.714 201.542 73.7522C207.263 79.829 215.556 90.9636 220.566 99.7957C220.736 100.098 221.108 100.739 221.311 101.117C221.954 102.249 223.342 104.816 223.511 105.155C224.121 106.363 223.816 105.759 224.933 108.062C226.626 111.912 225.949 110.326 227.1 113.308C228.352 116.554 232.99 134.369 235.292 145.844C235.36 146.108 235.393 146.334 235.461 146.599C235.563 147.051 235.664 147.504 235.732 147.995L236.138 150.147C236.24 150.637 236.341 151.166 236.443 151.656C236.612 152.562 236.781 153.506 236.951 154.449L237.695 158.752C237.729 159.016 237.797 159.243 237.831 159.507C237.898 159.809 237.932 160.111 238 160.413V165.206H237.865L237.56 163.244L237.221 161.092C237.154 160.639 237.052 160.149 236.984 159.696C236.951 159.432 236.883 159.205 236.849 158.941L236.07 154.638C235.901 153.732 235.698 152.789 235.529 151.883C233.159 140.031 231.094 131.576 227.912 119.876C227.337 117.988 226.694 115.46 225.949 113.535ZM236.883 123.499C234.581 117.158 232.313 112.025 229.774 106.741C228.758 104.665 228.894 104.967 227.98 103.193C227.134 101.532 227.235 101.758 225.238 98.2105C222.022 92.964 220.668 90.7749 213.39 82.2824C208.143 76.1678 204.859 72.2424 200.458 65.5617C199.883 64.6559 200.086 64.9956 199.511 64.0897C199.375 63.8255 199.206 63.599 199.071 63.3348L198.664 62.5422C190.337 46.7273 195.042 26.3077 201.44 24.9112C203.573 24.345 205.164 23.9298 205.773 23.4392C205.976 23.2504 206.078 23.0995 205.807 22.6088C205.536 22.0049 204.825 21.1368 204.419 20.6461C202.117 17.8908 201.339 17.2114 199.815 15.8148C194.501 11.1345 185.902 4.52931 180.283 0.226465L180.08 0.0754884H181.468C187.764 4.79352 195.347 10.4929 200.899 15.3242C201.677 16.0036 201.576 15.8903 202.93 17.2491C206.179 20.7593 207.093 22.0804 207.026 23.2127C206.89 25.1377 203.742 25.4019 201.169 26.27C200.628 26.4587 199.68 27.1381 198.8 28.4591C194.771 34.4605 193.282 49.7846 199.68 61.825C200.12 62.6554 200.086 62.6177 200.357 63.0329C200.391 63.0706 200.932 63.9765 200.966 64.0142C201.508 64.8446 201.372 64.6559 201.609 64.9956C213.999 83.9809 221.243 84.698 232.956 111.157C233.261 111.836 233.565 112.553 233.87 113.233C235.867 118.064 235.156 116.29 237.086 121.423C237.323 122.065 237.865 123.65 237.966 123.952V126.481L237.831 126.066C237.526 125.273 237.188 124.405 236.883 123.499ZM206.518 148.259C206.518 148.259 206.958 148.222 207.567 148.675C208.718 149.58 210.005 151.732 211.122 153.808C212.476 156.261 213.187 157.431 213.965 159.281C215.489 162.866 216.707 166.641 217.655 169.849V169.887H216.741C216.335 168.377 215.895 166.867 215.421 165.357C214.575 162.715 213.288 159.243 211.934 156.903C210.885 155.129 209.125 152.298 207.804 150.675C207.533 150.373 206.856 149.58 206.484 149.543C206.416 149.543 206.416 149.543 206.383 149.618C206.213 149.882 206.078 150.411 206.044 150.713C206.01 150.939 205.942 151.203 205.942 151.43C205.875 152.298 205.875 152.147 205.875 152.675C205.875 153.091 205.875 153.242 205.875 153.694C205.976 157.469 207.161 162.602 208.109 165.848C208.481 167.169 208.888 168.49 209.361 169.811L209.395 169.887H208.481C207.432 166.565 206.552 163.282 205.875 160.073C205.367 157.469 204.555 153.053 204.893 150.524C205.028 149.467 205.502 148.259 206.518 148.259ZM222.834 51.3699C221.92 49.0675 221.717 46.6519 222.868 44.5004C223.884 42.5377 225.746 41.1789 227.608 40.1976C229.199 39.3672 230.993 38.6878 233.227 38.0462C234.649 37.631 236.206 37.2913 237.932 36.9516H237.966V38.1217C236.341 38.4614 234.886 38.8388 233.532 39.254C230.959 40.0089 227.844 41.2167 225.746 43.0284C224.256 44.274 223.241 45.897 223.308 47.9729C223.342 48.8788 223.545 49.8224 223.952 50.8792C225.272 54.2007 228.589 58.4281 230.857 61.0324C232.922 63.4103 235.055 65.5995 237.966 68.317V69.9023L237.865 69.8268C233.159 65.5617 225.272 57.409 222.834 51.3699ZM230.214 77.2247C228.352 74.7336 226.355 72.0537 224.392 69.3739C223.444 68.0906 222.462 66.7318 221.548 65.4485L221.514 65.4107C220.499 64.0142 219.517 62.6177 218.671 61.4099C213.424 54.012 211.934 51.5586 211.122 48.4636C208.786 38.952 218.129 34.7247 226.93 33.4791C227.134 33.4414 227.235 33.4036 227.438 33.3659C227.506 33.3659 227.574 33.3281 227.641 33.2904C227.675 33.2904 227.811 33.2149 227.811 33.2149C227.811 33.2149 227.811 33.2149 227.844 33.2149C228.657 32.762 228.623 31.4409 228.488 30.4596C227.371 22.9862 216.504 6.26554 212.51 0.188721L212.408 0.0754884H213.356C217.96 6.86945 224.933 17.5888 228.115 25.3264C228.691 26.7607 229.3 28.4591 229.605 30.3086C229.706 31.1767 229.774 32.1581 229.402 33.1772C229.165 33.7056 228.792 34.1208 228.386 34.385C228.251 34.4605 228.183 34.4982 228.048 34.536C227.912 34.5737 227.811 34.6492 227.675 34.6492C227.506 34.6869 227.235 34.7624 227.066 34.7624C221.683 35.5551 213.965 37.782 212.273 43.5191C211.359 46.5764 212.611 49.8601 214.168 52.54C215.861 55.333 217.791 58.0884 219.585 60.655C222.496 64.8068 225.509 68.921 228.42 72.9596C229.3 74.1297 230.146 75.3375 230.993 76.5075C233.532 79.98 236.037 83.377 237.966 85.9813V87.4534L237.865 87.3024C234.784 83.2638 232.448 80.1687 230.214 77.2247ZM212.239 66.845C211.697 66.1279 211.9 66.3921 211.325 65.7127C206.044 59.2584 208.414 62.127 207.297 60.7305C204.351 57.0693 202.016 52.238 201.643 47.1048C201.609 46.6519 201.609 46.7273 201.609 46.4254C201.576 44.5759 201.609 45.1798 201.677 43.8965C201.745 43.3304 201.813 42.8019 201.88 42.3113C201.982 41.7829 202.083 41.2544 202.219 40.7638C203.911 34.2718 208.651 29.2895 213.796 27.7043C214.608 27.4778 214.473 27.5155 215.59 27.3268C215.793 27.2891 216.03 27.2513 216.2 27.0626C216.335 26.9116 216.369 26.6097 216.301 26.1945C215.455 21.7784 204.351 9.73801 201.44 6.60524C199.612 4.64254 197.649 2.52886 195.415 0.226465L195.279 0.113233H196.43C198.597 2.34014 200.391 4.18961 202.016 5.8881C206.247 10.3042 216.403 21.1745 217.35 25.9303C217.621 27.3646 217.08 28.3082 215.692 28.5346C215.556 28.5724 215.218 28.6101 215.116 28.6479C207.229 29.9689 197.006 43.0284 206.755 57.8996C208.346 60.1643 207.601 59.0697 208.481 60.2398C208.854 60.7304 209.26 61.2211 209.666 61.7118C209.7 61.7495 212.171 64.8068 212.171 64.8068C212.747 65.524 212.544 65.2598 213.085 65.9769C215.353 68.9587 216.403 70.3175 217.52 71.9027C222.157 78.357 226.558 85.0755 230.519 91.8694C233.159 96.3233 235.63 100.853 237.966 105.344V107.194C231.23 94.3228 222.53 80.2065 213.762 68.8077C213.322 68.2416 213.491 68.468 212.239 66.845ZM-27.0587 74.9223C-24.1136 77.6776 -21.6425 79.4893 -18.9682 79.4893C-15.5153 79.4893 -11.7578 76.4698 -5.52904 68.6945C-2.11002 64.4294 0.801224 59.9756 3.37395 56.0502C8.62096 48.0484 12.5816 41.8583 16.9485 43.8588C22.6356 46.4631 51.985 73.4125 70.1295 101.532C85.7012 125.688 101.578 140.107 112.546 140.107C113.629 140.107 114.678 139.956 115.66 139.691C124.665 137.049 128.862 123.273 128.93 96.3233C128.964 78.0928 125.003 72.8086 121.55 68.1661C120.264 66.4676 119.079 64.8823 118.131 62.7686C116.777 59.7869 116.676 57.6354 117.793 56.3144C118.571 55.4463 119.858 54.9933 121.652 54.9933C125.917 54.9933 132.247 57.4845 136.377 59.5981C152.254 67.7509 153.168 73.3748 164.44 81.5275C167.893 84.0186 171.448 86.2456 174.9 88.397C179.233 91.1146 182.991 93.417 185.53 95.6816C194.738 103.872 192.503 108.439 189.964 112.893C189.524 113.648 189.694 113.384 189.152 114.365C186.749 118.668 183.431 124.556 182.212 135.54C180.791 148.41 182.754 162.602 184.074 169.924V169.962H183.126C181.806 162.602 179.843 148.373 181.298 135.426C182.382 125.726 184.853 120.064 188.407 113.799C188.983 112.78 188.813 113.082 189.22 112.327C191.454 108.401 193.756 104.325 184.954 96.4742C182.449 94.2473 178.76 91.9449 174.46 89.2651C171.008 87.1137 167.419 84.8868 163.933 82.3579C159.532 79.1496 156.688 76.3566 153.946 73.6767C149.647 69.4494 145.585 65.4485 135.971 60.504C130.555 57.7109 125.071 55.9747 121.652 55.9747C120.095 55.9747 119.011 56.3144 118.436 56.9938C117.59 57.9751 117.759 59.7491 118.91 62.278C119.824 64.2784 121.009 65.8637 122.227 67.4867C125.816 72.2802 129.878 77.6776 129.844 96.3233C129.81 123.801 125.375 137.917 115.897 140.673C114.848 140.975 113.764 141.126 112.613 141.126C101.307 141.126 85.1258 126.556 69.3847 102.136C51.3418 74.1297 22.1955 47.4067 16.5761 44.8024C16.1699 44.6137 15.7298 44.5004 15.2897 44.5004C12.0738 44.5004 8.55327 49.8601 4.1187 56.6541C1.54597 60.6172 -1.39914 65.071 -4.85201 69.3739C-11.3515 77.4511 -15.1429 80.4707 -18.8666 80.4707C-21.4393 80.4707 -24.0459 79.0364 -27.6342 75.6772C-29.4283 73.9787 -30.8501 72.3934 -32.0011 71.1101C-33.9645 68.8832 -35.2847 67.4112 -36.9095 67.4112C-38.7037 67.4112 -40.9718 69.1097 -45.5417 73.9787C-55.8327 84.8868 -69.441 92.2469 -81.9323 93.6434V92.6243C-69.678 91.2278 -56.3066 83.9809 -46.1849 73.2238C-35.0139 61.4476 -35.7248 66.8073 -27.0587 74.9223ZM-8.6434 26.9494C-8.20332 25.7793 -7.62784 24.0808 -7.56013 22.8353C-7.56013 22.4201 -7.59398 21.9671 -7.89865 21.552C-9.08347 19.8912 -12.6718 22.6843 -14.2289 23.8921C-15.9892 25.2886 -17.7834 26.8739 -20.0514 29.0253C-22.895 31.7429 -28.8867 36.7251 -27.8373 40.6505C-27.2618 42.8774 -24.6891 44.0475 -22.7257 44.8024C-17.6479 46.6141 -10.6407 32.3845 -8.6434 26.9494ZM-19.7467 42.9529C-20.3222 43.3681 -21.0331 43.7456 -21.7101 43.7456C-21.9471 43.7456 -22.1164 43.7078 -22.3195 43.6323C-23.5043 43.1417 -24.8245 42.5377 -25.8062 41.6319C-26.2463 41.2167 -26.5171 40.7638 -26.6525 40.2731C-27.0926 38.7256 -25.6031 36.6874 -24.6552 35.4796C-20.7623 30.6106 -11.69 22.0049 -8.98192 22.0049C-8.81265 22.0049 -8.67725 22.0426 -8.57568 22.1559C-7.42473 23.7411 -14.2628 39.0275 -19.7467 42.9529ZM0.631973 17.5888C1.81679 15.7771 4.32179 11.9272 3.10313 10.1532C2.3584 8.98313 0.564255 9.32282 -0.654404 9.66252C-3.63335 10.4929 -7.49243 12.6443 -10.1667 14.3051C-18.325 19.2873 -33.5583 30.7993 -33.8629 36.2345C-33.8629 36.5742 -33.8629 36.6874 -33.7952 36.9516C-33.0166 41.7829 -25.4 52.8419 -21.2362 52.8419C-14.8721 52.8042 -6.13837 27.8552 0.631973 17.5888ZM1.68137 13.8144C1.10588 14.9467 0.428848 16.0413 -0.180481 16.9472C-6.20609 26.1567 -15.7184 51.7851 -21.2701 51.7851C-21.5409 51.7851 -21.6086 51.7473 -21.8794 51.6718C-25.4677 50.5773 -31.1886 42.4623 -32.6104 37.9329C-32.7458 37.48 -32.9489 36.7629 -32.9489 36.2722C-32.6443 30.1954 -6.03682 10.6061 1.17358 10.4174C1.54596 10.4174 2.12144 10.4552 2.32455 10.7948C2.49382 11.0213 2.49382 11.5497 2.32455 12.1536C2.18915 12.7575 1.91833 13.3237 1.68137 13.8144ZM144.637 25.1377C143.994 27.1758 143.926 27.591 141.929 28.3459C139.864 29.1008 137.731 29.667 135.937 31.7051C135.192 32.611 134.718 33.3281 134.752 34.1208C134.786 34.6115 134.989 35.0644 135.328 35.4796C137.934 38.5369 148.902 40.4241 154.116 42.6132C154.826 42.9152 155.47 43.1039 156.248 43.1039C159.261 43.1039 160.683 39.6692 161.021 36.3099C161.292 33.6301 161.021 30.4218 159.972 27.9685C159.295 26.3455 158.279 25.0622 157.027 24.0053C155.537 22.722 153.574 21.7784 151.78 21.099C151.577 21.0235 151.441 20.9103 151.238 20.8726C150.933 20.7971 150.256 20.5706 149.512 20.5329C148.699 20.4574 147.819 20.5706 147.108 20.9858C145.686 21.8539 145.145 23.5524 144.637 25.1377ZM145.483 25.5528C146.262 23.2504 146.939 21.5142 149.444 21.7784C150.053 21.8162 150.629 22.0426 150.933 22.1181C151.137 22.1936 151.272 22.1936 151.441 22.2691C154.657 23.4392 157.704 25.0999 159.159 28.4591C161.224 33.2527 160.446 43.2171 155.368 42.0848C154.725 41.9338 154.454 41.7451 153.337 41.3299C148.496 39.5937 139.932 37.8575 136.682 35.5551C135.226 34.536 135.429 33.8566 135.836 33.2527C136.039 32.913 136.276 32.6488 136.479 32.3468C138.138 30.4596 140.067 30.0067 142.166 29.2518C144.502 28.3837 144.772 27.7797 145.483 25.5528ZM-36.5033 43.821C-31.3579 43.821 -27.4988 55.1443 -21.1685 56.4276C-20.9993 56.4654 -20.83 56.4654 -20.6607 56.4654C-15.1091 56.4654 -5.93527 39.9711 -0.485153 30.1199V30.0821C0.462692 28.3837 1.27515 26.9116 1.98604 25.7038C4.01714 22.1936 6.2175 15.5129 12.3447 15.5129C16.8808 15.5129 22.6694 19.2496 30.0491 26.9116C50.2247 47.8974 86.3444 52.0493 82.8916 42.1226C80.2173 34.4227 86.2767 32.4978 93.6902 32.4978C99.5466 32.4978 108.043 33.6678 119.756 36.0835C141.32 40.5373 151.475 46.2367 155.842 48.69C156.654 49.143 157.264 49.4827 157.738 49.7091C158.99 50.313 160.04 50.5773 160.852 50.5773C161.461 50.5773 161.969 50.4263 162.409 50.1243C163.831 49.0675 164.542 46.0857 164.61 40.726C164.711 31.4409 167.25 26.119 162.883 23.5901C159.329 21.5142 133.838 6.52975 123.074 0.188721L122.87 0.0754884H124.834C137.901 7.77531 160.04 20.7593 163.357 22.722C166.945 24.798 166.573 28.4969 166.031 33.6301C165.828 35.7438 165.591 38.0839 165.557 40.7638C165.49 46.5764 164.711 49.7469 162.951 50.9924C162.375 51.4076 161.698 51.6341 160.92 51.6341C159.938 51.6341 158.821 51.3321 157.433 50.6905C156.925 50.464 156.282 50.0866 155.47 49.6337C151.17 47.218 141.049 41.5564 119.621 37.1026C111.598 35.4418 101.408 33.5546 93.8595 33.5546C88.6463 33.5546 85.3289 34.4982 83.9748 36.3099C82.9931 37.5932 82.9593 39.405 83.7717 41.7829C84.4487 43.7456 84.0087 45.4063 82.4853 46.5386C75.6134 51.7473 46.5349 45.444 29.4398 27.6665C22.2294 20.1932 16.6438 16.532 12.3447 16.532C11.9384 16.532 11.5661 16.5697 11.1937 16.6452C7.4023 17.2869 5.40506 21.1745 3.81403 24.3073C3.44165 25.0622 3.06929 25.7416 2.76462 26.27C-2.7532 35.8193 -14.2966 58.881 -21.3378 57.4467C-28.1758 56.0502 -32.238 44.123 -36.9434 44.8779C-43.5106 45.9347 -60.7073 62.3912 -81.9323 65.3353H-81.9662V64.3162C-68.4932 62.4289 -56.7466 55.0311 -48.1483 49.6337C-43.7137 46.8783 -38.9745 43.821 -36.5033 43.821ZM-40.8025 32.46C-30.1731 19.476 -10.8776 2.79307 3.2047 3.88766C10.212 4.34059 16.8131 7.69982 22.5679 12.1536C25.276 14.2673 27.9164 16.6829 30.6246 19.5138C33.3327 22.4201 35.8716 24.9112 38.3766 27.1004C52.7297 39.7069 66.5073 43.4059 73.5485 41.7829C75.0041 41.4432 76.8998 40.5373 77.2383 38.9143C77.8138 36.3477 74.8687 32.9884 75.715 30.5351C75.9858 29.7424 76.5613 29.2895 77.2045 28.9121C83.2639 25.4019 93.8257 26.7607 106.351 28.8743C116.709 30.9503 129.302 28.6101 136.851 25.7416C140.676 24.2695 144.163 22.3446 141.489 18.8344C140.507 17.5511 138.815 16.3433 137.46 15.4374C136.14 14.5315 134.718 13.6257 132.958 12.6066C126.222 8.64343 116.574 3.77442 109.533 0.226465L109.228 0.0754884H110.548C117.386 3.47247 126.797 8.15275 133.297 11.9272C135.429 13.1727 138.07 14.7957 140.033 16.3432C142.877 18.5324 144.468 21.4387 141.861 23.9676C138.307 27.3646 122.972 31.3654 111.395 30.5728C110.447 30.5351 109.567 30.4218 108.788 30.3086C108.01 30.1954 107.231 30.0821 106.486 29.9312L106.182 29.8934C100.698 28.9876 92.6408 27.7797 87.123 27.7797C84.1779 27.7797 80.8604 28.044 78.1523 29.365C77.8815 29.516 77.3399 29.7802 77.0691 29.9689C74.0224 32.1581 81.2667 38.0084 76.1889 41.5941C71.4835 44.9156 55.641 43.5946 37.6996 27.9307C35.1607 25.7038 32.588 23.2127 29.8798 20.2686C27.2055 17.4378 24.599 15.0599 21.9247 12.984C18.878 10.6061 15.9329 8.83215 12.954 7.47336C8.85793 5.62389 4.965 4.869 1.81679 4.869C-1.09445 4.869 -4.14113 5.62389 -6.95082 6.68073C-18.6635 11.0591 -31.7641 22.4578 -40.3286 33.0262C-49.2316 44.0853 -63.4154 51.7096 -76.3468 55.2953C-78.8518 55.9747 -80.8152 56.3899 -82 56.5786V55.5595C-68.0531 52.9174 -50.7549 44.7269 -40.8025 32.46ZM148.462 28.5724C147.65 29.9312 146.6 31.9694 146.262 33.5546C146.16 34.1585 146.16 34.4605 146.363 34.9512C147.176 36.6496 150.256 36.9893 152.084 37.1781C153.235 37.2913 154.556 37.329 154.996 37.329C158.516 37.2913 156.756 28.7234 153.946 26.3077C153.642 26.0435 153.269 25.8548 152.897 25.7038C152.592 25.6661 152.423 25.5528 151.712 25.6661C150.358 25.968 149.275 27.3268 148.462 28.5724ZM151.712 27.0626C152.829 26.7229 153.879 27.6665 154.556 28.7234C155.876 30.9125 156.621 35.0266 155.605 36.0835C155.3 36.3854 154.996 36.3099 154.082 36.2722C152.288 36.1967 150.155 36.008 148.564 35.3663C147.887 35.1021 147.481 34.7624 147.311 34.4227C146.871 33.6678 148.801 27.9307 151.712 27.0626ZM-49.8409 0.0754884H-48.453C-49.6378 2.03819 -49.2993 1.47202 -50.3148 2.94405C-51.3304 4.30284 -50.8226 3.66119 -51.9736 5.05773C-52.8537 6.07682 -52.6844 5.8881 -54.2078 7.43561C-54.4447 7.66208 -54.6817 7.88854 -54.9187 8.11501C-62.6707 14.909 -72.1492 18.2682 -81.8985 19.325V18.6456C-69.3734 16.8339 -57.4914 11.512 -49.8409 0.0754884ZM-57.5252 0.0754884C-59.2178 1.77398 -58.947 1.54751 -59.5563 2.03819C-61.7906 4.00089 -63.9909 5.62389 -66.5636 7.05817C-71.4721 9.8135 -76.5837 11.5497 -81.9323 12.5688V11.7385C-73.5032 9.88899 -65.6835 6.37877 -59.3532 0.0754884H-57.5252ZM-71.3367 0.0754884H-69.2718C-73.1647 3.01954 -77.3623 5.05773 -81.9323 6.64298V5.62389C-78.3102 4.2651 -74.5526 2.45337 -71.3367 0.0754884ZM65.3564 63.0706C64.8825 61.2589 64.3747 59.0697 64.8825 56.3144C65.0517 55.333 65.3564 54.6159 65.2548 53.8233C65.221 53.4836 65.1194 53.1061 64.9502 52.8042C64.7809 52.4645 64.5101 52.238 64.307 52.0493C63.1899 51.2189 61.5311 50.917 59.6016 50.5395C53.7791 49.4827 52.1881 48.1239 50.8679 47.7087C50.5632 47.6332 50.2924 47.5577 49.9877 47.5955C49.7846 47.6332 49.5138 47.7464 49.3784 47.9729C49.3107 48.0861 49.243 48.2749 49.243 48.3881C49.006 51.2944 58.0106 61.2589 62.4113 64.5804C63.0545 65.071 64.1716 65.8259 64.9163 65.8637C65.0856 65.8637 65.221 65.8259 65.3564 65.7504C65.4579 65.7127 65.5256 65.5995 65.5595 65.524C65.6272 65.4485 65.6272 65.373 65.661 65.2975C65.7626 64.8823 65.6949 64.4294 65.5933 64.0142C65.5595 63.7877 65.4241 63.3348 65.3564 63.0706ZM64.6794 64.7313C59.9401 63.2593 49.7846 50.615 50.0554 48.5768C50.1908 48.5391 50.5294 48.6146 50.6648 48.6523C51.7819 48.992 52.425 49.8601 60.7526 51.8228C63.5623 52.5022 64.5778 52.9174 64.3747 54.6536C64.3408 54.9178 64.2731 55.2198 64.2054 55.4463C64.1377 55.7105 64.1039 56.0502 64.07 56.3144C63.5622 60.1643 64.6116 63.7123 64.6794 64.7313ZM-67.4099 138.559C-58.3376 134.558 -52.786 129.161 -47.9452 124.443C-43.9846 120.555 -41.2426 117.913 -36.4018 118.026C-29.733 118.215 -19.916 117.611 -11.5208 122.48C-8.67726 124.141 2.22301 131.992 14.1727 133.803C16.0006 134.067 17.8286 134.218 19.6905 134.181C21.2477 134.143 22.3309 134.105 23.4819 134.105C26.3254 134.105 28.8981 134.294 31.0308 135.087C31.9786 135.464 32.8588 135.955 33.6374 136.634C34.3483 137.2 35.0253 137.917 35.77 138.823C36.4471 139.616 37.0564 140.446 37.6319 141.201L38.0719 141.805L38.512 142.447C38.7828 142.862 39.0536 143.315 39.3244 143.768C40.3062 145.429 41.1524 147.165 42.2018 149.203C44.0975 153.053 45.9255 156.978 47.415 160.262L49.92 165.848L51.1725 168.641L51.3418 168.981C51.4772 169.283 51.5788 169.547 51.7142 169.849L51.748 169.924H50.3601L50.2924 169.774C50.2247 169.585 50.1231 169.434 50.0554 169.245L48.8368 166.452L46.3318 160.866C44.8423 157.544 43.0481 153.657 41.1524 149.807C40.2723 148.071 39.3583 146.221 38.3427 144.447C38.1058 144.032 37.835 143.579 37.5642 143.202L37.1579 142.598L36.7179 141.994C36.1424 141.239 35.5331 140.446 34.9237 139.654C34.2467 138.823 33.5697 138.144 32.9265 137.615C32.2156 137.049 31.437 136.559 30.6246 136.257C28.932 135.615 27.0701 135.426 25.276 135.351C23.685 135.275 22.0939 135.313 20.5029 135.351C19.7243 135.351 19.6228 135.389 19.2504 135.389C17.5917 135.389 15.8991 135.238 14.0034 134.973C1.91833 133.086 -8.91422 125.235 -12.0286 123.461C-20.153 118.781 -29.7668 119.423 -36.4356 119.234C-39.4146 119.196 -41.4796 120.215 -43.8153 122.216C-49.8748 127.387 -58.3377 139.125 -77.8363 143.239C-79.1903 143.541 -80.5444 143.768 -81.9323 143.956H-81.9662V142.711C-80.6459 142.522 -79.3257 142.258 -78.0732 141.994C-74.3157 141.201 -70.7274 140.031 -67.4099 138.559ZM-52.9891 16.23C-52.9553 16.1923 -50.4841 14.1918 -50.4502 14.1541C-49.7732 13.6257 -49.8748 13.7012 -48.7238 12.6821C-44.3231 8.75666 -40.6332 5.09547 -36.2664 0.0754884H-35.1154C-39.2792 5.05773 -41.3441 7.13366 -44.6954 10.4552C-54.9186 20.4951 -68.2901 29.2895 -81.9323 30.1576V29.3273C-79.4612 29.1008 -76.8884 28.6101 -74.2818 27.8552C-66.3605 25.4774 -59.6579 21.401 -52.9891 16.23ZM-43.0367 19.5893C-29.3606 7.02043 -29.2591 5.92584 -20.4915 0.0754884H-19.002C-28.9883 6.86945 -28.2774 7.28464 -42.3935 20.4196C-46.8619 24.5337 -50.5856 27.742 -54.1739 30.5351C-62.5353 37.0648 -71.9799 42.4245 -81.9323 44.3117V43.4813C-71.9122 41.3677 -63.1785 36.1967 -54.7494 29.6292C-51.2288 26.9116 -47.5051 23.7034 -43.0367 19.5893ZM-81.086 130.595C-79.8335 130.406 -78.6148 130.18 -77.43 129.916C-75.1281 129.387 -72.7246 128.67 -70.2535 127.802C-66.8006 126.556 -62.4676 124.518 -59.9626 123.084C-56.442 121.121 -55.6972 120.631 -53.3953 119.159C-44.8308 113.686 -41.1072 105.571 -35.0477 107.118C-34.7092 107.194 -34.4384 107.307 -34.1337 107.42C-29.1237 109.005 -13.2811 111.044 -1.12833 106.514C1.47826 105.533 3.64478 104.363 5.47276 102.966C8.18089 100.89 9.63652 98.5502 10.6521 97.2291C14.4435 92.2091 17.5578 88.2083 20.4352 88.2083C21.3492 88.2083 22.1617 88.5857 22.9064 89.2273C25.3437 91.341 27.5779 96.3233 30.6584 103.683C32.5202 108.099 35.7023 113.988 38.0042 118.139C40.8139 123.197 43.6575 128.066 46.0948 132.143C48.6337 136.445 51.3757 140.975 54.4562 145.957C57.2997 150.599 60.1094 155.167 62.9191 159.696L69.2832 169.887L69.3509 170H67.7937C66.0673 167.282 64.3409 164.527 62.6821 161.885L61.8358 160.564C59.0938 156.186 56.2164 151.543 53.339 146.825C50.2924 141.805 47.5843 137.276 45.0454 132.935C41.8633 127.5 39.3244 123.046 37.0225 118.857C35.8377 116.667 34.4498 114.176 33.1973 111.647C28.8981 103.117 29.5751 103.381 26.4608 96.7385C25.7838 95.3042 25.2083 94.1718 24.6328 93.1905C22.9402 90.3219 21.3492 88.6989 19.2842 89.6425C16.4068 90.9636 12.5816 96.663 10.0766 99.8712C9.67036 100.4 9.63652 100.4 9.43341 100.664C9.26414 100.853 9.12875 101.041 8.92564 101.192C6.25136 104.023 2.59537 106.175 -0.891357 107.496C-13.1118 112.1 -29.1575 110.213 -34.4384 108.59C-34.9123 108.439 -35.5894 108.137 -36.571 108.137C-41.2426 108.137 -45.0678 115.12 -52.9214 120.178C-57.7961 123.31 -59.1163 123.99 -62.9415 125.952C-65.6497 127.274 -67.8839 128.217 -69.9488 128.972C-72.4538 129.878 -74.8911 130.595 -77.2269 131.161C-78.4456 131.425 -79.6981 131.69 -80.9506 131.878C-81.1198 131.916 -81.2891 131.916 -81.4922 131.954C-81.6277 131.992 -81.7631 131.992 -81.9323 132.029H-81.9662V130.821C-81.7969 130.784 -81.6276 130.784 -81.4584 130.746L-81.086 130.595ZM-75.1281 120.895C-69.2041 119.46 -62.7046 116.479 -57.3898 113.308L-55.528 112.176C-45.6094 106.25 -42.3935 97.7575 -35.7586 98.4369C-34.5738 98.5502 -17.4448 103.759 -4.61504 96.512C-3.36252 95.7948 -2.14386 94.9645 -1.06061 94.0586C0.327316 92.8885 0.93663 92.2091 2.08759 90.9636C15.2897 76.2811 14.0034 68.0906 19.3181 71.1101C24.1589 73.9032 30.8954 83.5657 34.0097 88.5479C35.6008 91.0768 36.8533 93.4924 39.5953 98.9276C39.9338 99.5693 40.2384 100.211 40.577 100.853C43.8267 107.269 46.6026 112.478 49.2768 117.234C54.1515 125.915 59.0938 133.728 63.9008 140.635C65.4918 142.937 67.2521 145.353 69.2493 148.033L69.3509 148.146C70.231 149.316 71.1112 150.486 72.0252 151.656C72.8038 152.675 73.6162 153.694 74.3948 154.676L74.8349 155.242C76.4936 157.318 78.3893 159.432 80.8605 161.885C83.941 164.867 86.7168 167.471 89.2557 169.811L89.3911 169.924H87.5631C78.7278 162.262 74.4963 156.978 68.4707 148.939L68.3692 148.825C66.3719 146.108 64.6117 143.692 63.0206 141.352C58.2475 134.483 53.339 126.594 48.4305 117.8C45.7563 113.006 43.0143 107.798 39.7984 101.343C39.4598 100.702 39.1552 100.06 38.8167 99.4183C35.1945 92.1714 34.2467 90.3597 30.7938 85.2642C28.8981 82.5089 27.104 80.131 25.3098 78.0551C23.6173 76.0924 21.0784 73.337 18.9119 72.0915C18.4718 71.865 17.8963 71.6008 17.4224 71.6008C17.1516 71.6008 17.0839 71.6385 16.8808 71.7895C16.5761 72.0537 16.2376 72.3557 15.8652 72.9218C13.6987 76.0546 11.0921 82.7731 2.52766 92.0959C2.12144 92.5488 1.71523 93.0018 1.27515 93.417C0.801224 93.9076 0.259598 94.3983 -0.417435 94.9645C-1.56839 95.9081 -2.82091 96.7762 -4.14113 97.4933C-13.2472 102.589 -24.9599 102.06 -34.8108 99.6448C-41.5811 97.984 -44.4923 106.816 -54.9864 113.233C-61.4182 117.158 -67.6807 120.48 -74.8911 122.178C-77.2946 122.744 -79.6642 123.084 -81.9323 123.159V121.876C-80.9506 121.838 -80.1043 121.763 -79.2919 121.65C-77.667 121.461 -76.3468 121.197 -75.1281 120.895ZM31.6063 127.387C31.8432 126.254 31.5047 125.084 31.0646 124.028C30.2522 122.14 29.5413 120.178 28.8643 118.253C25.7499 109.647 22.297 99.2296 18.5395 99.5315C18.0317 99.5693 17.6932 99.7957 17.05 100.173L16.8808 100.286C13.5972 102.476 11.0583 106.061 7.63925 109.873C5.16808 112.667 3.50935 113.648 1.34285 116.252C-0.552841 118.555 -2.14388 121.536 -0.180481 123.801C1.30899 125.613 4.5249 126.217 6.65756 126.519C17.8625 128.33 30.3537 132.482 31.6063 127.387ZM28.9997 128.67C24.6667 129.765 14.8497 126.858 6.75912 125.537C4.76187 125.235 2.96774 124.858 1.47827 123.952C0.76738 123.499 0.0564728 122.857 -0.146637 121.952C-0.552856 120.215 0.835083 118.102 1.91833 116.781C3.74632 114.516 5.23579 113.421 6.79297 111.912C8.14703 110.553 9.19644 109.383 10.7198 107.609C11.0244 107.231 11.8707 106.288 12.2769 105.873C14.2742 103.683 15.8991 101.909 18.1333 100.702C19.0811 100.173 19.9951 100.966 20.706 101.834C21.857 103.23 22.9064 105.306 23.685 107.043C25.1067 110.138 26.4608 113.837 27.5779 117.045C27.9841 118.177 27.9503 118.102 28.3904 119.309C30.4214 125.009 30.5569 124.707 30.7938 125.839C31.1323 127.462 30.4214 128.293 28.9997 128.67ZM-36.4356 52.238C-31.5271 52.238 -23.1658 67.298 -17.6818 63.2971C-11.8593 59.0697 6.35289 25.0622 11.1937 22.4578C11.5999 22.2313 12.04 22.1181 12.5477 22.1181C17.5578 22.1181 27.7133 33.1394 48.4982 55.9747C54.253 62.278 69.9941 80.2442 72.6006 78.5457C74.124 77.5266 70.9081 68.3548 70.1295 62.7309C68.7415 52.6532 86.0736 53.1439 88.4094 52.087C89.0187 51.8228 88.8495 50.615 88.5786 48.841C88.1386 46.1234 87.5293 42.3868 91.1852 41.028C97.0077 38.8765 120.501 41.4809 134.312 44.9911C148.022 48.4636 154.691 53.1816 159.092 56.2766C161.021 57.6354 162.578 58.73 164 59.1829C165.693 59.7114 167.656 59.9001 168.976 58.6168C171.481 56.2011 170.804 49.6337 170.33 44.8401C170.263 44.123 170.161 43.3304 170.127 42.6887C169.315 33.2904 169.823 28.7234 170.161 26.0058C170.466 23.4014 170.567 22.6088 169.281 20.6461C167.453 17.8153 161.563 14.5693 150.9 8.68117C146.77 6.41652 141.624 3.54796 135.768 0.188721L135.497 0.0377442H137.494C142.775 3.05728 147.481 5.66163 151.272 7.73757C162.071 13.7012 168.029 16.9849 169.992 20.0422C171.481 22.3446 171.346 23.4392 171.041 26.1567C170.737 28.8366 170.229 33.2904 171.008 42.6132C171.075 43.2549 171.143 44.0098 171.211 44.7646C171.854 50.8415 172.903 60.6172 166.336 60.6172C165.557 60.6172 164.677 60.4662 163.729 60.202C162.172 59.7114 160.581 58.6168 158.55 57.1825C154.183 54.0875 147.582 49.4449 134.041 46.0102C119.113 42.2358 96.6353 40.0844 91.3883 42.0471C88.4771 43.1416 88.951 45.9725 89.3911 48.69C89.6958 50.615 90.0004 52.4645 88.6802 53.0684C88.0709 53.3326 86.8522 53.5213 85.1258 53.7478C81.0297 54.3139 74.1578 55.2575 71.7543 58.7678C71.0096 59.8623 70.7388 61.1456 70.9419 62.6177C71.8898 69.6003 76.0874 79.7158 72.1267 79.7158C70.5695 79.7158 67.1844 78.0173 54.9978 64.6559C30.6246 37.9707 17.7271 23.175 12.5139 23.175C12.1415 23.175 11.803 23.2504 11.5322 23.4014C7.02992 25.7793 -11.2838 59.8246 -17.2417 64.1652C-23.5043 68.7322 -32.0688 53.2194 -36.5033 53.2571C-38.6698 53.2948 -42.3935 55.8615 -47.0989 59.1452C-55.291 64.8446 -67.6808 73.488 -81.9662 74.8468V73.8277C-67.9516 72.5067 -55.6973 63.9387 -47.5728 58.3148C-42.4274 54.7291 -38.873 52.238 -36.4356 52.238ZM13.5633 109.76C11.4984 111.685 8.21475 114.893 7.23305 117.649C6.96223 118.404 6.79295 119.234 6.96222 120.027C7.19919 121.197 8.07933 122.065 9.06104 122.556C10.0427 123.084 11.0583 123.348 11.8369 123.537C13.631 123.952 15.9668 124.178 17.1516 124.178C18.2687 124.178 19.3858 124.065 20.4352 123.688C28.7966 120.555 18.9457 104.816 13.5633 109.76ZM20.1644 122.82C19.2165 123.159 18.1671 123.273 17.1516 123.273C15.8652 123.273 11.6676 122.971 9.39955 121.725C8.89177 121.461 7.97778 120.819 7.77467 119.8C7.63927 119.083 7.87622 118.253 8.18089 117.573C9.26414 115.158 12.3108 112.176 14.1388 110.477C14.7481 109.911 15.5944 109.609 16.4407 109.798C19.3519 110.289 22.6694 114.78 22.8725 118.517C22.9741 120.555 22.0939 122.103 20.1644 122.82ZM-60.5719 103.079C-58.6762 101.796 -56.8482 100.324 -55.1895 98.7389C-51.9397 95.6816 -45.3725 88.397 -42.3597 86.4343C-41.1749 85.7171 -40.0916 85.3774 -38.7714 85.8304C-37.6204 86.2455 -36.6387 86.9249 -35.657 87.5289C-30.9178 90.5484 -25.3661 92.813 -19.9499 93.0773C-19.6113 93.0773 -19.2728 93.115 -18.9682 93.115C-18.1896 93.115 -17.411 93.0772 -16.6663 93.0018C-15.6169 92.8885 -14.5336 92.6621 -13.4165 92.3224C-12.4009 92.0204 -11.4192 91.643 -10.336 91.0768C-9.21887 90.5484 -8.20332 89.8313 -7.45859 89.2651C0.902786 83.0373 6.45445 73.9409 10.449 67.3357C12.7509 63.5235 14.3419 60.8814 15.6621 60.8814C16.0345 60.8814 15.8991 60.8814 16.2038 60.9192C16.373 60.9192 16.5084 60.9947 16.6777 60.9947C22.0939 62.4289 32.5541 74.1674 36.3793 78.7345C36.7517 79.1874 37.1579 79.6403 37.5303 80.131C39.2906 82.4711 38.5797 81.452 40.7124 84.5471C43.5559 88.8876 45.8917 92.6998 51.071 101.268L52.1881 103.117C59.8724 115.95 67.6922 128.746 75.8166 139.616L78.0169 142.447C78.3893 142.9 78.7616 143.39 79.134 143.843C80.5558 145.504 80.048 144.9 81.4698 146.523C82.113 147.278 82.0791 147.24 82.4515 147.618C82.79 147.957 82.9931 148.222 83.0947 148.297C94.0288 159.998 108.077 165.81 122.092 160.224C123.446 159.696 124.698 159.092 125.917 158.413C126.154 158.299 126.391 158.111 126.628 157.96C127.102 157.695 127.542 157.318 128.016 156.978C133.06 152.902 136.614 145.164 138.815 138.635C140.304 134.067 141.489 129.236 142.301 124.216C143.114 119.083 143.52 114.101 143.52 109.345C143.554 106.778 143.351 104.174 143.148 101.683C142.978 99.3051 142.775 96.8139 142.775 94.3606C142.775 93.417 142.843 92.3224 143.08 91.4165C143.249 90.7749 143.554 90.2464 144.095 90.02C145.009 89.6803 146.16 90.3974 147.21 91.1146C149.715 92.8885 153.269 96.1346 158.482 99.2296C162.206 101.419 167.182 104.287 169.247 108.401C170.466 110.855 170.398 113.421 169.958 116.063C169.315 119.649 168.232 122.593 166.945 128.104C166.742 128.897 166.573 129.765 166.404 130.595C164.677 138.936 163.831 150.298 164.508 160.337C164.745 163.583 165.117 166.792 165.625 169.774V169.811H164.711C164.203 166.829 163.831 163.659 163.594 160.413C162.883 150.298 163.729 138.823 165.49 130.406C166.742 123.537 169.552 116.818 169.281 112.327C169.112 109.798 168.096 107.948 166.404 106.175C164.068 103.721 160.92 101.872 158.245 100.324C156.248 99.1541 154.149 97.7198 152.22 96.2855C148.293 93.3792 144.908 90.2087 144.197 91.1523C143.283 92.1714 143.689 97.6443 143.994 101.607C144.062 102.589 144.197 104.099 144.265 105.646C144.332 106.741 144.332 107.911 144.366 109.421C144.366 114.214 143.926 119.272 143.114 124.443C142.301 129.5 141.116 134.407 139.593 139.012C138.781 141.503 137.867 143.843 136.885 145.957C135.768 148.41 134.583 150.524 133.297 152.411C131.841 154.563 130.149 156.563 128.151 158.111C127.271 158.79 127.271 158.714 126.763 159.054C126.594 159.167 126.425 159.281 126.256 159.356C116.032 164.791 105.64 164.603 95.789 159.432C90.9821 156.94 87.0553 153.657 83.1962 149.845C82.7561 149.429 82.3838 148.976 81.9776 148.561C81.7745 148.335 81.5713 148.146 81.3682 147.92C80.5896 147.014 81.0636 147.58 79.608 145.881C78.2877 144.372 78.3893 144.485 77.7122 143.617L75.1057 140.295C67.1167 129.614 59.5001 117.196 51.4095 103.721L50.2924 101.872C48.1936 98.3992 46.0271 94.8135 43.8606 91.3033C40.9493 86.5853 38.4105 82.8863 37.9027 82.2447C36.4132 80.3197 36.5825 80.5084 36.1085 79.9423C32.9265 76.1678 29.8798 72.6954 26.0546 69.0342C23.8204 66.8828 19.1827 62.6932 16.3391 61.976C16.0345 61.9005 15.8991 61.9005 15.696 61.9005H15.6621C15.1543 62.0138 14.4773 62.8819 14.1049 63.3726C10.6182 68.0906 4.35565 81.6785 -6.95082 90.0955C-16.0231 96.8894 -27.0587 94.2096 -36.571 88.095C-40.5317 85.5662 -40.9041 85.6039 -48.8931 93.7189C-53.8693 98.7766 -55.8665 101.041 -60.098 103.948C-63.7878 106.476 -67.9854 108.477 -72.5554 109.911C-74.7896 110.591 -77.0238 111.119 -79.1903 111.459C-80.1382 111.61 -81.0522 111.723 -81.8985 111.798V110.704C-78.8518 110.402 -75.7713 109.76 -72.7924 108.854C-68.3239 107.496 -64.194 105.571 -60.5719 103.079ZM100.224 72.7331C97.8202 70.5062 93.6564 66.9205 90.542 66.9205C89.4926 66.9205 88.6802 67.3357 88.1047 68.0528C86.0398 70.6194 87.2923 76.3188 88.2401 79.6026C89.3911 83.4525 91.1514 87.4156 93.521 91.3788C99.0727 101.117 104.692 110.591 107.773 110.591C109.431 110.591 109.837 108.25 109.973 106.401C110.481 95.4552 107.739 79.9045 100.224 72.7331ZM109.025 106.288C108.991 106.892 108.924 107.382 108.856 107.835C108.483 109.76 107.773 109.911 106.452 108.854C102.932 106.024 96.8385 95.1154 94.3334 90.7749C94.198 90.5484 94.0965 90.3219 93.9611 90.1332C93.2502 88.8876 92.4039 87.4534 91.3883 85.2265C89.7635 81.6408 88.1724 77.0737 87.9355 73.0728C87.5292 64.6559 93.7241 68.2038 99.5804 73.6012C106.926 80.4329 109.567 95.6816 109.025 106.288ZM99.919 60.6927C96.6015 58.4281 92.1669 57.2202 88.3755 57.2202C84.1779 57.2202 79.9465 58.579 77.5091 62.4289C76.9675 63.2593 76.629 64.3539 76.4259 65.3353C76.1889 66.5053 76.1551 67.2225 76.1551 67.7509C75.7827 75.9791 80.285 88.9631 85.7012 97.3801C86.7507 98.9654 87.7323 100.324 88.7818 101.456C89.0526 101.758 89.3234 102.06 89.5603 102.325C89.865 102.627 90.1358 102.966 90.4405 103.306C90.9144 103.834 91.456 104.438 92.0654 105.193C98.6664 113.006 104.794 122.254 109.33 122.254C109.533 122.254 109.736 122.254 109.939 122.216L110.041 122.178C110.108 122.178 110.21 122.14 110.278 122.14L110.582 122.027C110.752 121.952 110.887 121.876 111.022 121.801C111.056 121.763 111.124 121.725 111.192 121.725C111.327 121.65 111.462 121.574 111.564 121.461C111.632 121.423 111.665 121.385 111.733 121.348C111.801 121.31 111.835 121.234 111.902 121.197C112.004 121.121 112.139 121.008 112.241 120.895C112.85 120.291 113.392 119.574 113.832 118.706C114.712 116.969 115.118 115.044 115.355 113.572C116.134 108.93 116.066 102.627 115.999 97.7198L115.965 96.3987L115.897 95.0777C115.897 94.9267 115.897 94.7757 115.863 94.6248C115.829 93.9076 115.829 94.0209 115.694 92.4356C115.66 92.0204 115.626 91.5675 115.558 91.1146L115.355 89.7935C115.254 89.0386 115.118 88.3215 114.949 87.6043L114.881 87.1892C114.171 83.7544 113.121 80.3952 111.801 77.1492C110.413 73.79 108.754 70.7327 106.892 68.0528C104.794 64.9201 102.458 62.4667 99.919 60.6927ZM106.08 68.7322C107.908 71.3366 109.533 74.3184 110.887 77.6021C113.561 84.0941 114.983 91.0391 114.983 97.6821C115.085 105.948 115.085 113.874 112.952 118.064C112.579 118.819 112.106 119.46 111.598 119.951C111.53 120.027 111.429 120.102 111.327 120.178C111.259 120.215 111.225 120.253 111.158 120.329C111.09 120.366 111.056 120.404 110.988 120.442C110.887 120.517 110.785 120.593 110.718 120.631C110.684 120.668 110.616 120.668 110.582 120.706C110.481 120.782 110.379 120.819 110.244 120.857L110.007 120.97C109.973 120.97 109.905 121.008 109.871 121.008C109.837 121.008 109.804 121.008 109.77 121.046C109.634 121.083 109.499 121.083 109.33 121.083C104.997 121.083 97.854 109.987 91.1852 102.513C90.8806 102.174 90.5759 101.834 90.2712 101.532C90.0004 101.268 89.7296 100.966 89.4926 100.664C88.5109 99.5693 87.5292 98.2482 86.5137 96.7007C84.7872 94.0586 83.2639 91.1146 81.8421 87.7176C79.3371 81.7917 76.629 73.0351 77.3399 66.5431C77.3737 65.9769 77.6784 64.2407 78.3893 63.1461C81.8421 57.7487 89.5265 57.6732 95.1797 59.6736C96.7369 60.2398 98.1587 60.9192 99.3435 61.7495C101.747 63.448 104.015 65.7882 106.08 68.7322ZM-38.6021 73.9409C-37.8913 73.9409 -37.2142 74.3561 -36.368 75.2997C-28.4467 84.3961 -22.9626 86.2833 -19.7467 86.2833C-19.3405 86.2833 -18.9005 86.2456 -18.5281 86.1701C-11.7578 85.0755 2.08757 70.544 6.35289 61.4853C9.5011 54.8046 11.9384 50.0111 15.3236 50.0111C17.2193 50.0111 18.9119 51.5586 20.1982 53.1061C25.8853 59.9001 47.6858 78.9232 58.2137 97.5688C67.6583 114.327 81.7067 135.804 94.9089 143.164C98.091 144.938 104.421 147.882 111.192 147.882C111.496 147.882 111.801 147.882 112.106 147.882C119.316 147.618 124.698 143.881 128.117 136.823C135.429 121.801 135.26 98.135 133.364 85.8681C133.026 83.6412 132.586 81.4898 132.18 79.4138C131.063 73.79 130.182 69.3739 131.977 67.7509C132.45 67.3357 133.026 67.147 133.771 67.147C134.888 67.147 136.377 67.6376 138.307 68.5813C146.194 72.5444 149.749 77.1869 153.879 82.5466C155.233 84.2829 156.621 86.0946 158.245 87.9818C161.834 92.1714 169.281 93.0395 174.359 95.6439C177.812 97.3801 183.025 102.476 179.2 116.932C176.695 126.443 171.481 146.221 175.307 169.849V169.887H174.393C170.567 146.07 175.814 126.179 178.353 116.63C181.028 106.476 179.47 99.3805 173.986 96.5875C172.26 95.7193 170.263 95.04 168.13 94.3228C164.169 93.0018 160.073 91.643 157.568 88.6989C150.967 80.9991 148.191 74.6581 137.934 69.4871C136.14 68.5813 134.752 68.1283 133.771 68.1283C133.263 68.1283 132.823 68.2793 132.552 68.5058C131.198 69.7513 132.078 74.0919 133.094 79.1874C133.5 81.2633 133.94 83.4147 134.278 85.6794C136.208 98.0595 136.377 122.027 128.93 137.276C125.24 144.862 119.079 148.863 111.124 148.863C104.59 148.863 98.4972 146.221 94.5027 144.032C81.0974 136.596 66.9474 114.931 57.4351 98.0595C46.9749 79.5271 25.2421 60.5795 19.5212 53.7478C17.964 51.8983 16.61 50.9924 15.3236 50.9924C15.1882 50.9924 15.0528 50.9924 14.9512 51.0302C12.3108 51.4076 10.0766 55.786 7.16534 61.9005C2.73077 71.3366 -11.25 85.9813 -18.3927 87.1514C-18.8327 87.2269 -19.3067 87.2646 -19.7467 87.2646C-24.6214 87.2646 -30.5793 83.3392 -37.0111 75.9791C-38.6698 74.0542 -39.2453 74.6581 -42.5289 78.4702C-44.56 80.8104 -47.3359 84.0564 -51.8043 88.1328C-56.6112 92.5488 -62.3322 95.9458 -68.764 98.2105C-74.1125 100.098 -78.8518 100.815 -81.8646 101.041V100.022C-76.6514 99.5693 -63.3816 97.4556 -52.3459 87.3401C-43.0706 78.8099 -41.0395 73.9409 -38.6021 73.9409ZM-37.5866 60.4285C-33.152 60.4285 -26.8556 70.4307 -19.0697 69.94C-13.6196 69.6003 -4.47963 55.2953 2.18915 44.8779C5.26965 40.0466 7.91008 35.9325 9.63652 34.0075C10.4151 33.1394 11.4306 32.6865 12.6155 32.6865C18.0656 32.6865 26.6639 41.5564 33.5697 48.69C35.6008 50.766 37.4965 52.7664 38.9859 54.1252C46.3656 60.9569 70.4003 87.1137 75.6473 94.8512C78.8632 99.5693 81.8422 103.608 85.6335 108.666C88.5448 112.591 91.8284 117.007 95.9583 122.744C100.427 128.934 105.708 132.369 110.819 132.369C111.327 132.369 111.835 132.331 112.343 132.256C116.1 131.727 119.181 129.123 120.805 125.16C124.123 117.083 122.396 104.589 120.568 91.3788V91.3033C120.332 89.6803 120.095 87.9818 119.891 86.2833C117.826 70.6572 111.361 63.1838 104.354 56.2766L104.083 56.0124C102.255 54.2007 99.4789 51.4831 100.359 49.3694C100.968 47.8974 103.338 47.1425 107.502 47.1425C111.192 47.1425 116.202 47.7087 122.837 48.8033C160.344 55.2198 163.323 70.6949 179.064 81.9427C190.168 89.9067 197.31 97.6821 202.286 103.57C205.841 107.798 207.263 110.704 206.687 112.667C206.044 114.856 203.336 115.46 200.154 116.139C199.206 116.365 198.19 116.554 197.243 116.818C189.694 118.932 187.493 135.275 187.358 143.579C187.256 151.468 188.103 160.3 189.897 169.811V169.849H188.949C187.155 160.3 186.308 151.468 186.444 143.541C186.545 134.936 188.915 118.064 197.006 115.799C197.987 115.535 199.003 115.309 199.951 115.082C202.727 114.478 205.333 113.912 205.773 112.289C206.213 110.742 204.859 108.099 201.576 104.212C196.633 98.3615 189.558 90.6239 178.523 82.7353C162.714 71.4121 159.87 56.0879 122.667 49.7469C119.35 49.1807 102.593 46.3122 101.171 49.7091C100.528 51.2567 103.71 54.2007 104.929 55.4085C112.072 62.4667 118.673 70.091 120.772 86.0568C121.009 87.7931 121.246 89.567 121.449 91.1146C123.31 104.476 125.037 117.12 121.618 125.5C119.858 129.84 116.506 132.633 112.444 133.199C111.902 133.275 111.361 133.313 110.819 133.313C105.437 133.313 99.8851 129.765 95.2474 123.31C91.1175 117.573 87.8339 113.157 84.9227 109.27C81.1313 104.174 78.1523 100.173 74.9026 95.4174C69.6894 87.7553 45.7224 61.6741 38.3766 54.8801C36.8533 53.4836 34.9576 51.4831 32.9265 49.4072C26.4946 42.7642 17.6594 33.6678 12.6493 33.6678C11.6676 33.6678 10.889 34.0075 10.2458 34.6869C8.5871 36.5364 5.94667 40.6505 2.90002 45.444C-4.24268 56.6541 -13.1457 70.5817 -19.0697 70.9591C-19.2728 70.9591 -19.476 70.9591 -19.6452 70.9591C-24.1813 70.9591 -28.2435 67.7509 -31.6625 64.9956C-34.2014 62.9574 -36.4018 61.1834 -37.9928 61.4853C-46.6589 63.1083 -60.6396 83.2638 -81.9662 84.3583V83.3392C-68.7301 82.6976 -58.5069 74.5826 -50.3148 68.0906C-47.3359 65.7504 -40.9379 60.4285 -37.5866 60.4285ZM104.489 97.3801C104.861 96.8517 104.895 96.0968 104.895 95.4174C104.827 92.3979 103.609 88.1328 102.627 85.3019C101.036 80.5839 98.6326 74.6581 94.0965 74.6581C93.4194 74.6581 92.7424 74.8091 92.2346 75.3375C91.1514 76.4321 91.5576 78.4702 92.0654 80.0178C93.4871 84.3583 97.7525 91.0013 100.393 94.5493C102.119 96.8517 102.695 97.3801 103.406 97.6821C103.44 97.6821 103.676 97.7575 103.71 97.7575C103.947 97.7575 104.015 97.7198 104.184 97.6443C104.32 97.5688 104.387 97.4933 104.489 97.3801ZM103.981 96.21C103.913 96.7007 103.778 96.7762 103.778 96.7762H103.744C103.203 96.6252 102.492 95.7571 102.018 95.1909C97.9556 90.171 91.6591 79.829 92.6409 76.6208C92.844 75.9791 93.4194 75.8281 94.0288 75.8281C95.2136 75.8281 96.263 76.3188 97.177 77.1492C99.2419 79.0364 100.731 82.8486 101.713 85.6416C102.526 87.9818 103.135 90.0955 103.541 92.0959C103.778 93.1905 104.117 95.1154 103.981 96.21Z" fill="url(#paint0_linear_80_7754)" style=""/>
<defs>
<linearGradient id="paint0_linear_80_7754" x1="78" y1="0" x2="78" y2="170" gradientUnits="userSpaceOnUse">
<stop stop-color="#FFC266" style="stop-color:#FFC266;stop-color:color(display-p3 1.0000 0.7600 0.4000);stop-opacity:1;"/>
<stop offset="1" stop-color="#FFC266" stop-opacity="0" style="stop-color:none;stop-opacity:0;"/>
</linearGradient>
</defs>
</svg>
