<svg width="712" height="402" viewBox="0 0 712 402" fill="none" xmlns="http://www.w3.org/2000/svg">
<g opacity="0.3">
<path d="M1.40531 149.977C1.40531 149.977 -7.55612 38.4326 58.797 25.3225C125.15 12.2124 156.406 90.3398 171.527 78.5141C186.648 66.6883 155.392 30.9688 171.793 20.4274C188.194 9.88601 188.436 32.4228 226.359 42.8672C264.282 53.3117 290.393 23.8443 347.616 43.0369C404.838 62.2294 541.965 149.953 536.071 148.16C530.177 146.367 387.737 59.7577 330.103 49.4586C272.47 39.1838 262.398 50.743 267.688 52.4635C272.977 54.1841 307.06 72.0923 351.384 109.872C395.708 147.651 454.114 199.316 514.573 211.142C575.033 222.967 585.274 197.256 601.941 216.279C618.584 235.302 586.579 67.3911 464.621 17.6891C342.664 -32.013 263.509 44.5878 246.866 50.2341C230.223 55.8804 210.489 54.1841 196.648 39.9593C182.808 25.7344 179.571 34.1433 181.962 46.3083C184.354 58.4733 189.643 68.2392 196.479 70.1294C203.315 72.0196 228.412 54.3779 257.108 59.5153C285.804 64.6528 320.9 97.5612 311.673 96.0103C302.446 94.4594 269.91 59.7819 234.571 69.5478C199.209 79.3138 180.006 96.2769 175.392 90.364C170.779 84.4511 185.561 68.7723 189.136 74.249C192.711 79.7257 163.87 93.4416 160.392 129.282C156.914 165.123 154.184 170.018 122.348 234.26C90.5122 298.502 76.5991 466.073 209.813 541.123C343.026 616.173 408.268 560.146 446.674 584.815C485.105 609.485 480.998 573.499 494.839 541.632C508.68 509.766 581.434 453.739 573.221 374.569C565.033 295.4 520.829 209.833 520.443 223.307C520.056 236.804 501.24 352.445 409.379 345.514C317.543 338.583 374.403 163.548 328.292 126.544C282.18 89.5401 176.117 132.723 145.368 232.176C114.619 331.628 151.527 518.998 307.519 558.329C463.51 597.659 532.714 482.77 559.598 408.738C586.482 334.706 615.709 371.468 612.618 439.829C609.55 508.191 650.275 475.04 711 412.591" stroke="url(#paint0_linear_83_1150)" stroke-miterlimit="10"/>
<path d="M1.40531 149.977C1.40531 149.977 -7.55612 38.4326 58.797 25.3225C125.15 12.2124 156.406 90.3398 171.527 78.5141C186.648 66.6883 155.392 30.9688 171.793 20.4274C188.194 9.88601 188.436 32.4228 226.359 42.8672C264.282 53.3117 290.393 23.8443 347.616 43.0369C404.838 62.2294 541.965 149.953 536.071 148.16C530.177 146.367 387.737 59.7577 330.103 49.4586C272.47 39.1838 262.398 50.743 267.688 52.4635C272.977 54.1841 307.06 72.0923 351.384 109.872C395.708 147.651 454.114 199.316 514.573 211.142C575.033 222.967 585.274 197.256 601.941 216.279C618.584 235.302 586.579 67.3911 464.621 17.6891C342.664 -32.013 263.509 44.5878 246.866 50.2341C230.223 55.8804 210.489 54.1841 196.648 39.9593C182.808 25.7344 179.571 34.1433 181.962 46.3083C184.354 58.4733 189.643 68.2392 196.479 70.1294C203.315 72.0196 228.412 54.3779 257.108 59.5153C285.804 64.6528 320.9 97.5612 311.673 96.0103C302.446 94.4594 269.91 59.7819 234.571 69.5478C199.209 79.3138 180.006 96.2769 175.392 90.364C170.779 84.4511 185.561 68.7723 189.136 74.249C192.711 79.7257 163.87 93.4416 160.392 129.282C156.914 165.123 154.184 170.018 122.348 234.26C90.5122 298.502 76.5991 466.073 209.813 541.123C343.026 616.173 408.268 560.146 446.674 584.815C485.105 609.485 480.998 573.499 494.839 541.632C508.68 509.766 581.434 453.739 573.221 374.569C565.033 295.4 520.829 209.833 520.443 223.307C520.056 236.804 501.24 352.445 409.379 345.514C317.543 338.583 374.403 163.548 328.292 126.544C282.18 89.5401 176.117 132.723 145.368 232.176C114.619 331.628 151.527 518.998 307.519 558.329C463.51 597.659 532.714 482.77 559.598 408.738C586.482 334.706 615.709 371.468 612.618 439.829C609.55 508.191 650.275 475.04 711 412.591" stroke="url(#paint1_linear_83_1150)" stroke-miterlimit="10"/>
</g>
<defs>
<linearGradient id="paint0_linear_83_1150" x1="-26.5" y1="0.999997" x2="622" y2="478.5" gradientUnits="userSpaceOnUse">
<stop offset="0.405" stop-color="white"/>
<stop offset="1" stop-color="white" stop-opacity="0"/>
</linearGradient>
<linearGradient id="paint1_linear_83_1150" x1="434.212" y1="526.133" x2="-65.1573" y2="100.383" gradientUnits="userSpaceOnUse">
<stop offset="0.195"/>
<stop offset="0.59" stop-color="#828282"/>
<stop offset="1"/>
</linearGradient>
</defs>
</svg>
