<svg width="54" height="54" viewBox="0 0 54 54" fill="none" xmlns="http://www.w3.org/2000/svg">
<path d="M29.2785 16.0312C37.1254 16.0312 44.3816 20.2078 48.3051 27C44.3816 33.7922 37.1254 37.9688 29.2785 37.9688C25.3551 31.1766 25.3551 22.8234 29.2785 16.0312Z" fill="white" style="fill:white;fill-opacity:1;"/>
<path d="M34.8039 33.4547C32.3148 33.9188 30.2477 35.6484 29.2773 38.0109C35.3945 38.0109 41.1742 35.4797 45.2664 31.1344C46.4055 29.9109 45.857 28.0547 44.8023 28.8984C41.9336 31.2187 38.4742 32.7797 34.8039 33.4547Z" fill="#C3DBEA" style="fill:#C3DBEA;fill:color(display-p3 0.7647 0.8588 0.9176);fill-opacity:1;"/>
<path d="M29.2363 16.0312C28.4531 16.0312 27.702 17.1869 27.1482 19.2439C26.5943 21.301 26.2832 24.0909 26.2832 27C26.2832 29.9091 26.5943 32.699 27.1482 34.7561C27.702 36.8131 28.4531 37.9688 29.2363 37.9688C30.0195 37.9688 30.7707 36.8131 31.3245 34.7561C31.8783 32.699 32.1895 29.9091 32.1895 27C32.1895 24.0909 31.8783 21.301 31.3245 19.2439C30.7707 17.1869 30.0195 16.0313 29.2363 16.0312Z" fill="#FFAA29" style="fill:#FFAA29;fill:color(display-p3 1.0000 0.6650 0.1625);fill-opacity:1;"/>
<path d="M29.2359 24.8906C29.0122 24.8906 28.7975 25.1129 28.6393 25.5085C28.4811 25.904 28.3922 26.4406 28.3922 27C28.3922 27.5595 28.4811 28.096 28.6393 28.4916C28.7975 28.8871 29.0122 29.1094 29.2359 29.1094C29.4597 29.1094 29.6743 28.8871 29.8326 28.4916C29.9908 28.096 30.0797 27.5595 30.0797 27C30.0797 26.4406 29.9908 25.904 29.8326 25.5085C29.6743 25.1129 29.4597 24.8906 29.2359 24.8906ZM23.8781 27C23.8781 20.9672 22.5703 16.0734 20.925 16.0313C20.925 16.0313 20.925 16.0313 20.925 15.9891C13.0781 16.0313 5.82187 20.2078 1.89844 27C5.82187 33.7922 13.0781 37.9688 20.925 37.9688C20.925 37.9688 20.925 37.9688 20.925 37.9266C22.5703 37.9266 23.8781 33.0328 23.8781 27Z" fill="white" style="fill:white;fill-opacity:1;"/>
<path d="M23.8781 27C23.8781 20.9672 22.5703 16.0734 20.925 16.0313C20.925 16.0313 20.925 16.0313 20.925 15.9891C13.0781 16.0313 5.82187 20.2078 1.89844 27C5.82187 33.7922 13.0781 37.9688 20.925 37.9688C20.925 37.9688 20.925 37.9688 20.925 37.9266C22.5703 37.9266 23.8781 33.0328 23.8781 27Z" fill="white" style="fill:white;fill-opacity:1;"/>
<path d="M19.7856 33.5391C15.82 32.9484 12.1496 31.2609 9.06996 28.7719C7.67777 27.6328 5.5684 27.8016 4.47152 29.2359C4.13402 29.6578 4.00746 30.0797 4.26059 30.375C8.39496 35.1422 14.47 37.9688 20.9246 37.9688C20.9246 37.9688 20.9246 37.9688 20.9246 37.9266C21.0934 37.9266 21.2621 37.8 21.4309 37.5469C22.6543 36.0703 21.684 33.8344 19.7856 33.5391Z" fill="#C3DBEA" style="fill:#C3DBEA;fill:color(display-p3 0.7647 0.8588 0.9176);fill-opacity:1;"/>
<path d="M20.9242 39.2344C21.3883 39.2344 21.8102 38.9813 22.0211 38.6016C22.0211 38.6016 22.0211 38.5594 22.0633 38.5594C22.4008 37.9688 22.1898 37.1672 21.557 36.8297C21.3039 36.6609 21.0086 36.6187 20.7133 36.7031C13.668 36.6609 7.08672 32.9484 3.37422 27C7.08672 21.0516 13.6258 17.3812 20.6711 17.2969C20.9664 17.3812 21.2617 17.3391 21.557 17.1703C22.1477 16.8328 22.4008 16.0734 22.0633 15.4828C22.0633 15.4828 22.0211 15.4406 22.0211 15.3984C21.8102 15.0188 21.3883 14.7656 20.9242 14.7656C12.6555 14.7656 4.93516 19.1953 0.800781 26.3672C0.589844 26.7469 0.589844 27.2531 0.800781 27.6328C4.93516 34.8047 12.6555 39.2344 20.9242 39.2344Z" fill="#2B3646" style="fill:#2B3646;fill:color(display-p3 0.1686 0.2118 0.2745);fill-opacity:1;"/>
<path d="M10.3359 25.7344C10.0003 25.7344 9.67836 25.8677 9.44101 26.1051C9.20365 26.3424 9.07031 26.6643 9.07031 27C9.07031 27.3357 9.20365 27.6576 9.44101 27.8949C9.67836 28.1323 10.0003 28.2656 10.3359 28.2656C10.6716 28.2656 10.9935 28.1323 11.2309 27.8949C11.4682 27.6576 11.6016 27.3357 11.6016 27C11.6016 26.6643 11.4682 26.3424 11.2309 26.1051C10.9935 25.8677 10.6716 25.7344 10.3359 25.7344ZM52.7766 20.0391C52.1859 19.6594 51.4266 19.8281 51.0469 20.4188L48.3047 24.6797C44.0016 18.4781 36.8719 14.7656 29.2781 14.7656C28.5609 14.7656 28.0125 15.3141 28.0125 16.0312C28.0125 16.7484 28.5609 17.2969 29.2781 17.2969C36.4078 17.2969 43.0734 21.0094 46.8281 27C43.0734 33.0328 36.4078 36.7031 29.2781 36.7031C28.5609 36.7031 28.0125 37.2516 28.0125 37.9688C28.0125 38.6859 28.5609 39.2344 29.2781 39.2344C36.8719 39.2344 44.0016 35.4797 48.3047 29.3203L51.0469 33.5812C51.3 33.9609 51.6797 34.1719 52.1016 34.1719C52.3547 34.1719 52.5656 34.0875 52.7766 33.9609C53.3672 33.5812 53.5359 32.8219 53.1563 32.2313L49.7813 27L53.1563 21.7687C53.5359 21.1781 53.3672 20.4187 52.7766 20.0391Z" fill="#2B3646" style="fill:#2B3646;fill:color(display-p3 0.1686 0.2118 0.2745);fill-opacity:1;"/>
</svg>
