<svg width="54" height="54" viewBox="0 0 54 54" fill="none" xmlns="http://www.w3.org/2000/svg">
<path d="M12.1924 16.1156L37.758 16.7063C37.8002 16.7063 37.8002 16.7063 37.8002 16.7063C37.9268 16.7063 38.0112 16.7484 38.0955 16.7906C38.4752 16.9172 38.8549 17.1281 39.1502 17.4234C39.4455 17.7188 39.6565 18.0563 39.7408 18.4781C39.8674 18.9 39.8252 19.3641 39.6987 19.7859C39.5721 20.25 39.2346 20.6719 38.8127 20.9672C38.6018 21.1359 38.3487 21.2203 38.0955 21.3047C38.0112 21.3047 37.969 21.3469 37.8846 21.3469C37.8424 21.3469 37.8002 21.3469 37.8002 21.3469H37.758C37.758 21.3469 37.6737 21.3469 37.6315 21.3469L36.7034 21.4734C31.3877 21.7266 26.1143 21.8953 20.7987 22.1063L18.8159 22.1906H18.5627L18.1409 22.2328C17.8877 22.2328 17.5924 22.3172 17.3393 22.3594C16.7908 22.4438 16.2846 22.6547 15.7784 22.8656C13.7955 23.7516 12.2768 25.5656 11.8127 27.6328C11.5596 28.6453 11.5596 29.7422 11.7705 30.7547C11.9815 31.7672 12.4033 32.7375 13.0362 33.5813C13.669 34.3828 14.4705 35.0578 15.3565 35.5219C16.2846 35.9859 17.2971 36.2391 18.2674 36.2391C18.394 36.2391 18.5205 36.2391 18.6049 36.2391H18.858L19.3643 36.1969L20.3768 36.1547L22.3596 36.0703L26.3252 35.8594L30.2909 35.6484L32.2737 35.5641L32.7377 35.5219C32.8221 35.5219 32.9065 35.5219 32.9909 35.5219C33.1596 35.5219 33.3284 35.5641 33.4971 35.6484C34.1721 35.9016 34.6784 36.6609 34.594 37.5047C34.5518 38.3063 33.8768 39.1078 32.9487 39.3188C32.9065 39.3188 32.8221 39.3188 32.7799 39.361C32.7377 39.361 32.6533 39.361 32.569 39.4031L32.0627 39.4453L31.0502 39.5297L29.1096 39.5719L25.144 39.8672C24.8909 39.8672 24.7221 40.0781 24.7643 40.3313C24.7643 40.5422 24.933 40.7109 25.144 40.7109L29.1096 41.0063L31.0924 41.1328L32.1049 41.2172L32.6112 41.2594C32.6955 41.2594 32.7799 41.2594 32.9065 41.2594C33.033 41.2594 33.1174 41.2594 33.244 41.2594C34.0877 41.175 34.9737 40.8375 35.6487 40.2469C36.3237 39.6563 36.8299 38.8547 37.0409 37.9688C37.2518 37.0828 37.1674 36.1125 36.8299 35.2266C36.4502 34.3406 35.8174 33.5813 34.9737 33.075C34.5518 32.8219 34.0877 32.6531 33.6237 32.5266C33.3705 32.4844 33.1596 32.4422 32.9065 32.4H32.6112H32.358L30.3752 32.3156L26.3252 32.0625L18.4783 31.6406C18.1409 31.5984 17.8455 31.4719 17.5924 31.3031C17.3393 31.1344 17.1284 30.8813 16.9596 30.6281C16.6643 30.1219 16.6221 29.4891 16.833 28.9828C17.0018 28.4766 17.4658 28.1391 17.9299 27.9703C18.0565 27.9281 18.1409 27.9281 18.2674 27.9281C18.3096 27.9281 18.394 27.9281 18.4362 27.9281H18.7315L20.7143 28.0125C26.1143 28.2656 31.3877 28.4344 36.7034 28.6875L37.7159 28.7297H37.8424H38.0533C38.1799 28.7297 38.3065 28.7297 38.433 28.7297C38.6862 28.7297 38.9393 28.6875 39.2346 28.6875C40.2893 28.5609 41.344 28.3078 42.3143 27.8859C44.2549 27.0422 45.9424 25.5234 47.0393 23.625C48.1784 21.7266 48.6002 19.4484 48.3471 17.2547C48.094 15.0188 47.0815 12.9094 45.5205 11.2641C43.9596 9.66095 41.5127 9.8297 39.2768 9.4922C38.7284 9.40782 5.31585 10.5469 5.31585 10.5469C5.31585 10.5469 4.09241 14.1328 12.1924 16.1156Z" fill="white" style="fill:white;fill-opacity:1;"/>
<path d="M15.5391 15.5859L41.1047 16.1766C41.1469 16.1766 41.1469 16.1766 41.1469 16.1766C41.2734 16.1766 41.3578 16.2187 41.4422 16.2609C41.8219 16.3875 42.2016 16.5984 42.4969 16.8937C42.7922 17.1891 43.0031 17.5266 43.0875 17.9484C43.2141 18.3703 43.1719 18.8344 43.0453 19.2563C42.9187 19.7203 42.5812 20.1422 42.1594 20.4375C41.9484 20.6062 41.6953 20.6906 41.4422 20.775C41.3578 20.775 41.3156 20.8172 41.2312 20.8172C41.1891 20.8172 41.1469 20.8172 41.1469 20.8172H41.1047C41.1047 20.8172 41.0203 20.8172 40.9781 20.8172L40.05 20.9438C34.7344 21.1969 29.4609 21.3656 24.1453 21.5766L22.1625 21.6609H21.9094L21.4875 21.7031C21.2344 21.7031 20.9391 21.7875 20.6859 21.8297C20.1375 21.9141 19.6313 22.125 19.125 22.3359C17.1422 23.2219 15.6234 25.0359 15.1594 27.1031C14.9062 28.1156 14.9062 29.2125 15.1172 30.225C15.3281 31.2375 15.75 32.2078 16.3828 33.0516C17.0156 33.8531 17.8172 34.5281 18.7031 34.9922C19.6313 35.4562 20.6437 35.7094 21.6141 35.7094C21.7406 35.7094 21.8672 35.7094 21.9516 35.7094H22.2047L22.7109 35.6672L23.7234 35.625L25.7062 35.5406L29.6719 35.3297L33.6375 35.1187L35.6203 35.0344L36.0844 34.9922C36.1687 34.9922 36.2531 34.9922 36.3375 34.9922C36.5062 34.9922 36.675 35.0344 36.8437 35.1187C37.5187 35.3719 38.025 36.1313 37.9406 36.975C37.8984 37.7766 37.2234 38.5781 36.2953 38.7891C36.2531 38.7891 36.1687 38.7891 36.1266 38.8313C36.0844 38.8313 36 38.8313 35.9156 38.8734L35.4094 38.9156L34.3969 39L32.4562 39.0422L28.4906 39.3375C28.2375 39.3375 28.0688 39.5484 28.1109 39.8016C28.1109 40.0125 28.2797 40.1813 28.4906 40.1813L32.4562 40.4766L34.4391 40.6031L35.4516 40.6875L35.9578 40.7297C36.0422 40.7297 36.1266 40.7297 36.2531 40.7297C36.3797 40.7297 36.4641 40.7297 36.5906 40.7297C37.4344 40.6453 38.3203 40.3078 38.9953 39.7172C39.6703 39.1266 40.1766 38.325 40.3875 37.4391C40.5984 36.5531 40.5141 35.5828 40.1766 34.6969C39.7969 33.8109 39.1641 33.0516 38.3203 32.5453C37.8984 32.2922 37.4344 32.1234 36.9703 31.9969C36.7172 31.9547 36.5062 31.9125 36.2531 31.8703H35.9578H35.7047L33.7219 31.7859L29.6719 31.5328L21.825 31.1109C21.4875 31.0688 21.1922 30.9422 20.9391 30.7734C20.6859 30.6047 20.475 30.3516 20.3062 30.0984C20.0109 29.5922 19.9688 28.9594 20.1797 28.4531C20.3484 27.9469 20.8125 27.6094 21.2766 27.4406C21.4031 27.3984 21.4875 27.3984 21.6141 27.3984C21.6562 27.3984 21.7406 27.3984 21.7828 27.3984H22.0781L24.0609 27.4828C29.4609 27.7359 34.7344 27.9047 40.05 28.1578L41.0625 28.2H41.1891H41.4C41.5266 28.2 41.6531 28.2 41.7797 28.2C42.0328 28.2 42.2859 28.1578 42.5812 28.1578C43.6359 28.0312 44.6906 27.7781 45.6609 27.3562C47.6016 26.5125 49.2891 24.9937 50.3859 23.0953C51.525 21.1969 51.9469 18.9188 51.6937 16.725V16.6828C51.3984 13.9828 49.0359 12 46.3359 12H9C9.675 13.1812 11.4047 14.5734 15.5391 15.5859Z" fill="#C3DBEA" style="fill:#C3DBEA;fill:color(display-p3 0.7647 0.8588 0.9176);fill-opacity:1;"/>
<path d="M6.75088 15.8203L6.91963 15.9469C8.0165 16.7062 9.28213 17.1281 10.6321 17.1281H37.0837C38.1384 17.1281 39.1087 18.0141 39.0665 19.0688C39.0243 20.1234 38.2228 20.925 37.1681 20.925H20.0399C15.9899 20.925 12.5728 24.2156 12.6571 28.2656C12.6993 30.6281 13.8806 32.6531 15.6524 33.9188C16.8759 34.7625 18.3103 35.1844 19.7868 35.1844H32.5274C33.5821 35.1844 34.5524 36.0703 34.5103 37.125C34.4681 38.1797 33.6665 38.9813 32.6118 38.9813H25.3556C23.6681 38.9813 22.1915 40.1625 21.9384 41.8078C21.6009 43.9172 23.2462 45.7313 25.2712 45.7313H26.7478C27.4228 45.7313 28.0556 45.1828 28.0556 44.5078C28.0556 43.7906 27.5071 43.2 26.7899 43.2H25.3134C24.8915 43.2 24.5118 42.9047 24.4274 42.4828C24.3431 41.9766 24.7649 41.5125 25.2712 41.5125H32.5274C34.9743 41.5125 37.0415 39.6141 37.0837 37.1672C37.1259 34.6781 35.1431 32.6531 32.654 32.6531H19.7868C18.9009 32.6531 18.0149 32.4422 17.2556 31.9359C16.0321 31.0922 15.2306 29.7 15.2306 28.0969C15.2306 25.5656 17.2978 23.4562 19.8712 23.4562H37.0415C39.4884 23.4562 41.5556 21.5578 41.5978 19.1109C41.6399 16.6219 39.6571 14.5969 37.1681 14.5969H10.6321C9.83057 14.5969 9.029 14.3438 8.39619 13.8797L8.22744 13.7531C7.55244 13.2891 7.04619 12.6141 6.79307 11.8547L10.7165 11.8125C11.4337 11.8125 11.9821 11.2219 11.9821 10.5469C11.9821 9.82969 11.3915 9.28125 10.7165 9.28125L5.35869 9.36563C4.68369 9.36563 4.09307 9.95625 4.09307 10.6313C4.05088 12.6563 5.06338 14.6391 6.75088 15.8203Z" fill="#2B3646" style="fill:#2B3646;fill:color(display-p3 0.1686 0.2118 0.2745);fill-opacity:1;"/>
<path d="M22.2383 10.8H42.2773C46.8336 10.8 50.5039 14.4703 50.5039 19.0265C50.5039 23.5828 46.8336 27.2531 42.2773 27.2531H25.6133C24.8961 27.2531 24.3477 27.8015 24.3477 28.5187C24.3477 29.2359 24.8961 29.7844 25.6133 29.7844H42.2773C48.2258 29.7844 53.0352 24.975 53.0352 19.0265C53.0352 13.0781 48.2258 8.26874 42.2773 8.26874H22.2383C21.5211 8.26874 20.9727 8.81718 20.9727 9.53436C20.9727 10.2516 21.5211 10.8 22.2383 10.8ZM18.0195 8.26874C17.6839 8.26874 17.362 8.40208 17.1246 8.63943C16.8872 8.87678 16.7539 9.1987 16.7539 9.53436C16.7539 9.87003 16.8872 10.1919 17.1246 10.4293C17.362 10.6666 17.6839 10.8 18.0195 10.8C18.3552 10.8 18.6771 10.6666 18.9145 10.4293C19.1518 10.1919 19.2852 9.87003 19.2852 9.53436C19.2852 9.1987 19.1518 8.87678 18.9145 8.63943C18.6771 8.40208 18.3552 8.26874 18.0195 8.26874Z" fill="#FFAA29" style="fill:#FFAA29;fill:color(display-p3 1.0000 0.6650 0.1625);fill-opacity:1;"/>
</svg>
