<svg width="95" height="23" viewBox="0 0 95 23" fill="none" xmlns="http://www.w3.org/2000/svg">
<path d="M26.854 14.7434C27.2033 14.7434 27.5626 14.9031 27.9318 15.2324C28.7302 15.931 29.6582 16.2803 30.7161 16.2803C31.724 16.2803 32.6321 15.9609 33.4404 15.3222C34.2488 14.6835 34.7877 13.8752 35.0471 12.9072H30.2869C29.9975 12.9072 29.7381 12.7974 29.4886 12.5879C29.2391 12.3783 29.1194 12.1089 29.1194 11.7895C29.1194 11.4702 29.2291 11.1908 29.4587 10.9812C29.6782 10.7616 29.9576 10.6519 30.2969 10.6519H35.097C34.8475 9.64394 34.3186 8.81565 33.5103 8.15701C32.702 7.50835 31.7739 7.17903 30.726 7.17903C29.778 7.17903 28.9198 7.45845 28.1513 8.0173C27.8619 8.2568 27.5825 8.37656 27.3131 8.37656C27.0037 8.37656 26.7243 8.2568 26.4948 8.0173C26.2553 7.77779 26.1355 7.50835 26.1355 7.20896C26.1355 6.86966 26.2553 6.6102 26.4948 6.41061C27.6224 5.41267 29.0495 4.9137 30.746 4.9137C32.6521 4.9137 34.2588 5.57234 35.576 6.88962C36.1948 7.49837 36.6738 8.22686 37.0031 9.08509C37.3324 9.93334 37.5021 10.8215 37.5021 11.7396C37.5021 13.6956 36.8534 15.3123 35.5661 16.6096C34.2588 17.9169 32.6521 18.5655 30.756 18.5655C29.8578 18.5655 28.9996 18.3959 28.1613 18.0566C27.3231 17.7173 26.6045 17.2283 25.9758 16.5896C25.8162 16.4299 25.7363 16.2104 25.7363 15.941C25.7363 15.6316 25.8561 15.3522 26.0956 15.1226C26.3052 14.8632 26.5646 14.7434 26.854 14.7434ZM51.1839 5.47254C51.3834 5.12326 51.6728 4.93366 52.062 4.89374C52.4213 4.89374 52.7207 5.00351 52.9702 5.21308C53.2097 5.42265 53.3294 5.69209 53.3294 6.01143V17.5077C53.3294 17.8171 53.2197 18.0666 53.0001 18.2462C52.7806 18.4258 52.5011 18.5156 52.1718 18.5156C51.8525 18.5156 51.583 18.4258 51.3735 18.2562C51.1639 18.0865 51.0541 17.837 51.0342 17.5277V10.0032L47.6012 15.3622C47.5414 15.4819 47.4116 15.6316 47.222 15.7813C47.0324 15.941 46.8029 16.0108 46.5434 16.0108C46.1442 16.0108 45.8049 15.8012 45.5355 15.3921L42.0826 10.0032V17.5377C42.0726 17.837 41.9529 18.0766 41.7333 18.2462C41.5138 18.4159 41.2543 18.5057 40.945 18.5057C40.6356 18.5057 40.3662 18.4159 40.1466 18.2262C39.9271 18.0366 39.8073 17.8071 39.8073 17.5177V6.04137C39.8073 5.73201 39.9071 5.46256 40.1167 5.23304C40.3262 5.00351 40.5957 4.88376 40.925 4.88376C41.3641 4.88376 41.7134 5.10331 41.9928 5.53242L46.5434 12.9072L51.1839 5.47254ZM65.8736 4.98355C66.1729 4.98355 66.4124 5.08335 66.6021 5.28294C66.7917 5.48252 66.8815 5.73201 66.8815 6.03139V17.5576C66.8815 17.7971 66.7717 18.0167 66.5621 18.2063C66.3526 18.4059 66.0731 18.5057 65.7239 18.5057C65.3746 18.5057 65.0952 18.4059 64.8956 18.2163C64.686 18.0267 64.5862 17.8071 64.5862 17.5576V7.29878H58.8979V17.5576C58.8979 17.8171 58.7882 18.0466 58.5786 18.2262C58.369 18.4159 58.0896 18.5057 57.7403 18.5057C57.421 18.5057 57.1416 18.4159 56.922 18.2462C56.7025 18.0766 56.5827 17.847 56.5827 17.5576V6.03139C56.5827 5.76195 56.6925 5.51246 56.912 5.30289C57.1316 5.09333 57.3711 4.98355 57.6505 4.98355H65.8736ZM80.3537 5.35279C80.5633 5.5424 80.673 5.80187 80.673 6.14117V17.2782C80.673 17.5975 80.5633 17.877 80.3437 18.0865C80.1242 18.3061 79.8547 18.4159 79.5354 18.4159C79.1961 18.4159 78.9266 18.3061 78.7171 18.0965C78.5075 17.8869 78.3977 17.6075 78.3977 17.2782V9.51421L72.2504 17.9668C72.0907 18.1863 71.8712 18.336 71.6017 18.3959C71.3323 18.4558 71.0728 18.4258 70.8233 18.3061C70.6138 18.2063 70.4342 18.0566 70.3044 17.847C70.1647 17.6375 70.0949 17.4279 70.0949 17.1984V5.97152C70.0949 5.66215 70.1946 5.42265 70.4042 5.24302C70.6138 5.07337 70.9032 4.98355 71.2724 4.98355C71.5918 4.98355 71.8612 5.07337 72.0608 5.253C72.2704 5.43263 72.3702 5.67213 72.3702 5.97152V13.8652L78.4875 5.48252C78.6871 5.18314 78.9765 5.02347 79.3558 4.99353C79.7549 4.97357 80.0843 5.09333 80.3537 5.35279ZM89.884 16.2703C90.9119 16.2703 91.84 15.921 92.6683 15.2224C92.9876 14.9031 93.3469 14.7334 93.7361 14.7334C94.0255 14.7334 94.285 14.8532 94.5345 15.0827C94.7839 15.3123 94.9037 15.5817 94.9037 15.8911C94.9037 16.1605 94.8139 16.39 94.6442 16.5597C93.3269 17.877 91.7302 18.5356 89.8641 18.5356C87.9979 18.5356 86.4012 17.877 85.0839 16.5597C83.7766 15.2823 83.128 13.6656 83.128 11.7097C83.128 10.8016 83.2976 9.92337 83.6269 9.07512C83.9662 8.22686 84.4453 7.49837 85.064 6.86966C86.3912 5.5424 87.9979 4.87378 89.8641 4.87378C91.5805 4.87378 92.9976 5.37275 94.0954 6.37069C94.3448 6.59024 94.4646 6.86966 94.4646 7.20896C94.4646 7.49837 94.3548 7.75783 94.1353 7.99734C93.9157 8.23684 93.6563 8.3566 93.3569 8.3566C93.0874 8.3566 92.7781 8.24682 92.4388 8.03726C91.5207 7.44847 90.6624 7.15907 89.8641 7.15907C88.6366 7.15907 87.5788 7.60814 86.7106 8.50629C85.8424 9.40444 85.4033 10.4623 85.4033 11.6997C85.4033 12.9471 85.8424 14.0149 86.7106 14.9231C87.6087 15.8212 88.6566 16.2703 89.884 16.2703Z" fill="#2B3646" style="fill:#2B3646;fill:color(display-p3 0.1686 0.2118 0.2745);fill-opacity:1;"/>
<path d="M9.7793 13.3665L22.7525 0.692627L15.3678 22.9467L9.7793 13.3665Z" fill="#0097D1" style="fill:#0097D1;fill:color(display-p3 0.0000 0.5922 0.8196);fill-opacity:1;"/>
<path d="M9.87963 13.4663L22.7531 0.79248L0 7.57849L9.87963 13.4663Z" fill="#0EB1F2" style="fill:#0EB1F2;fill:color(display-p3 0.0549 0.6941 0.9490);fill-opacity:1;"/>
<path d="M2.99414 20.1524L8.58262 14.564L11.2771 19.2543L2.99414 20.1524Z" fill="#0097D1" style="fill:#0097D1;fill:color(display-p3 0.0000 0.5922 0.8196);fill-opacity:1;"/>
<path d="M3.09375 20.1527L8.58243 14.6641L3.9919 11.77L3.09375 20.1527Z" fill="#0EB1F2" style="fill:#0EB1F2;fill:color(display-p3 0.0549 0.6941 0.9490);fill-opacity:1;"/>
</svg>
