<svg width="23" height="24" viewBox="0 0 23 24" fill="none" xmlns="http://www.w3.org/2000/svg">
<path d="M7.22109 4.20654C4.32439 4.20654 1.96094 6.57 1.96094 9.46669C1.96094 11.4255 3.43743 13.2697 5.23732 15.1611C7.03721 17.0525 9.25264 18.9682 11.0177 20.7332C11.1522 20.8677 11.3346 20.9432 11.5248 20.9432C11.715 20.9432 11.8975 20.8677 12.032 20.7332C13.797 18.9682 16.0125 17.0525 17.8124 15.1611C19.6123 13.2697 21.0887 11.4255 21.0887 9.46669C21.0887 6.57 18.7253 4.20654 15.8286 4.20654C14.1662 4.20654 12.7188 5.09909 11.5248 6.61527C10.3309 5.09909 8.8835 4.20654 7.22109 4.20654ZM7.22109 5.64113C8.62151 5.64113 9.78722 6.38635 10.9187 8.17594C10.9834 8.27816 11.0729 8.36236 11.1789 8.4207C11.2849 8.47905 11.4039 8.50964 11.5248 8.50964C11.6458 8.50964 11.7648 8.47905 11.8708 8.4207C11.9768 8.36236 12.0663 8.27816 12.131 8.17594C13.2625 6.38635 14.4282 5.64113 15.8286 5.64113C17.9501 5.64113 19.6542 7.34521 19.6542 9.46669C19.6542 10.6162 18.5006 12.3584 16.7738 14.173C15.1991 15.8277 13.2417 17.5565 11.5248 19.2305C9.80797 17.5565 7.85059 15.8277 6.2759 14.173C4.5491 12.3584 3.39552 10.6162 3.39552 9.46669C3.39552 7.34521 5.0996 5.64113 7.22109 5.64113Z" fill="white"/>
</svg>
