<svg width="24" height="23" viewBox="0 0 24 23" fill="none" xmlns="http://www.w3.org/2000/svg">
<path d="M12.5639 6.56479L12.1711 6.06596C11.0379 4.62703 9.72172 3.8479 8.26015 3.8479C5.63959 3.8479 3.5 5.9875 3.5 8.60805C3.5 9.45906 3.82054 10.3167 4.38619 11.2139C4.95272 12.1125 5.74332 13.017 6.63859 13.9578C7.5276 14.892 8.52199 15.8351 9.5214 16.771C9.66837 16.9086 9.8155 17.0461 9.96242 17.1834C10.8107 17.9764 11.6517 18.7624 12.4103 19.521M12.5639 6.56479L12.4103 19.521M12.5639 6.56479L12.9567 6.06596M12.5639 6.56479L12.9567 6.06596M12.4103 19.521C12.4511 19.5617 12.5063 19.5846 12.5639 19.5846C12.6215 19.5846 12.6767 19.5617 12.7175 19.521M12.4103 19.521H12.7175M12.7175 19.521C13.4761 18.7624 14.3171 17.9764 15.1654 17.1834M12.7175 19.521L15.1654 17.1834M12.9567 6.06596C14.0899 4.62703 15.4061 3.8479 16.8677 3.8479C19.4882 3.8479 21.6278 5.98749 21.6278 8.60805C21.6278 9.45906 21.3073 10.3167 20.7416 11.2139C20.1751 12.1125 19.3845 13.017 18.4892 13.9578C17.6002 14.892 16.6058 15.8351 15.6064 16.771M12.9567 6.06596L15.6064 16.771M15.6064 16.771C15.4595 16.9086 15.3123 17.0461 15.1654 17.1834M15.6064 16.771L15.1654 17.1834M11.5351 7.58449L11.5353 7.5847C11.6451 7.75817 11.797 7.90106 11.9768 8.00007C12.1566 8.09908 12.3586 8.151 12.5639 8.151C12.7692 8.151 12.9712 8.09908 13.151 8.00007C13.3309 7.90106 13.4827 7.75817 13.5925 7.5847L13.5927 7.58449C14.672 5.87739 15.7014 5.28249 16.8677 5.28249C18.713 5.28249 20.1932 6.76271 20.1932 8.60805C20.1932 9.03849 19.9674 9.66215 19.4767 10.4466C18.9959 11.2151 18.2996 12.0775 17.4506 12.9697C16.4734 13.9966 15.3605 15.0399 14.2383 16.092C13.6773 16.6181 13.1139 17.1463 12.5639 17.6757C12.014 17.1463 11.4505 16.6181 10.8895 16.092C9.76727 15.0399 8.6544 13.9966 7.67717 12.9697C6.8282 12.0775 6.13186 11.2151 5.65112 10.4466C5.16038 9.66215 4.93459 9.03849 4.93459 8.60805C4.93459 6.76271 6.4148 5.28249 8.26015 5.28249C9.42637 5.28249 10.4558 5.87739 11.5351 7.58449ZM12.2149 18.7298L12.5639 19.0701L12.913 18.7298C13.5405 18.1179 14.2107 17.4894 14.8861 16.8559C16.0269 15.7859 17.1829 14.7016 18.1751 13.659C19.0529 12.7366 19.7967 11.8206 20.3245 10.977C20.8422 10.1493 21.1932 9.32712 21.1932 8.60805C21.1932 6.21042 19.2653 4.28249 16.8677 4.28249C15.2331 4.28249 13.9312 5.17795 12.7476 7.04989C12.728 7.08086 12.7008 7.10637 12.6687 7.12405C12.6366 7.14173 12.6006 7.151 12.5639 7.151C12.5272 7.151 12.4912 7.14173 12.4591 7.12405C12.427 7.10637 12.3998 7.08086 12.3802 7.04989C11.1967 5.17795 9.89472 4.28249 8.26015 4.28249C5.86252 4.28249 3.93459 6.21042 3.93459 8.60805C3.93459 9.32712 4.28558 10.1493 4.80333 10.977C5.33108 11.8206 6.07493 12.7366 6.95276 13.659C7.94491 14.7016 9.10093 15.7859 10.2417 16.8559C10.9172 17.4894 11.5873 18.1179 12.2149 18.7298Z" fill="#B81B37" stroke="white"/>
</svg>
