<svg width="98" height="32" viewBox="0 0 98 32" fill="none" xmlns="http://www.w3.org/2000/svg">
<path d="M31.7585 18.0288C29.0614 18.0288 26.8581 20.0329 26.8581 22.798C26.8581 25.5406 29.0614 27.5657 31.7585 27.5657C34.4614 27.5657 36.6648 25.5406 36.6648 22.798C36.6648 20.0329 34.4614 18.0288 31.7585 18.0288ZM31.7585 25.6878C30.2786 25.6878 29.0054 24.4951 29.0054 22.798C29.0054 21.0784 30.2786 19.9068 31.7585 19.9068C33.2385 19.9068 34.5174 21.0784 34.5174 22.798C34.5174 24.4951 33.2385 25.6878 31.7585 25.6878ZM21.0662 18.0288C18.3633 18.0288 16.1657 20.0329 16.1657 22.798C16.1657 25.5406 18.3633 27.5657 21.0662 27.5657C23.7676 27.5657 25.9667 25.5406 25.9667 22.798C25.9667 20.0329 23.7676 18.0288 21.0662 18.0288ZM21.0662 25.6878C19.5848 25.6878 18.3073 24.4951 18.3073 22.798C18.3073 21.0784 19.5848 19.9068 21.0662 19.9068C22.5461 19.9068 23.8193 21.0784 23.8193 22.798C23.8193 24.4951 22.5461 25.6878 21.0662 25.6878ZM8.34265 19.4905V21.517H13.2991C13.1542 22.6494 12.7666 23.4819 12.1723 24.0621C11.4489 24.7628 10.3221 25.5406 8.34265 25.5406C5.2924 25.5406 2.90387 23.1371 2.90387 20.159C2.90387 17.1809 5.2924 14.7775 8.34265 14.7775C9.99194 14.7775 11.1919 15.4067 12.0776 16.2224L13.5403 14.7943C12.3015 13.6395 10.6537 12.7523 8.34265 12.7523C4.15986 12.7523 0.644531 16.0752 0.644531 20.159C0.644531 24.2429 4.15986 27.5657 8.34265 27.5657C10.6034 27.5657 12.3015 26.8426 13.6365 25.486C15.0044 24.1504 15.4307 22.2724 15.4307 20.7561C15.4307 20.2852 15.3905 19.8521 15.3188 19.4905H8.34265ZM60.3706 21.0616C59.9673 19.9951 58.7228 18.0288 56.1878 18.0288C53.6759 18.0288 51.5845 19.9614 51.5845 22.798C51.5845 25.4691 53.6543 27.5657 56.429 27.5657C58.6725 27.5657 59.9673 26.2301 60.4998 25.4523L58.8348 24.369C58.2792 25.1622 57.5228 25.6878 56.429 25.6878C55.3424 25.6878 54.563 25.2015 54.0634 24.2429L60.596 21.6039L60.3706 21.0616ZM53.7103 22.6494C53.6543 20.8107 55.173 19.8689 56.2611 19.8689C57.1137 19.8689 57.8371 20.2852 58.0783 20.8808L53.7103 22.6494ZM48.4007 27.2756H50.5481V13.2611H48.4007V27.2756ZM44.884 19.0911H44.8122C44.3299 18.5333 43.4098 18.0288 42.2442 18.0288C39.7983 18.0288 37.5619 20.1254 37.5619 22.8134C37.5619 25.486 39.7983 27.5657 42.2442 27.5657C43.4098 27.5657 44.3299 27.057 44.8122 26.4824H44.884V27.1663C44.884 28.9896 43.8864 29.9692 42.2773 29.9692C40.9653 29.9692 40.1514 29.0443 39.8155 28.2665L37.9481 29.0274C38.4863 30.2916 39.9117 31.8472 42.2773 31.8472C44.795 31.8472 46.9194 30.4009 46.9194 26.8818V18.3189H44.884V19.0911ZM42.428 25.6878C40.9481 25.6878 39.7093 24.4783 39.7093 22.8134C39.7093 21.133 40.9481 19.9068 42.428 19.9068C43.8864 19.9068 45.0361 21.133 45.0361 22.8134C45.0361 24.4783 43.8864 25.6878 42.428 25.6878ZM70.4243 13.2611H65.2884V27.2756H67.43V21.9655H70.4243C72.8028 21.9655 75.1353 20.2852 75.1353 17.6126C75.1353 14.9414 72.797 13.2611 70.4243 13.2611ZM70.4803 20.0161H67.43V15.2105H70.4803C72.0793 15.2105 72.9922 16.5068 72.9922 17.6126C72.9922 18.6973 72.0793 20.0161 70.4803 20.0161ZM83.7191 18.0022C82.1717 18.0022 80.5626 18.6693 79.9009 20.1478L81.8014 20.9256C82.2105 20.1478 82.9626 19.8956 83.7578 19.8956C84.8688 19.8956 85.9956 20.5472 86.0129 21.6978V21.845C85.6253 21.6264 84.7956 21.3026 83.7751 21.3026C81.7282 21.3026 79.6425 22.4028 79.6425 24.4559C79.6425 26.3338 81.3191 27.5433 83.2038 27.5433C84.6449 27.5433 85.4401 26.9084 85.9397 26.1699H86.0129V27.2532H88.0813V21.8772C88.0813 19.3924 86.1808 18.0022 83.7191 18.0022ZM83.4607 25.6822C82.7602 25.6822 81.7841 25.343 81.7841 24.4951C81.7841 23.4104 83.0014 22.9942 84.055 22.9942C84.998 22.9942 85.4401 23.1974 86.0129 23.4651C85.8449 24.7628 84.7009 25.6822 83.4607 25.6822ZM95.6172 18.3091L93.1555 24.3844H93.0823L90.5373 18.3091H88.2277L92.0517 26.7991L89.8698 31.5234H92.1076L98 18.3091H95.6172ZM76.3123 27.2756H78.4597V13.2611H76.3123V27.2756Z" fill="white"/>
<path d="M6.2471 7.68741H7.21734C7.16681 8.15232 7.03373 8.56838 6.81813 8.93559C6.60252 9.30279 6.29763 9.5942 5.90347 9.80981C5.50932 10.022 5.01746 10.1282 4.4279 10.1282C3.99669 10.1282 3.60421 10.0473 3.25048 9.88561C2.90012 9.7239 2.5986 9.49482 2.34594 9.19836C2.09327 8.89853 1.89787 8.53974 1.75975 8.122C1.62499 7.70089 1.55762 7.23261 1.55762 6.71718V5.98444C1.55762 5.46901 1.62499 5.00242 1.75975 4.58467C1.89787 4.16356 2.09495 3.80309 2.35099 3.50326C2.61039 3.20343 2.92201 2.97266 3.28585 2.81096C3.64969 2.64925 4.05901 2.5684 4.51381 2.5684C5.06968 2.5684 5.53964 2.67283 5.92369 2.8817C6.30774 3.09057 6.60589 3.3803 6.81813 3.75088C7.03373 4.11808 7.16681 4.54425 7.21734 5.02937H6.2471C6.19994 4.68574 6.11235 4.39096 5.98433 4.14503C5.85631 3.89574 5.67439 3.70371 5.43857 3.56896C5.20275 3.4342 4.89449 3.36682 4.51381 3.36682C4.18703 3.36682 3.89899 3.42915 3.64969 3.5538C3.40376 3.67844 3.19658 3.85531 3.02813 4.08439C2.86306 4.31348 2.73841 4.58804 2.65419 4.90809C2.56997 5.22813 2.52786 5.58355 2.52786 5.97434V6.71718C2.52786 7.07765 2.56491 7.41622 2.63903 7.73289C2.71651 8.04957 2.83274 8.3275 2.98771 8.56669C3.14268 8.80588 3.33976 8.99454 3.57895 9.13266C3.81814 9.26742 4.10112 9.3348 4.4279 9.3348C4.84228 9.3348 5.17243 9.2691 5.41836 9.13772C5.66428 9.00633 5.84957 8.81767 5.97422 8.57175C6.10224 8.32582 6.1932 8.03104 6.2471 7.68741Z" fill="white"/>
<path d="M9.56713 2.66946V10.0271H8.59184V2.66946H9.56713ZM14.1 2.66946L10.9063 6.71718H9.17803L9.02643 5.90864H10.3251L12.8922 2.66946H14.1ZM13.1196 10.0271L10.3555 6.59084L10.9012 5.73683L14.3122 10.0271H13.1196Z" fill="white"/>
<path d="M17.9203 3.32134L15.4846 10.0271H14.4891L17.2937 2.66946H17.9354L17.9203 3.32134ZM19.9618 10.0271L17.5211 3.32134L17.5059 2.66946H18.1477L20.9624 10.0271H19.9618ZM19.8355 7.30336V8.10179H15.7019V7.30336H19.8355Z" fill="white"/>
<path d="M21.5738 2.66946H22.5491V4.96873C22.5491 5.34941 22.6047 5.64756 22.7159 5.86316C22.8271 6.07877 22.9955 6.23037 23.2212 6.31796C23.4469 6.40555 23.7282 6.44935 24.0651 6.44935C24.2673 6.44935 24.4626 6.44093 24.6513 6.42408C24.8433 6.40724 25.0303 6.38366 25.2122 6.35334C25.3941 6.32302 25.5727 6.28596 25.7479 6.24216C25.9264 6.19837 26.1016 6.1512 26.2734 6.10067V6.8991C26.1083 6.94963 25.9433 6.99679 25.7782 7.04059C25.6165 7.08438 25.448 7.12144 25.2729 7.15176C25.101 7.18208 24.9158 7.20566 24.717 7.22251C24.5216 7.23935 24.3043 7.24778 24.0651 7.24778C23.5463 7.24778 23.0999 7.17366 22.726 7.02543C22.3554 6.87383 22.0707 6.63127 21.872 6.29775C21.6732 5.96423 21.5738 5.52122 21.5738 4.96873V2.66946ZM26.0258 2.66946H27.0011V10.0271H26.0258V2.66946Z" fill="white"/>
<path d="M31.5642 3.32134L29.1285 10.0271H28.133L30.9376 2.66946H31.5794L31.5642 3.32134ZM33.6058 10.0271L31.165 3.32134L31.1499 2.66946H31.7916L34.6063 10.0271H33.6058ZM33.4795 7.30336V8.10179H29.3458V7.30336H33.4795Z" fill="white"/>
<path d="M36.6075 8.33929L40.2307 2.66946H41.206V10.0271H40.2307V4.35222L36.6075 10.0271H35.6372V2.66946H36.6075V8.33929ZM39.1948 0.845215H39.9528C39.9528 1.10799 39.8921 1.34212 39.7708 1.54763C39.6496 1.74976 39.4761 1.9081 39.2504 2.02264C39.0246 2.13718 38.7568 2.19445 38.4469 2.19445C37.9786 2.19445 37.608 2.0698 37.3351 1.82051C37.0656 1.56784 36.9309 1.24274 36.9309 0.845215H37.6889C37.6889 1.04398 37.7461 1.21916 37.8607 1.37076C37.9752 1.52236 38.1706 1.59816 38.4469 1.59816C38.7164 1.59816 38.9084 1.52236 39.023 1.37076C39.1375 1.21916 39.1948 1.04398 39.1948 0.845215Z" fill="white"/>
<path d="M45.6984 2.66946V10.0271H44.7383V2.66946H45.6984ZM48.0633 2.66946V3.46789H42.3784V2.66946H48.0633Z" fill="white"/>
<path d="M53.8292 9.23373V10.0271H49.9331V9.23373H53.8292ZM50.1302 2.66946V10.0271H49.1549V2.66946H50.1302ZM53.3137 5.83284V6.62622H49.9331V5.83284H53.3137ZM53.7787 2.66946V3.46789H49.9331V2.66946H53.7787Z" fill="white"/>
<path d="M60.2267 6.58579H58.362L58.3519 5.80252H60.0448C60.3244 5.80252 60.5686 5.75536 60.7775 5.66103C60.9864 5.5667 61.1481 5.43195 61.2626 5.25677C61.3805 5.07822 61.4395 4.86598 61.4395 4.62005C61.4395 4.35054 61.3873 4.13156 61.2828 3.96312C61.1818 3.7913 61.0251 3.66665 60.8129 3.58917C60.604 3.50832 60.3379 3.46789 60.0145 3.46789H58.5793V10.0271H57.604V2.66946H60.0145C60.3918 2.66946 60.7287 2.70821 61.0251 2.78569C61.3216 2.85981 61.5726 2.97772 61.7781 3.13942C61.9869 3.29776 62.1453 3.49989 62.2531 3.74582C62.3609 3.99175 62.4148 4.28653 62.4148 4.63015C62.4148 4.93335 62.3373 5.20792 62.1823 5.45385C62.0274 5.6964 61.8118 5.89517 61.5355 6.05014C61.2626 6.20511 60.9426 6.30449 60.5754 6.34828L60.2267 6.58579ZM60.1812 10.0271H57.978L58.5288 9.23373H60.1812C60.4911 9.23373 60.7539 9.17983 60.9695 9.07202C61.1885 8.96422 61.3553 8.81262 61.4698 8.61723C61.5844 8.41846 61.6416 8.18432 61.6416 7.91481C61.6416 7.64193 61.5928 7.40611 61.4951 7.20735C61.3974 7.00858 61.2441 6.8553 61.0352 6.7475C60.8264 6.63969 60.5568 6.58579 60.2267 6.58579H58.837L58.8471 5.80252H60.7472L60.9544 6.08551C61.3081 6.11583 61.6079 6.2169 61.8539 6.38871C62.0998 6.55715 62.2868 6.77276 62.4148 7.03554C62.5462 7.29831 62.6119 7.58803 62.6119 7.90471C62.6119 8.36287 62.5108 8.7503 62.3087 9.06697C62.1099 9.38028 61.8286 9.61947 61.4648 9.78454C61.1009 9.94625 60.6731 10.0271 60.1812 10.0271Z" fill="white"/>
</svg>
