<svg width="30" height="30" viewBox="0 0 30 30" fill="none" xmlns="http://www.w3.org/2000/svg">
<g opacity="0.2">
<path d="M6.77002 2.91016L16.1694 12.6978C16.4157 12.954 16.8241 12.954 17.0703 12.6978L18.9746 10.7178C19.2571 10.424 19.1929 9.94609 18.8379 9.74609C13.9216 6.96484 7.82752 3.51391 6.77002 2.91016ZM3.92578 3.55957C3.81953 3.80707 3.75 4.07863 3.75 4.37988V25.7397C3.75 25.986 3.80547 26.2133 3.88672 26.4258L14.4702 15.4053C14.7027 15.164 14.7027 14.7835 14.4702 14.541L3.92578 3.55957ZM21.8042 11.5723C21.6694 11.5912 21.5416 11.6547 21.4429 11.7578L18.7695 14.541C18.537 14.7823 18.537 15.1628 18.7695 15.4053L21.4185 18.1616C21.616 18.3679 21.9327 18.4115 22.1802 18.2715C24.0339 17.2215 25.2832 16.5161 25.2832 16.5161C25.9069 16.1374 26.2587 15.5544 26.25 14.9194C26.24 14.2994 25.8783 13.7274 25.2808 13.3887C25.2045 13.3462 23.9846 12.6554 22.2046 11.6479C22.0802 11.5779 21.939 11.5534 21.8042 11.5723ZM16.6211 17.0557C16.4573 17.0557 16.2926 17.1204 16.1694 17.2485L6.84326 26.958C8.44576 26.0468 14.161 22.812 18.8135 20.1782C19.1685 19.977 19.2327 19.4991 18.9502 19.2041L17.0703 17.2485C16.9472 17.1204 16.7848 17.0557 16.6211 17.0557Z" fill="#231F20"/>
</g>
</svg>
