<svg width="28" height="28" viewBox="0 0 28 28" fill="none" xmlns="http://www.w3.org/2000/svg">
<path d="M8.75065 4.08337C5.21708 4.08337 2.33398 6.96646 2.33398 10.5C2.33398 12.8895 4.13511 15.1392 6.33073 17.4465C8.52635 19.7538 11.2289 22.0906 13.382 24.2437C13.5461 24.4077 13.7686 24.4999 14.0007 24.4999C14.2327 24.4999 14.4552 24.4077 14.6193 24.2437C16.7724 22.0906 19.475 19.7538 21.6706 17.4465C23.8662 15.1392 25.6673 12.8895 25.6673 10.5C25.6673 6.96646 22.7842 4.08337 19.2507 4.08337C17.2227 4.08337 15.4571 5.17216 14.0007 7.02169C12.5442 5.17216 10.7786 4.08337 8.75065 4.08337ZM8.75065 5.83337C10.459 5.83337 11.881 6.74244 13.2612 8.9255C13.3402 9.05019 13.4493 9.1529 13.5786 9.22408C13.7079 9.29525 13.8531 9.33257 14.0007 9.33257C14.1482 9.33257 14.2934 9.29525 14.4227 9.22408C14.552 9.1529 14.6611 9.05019 14.7401 8.9255C16.1203 6.74244 17.5423 5.83337 19.2507 5.83337C21.8386 5.83337 23.9173 7.91212 23.9173 10.5C23.9173 11.9023 22.5101 14.0275 20.4036 16.2411C18.4827 18.2597 16.095 20.3686 14.0007 22.4105C11.9063 20.3686 9.51856 18.2597 7.59766 16.2411C5.49119 14.0275 4.08398 11.9023 4.08398 10.5C4.08398 7.91212 6.16273 5.83337 8.75065 5.83337Z" fill="#04A3E9"/>
</svg>
