<svg width="22" height="22" viewBox="0 0 22 22" fill="none" xmlns="http://www.w3.org/2000/svg">
<path d="M16.5007 2.29614C15.6781 2.29614 14.8557 2.60798 14.2323 3.23161L4.08722 13.3758C3.89473 13.5683 3.75376 13.8077 3.67902 14.0705L2.31923 18.832C2.2857 18.9498 2.28425 19.0744 2.31504 19.193C2.34583 19.3115 2.40773 19.4197 2.49435 19.5064C2.58097 19.593 2.68916 19.6549 2.80773 19.6857C2.9263 19.7165 3.05094 19.715 3.16876 19.6815L7.93113 18.3217L7.93203 18.3208C8.19306 18.2458 8.43185 18.1065 8.6249 17.9135L18.7691 7.76839C20.0163 6.52121 20.0163 4.47879 18.7691 3.23161C18.1458 2.60798 17.3233 2.29614 16.5007 2.29614ZM16.5007 3.66309C16.9686 3.66309 17.4358 3.84336 17.796 4.20378H17.7969C18.5188 4.92559 18.5188 6.07441 17.7969 6.79622L16.908 7.68514L14.3156 5.09269L15.2045 4.20378C15.5647 3.84336 16.0328 3.66309 16.5007 3.66309ZM13.3434 6.06486L15.9359 8.65731L7.65183 16.9413C7.62496 16.968 7.59093 16.9885 7.55247 16.9995L3.98069 18.02L5.0012 14.4473V14.4465C5.01171 14.4095 5.03096 14.3764 5.05939 14.348L13.3434 6.06486Z" fill="#2B3646" style="fill:#2B3646;fill:color(display-p3 0.1686 0.2118 0.2745);fill-opacity:1;"/>
</svg>
