<svg width="22" height="22" viewBox="0 0 22 22" fill="none" xmlns="http://www.w3.org/2000/svg">
<path d="M4.81185 2.29166C3.42218 2.29166 2.29102 3.42282 2.29102 4.81249V14.4375C2.29102 15.4147 2.8511 16.2615 3.66602 16.6799V4.81249C3.66602 4.18045 4.17981 3.66666 4.81185 3.66666H16.6793C16.2608 2.85174 15.414 2.29166 14.4368 2.29166H4.81185ZM7.56185 5.04166C6.17779 5.04166 5.04102 6.17843 5.04102 7.56249V17.1875C5.04102 18.5716 6.17779 19.7083 7.56185 19.7083H17.1868C18.5709 19.7083 19.7077 18.5716 19.7077 17.1875V7.56249C19.7077 6.17843 18.5709 5.04166 17.1868 5.04166H7.56185ZM7.56185 6.41666H17.1868C17.8277 6.41666 18.3327 6.92164 18.3327 7.56249V17.1875C18.3327 17.8283 17.8277 18.3333 17.1868 18.3333H7.56185C6.921 18.3333 6.41602 17.8283 6.41602 17.1875V7.56249C6.41602 6.92164 6.921 6.41666 7.56185 6.41666ZM10.8266 7.3369C10.6924 7.32726 10.5541 7.3408 10.4193 7.37987L9.76042 7.56965C9.19758 7.73236 8.75588 8.17319 8.60921 8.71907C8.23842 10.0964 8.65685 11.8029 9.85173 13.7903C11.0452 15.7749 12.3732 16.9753 13.7986 17.3576C14.3678 17.5102 14.989 17.3618 15.418 16.9718L15.9193 16.517C16.3276 16.1457 16.3871 15.5345 16.058 15.0963L15.3347 14.134C15.0519 13.7582 14.5524 13.596 14.0904 13.7321L12.9544 14.0651C12.6579 14.1499 12.4008 13.931 12.3036 13.8485C12.068 13.6482 11.8101 13.3149 11.5356 12.8584C10.9466 11.8794 10.9892 11.5108 11.0029 11.3903C11.0181 11.261 11.0812 11.1417 11.1802 11.0528L12.0243 10.2973C12.3777 9.98102 12.4819 9.48407 12.2839 9.06102L11.7737 7.97248C11.6001 7.60158 11.2291 7.36582 10.8266 7.3369Z" fill="#2B3646" style="fill:#2B3646;fill:color(display-p3 0.1686 0.2118 0.2745);fill-opacity:1;"/>
</svg>
