<svg width="29" height="28" viewBox="0 0 29 28" fill="none" xmlns="http://www.w3.org/2000/svg">
<path d="M9.00016 4.08325C5.46659 4.08325 2.5835 6.96634 2.5835 10.4999C2.5835 12.8893 4.38462 15.1391 6.58024 17.4464C8.77586 19.7536 11.4784 22.0904 13.6315 24.2436C13.7956 24.4076 14.0181 24.4998 14.2502 24.4998C14.4822 24.4998 14.7047 24.4076 14.8688 24.2436C17.0219 22.0904 19.7245 19.7536 21.9201 17.4464C24.1157 15.1391 25.9168 12.8893 25.9168 10.4999C25.9168 6.96634 23.0337 4.08325 19.5002 4.08325C17.4722 4.08325 15.7066 5.17204 14.2502 7.02157C12.7937 5.17204 11.0281 4.08325 9.00016 4.08325ZM9.00016 5.83325C10.7085 5.83325 12.1305 6.74232 13.5107 8.92537C13.5897 9.05007 13.6988 9.15278 13.8281 9.22396C13.9574 9.29513 14.1026 9.33245 14.2502 9.33245C14.3977 9.33245 14.5429 9.29513 14.6722 9.22396C14.8015 9.15278 14.9107 9.05007 14.9896 8.92537C16.3698 6.74232 17.7918 5.83325 19.5002 5.83325C22.0881 5.83325 24.1668 7.91199 24.1668 10.4999C24.1668 11.9022 22.7596 14.0274 20.6532 16.241C18.7323 18.2595 16.3445 20.3684 14.2502 22.4104C12.1558 20.3684 9.76807 18.2595 7.84717 16.241C5.7407 14.0274 4.3335 11.9022 4.3335 10.4999C4.3335 7.91199 6.41224 5.83325 9.00016 5.83325Z" fill="#2A2C33"/>
</svg>
