<svg width="28" height="28" viewBox="0 0 28 28" fill="none" xmlns="http://www.w3.org/2000/svg">
<path d="M8.75065 4.08325C5.21708 4.08325 2.33398 6.96634 2.33398 10.4999C2.33398 12.8893 4.13511 15.1391 6.33073 17.4464C8.52635 19.7536 11.2289 22.0904 13.382 24.2436C13.5461 24.4076 13.7686 24.4998 14.0007 24.4998C14.2327 24.4998 14.4552 24.4076 14.6193 24.2436C16.7724 22.0904 19.475 19.7536 21.6706 17.4464C23.8662 15.1391 25.6673 12.8893 25.6673 10.4999C25.6673 6.96634 22.7842 4.08325 19.2507 4.08325C17.2227 4.08325 15.4571 5.17204 14.0007 7.02157C12.5442 5.17204 10.7786 4.08325 8.75065 4.08325ZM8.75065 5.83325C10.459 5.83325 11.881 6.74232 13.2612 8.92537C13.3402 9.05007 13.4493 9.15278 13.5786 9.22396C13.7079 9.29513 13.8531 9.33245 14.0007 9.33245C14.1482 9.33245 14.2934 9.29513 14.4227 9.22396C14.552 9.15278 14.6611 9.05007 14.7401 8.92537C16.1203 6.74232 17.5423 5.83325 19.2507 5.83325C21.8386 5.83325 23.9173 7.91199 23.9173 10.4999C23.9173 11.9022 22.5101 14.0274 20.4036 16.241C18.4827 18.2595 16.095 20.3684 14.0007 22.4104C11.9063 20.3684 9.51856 18.2595 7.59766 16.241C5.49119 14.0274 4.08398 11.9022 4.08398 10.4999C4.08398 7.91199 6.16273 5.83325 8.75065 5.83325Z" fill="#2A2C33"/>
</svg>
