<svg width="30" height="30" viewBox="0 0 30 30" fill="none" xmlns="http://www.w3.org/2000/svg">
<g opacity="0.2" clip-path="url(#clip0_1_7171)">
<path d="M20.3125 27.5001C19.2013 27.5001 18.4369 27.1394 17.7625 26.8213C17.1125 26.5151 16.5506 26.2501 15.625 26.2501C14.6994 26.2501 14.1375 26.5151 13.4875 26.8213C12.8131 27.1394 12.0487 27.5001 10.9375 27.5001C8.23375 27.5001 3.75 21.2944 3.75 14.6876C3.75 10.3063 6.77 6.87506 10.625 6.87506C11.8919 6.87506 12.6619 7.23818 13.3413 7.55818C13.9862 7.86256 14.5437 8.12506 15.625 8.12506C16.7063 8.12506 17.2638 7.86256 17.9087 7.55818C18.5881 7.23818 19.3581 6.87506 20.625 6.87506C22.29 6.87506 23.7706 7.4888 25.0262 8.70068C25.2375 8.90443 25.3412 9.19631 25.3056 9.48818C25.27 9.78006 25.1 10.0382 24.8463 10.1857C23.3988 11.0276 22.5 12.8119 22.5 14.8438C22.5 17.1319 23.7525 19.0994 25.6162 19.7382C25.8606 19.8219 26.0594 20.0026 26.1656 20.2376C26.2725 20.4719 26.2781 20.7407 26.18 20.9801C24.6631 24.6969 22.14 27.5001 20.3125 27.5001ZM15.9375 6.25006C15.7137 6.25006 15.495 6.17005 15.3225 6.02005C15.0956 5.82256 14.9763 5.52755 15.0037 5.22693C15.0113 5.15005 15.1931 3.3238 16.6244 1.86318C17.9706 0.488179 19.2812 0.0794295 19.4256 0.0369295C19.7312 -0.0518205 20.0612 0.0206795 20.3012 0.22943C20.5419 0.437555 20.66 0.753805 20.6156 1.06943C20.5944 1.22005 20.3725 2.59193 19.2206 4.1313C17.9875 5.77881 16.2263 6.20756 16.1519 6.22506C16.0806 6.24193 16.0087 6.25006 15.9375 6.25006Z" fill="#231F20"/>
</g>
<defs>
<clipPath id="clip0_1_7171">
<rect width="30" height="30" fill="white"/>
</clipPath>
</defs>
</svg>
