<svg width="42" height="47" viewBox="0 0 42 47" fill="none" xmlns="http://www.w3.org/2000/svg">
<mask id="mask0_61_753" style="mask-type:luminance" maskUnits="userSpaceOnUse" x="0" y="0" width="42" height="47">
<path d="M42 0H0V47H42V0Z" fill="white"/>
</mask>
<g mask="url(#mask0_61_753)">
<path fill-rule="evenodd" clip-rule="evenodd" d="M11.7017 4.0145V27.5262C8.14126 24.8248 5.84356 20.5644 5.84356 15.7703C5.84356 10.9763 8.14126 6.716 11.7017 4.0145ZM12.6316 3.3629C14.9618 1.8595 17.7417 0.9855 20.7273 0.9855C23.7143 0.9855 26.4953 1.8602 28.8261 3.3649L12.735 26.4952L12.6316 26.4609V3.3629ZM28.8355 28.1694C26.5027 29.6779 23.7183 30.5551 20.7272 30.5551C17.7578 30.5551 14.9918 29.6909 12.6693 28.2025L28.7322 5.0618L28.8354 5.096L28.8355 28.1694ZM29.7655 4.0241C33.3187 6.726 35.6109 10.9819 35.6109 15.7702C35.6109 20.5586 33.3187 24.8146 29.7655 27.5164V4.0241ZM20.7273 31.5405C29.4951 31.5405 36.6029 24.48 36.6029 15.7702C36.6029 7.0605 29.4951 0 20.7273 0C11.9595 0 4.85156 7.0605 4.85156 15.7702C4.85156 24.48 11.9595 31.5405 20.7273 31.5405Z" fill="#1E1E1E"/>
<path fill-rule="evenodd" clip-rule="evenodd" d="M33.6358 45.3051H33.0307C32.8505 45.3051 32.7096 45.2571 32.6082 45.1612C32.5068 45.0653 32.4561 44.9397 32.4561 44.7845C32.4561 44.6153 32.51 44.483 32.6176 44.3876C32.7251 44.2922 32.8821 44.2445 33.0883 44.2445H33.6358V45.3051ZM32.4764 44.2656C32.3289 44.3894 32.2551 44.5633 32.2551 44.7872C32.2551 44.9401 32.2973 45.0699 32.3819 45.1764C32.4663 45.283 32.5891 45.3616 32.7502 45.4122L32.1655 46.4303H32.3835L32.9226 45.4697H33.6359V46.4303H33.8387V44.0799H33.0884C32.8281 44.0799 32.624 44.1419 32.4764 44.2656ZM30.4247 45.6021L30.9182 44.3301H30.9284L31.4185 45.6021H30.4247ZM30.8286 44.0798L29.894 46.4302H30.1035L30.357 45.7748H31.4842L31.7377 46.4302H31.9473L31.0194 44.0798H30.8286ZM29.6894 44.0879L29.6861 44.0798H29.458L28.4895 45.1614H28.1532V44.0798H27.952V46.4302H28.1532V45.3259H28.4912L29.5189 46.4302H29.7588L29.7621 46.4221L28.672 45.2363L29.6894 44.0879ZM26.0295 44.4493C26.1596 44.2901 26.3323 44.2106 26.5476 44.2106C26.7549 44.2106 26.9152 44.2622 27.0284 44.3655C27.1416 44.4688 27.2118 44.6178 27.2388 44.8126H27.4281L27.4315 44.803C27.4101 44.563 27.3228 44.3768 27.1695 44.2445C27.0163 44.1121 26.8089 44.0459 26.5476 44.0459C26.2738 44.0459 26.0529 44.1409 25.885 44.3308C25.7171 44.5207 25.6332 44.7652 25.6332 45.0644V45.447C25.6332 45.7473 25.7171 45.9919 25.885 46.1806C26.0529 46.3695 26.2738 46.4639 26.5476 46.4639C26.8067 46.4639 27.0134 46.3963 27.1678 46.2613C27.3222 46.1263 27.41 45.9409 27.4315 45.7053L27.4281 45.6956H27.2388C27.2129 45.8962 27.143 46.0471 27.0292 46.1479C26.9155 46.2488 26.7549 46.2992 26.5476 46.2992C26.3323 46.2992 26.1596 46.2199 26.0295 46.0613C25.8994 45.9028 25.8343 45.6977 25.8343 45.446V45.0605C25.8343 44.8121 25.8993 44.6083 26.0295 44.4493ZM24.8955 45.1412C24.7935 45.2397 24.6412 45.2888 24.4383 45.2888H23.7926V44.2445H24.4383C24.6422 44.2445 24.7949 44.2943 24.8963 44.3938C24.9976 44.4934 25.0484 44.6184 25.0484 44.769C25.0484 44.9186 24.9974 45.0427 24.8955 45.1412ZM24.4383 44.0798H23.5916V46.4302H23.7927V45.4536H24.4384C24.6964 45.4536 24.8961 45.3911 25.0375 45.2664C25.1789 45.1415 25.2496 44.9748 25.2496 44.766C25.2496 44.5594 25.1789 44.3934 25.0375 44.268C24.8961 44.1426 24.6963 44.0798 24.4383 44.0798ZM21.7984 45.2922H22.983V45.1275H21.7984V44.2445H23.1471V44.0798H21.5972V46.4302H23.1554V46.2656H21.7984V45.2922ZM19.3005 44.2445H20.1472V46.4302H20.3499V44.2445H21.1966V44.0798H19.3005V44.2445ZM17.35 46.0895L17.3399 46.0879V44.0798H17.1388V46.4302H17.3399L18.7393 44.4188L18.7494 44.4205V46.4302H18.9505V44.0798H18.7494L17.35 46.0895ZM16.238 46.2655H14.8318C14.9366 46.1397 15.0271 45.9614 15.103 45.7308C15.1791 45.5002 15.2255 45.2316 15.2424 44.9251L15.2779 44.2445H16.2379L16.238 46.2655ZM16.4408 44.0798H15.0835L15.0397 44.9251C15.0216 45.3004 14.967 45.5945 14.8757 45.8075C14.7844 46.0203 14.692 46.1731 14.5986 46.2656H14.433L14.4549 47H14.634V46.4302H16.5016V47H16.6892L16.7044 46.2656H16.4408V44.0798ZM13.7518 45.184H12.3524V44.0798H12.1513V46.4302H12.3524V45.3486H13.7518V46.4302H13.9529V44.0798H13.7518V45.184ZM11.4178 45.449C11.4178 45.7066 11.351 45.9128 11.2174 46.0675C11.0839 46.2221 10.8972 46.2995 10.6572 46.2995C10.4228 46.2995 10.2399 46.2219 10.1088 46.0667C9.97736 45.9115 9.91186 45.7056 9.91186 45.4491V45.0626C9.91186 44.8083 9.97716 44.6035 10.1079 44.4483C10.2387 44.2931 10.4212 44.2155 10.6555 44.2155C10.8944 44.2155 11.0812 44.2931 11.2159 44.4483C11.3505 44.6035 11.4179 44.8083 11.4179 45.0626L11.4178 45.449ZM10.6555 44.0459C10.3671 44.0459 10.1373 44.1401 9.96596 44.3284C9.79466 44.5167 9.70916 44.7621 9.70916 45.0644V45.447C9.70916 45.7505 9.79486 45.9958 9.96686 46.1831C10.1387 46.3704 10.3689 46.4639 10.6573 46.4639C10.9503 46.4639 11.1837 46.3704 11.3578 46.1831C11.5319 45.9958 11.6189 45.7505 11.6189 45.447V45.0644C11.6189 44.762 11.5315 44.5166 11.357 44.3284C11.1823 44.14 10.9486 44.0459 10.6555 44.0459ZM9.40146 44.0879L9.39816 44.0798H9.16996L8.20146 45.1614H7.86526V44.0798H7.66406V46.4302H7.86526V45.3259H8.20326L9.23086 46.4302H9.47086L9.47416 46.4221L8.38406 45.2363L9.40146 44.0879Z" fill="#1E1E1E"/>
<path fill-rule="evenodd" clip-rule="evenodd" d="M30.4902 1.91503C30.8148 1.91503 31.0781 1.65352 31.0781 1.33092C31.0781 1.00842 30.8149 0.746826 30.4902 0.746826C30.1654 0.746826 29.9023 1.00832 29.9023 1.33092C29.9023 1.65342 30.1654 1.91503 30.4902 1.91503Z" fill="#DB0000"/>
<path fill-rule="evenodd" clip-rule="evenodd" d="M41.5949 35.9875C41.4149 36.1595 41.0825 36.7778 40.5981 37.8422C40.515 37.8357 40.4128 37.8323 40.2917 37.8323C40.1705 37.8323 39.809 37.862 39.2067 37.9215C39.3174 37.5976 39.5286 37.1478 39.8401 36.5726C39.9647 36.3414 40.0442 36.1926 40.0789 36.1264L39.6324 35.9578C39.4315 36.1496 39.0544 36.8538 38.5005 38.0703C38.3206 38.0968 38.0453 38.1563 37.6751 38.2488C37.3046 38.3414 37.1196 38.3976 37.1196 38.4174L37.2234 38.8041C37.5765 38.6985 37.9295 38.6191 38.2826 38.5661C37.9155 39.2539 37.7322 39.8324 37.7322 40.3017L38.4279 40.391C38.4279 39.8555 38.6044 39.2108 38.9575 38.457C39.4628 38.3711 39.8106 38.3281 40.001 38.3281C40.1914 38.3281 40.3178 38.3314 40.3801 38.338C40.1377 38.9132 40.0167 39.3828 40.0167 39.7463L40.6812 39.796C40.7436 39.2142 40.8819 38.6373 41.0966 38.0653C41.3111 37.4934 41.5136 37.0305 41.704 36.6768C41.8944 36.323 41.993 36.1231 42 36.0767L41.5949 35.9875ZM36.9464 38.8025C36.9082 38.8456 36.8789 38.8737 36.8581 38.8869L36.7855 38.9662C36.7508 38.9994 36.7215 39.0226 36.6973 39.0357C36.673 39.049 36.6436 39.0654 36.609 39.0853C36.5743 39.1051 36.5397 39.1184 36.5052 39.1249C36.4705 39.1316 36.4204 39.1349 36.3546 39.1349C36.2887 39.1349 36.2231 39.0986 36.1573 39.0258C36.0914 38.9531 36.0586 38.8456 36.0586 38.7035C36.0586 38.5613 36.2092 38.1332 36.5103 37.4191C36.8115 36.7049 36.9688 36.3215 36.9828 36.2685L36.4533 36.0403C36.0239 37.0058 35.6033 37.7315 35.1916 38.2174C34.7797 38.7034 34.4352 38.9463 34.1584 38.9463C34.0337 38.9463 33.9247 38.9034 33.8313 38.8174C33.7379 38.7315 33.6911 38.6175 33.6911 38.4752C33.6911 38.3331 33.7638 38.0504 33.9093 37.6271C34.0546 37.2042 34.2691 36.7742 34.553 36.3378L34.0546 36.1295C33.916 36.2354 33.6859 36.6635 33.3641 37.414C33.0422 38.1644 32.8812 38.7613 32.8812 39.2041C32.8812 39.6471 33.0749 39.8686 33.4627 39.8686C33.7187 39.8686 34.0337 39.7298 34.4076 39.4521C34.7815 39.1744 35.1309 38.791 35.4564 38.3016C35.3801 38.6454 35.3422 38.9264 35.3422 39.1446C35.3422 39.3628 35.4009 39.5397 35.5188 39.6752C35.6364 39.8108 35.7972 39.8786 36.0015 39.8786C36.2056 39.8786 36.434 39.7828 36.6869 39.5909C36.9394 39.3992 37.1246 39.1644 37.2424 38.8867L37.0242 38.7181C37.0103 38.7314 36.9845 38.7597 36.9464 38.8025ZM31.777 38.6059C31.7008 38.7977 31.5693 38.9615 31.3825 39.0969C31.1955 39.2324 31.0346 39.3001 30.8996 39.3001C30.7646 39.3001 30.6572 39.254 30.5777 39.1613C30.4981 39.0688 30.4583 38.9448 30.4583 38.7894C30.4583 38.6341 30.4859 38.4571 30.5413 38.2588C30.936 38.1397 31.2059 38.0803 31.3513 38.0803C31.6558 38.0803 31.8186 38.1694 31.8394 38.3481C31.8394 38.4341 31.8185 38.52 31.777 38.6059ZM31.9431 37.5843C31.6176 37.5843 31.1781 37.7068 30.6243 37.9514C30.8112 37.224 30.9945 36.6092 31.1747 36.1066L30.7073 35.9579C30.555 36.229 30.3629 36.6935 30.1311 37.3513C29.899 38.0093 29.7832 38.5598 29.7832 39.0026C29.7832 39.5648 30.0013 39.8457 30.4375 39.8457C30.9012 39.8457 31.3632 39.6458 31.8236 39.2457C32.2839 38.8456 32.5141 38.4408 32.5141 38.0307C32.5141 37.72 32.3238 37.5711 31.9431 37.5843ZM29.0546 38.9017C29.0164 38.9448 28.9871 38.973 28.9664 38.9861L28.8937 39.0654C28.859 39.0986 28.8296 39.1217 28.8055 39.1349C28.7811 39.1482 28.7518 39.1646 28.7172 39.1844C28.6825 39.2043 28.6479 39.2176 28.6135 39.224C28.5787 39.2308 28.5285 39.2339 28.4628 39.2339C28.3969 39.2339 28.3312 39.1978 28.2655 39.1249C28.1996 39.0522 28.1669 38.9399 28.1669 38.7877C28.1669 38.6356 28.2966 38.1975 28.5563 37.4736C28.8159 36.7496 28.9457 36.3398 28.9457 36.2438C28.9457 36.148 28.9145 36.0636 28.8522 35.9909C28.7898 35.9182 28.7188 35.8817 28.6393 35.8817C28.5596 35.8817 28.4888 35.9115 28.4264 35.9711C28.3987 36.0042 28.3728 36.039 28.3485 36.0752C28.3242 36.1116 28.2931 36.1661 28.255 36.2389C28.2169 36.3117 28.184 36.3761 28.1563 36.4323C28.1286 36.4885 28.0871 36.5711 28.0318 36.6802C27.9763 36.7893 27.928 36.887 27.8864 36.9728C27.1317 38.4541 26.4602 39.1944 25.8719 39.1944C25.7473 39.1944 25.6382 39.1514 25.5448 39.0654C25.4514 38.9796 25.4046 38.8771 25.4046 38.758L24.8854 39.006C24.8854 39.244 24.9441 39.4458 25.062 39.611C25.1796 39.7764 25.3561 39.8589 25.5915 39.8589C25.8267 39.8589 26.1349 39.735 26.5157 39.4869C26.8964 39.2391 27.246 38.8771 27.5645 38.4009C27.4882 38.7447 27.4503 39.0258 27.4503 39.244C27.4503 39.4622 27.509 39.6392 27.6268 39.7746C27.7445 39.91 27.9053 39.9779 28.1096 39.9779C28.3138 39.9779 28.5421 39.882 28.795 39.6903C29.0476 39.4986 29.2328 39.2638 29.3505 38.9861L29.1324 38.8175C29.1185 38.8308 29.0926 38.8587 29.0546 38.9017ZM23.7173 35.2453C23.994 34.733 24.2469 34.4768 24.4753 34.4768C24.5652 34.4768 24.6103 34.5264 24.6103 34.6256C24.6103 34.8107 24.4806 35.11 24.2209 35.5231C23.9613 35.9364 23.6168 36.3877 23.1876 36.877C23.2637 36.3017 23.4403 35.7579 23.7173 35.2453ZM24.6622 35.7414C25.1814 34.9513 25.441 34.3875 25.441 34.0503C25.441 33.7131 25.2956 33.5443 25.0049 33.5443C24.6586 33.5443 24.2865 33.7543 23.8886 34.1742C23.4904 34.5942 23.1478 35.1347 22.8606 35.7958C22.5733 36.457 22.4123 37.1084 22.3777 37.7496C22.1701 37.9745 21.8585 38.2158 21.4432 38.4736C21.0278 38.7315 20.7041 38.8604 20.4723 38.8604C20.2402 38.8604 20.0604 38.7894 19.9324 38.6472C19.8042 38.5051 19.7403 38.305 19.7403 38.0472C19.7403 37.3529 20.069 36.5462 20.7269 35.6272C21.3844 34.7082 22.1079 33.9676 22.8971 33.4056L22.6168 33.0288C21.7513 33.5115 20.8964 34.3215 20.052 35.4587C19.2074 36.5959 18.7852 37.5779 18.7852 38.4043C18.7852 38.768 18.889 39.0655 19.0967 39.2969C19.3044 39.5285 19.5881 39.6441 19.9482 39.6441C20.308 39.6441 20.727 39.497 21.2046 39.2027C21.6823 38.9085 22.0803 38.5961 22.3988 38.2654C22.461 38.8275 22.5924 39.2571 22.7933 39.5547C22.994 39.8522 23.2537 40.001 23.5721 40.001C23.8074 40.001 24.0255 39.9068 24.2263 39.7183C24.427 39.5298 24.5689 39.3233 24.652 39.0984L24.3198 38.8405C24.1189 39.1182 23.932 39.2571 23.7591 39.2571C23.5582 39.2571 23.3972 39.1002 23.2762 38.7861C23.155 38.4721 23.0945 38.1696 23.0945 37.8786C23.0945 37.8126 23.1013 37.7266 23.1152 37.6208C23.6275 37.158 24.1429 36.5315 24.6622 35.7414ZM14.179 38.4454C14.224 38.3858 14.2948 38.2901 14.3918 38.1578C14.4887 38.0255 14.5822 37.8999 14.6721 37.7809C15.1083 37.1858 15.3264 36.7958 15.3264 36.6106C15.3264 36.4255 15.2728 36.2899 15.1654 36.2038C15.058 36.1181 14.9075 36.0749 14.7137 36.0749C14.5198 36.0749 14.2481 36.1478 13.8986 36.2932C13.549 36.4386 13.2185 36.6271 12.9069 36.8585L13.0004 37.2056C13.4365 36.9346 13.7376 36.7989 13.9038 36.7989C14.0699 36.7989 14.1893 36.8436 14.262 36.9329C14.3347 37.0221 14.3711 37.133 14.3711 37.2651C14.3711 37.3974 14.2377 37.6089 13.9713 37.8999C13.7047 38.1909 13.44 38.4801 13.1769 38.7677C12.9137 39.0553 12.7823 39.2719 12.7823 39.4173C12.7823 39.5629 12.8393 39.6801 12.9537 39.7694C13.0679 39.8586 13.234 39.9033 13.452 39.9033C13.6701 39.9033 13.9609 39.8008 14.3243 39.5958C14.6877 39.3909 14.9733 39.1561 15.181 38.8916L14.9734 38.7329L14.6203 38.961C14.5855 38.9809 14.5441 39.0056 14.4956 39.0354C14.4472 39.0652 14.4022 39.0849 14.3607 39.0949C14.3192 39.1048 14.2688 39.1097 14.2101 39.1097C14.1512 39.1097 14.0923 39.0835 14.0336 39.0304C13.9746 38.9775 13.9452 38.923 13.9452 38.8667C13.9452 38.8107 13.9798 38.7328 14.0491 38.6336C14.0906 38.5675 14.1339 38.5049 14.179 38.4454ZM11.2977 37.7412C10.896 38.0189 10.415 38.2503 9.8542 38.4354C9.9095 38.0188 10.1258 37.6172 10.5032 37.2303C10.8804 36.8436 11.2318 36.6501 11.5571 36.6501C11.6471 36.6501 11.7267 36.6833 11.7959 36.7494C11.8651 36.8156 11.8998 36.8916 11.8998 36.9775C11.8998 37.209 11.6989 37.4635 11.2977 37.7412ZM11.9725 36.1444C11.2802 36.1444 10.5967 36.4386 9.9217 37.0271C9.2469 37.6156 8.9094 38.214 8.9094 38.8221C8.9094 39.1463 9.0167 39.4073 9.2312 39.6057C9.4457 39.8039 9.7297 39.9032 10.0828 39.9032C10.4359 39.9032 10.7993 39.8089 11.1731 39.6205C11.5469 39.432 11.8411 39.1957 12.0558 38.9114L11.817 38.7328C11.3046 39.0568 10.8996 39.2188 10.602 39.2188C10.4635 39.2188 10.3285 39.1758 10.1971 39.0898C10.0655 39.004 9.9686 38.885 9.9063 38.7328C10.7785 38.4353 11.4551 38.1048 11.9363 37.7411C12.4174 37.3776 12.658 37.0171 12.658 36.66C12.658 36.3163 12.4294 36.1444 11.9725 36.1444ZM8.0839 38.9263C8.0458 38.9694 8.0164 38.9975 7.9958 39.0107L7.923 39.09C7.8883 39.1232 7.8589 39.1463 7.8347 39.1595C7.8104 39.1729 7.781 39.1893 7.7465 39.2091C7.7117 39.229 7.6772 39.2423 7.6427 39.2488C7.6079 39.2555 7.5579 39.2587 7.4921 39.2587C7.4262 39.2587 7.3605 39.2225 7.2948 39.1496C7.2289 39.0769 7.1961 38.9646 7.1961 38.8124C7.1961 38.6604 7.3259 38.2223 7.5855 37.4982C7.8451 36.7742 7.9749 36.3644 7.9749 36.2684C7.9749 36.1727 7.9437 36.0883 7.8814 36.0155C7.8191 35.9428 7.7481 35.9063 7.6685 35.9063C7.5889 35.9063 7.5179 35.936 7.4556 35.9956C7.4279 36.0288 7.4019 36.0635 7.3777 36.0997C7.3534 36.1361 7.3223 36.1907 7.2843 36.2633C7.2462 36.3363 7.2132 36.4006 7.1856 36.4568C7.1578 36.513 7.1163 36.5956 7.061 36.7047C7.0055 36.8139 6.9571 36.9114 6.9156 36.9973C6.1611 38.4785 5.4894 39.2189 4.9011 39.2189C4.7764 39.2189 4.6674 39.176 4.5741 39.09C4.4806 39.0042 4.4339 38.9017 4.4339 38.7825L3.9146 39.0306C3.9146 39.2685 3.9733 39.4704 4.0911 39.6355C4.2088 39.8009 4.3853 39.8836 4.6207 39.8836C4.8559 39.8836 5.1641 39.7596 5.5449 39.5115C5.9255 39.2636 6.2751 38.9017 6.5937 38.4256C6.5174 38.7694 6.4794 39.0504 6.4794 39.2685C6.4794 39.4868 6.5381 39.6637 6.6559 39.7991C6.7736 39.9346 6.9346 40.0024 7.1388 40.0024C7.343 40.0024 7.5714 39.9065 7.8242 39.7148C8.0769 39.5231 8.2619 39.2883 8.3797 39.0106L8.1616 38.8419C8.1477 38.8552 8.1218 38.8834 8.0839 38.9263ZM4.5794 35.9162C4.3301 35.9758 4.0375 36.0055 3.7018 36.0055C3.3661 36.0055 3.0875 35.9444 2.8659 35.8219C2.6444 35.6997 2.5337 35.5343 2.5337 35.3261C2.5337 35.1178 2.6479 34.9013 2.8763 34.6764C3.1948 34.4648 3.4889 34.359 3.7589 34.359C4.3472 34.359 4.6416 34.6863 4.6416 35.3409C4.6416 35.5261 4.6209 35.7177 4.5794 35.9162ZM3.0114 38.4255C2.6168 38.8023 2.2152 38.9908 1.8069 38.9908C1.5161 38.9908 1.2963 38.9017 1.1475 38.723C0.998499 38.5445 0.924301 38.3064 0.924301 38.0089C0.924301 37.2618 1.215 36.5013 1.7965 35.7278C1.9486 36.2237 2.6064 36.4716 3.7694 36.4716C4.0394 36.4716 4.2609 36.4552 4.4339 36.422C4.1641 37.1162 3.6897 37.7843 3.0114 38.4255ZM6.9989 35.4996V35.0236C6.5142 35.2616 6.0088 35.4634 5.4828 35.6286C5.5382 35.4501 5.5658 35.184 5.5658 34.8302C5.5658 34.4766 5.4532 34.1691 5.2283 33.9078C5.0032 33.6468 4.7144 33.516 4.3612 33.516C3.8904 33.516 3.5443 33.5855 3.3229 33.7244C2.7829 33.9889 2.2534 34.4006 1.7341 34.9591C1.2149 35.5179 0.795999 36.1163 0.477699 36.7543C0.159199 37.3924 0 37.938 0 38.3907C0 38.8437 0.1177 39.199 0.3531 39.4569C0.5884 39.7148 0.896502 39.8436 1.2773 39.8436C1.9487 39.8436 2.6895 39.4603 3.4995 38.6932C4.3094 37.9262 4.9013 37.0964 5.2752 36.2037C6.1127 35.9063 6.6873 35.6716 6.9989 35.4996Z" fill="#DB0000"/>
</g>
</svg>
