<svg width="20" height="21" viewBox="0 0 20 21" fill="none" xmlns="http://www.w3.org/2000/svg">
<path d="M11.6666 8.39299V6.97632C12.1249 6.78187 12.5937 6.63604 13.0728 6.53882C13.552 6.4416 14.0555 6.39299 14.5833 6.39299C14.9444 6.39299 15.2985 6.42076 15.6458 6.47632C15.993 6.53187 16.3333 6.60132 16.6666 6.68465V8.01799C16.3333 7.89299 15.9964 7.79924 15.6562 7.73674C15.3159 7.67424 14.9583 7.64299 14.5833 7.64299C14.0555 7.64299 13.5485 7.70896 13.0624 7.8409C12.5763 7.97285 12.111 8.15687 11.6666 8.39299ZM11.6666 12.9763V11.5597C12.1249 11.3652 12.5937 11.2194 13.0728 11.1222C13.552 11.0249 14.0555 10.9763 14.5833 10.9763C14.9444 10.9763 15.2985 11.0041 15.6458 11.0597C15.993 11.1152 16.3333 11.1847 16.6666 11.268V12.6013C16.3333 12.4763 15.9964 12.3826 15.6562 12.3201C15.3159 12.2576 14.9583 12.2263 14.5833 12.2263C14.0555 12.2263 13.5485 12.2888 13.0624 12.4138C12.5763 12.5388 12.111 12.7263 11.6666 12.9763ZM11.6666 10.6847V9.26799C12.1249 9.07354 12.5937 8.92771 13.0728 8.83049C13.552 8.73326 14.0555 8.68465 14.5833 8.68465C14.9444 8.68465 15.2985 8.71243 15.6458 8.76799C15.993 8.82354 16.3333 8.89299 16.6666 8.97632V10.3097C16.3333 10.1847 15.9964 10.0909 15.6562 10.0284C15.3159 9.9659 14.9583 9.93465 14.5833 9.93465C14.0555 9.93465 13.5485 10.0006 13.0624 10.1326C12.5763 10.2645 12.111 10.4485 11.6666 10.6847ZM5.41658 13.4763C6.06936 13.4763 6.70478 13.5492 7.32283 13.6951C7.94089 13.8409 8.55547 14.0597 9.16658 14.3513V6.14299C8.59714 5.80965 7.99297 5.55965 7.35408 5.39299C6.7152 5.22632 6.06936 5.14299 5.41658 5.14299C4.91658 5.14299 4.42006 5.1916 3.927 5.28882C3.43395 5.38604 2.95825 5.53187 2.49992 5.72632V13.9763C2.98603 13.8097 3.46867 13.6847 3.94784 13.6013C4.427 13.518 4.91658 13.4763 5.41658 13.4763ZM10.8333 14.3513C11.4444 14.0597 12.0589 13.8409 12.677 13.6951C13.2951 13.5492 13.9305 13.4763 14.5833 13.4763C15.0833 13.4763 15.5728 13.518 16.052 13.6013C16.5312 13.6847 17.0138 13.8097 17.4999 13.9763V5.72632C17.0416 5.53187 16.5659 5.38604 16.0728 5.28882C15.5798 5.1916 15.0833 5.14299 14.5833 5.14299C13.9305 5.14299 13.2846 5.22632 12.6458 5.39299C12.0069 5.55965 11.4027 5.80965 10.8333 6.14299V14.3513ZM9.99992 16.8097C9.33325 16.2819 8.61103 15.8722 7.83325 15.5805C7.05547 15.2888 6.24992 15.143 5.41658 15.143C4.83325 15.143 4.26033 15.2194 3.69784 15.3722C3.13534 15.5249 2.59714 15.7402 2.08325 16.018C1.79159 16.1708 1.51034 16.1638 1.2395 15.9972C0.968669 15.8305 0.833252 15.5874 0.833252 15.268V5.22632C0.833252 5.07354 0.871446 4.92771 0.947835 4.78882C1.02422 4.64993 1.13881 4.54576 1.29159 4.47632C1.93047 4.14299 2.59714 3.89299 3.29159 3.72632C3.98603 3.55965 4.69436 3.47632 5.41658 3.47632C6.22214 3.47632 7.01033 3.58049 7.78117 3.78882C8.552 3.99715 9.29158 4.30965 9.99992 4.72632C10.7083 4.30965 11.4478 3.99715 12.2187 3.78882C12.9895 3.58049 13.7777 3.47632 14.5833 3.47632C15.3055 3.47632 16.0138 3.55965 16.7083 3.72632C17.4027 3.89299 18.0694 4.14299 18.7083 4.47632C18.861 4.54576 18.9756 4.64993 19.052 4.78882C19.1284 4.92771 19.1666 5.07354 19.1666 5.22632V15.268C19.1666 15.5874 19.0312 15.8305 18.7603 15.9972C18.4895 16.1638 18.2083 16.1708 17.9166 16.018C17.4027 15.7402 16.8645 15.5249 16.302 15.3722C15.7395 15.2194 15.1666 15.143 14.5833 15.143C13.7499 15.143 12.9444 15.2888 12.1666 15.5805C11.3888 15.8722 10.6666 16.2819 9.99992 16.8097Z" fill="#231F20"/>
</svg>
