<svg width="20" height="20" viewBox="0 0 20 20" fill="none" xmlns="http://www.w3.org/2000/svg">
<path d="M4.99992 11.6667C4.99992 12.3889 5.14575 13.0729 5.43742 13.7188C5.72909 14.3646 6.14575 14.9306 6.68742 15.4167C6.67353 15.3472 6.66658 15.2847 6.66658 15.2292V15.0417C6.66658 14.5972 6.74992 14.1806 6.91658 13.7917C7.08325 13.4028 7.32631 13.0486 7.64575 12.7292L9.99992 10.4167L12.3541 12.7292C12.6735 13.0486 12.9166 13.4028 13.0833 13.7917C13.2499 14.1806 13.3333 14.5972 13.3333 15.0417V15.2292C13.3333 15.2847 13.3263 15.3472 13.3124 15.4167C13.8541 14.9306 14.2708 14.3646 14.5624 13.7188C14.8541 13.0729 14.9999 12.3889 14.9999 11.6667C14.9999 10.9722 14.8714 10.316 14.6145 9.69792C14.3576 9.07986 13.986 8.52778 13.4999 8.04167C13.2221 8.22222 12.9305 8.35764 12.6249 8.44792C12.3194 8.53819 12.0069 8.58333 11.6874 8.58333C10.8263 8.58333 10.0798 8.29861 9.44783 7.72917C8.81589 7.15972 8.45131 6.45833 8.35408 5.625C7.81242 6.08333 7.33325 6.55903 6.91658 7.05208C6.49992 7.54514 6.14922 8.04514 5.8645 8.55208C5.57978 9.05903 5.3645 9.57639 5.21867 10.1042C5.07284 10.6319 4.99992 11.1528 4.99992 11.6667ZM9.99992 12.75L8.81242 13.9167C8.65964 14.0694 8.54158 14.2431 8.45825 14.4375C8.37492 14.6319 8.33325 14.8333 8.33325 15.0417C8.33325 15.4861 8.49645 15.8681 8.82283 16.1875C9.14922 16.5069 9.54158 16.6667 9.99992 16.6667C10.4583 16.6667 10.8506 16.5069 11.177 16.1875C11.5034 15.8681 11.6666 15.4861 11.6666 15.0417C11.6666 14.8194 11.6249 14.6146 11.5416 14.4271C11.4583 14.2396 11.3402 14.0694 11.1874 13.9167L9.99992 12.75ZM9.99992 2.5V5.25C9.99992 5.72222 10.1631 6.11806 10.4895 6.4375C10.8159 6.75694 11.2152 6.91667 11.6874 6.91667C11.9374 6.91667 12.1701 6.86458 12.3853 6.76042C12.6006 6.65625 12.7916 6.5 12.9583 6.29167L13.3333 5.83333C14.361 6.41667 15.1735 7.22917 15.7708 8.27083C16.368 9.3125 16.6666 10.4444 16.6666 11.6667C16.6666 13.5278 16.0208 15.1042 14.7291 16.3958C13.4374 17.6875 11.861 18.3333 9.99992 18.3333C8.13881 18.3333 6.56242 17.6875 5.27075 16.3958C3.97909 15.1042 3.33325 13.5278 3.33325 11.6667C3.33325 9.875 3.93395 8.17361 5.13534 6.5625C6.33672 4.95139 7.95825 3.59722 9.99992 2.5Z" fill="#231F20"/>
</svg>
