<svg width="30" height="30" viewBox="0 0 30 30" fill="none" xmlns="http://www.w3.org/2000/svg">
<g clip-path="url(#clip0_80_9893)">
<path d="M-8.74227e-07 6.53847L-1.31133e-07 23.5385C0.00167302 25.1946 1.34382 26.5368 3.00002 26.5385L27 26.5385C28.6562 26.5368 29.9984 25.1946 30 23.5384L30 6.53842C29.9984 4.88227 28.6562 3.54007 27 3.5384L3.00002 3.5384C1.34382 3.54012 0.00167213 4.88227 -8.74227e-07 6.53847ZM1.00001 23.5385L1.00001 6.53847C1.00001 5.43389 1.89544 4.53845 3.00002 4.53845L8.50001 4.53845L8.50001 5.53846L3.00002 5.53846C2.44776 5.53846 2.00001 5.98615 2.00001 6.53847L2.00001 23.5385C2.00001 24.0907 2.44771 24.5385 3.00002 24.5385L8.50001 24.5385L8.50001 25.5385L3.00002 25.5385C1.89545 25.5385 1.00001 24.6431 1.00001 23.5385ZM20.5 4.53845L20.5 25.5385L9.50001 25.5385L9.50001 4.53845L20.5 4.53845ZM21.5 23.5385L21.5 18.065C21.6661 18.0474 21.833 18.0386 22 18.0384C22.8008 18.1255 23.5578 18.448 24.1755 18.9649C24.603 19.2784 25.1907 19.2535 25.59 18.9049C25.8419 18.6943 25.9883 18.3833 25.99 18.0549C25.989 17.8753 25.9458 17.6984 25.864 17.5384C25.15 16.1119 25 15.3919 25 15.0384C25 14.6849 25.15 13.9649 25.8635 12.5384C26.1042 12.0745 25.9905 11.5057 25.59 11.1699C25.1906 10.8213 24.603 10.7964 24.1755 11.1099C23.5581 11.6277 22.801 11.9508 22 12.0385C21.833 12.0384 21.6661 12.0295 21.5 12.0119L21.5 6.53842L27 6.53842L27 23.5385L21.5 23.5385ZM21.5 17.0625L21.5 13.0125C21.6606 13.0265 21.8245 13.0365 22 13.0365C23.0105 12.9543 23.9721 12.5662 24.7565 11.924C24.8099 11.8786 24.889 11.8809 24.9395 11.9295C24.9899 11.9672 25.0028 12.0374 24.969 12.0905C24.317 13.394 24 14.358 24 15.0385C24 15.719 24.317 16.683 24.9695 17.985C25.0031 18.0381 24.99 18.1081 24.9395 18.1455C24.889 18.194 24.8099 18.1965 24.7565 18.151C23.972 17.5088 23.0105 17.1208 22 17.0385C21.8245 17.0385 21.6605 17.0485 21.5 17.0625ZM8.50001 6.53847L8.50001 9.24299C6.10899 10.3765 4.73401 12.6095 4.11749 13.8745C3.97862 14.1546 3.96061 14.4794 4.06769 14.7731C4.17471 15.0669 4.39748 15.3039 4.68402 15.429C4.85979 17.8204 6.32152 19.9272 8.50001 20.929L8.50001 23.5385L3.00002 23.5385L3.00002 6.53852L8.50001 6.53852L8.50001 6.53847ZM7.5 15.0385C7.5 14.7623 7.27615 14.5385 7 14.5385L5.15897 14.5385C5.10465 14.5388 5.05396 14.511 5.02508 14.465C4.99615 14.419 4.99309 14.3613 5.01701 14.3125C5.77048 12.689 6.98085 11.3203 8.50001 10.3739L8.50001 19.8235C6.93376 18.9281 5.89478 17.333 5.70902 15.5385L7.00005 15.5385C7.27615 15.5385 7.5 15.3146 7.5 15.0385ZM29 6.53846L29 23.5385C29 24.6431 28.1046 25.5385 27 25.5385L21.5 25.5385L21.5 24.5385L27 24.5385C27.5523 24.5385 28 24.0908 28 23.5385L28 6.53846C28 5.9862 27.5523 5.53846 27 5.53846L21.5 5.53846L21.5 4.53845L27 4.53845C28.1046 4.53845 29 5.43389 29 6.53846Z" fill="#26394F" style="fill:#26394F;fill:color(display-p3 0.1490 0.2235 0.3098);fill-opacity:1;"/>
<path d="M14.9733 11.5392C14.722 11.5524 14.5305 11.7428 14.5455 11.9644C14.5561 12.1202 14.5645 12.2978 14.5722 12.4823L14.3038 12.2431C14.288 12.2291 14.269 12.2149 14.2499 12.2034C14.0769 12.0977 13.84 12.1358 13.7201 12.2883C13.6003 12.4407 13.6435 12.65 13.8164 12.7556L14.595 13.2307C14.6071 13.7343 14.6118 14.0651 14.6149 14.4107C14.2739 14.2339 13.946 14.0627 13.4651 13.8058L13.3877 12.9737C13.3858 12.954 13.3817 12.9323 13.3756 12.9125C13.3201 12.7337 13.1107 12.6284 12.9078 12.6772C12.705 12.7261 12.5853 12.9107 12.6408 13.0896L12.7416 13.414C12.5644 13.316 12.3942 13.2209 12.2462 13.1348C12.232 13.1267 12.2147 13.1176 12.1991 13.1108C11.974 13.0114 11.7 13.092 11.5873 13.2905C11.4746 13.4889 11.5661 13.7302 11.7912 13.8296C11.9494 13.8994 12.1282 13.9817 12.3132 14.0681L11.944 14.1535C11.9223 14.1587 11.8989 14.1661 11.878 14.1746C11.6879 14.2539 11.6067 14.4541 11.6967 14.6218C11.7866 14.7893 12.0133 14.8609 12.2036 14.7816L13.0595 14.4248C13.5603 14.6674 13.888 14.8292 14.2291 14.9997C13.8849 15.1717 13.5525 15.3363 13.0595 15.5751L12.2036 15.2183C12.1832 15.2099 12.1601 15.2021 12.1378 15.1969C11.9344 15.1497 11.726 15.2571 11.6727 15.4364C11.6191 15.6158 11.7406 15.7992 11.944 15.8463L12.3132 15.9319C12.1284 16.0182 11.9497 16.1005 11.7912 16.1704C11.776 16.1772 11.7586 16.186 11.7441 16.1944C11.534 16.3167 11.4759 16.5661 11.6146 16.7513C11.7532 16.9365 12.0361 16.9874 12.2462 16.8652C12.3939 16.7792 12.5642 16.6841 12.7416 16.586L12.6408 16.9104C12.6351 16.9295 12.6304 16.9511 12.6284 16.9715C12.6113 17.1563 12.7672 17.3184 12.9768 17.3335C13.1864 17.3486 13.3706 17.2111 13.3877 17.0263L13.4651 16.1944C13.9541 15.9331 14.2774 15.7642 14.6155 15.589C14.6127 15.9293 14.6082 16.2526 14.5956 16.7691L13.8164 17.2447C13.7982 17.2559 13.7789 17.2698 13.7625 17.2844C13.6145 17.4162 13.6158 17.629 13.7652 17.7595C13.9147 17.89 14.1557 17.8889 14.3038 17.7571L14.5728 17.5176C14.565 17.7011 14.5562 17.878 14.5455 18.0356C14.5446 18.0506 14.5445 18.0683 14.5455 18.0836C14.5606 18.3052 14.7765 18.474 15.0279 18.4608C15.2792 18.4476 15.4707 18.2572 15.4557 18.0356C15.4451 17.8797 15.4365 17.7022 15.4287 17.5176L15.6974 17.7569C15.7132 17.7709 15.7322 17.7851 15.7513 17.7966C15.9243 17.9022 16.1612 17.8642 16.2811 17.7117C16.4009 17.5592 16.3577 17.3499 16.1848 17.2444L15.4059 16.7691C15.3933 16.2525 15.3889 15.9294 15.386 15.5882C15.719 15.7604 16.0345 15.9253 16.5358 16.1934L16.6135 17.0263C16.6154 17.046 16.6195 17.0677 16.6256 17.0874C16.6811 17.2662 16.8905 17.3716 17.0934 17.3228C17.2962 17.2738 17.4159 17.0893 17.3604 16.9104L17.2596 16.5852C17.4361 16.6829 17.6057 16.7782 17.7553 16.8652C17.7695 16.8733 17.7868 16.8822 17.8024 16.8892C18.0275 16.9886 18.3012 16.908 18.4139 16.7095C18.5266 16.511 18.4351 16.2698 18.21 16.1704C18.0517 16.1005 17.8731 16.0182 17.688 15.9319L18.0572 15.8465C18.0789 15.8413 18.1023 15.8339 18.1232 15.8254C18.3133 15.7461 18.3945 15.5459 18.3045 15.3782C18.2146 15.2106 17.9879 15.139 17.7976 15.2183L16.9414 15.5754C16.4276 15.3267 16.1078 15.1684 15.7712 15C16.1068 14.8319 16.4267 14.6734 16.9408 14.4246L17.7976 14.7816C17.818 14.7901 17.8411 14.7978 17.8634 14.8031C18.0668 14.8503 18.2752 14.7429 18.3285 14.5635C18.3821 14.3842 18.2606 14.2008 18.0572 14.1537L17.6877 14.0681C17.8719 13.9823 18.0502 13.9002 18.2103 13.8296C18.2255 13.8228 18.2429 13.814 18.2574 13.8056C18.4675 13.6833 18.5253 13.4339 18.3866 13.2487C18.248 13.0635 17.9651 13.0126 17.755 13.1348C17.6071 13.2209 17.4371 13.3163 17.2596 13.4145L17.3604 13.0896C17.3661 13.0705 17.3708 13.0488 17.3728 13.0285C17.3899 12.8437 17.234 12.6816 17.0244 12.6665C16.8148 12.6514 16.6306 12.7888 16.6135 12.9737L16.5361 13.8058C16.0354 14.0735 15.7204 14.2382 15.3866 14.411C15.3898 14.0622 15.3943 13.7262 15.4062 13.2304L16.1848 12.7553C16.203 12.7441 16.2223 12.7302 16.2387 12.7156C16.3867 12.5837 16.3854 12.371 16.236 12.2405C16.0865 12.11 15.8455 12.1111 15.6974 12.2428L15.4287 12.4821C15.4364 12.2979 15.4451 12.1204 15.4557 11.9644C15.4566 11.9494 15.4567 11.9317 15.4557 11.9163C15.4406 11.6948 15.2247 11.5259 14.9733 11.5392Z" fill="#26394F" style="fill:#26394F;fill:color(display-p3 0.1490 0.2235 0.3098);fill-opacity:1;"/>
<path d="M7.50001 13C7.50001 12.7239 7.27615 12.5 7 12.5C6.72386 12.5 6.5 12.7239 6.5 13C6.5 13.2761 6.72386 13.5 7 13.5C7.27615 13.5 7.50001 13.2761 7.50001 13Z" fill="#26394F" style="fill:#26394F;fill:color(display-p3 0.1490 0.2235 0.3098);fill-opacity:1;"/>
</g>
<defs>
<clipPath id="clip0_80_9893">
<rect width="30" height="30" fill="white" style="fill:white;fill-opacity:1;" transform="translate(0 30) rotate(-90)"/>
</clipPath>
</defs>
</svg>
