<svg width="26" height="26" viewBox="0 0 26 26" fill="none" xmlns="http://www.w3.org/2000/svg">
<g clip-path="url(#clip0_80_9841)">
<path fill-rule="evenodd" clip-rule="evenodd" d="M20.4824 3.35786C20.4824 3.11518 20.6792 2.91846 20.9219 2.91846H26.5609C26.8036 2.91846 27.0003 3.11518 27.0003 3.35786C27.0003 3.60054 26.8036 3.79726 26.5609 3.79726H20.9219C20.6792 3.79726 20.4824 3.60054 20.4824 3.35786Z" fill="#26394F" style="fill:#26394F;fill:color(display-p3 0.1490 0.2235 0.3098);fill-opacity:1;"/>
<path fill-rule="evenodd" clip-rule="evenodd" d="M7.44141 3.35786C7.44141 3.11518 7.63815 2.91846 7.88084 2.91846H15.6858C15.9285 2.91846 16.1252 3.11518 16.1252 3.35786C16.1252 3.60054 15.9285 3.79726 15.6858 3.79726H7.88084C7.63815 3.79726 7.44141 3.60054 7.44141 3.35786Z" fill="#26394F" style="fill:#26394F;fill:color(display-p3 0.1490 0.2235 0.3098);fill-opacity:1;"/>
<path fill-rule="evenodd" clip-rule="evenodd" d="M-3 3.35768C-3 3.115 -2.80326 2.91827 -2.56057 2.91827H2.6055C2.8482 2.91827 3.04494 3.115 3.04494 3.35768C3.04494 3.60035 2.8482 3.79708 2.6055 3.79708H-2.56057C-2.80326 3.79708 -3 3.60035 -3 3.35768Z" fill="#26394F" style="fill:#26394F;fill:color(display-p3 0.1490 0.2235 0.3098);fill-opacity:1;"/>
<path fill-rule="evenodd" clip-rule="evenodd" d="M-3 5.37031C-3 5.12764 -2.80326 4.93091 -2.56057 4.93091H2.0121C2.25479 4.93091 2.45153 5.12764 2.45153 5.37031C2.45153 5.61299 2.25479 5.80971 2.0121 5.80971H-2.56057C-2.80326 5.80971 -3 5.61299 -3 5.37031Z" fill="#26394F" style="fill:#26394F;fill:color(display-p3 0.1490 0.2235 0.3098);fill-opacity:1;"/>
<path fill-rule="evenodd" clip-rule="evenodd" d="M6.95117 5.37031C6.95117 5.12764 7.14791 4.93091 7.3906 4.93091H15.1182C15.3608 4.93091 15.5576 5.12764 15.5576 5.37031C15.5576 5.61299 15.3608 5.80971 15.1182 5.80971H7.3906C7.14791 5.80971 6.95117 5.61299 6.95117 5.37031Z" fill="#26394F" style="fill:#26394F;fill:color(display-p3 0.1490 0.2235 0.3098);fill-opacity:1;"/>
<path fill-rule="evenodd" clip-rule="evenodd" d="M20.0254 5.37031C20.0254 5.12764 20.2221 4.93091 20.4648 4.93091H26.5582C26.8008 4.93091 26.9976 5.12764 26.9976 5.37031C26.9976 5.61299 26.8008 5.80971 26.5582 5.80971H20.4648C20.2221 5.80971 20.0254 5.61299 20.0254 5.37031Z" fill="#26394F" style="fill:#26394F;fill:color(display-p3 0.1490 0.2235 0.3098);fill-opacity:1;"/>
<path fill-rule="evenodd" clip-rule="evenodd" d="M7.40734 8.06596C7.64664 8.02555 7.8734 8.18677 7.91381 8.42605L8.97066 14.6834C8.97067 14.6835 8.97067 14.6835 8.97067 14.6835C9.00629 14.8942 9.0391 15.1051 9.06916 15.3163C9.10336 15.5566 8.9363 15.779 8.69603 15.8132C8.45576 15.8474 8.23326 15.6804 8.19907 15.4401C8.17007 15.2364 8.13843 15.033 8.10409 14.8299L7.04722 8.5724C7.00681 8.33311 7.16804 8.10637 7.40734 8.06596Z" fill="#26394F" style="fill:#26394F;fill:color(display-p3 0.1490 0.2235 0.3098);fill-opacity:1;"/>
<path fill-rule="evenodd" clip-rule="evenodd" d="M8.88035 18.9119C9.12298 18.9173 9.31522 19.1185 9.30973 19.3611C9.257 21.6924 8.87452 24.0126 8.16724 26.2513L8.16724 26.2513L7.39648 28.6908C7.34075 28.8671 7.18055 28.9897 6.99575 28.9974C6.81094 29.0051 6.6411 28.8963 6.5709 28.7252L5.7978 26.8406C5.7978 26.8406 5.7978 26.8406 5.7978 26.8406C5.78167 26.8013 5.73409 26.7861 5.69827 26.8087L5.69825 26.8087L2.33103 28.9302C2.20134 29.0119 2.03844 29.0201 1.90117 28.9519C1.7639 28.8836 1.67212 28.7488 1.65897 28.5961C1.50369 26.7925 1.41703 24.9895 1.39846 23.1871C1.39596 22.9444 1.59066 22.7457 1.83334 22.7432C2.07602 22.7407 2.27478 22.9354 2.27728 23.178C2.29315 24.7182 2.35935 26.2589 2.47624 27.8L5.22973 26.0652C5.72743 25.7516 6.38762 25.9628 6.6109 26.5071L6.61091 26.5071L6.92377 27.2697L7.3292 25.9865C8.01135 23.8274 8.38024 21.5897 8.43109 19.3412C8.43658 19.0986 8.63772 18.9064 8.88035 18.9119Z" fill="#26394F" style="fill:#26394F;fill:color(display-p3 0.1490 0.2235 0.3098);fill-opacity:1;"/>
<path fill-rule="evenodd" clip-rule="evenodd" d="M3.32673 7.77729C3.56592 7.8184 3.72649 8.0456 3.68538 8.28477C3.67412 8.3503 3.66207 8.41566 3.64931 8.48077L3.6493 8.48083C2.93227 12.1356 2.49436 15.792 2.33941 19.45C2.32914 19.6924 2.12425 19.8806 1.88178 19.8704C1.63931 19.8601 1.45107 19.6552 1.46134 19.4128C1.61821 15.7094 2.06151 12.0089 2.78687 8.31166L3.21808 8.39625L2.78687 8.31166C2.79836 8.25304 2.80915 8.19448 2.81922 8.13592C2.86033 7.89675 3.08755 7.73619 3.32673 7.77729Z" fill="#26394F" style="fill:#26394F;fill:color(display-p3 0.1490 0.2235 0.3098);fill-opacity:1;"/>
<path fill-rule="evenodd" clip-rule="evenodd" d="M2.20368 -0.869653C2.20366 -0.86966 2.20369 -0.869646 2.20368 -0.869653L5.21596 1.16497L7.91502 -0.844411C8.48297 -1.26724 9.26703 -0.741662 9.09179 -0.0557103L7.92003 4.52991C7.92003 4.52991 7.92003 4.5299 7.92003 4.52991C7.73102 5.26974 7.65525 6.0323 7.69266 6.79206C7.70459 7.03444 7.51776 7.24061 7.27537 7.25254C7.03297 7.26447 6.82679 7.07765 6.81486 6.83527C6.77317 5.98846 6.85759 5.138 7.06852 4.31239L8.15119 0.0753912L5.66828 1.92386C5.41224 2.11444 5.06356 2.12257 4.79891 1.94379C4.79889 1.94378 4.79887 1.94376 4.79885 1.94375L2.02157 0.0678554L3.37732 4.16041C3.38473 4.18283 3.39228 4.20584 3.39981 4.22922C3.47413 4.46023 3.3471 4.70776 3.11607 4.78208C2.88504 4.8564 2.6375 4.72937 2.56317 4.49836C2.55666 4.47811 2.54993 4.4576 2.54296 4.43652C2.54295 4.43649 2.54294 4.43646 2.54293 4.43643C2.54292 4.43638 2.5429 4.43634 2.54289 4.43629L1.0697 -0.0107651C1.0697 -0.0107662 1.0697 -0.0107641 1.0697 -0.0107651C0.844216 -0.691402 1.60944 -1.27106 2.20368 -0.869653Z" fill="#26394F" style="fill:#26394F;fill:color(display-p3 0.1490 0.2235 0.3098);fill-opacity:1;"/>
<path fill-rule="evenodd" clip-rule="evenodd" d="M10.7737 9.71799L10.336 9.67909C10.7737 9.71799 10.7737 9.71816 10.7737 9.71833L10.7737 9.71871L10.7736 9.71964L10.7733 9.72214C10.7732 9.72409 10.7729 9.7266 10.7726 9.72967C10.772 9.73579 10.7711 9.74413 10.77 9.75457C10.7676 9.77545 10.7641 9.80479 10.759 9.84181C10.7487 9.91582 10.7323 10.0207 10.7068 10.1502C10.6559 10.4089 10.5684 10.768 10.4213 11.1767C10.1282 11.991 9.59025 13.0238 8.6114 13.8411C8.48281 13.9484 8.30436 13.9733 8.15128 13.9053L8.14495 13.9025C7.92318 13.8039 7.8233 13.5442 7.92188 13.3225C7.96047 13.2357 8.02377 13.1675 8.09982 13.1227C8.88873 12.4438 9.33982 11.5862 9.59437 10.8791C9.64053 10.7509 9.67998 10.6283 9.71362 10.5135L8.17396 11.3428C8.16328 11.3486 8.15236 11.3539 8.14124 11.3588L8.07421 11.388C7.85176 11.485 7.59277 11.3833 7.49574 11.1609C7.39872 10.9385 7.50039 10.6795 7.72284 10.5825L7.77318 10.5605L10.1276 9.29225C10.2699 9.21559 10.4428 9.22325 10.5778 9.31219C10.7128 9.40113 10.788 9.55699 10.7737 9.71799Z" fill="#26394F" style="fill:#26394F;fill:color(display-p3 0.1490 0.2235 0.3098);fill-opacity:1;"/>
<path fill-rule="evenodd" clip-rule="evenodd" d="M0.322637 9.31219C0.457615 9.22324 0.630532 9.21559 0.772847 9.29225L2.98166 10.4821C3.19532 10.5972 3.27522 10.8637 3.16012 11.0773C3.04502 11.291 2.7785 11.3709 2.56484 11.2558L1.18688 10.5135C1.21484 10.6089 1.24682 10.7097 1.28333 10.8147C1.52344 11.5049 1.95253 12.3543 2.70806 13.0406C2.88769 13.2038 2.90101 13.4817 2.73781 13.6613C2.57461 13.8409 2.2967 13.8543 2.11707 13.6911C1.2187 12.8749 0.723725 11.8809 0.45325 11.1034C0.317473 10.7131 0.236458 10.3722 0.189157 10.1271C0.165473 10.0044 0.150146 9.9052 0.140607 9.83522C0.135836 9.80022 0.132507 9.77248 0.130301 9.75272C0.129198 9.74284 0.128376 9.73494 0.127795 9.72913C0.127504 9.72622 0.127273 9.72384 0.127098 9.72198L0.126875 9.71959L0.126794 9.7187L0.126761 9.71833C0.126746 9.71816 0.126732 9.71801 0.564437 9.67909L0.126732 9.71801C0.112415 9.557 0.187658 9.40113 0.322637 9.31219Z" fill="#26394F" style="fill:#26394F;fill:color(display-p3 0.1490 0.2235 0.3098);fill-opacity:1;"/>
<path fill-rule="evenodd" clip-rule="evenodd" d="M2.86133 24.9792C2.86133 24.7365 3.05807 24.5398 3.30076 24.5398H3.68781C3.9305 24.5398 4.12724 24.7365 4.12724 24.9792C4.12724 25.2219 3.9305 25.4186 3.68781 25.4186H3.30076C3.05807 25.4186 2.86133 25.2219 2.86133 24.9792Z" fill="#26394F" style="fill:#26394F;fill:color(display-p3 0.1490 0.2235 0.3098);fill-opacity:1;"/>
<path fill-rule="evenodd" clip-rule="evenodd" d="M6.69244 21.5021C6.12408 20.7309 5.0356 20.5716 4.27008 21.1476C4.07616 21.2935 3.80066 21.2546 3.65474 21.0607C3.50881 20.8667 3.54772 20.5913 3.74165 20.4454C4.89779 19.5754 6.54164 19.816 7.39996 20.9808C7.39996 20.9808 7.39997 20.9808 7.39997 20.9808L7.54943 21.1837C7.6934 21.379 7.65172 21.6541 7.45634 21.7981C7.26096 21.942 6.98587 21.9003 6.8419 21.705L6.69244 21.5021L6.69244 21.5021Z" fill="#26394F" style="fill:#26394F;fill:color(display-p3 0.1490 0.2235 0.3098);fill-opacity:1;"/>
<path fill-rule="evenodd" clip-rule="evenodd" d="M2.82162 5.23132C2.75662 5.3039 2.68305 5.38605 2.60961 5.4595C2.47855 5.59055 2.39837 5.70111 2.34825 5.81148C2.29932 5.91922 2.26877 6.0494 2.26877 6.23283C2.26877 6.32875 2.26519 6.43057 2.26191 6.52359C2.26085 6.55379 2.25982 6.58307 2.25896 6.61091C2.25521 6.73169 2.25399 6.83736 2.26031 6.9333C2.2735 7.13358 2.3158 7.21758 2.35699 7.25876C2.57011 7.47182 3.00664 7.64155 3.38305 7.64155C3.57187 7.64155 3.79224 7.60787 3.99517 7.54191C4.20259 7.47448 4.35769 7.38457 4.44628 7.29599C4.52376 7.21851 4.59979 7.07702 4.65439 6.86913C4.70739 6.66738 4.73046 6.4399 4.73046 6.23283C4.73046 5.84101 4.58531 5.43901 4.38109 5.23484L4.38107 5.23481C4.14348 4.99725 3.72396 4.80324 3.38299 4.80324C3.30711 4.80324 3.21572 4.83808 3.07551 4.96552C3.00644 5.02828 2.93745 5.10245 2.85903 5.1896C2.84694 5.20304 2.83444 5.21699 2.82162 5.23132ZM2.48438 4.3152C2.69093 4.12746 2.98697 3.92444 3.38299 3.92444C3.98578 3.92444 4.62158 4.23251 5.00249 4.61338C5.0025 4.61339 5.00251 4.61339 5.00252 4.6134" fill="#26394F" style="fill:#26394F;fill:color(display-p3 0.1490 0.2235 0.3098);fill-opacity:1;"/>
<path fill-rule="evenodd" clip-rule="evenodd" d="M7.98957 16.4034C7.92457 16.476 7.85101 16.5582 7.77756 16.6316C7.64651 16.7627 7.56633 16.8732 7.51621 16.9836C7.46728 17.0914 7.43672 17.2216 7.43672 17.4049C7.43672 17.5008 7.43314 17.6026 7.42988 17.6956C7.42881 17.7259 7.42778 17.7551 7.42692 17.783C7.42318 17.9038 7.42196 18.0095 7.42828 18.1054C7.44148 18.3057 7.48379 18.3897 7.52497 18.4309C7.7381 18.644 8.17461 18.8137 8.551 18.8137C8.73982 18.8137 8.96019 18.78 9.16312 18.714C9.37054 18.6466 9.52565 18.5567 9.61423 18.4681C9.69171 18.3906 9.76775 18.2491 9.82235 18.0413C9.87534 17.8395 9.89841 17.612 9.89841 17.4049C9.89841 17.0131 9.75327 16.6111 9.54905 16.407L9.54902 16.4069C9.31143 16.1694 8.89192 15.9754 8.55094 15.9754C8.47507 15.9754 8.38367 16.0102 8.24346 16.1376C8.1744 16.2004 8.10541 16.2746 8.02699 16.3617C8.01489 16.3752 8.0024 16.3891 7.98957 16.4034ZM7.65233 15.4873C7.85889 15.2996 8.15492 15.0966 8.55094 15.0966C9.15373 15.0966 9.78953 15.4046 10.1704 15.7855C10.1704 15.7855 10.1705 15.7855 10.1705 15.7855" fill="#26394F" style="fill:#26394F;fill:color(display-p3 0.1490 0.2235 0.3098);fill-opacity:1;"/>
<path fill-rule="evenodd" clip-rule="evenodd" d="M1.23321 19.3833C1.43977 19.1956 1.7358 18.9926 2.13182 18.9926C2.73463 18.9926 3.37045 19.3006 3.75135 19.6815C4.16564 20.0958 4.3581 20.749 4.3581 21.3009C4.3581 21.5657 4.32935 21.8706 4.2532 22.1605C4.17867 22.4443 4.04826 22.7538 3.8165 22.9855C3.59584 23.2062 3.29993 23.3534 3.01565 23.4458C2.72688 23.5397 2.4149 23.5885 2.13182 23.5885C1.56441 23.5885 0.889795 23.3537 0.484345 22.9483C0.362473 22.8264 0.283938 22.6876 0.232124 22.5518C0.145593 22.3251 0.259256 22.0712 0.485997 21.9846C0.712738 21.8981 0.966695 22.0118 1.05323 22.2385C1.07055 22.2839 1.08869 22.3098 1.10579 22.3269C1.31883 22.5399 1.75533 22.7097 2.13182 22.7097C2.32069 22.7097 2.54107 22.676 2.74397 22.61C2.95137 22.5426 3.10644 22.4527 3.19502 22.3641L3.19505 22.3641C3.27253 22.2866 3.34857 22.1451 3.40317 21.9373C3.45616 21.7355 3.47923 21.508 3.47923 21.3009C3.47923 20.9091 3.33409 20.5071 3.1299 20.3029C2.89231 20.0654 2.4728 19.8714 2.13182 19.8714C2.05595 19.8714 1.96455 19.9062 1.82434 20.0336C1.75528 20.0964 1.68629 20.1706 1.60786 20.2577C1.59577 20.2712 1.58328 20.2851 1.57045 20.2994C1.50545 20.372 1.43189 20.4542 1.35844 20.5276C1.22786 20.6582 1.14782 20.7684 1.09762 20.8785C0.996922 21.0993 0.736283 21.1966 0.51547 21.0959C0.294658 20.9952 0.197291 20.7346 0.297994 20.5138C0.405296 20.2786 0.559378 20.0838 0.736989 19.9062C0.791738 19.8515 0.845849 19.7911 0.910596 19.7189C0.924704 19.7031 0.939316 19.6868 0.954551 19.6699C1.03466 19.5809 1.12889 19.4781 1.23321 19.3833Z" fill="#26394F" style="fill:#26394F;fill:color(display-p3 0.1490 0.2235 0.3098);fill-opacity:1;"/>
<path fill-rule="evenodd" clip-rule="evenodd" d="M5.976 8.72833C6.21613 8.76349 6.38229 8.98664 6.34713 9.22675L6.23757 9.97497C6.2024 10.2151 5.97924 10.3812 5.73911 10.3461C5.49897 10.3109 5.33281 10.0878 5.36798 9.84765L5.47754 9.09943C5.5127 8.85932 5.73587 8.69317 5.976 8.72833Z" fill="#26394F" style="fill:#26394F;fill:color(display-p3 0.1490 0.2235 0.3098);fill-opacity:1;"/>
<path fill-rule="evenodd" clip-rule="evenodd" d="M3.73816 12.044C3.91402 11.8768 4.19217 11.8838 4.35942 12.0596L4.75203 12.4724C4.91928 12.6483 4.9123 12.9264 4.73644 13.0936C4.56058 13.2609 4.28244 13.2539 4.11519 13.0781L3.72257 12.6653C3.55532 12.4894 3.5623 12.2113 3.73816 12.044Z" fill="#26394F" style="fill:#26394F;fill:color(display-p3 0.1490 0.2235 0.3098);fill-opacity:1;"/>
<path fill-rule="evenodd" clip-rule="evenodd" d="M6.33359 14.5639C6.55701 14.6586 6.6613 14.9166 6.56653 15.14L6.2601 15.8623C6.16533 16.0858 5.90739 16.19 5.68397 16.0953C5.46054 16.0005 5.35625 15.7426 5.45102 15.5192L5.75745 14.7968C5.85222 14.5734 6.11016 14.4691 6.33359 14.5639Z" fill="#26394F" style="fill:#26394F;fill:color(display-p3 0.1490 0.2235 0.3098);fill-opacity:1;"/>
<path fill-rule="evenodd" clip-rule="evenodd" d="M3.22098 15.8869C3.41193 15.7371 3.68816 15.7705 3.83794 15.9614L4.26296 16.5033C4.41274 16.6942 4.37936 16.9704 4.18841 17.1202C3.99745 17.27 3.72123 17.2366 3.57145 17.0456L3.14643 16.5038C2.99665 16.3129 3.03002 16.0367 3.22098 15.8869Z" fill="#26394F" style="fill:#26394F;fill:color(display-p3 0.1490 0.2235 0.3098);fill-opacity:1;"/>
<path fill-rule="evenodd" clip-rule="evenodd" d="M4.19194 2.21689C4.39463 2.08342 4.66714 2.13952 4.80062 2.34219L5.12346 2.83239C5.25693 3.03507 5.20083 3.30757 4.99814 3.44104C4.79545 3.5745 4.52293 3.5184 4.38946 3.31573L4.06662 2.82553C3.93314 2.62285 3.98925 2.35035 4.19194 2.21689Z" fill="#26394F" style="fill:#26394F;fill:color(display-p3 0.1490 0.2235 0.3098);fill-opacity:1;"/>
<path fill-rule="evenodd" clip-rule="evenodd" d="M6.08674 18.2715C6.27164 18.4287 6.29411 18.706 6.13692 18.8909L5.78596 19.3037C5.62877 19.4886 5.35144 19.511 5.16654 19.3539C4.98163 19.1967 4.95917 18.9194 5.11636 18.7345L5.46732 18.3217C5.62451 18.1368 5.90184 18.1143 6.08674 18.2715Z" fill="#26394F" style="fill:#26394F;fill:color(display-p3 0.1490 0.2235 0.3098);fill-opacity:1;"/>
<path fill-rule="evenodd" clip-rule="evenodd" d="M14.9268 22.787C15.1695 22.7843 15.3684 22.9789 15.371 23.2215C15.3877 24.7473 15.4538 26.2735 15.5695 27.8002L18.323 26.0654C18.323 26.0654 18.323 26.0654 18.323 26.0654C18.8207 25.7518 19.4809 25.963 19.7042 26.5072L19.7042 26.5072L20.0171 27.27L20.4225 25.9868L20.4225 25.9867C20.5935 25.4459 20.7443 24.8998 20.8759 24.3497C20.9323 24.1136 21.1694 23.9681 21.4055 24.0245C21.6415 24.0809 21.7871 24.318 21.7306 24.5541C21.5943 25.124 21.4379 25.6902 21.2606 26.2515L20.4898 28.691C20.4341 28.8674 20.2739 28.99 20.0891 28.9977C19.9043 29.0054 19.7344 28.8965 19.6642 28.7254L18.8911 26.8408C18.875 26.8015 18.8274 26.7863 18.7915 26.8089L18.7915 26.8089L15.4243 28.9303C15.2946 29.0121 15.1317 29.0203 14.9944 28.952C14.8572 28.8838 14.7654 28.749 14.7522 28.5963C14.5983 26.8073 14.5117 25.0189 14.4922 23.2311C14.4896 22.9885 14.6841 22.7896 14.9268 22.787Z" fill="#26394F" style="fill:#26394F;fill:color(display-p3 0.1490 0.2235 0.3098);fill-opacity:1;"/>
<path fill-rule="evenodd" clip-rule="evenodd" d="M16.425 7.72921C16.6644 7.76896 16.8263 7.99525 16.7865 8.23465C16.7729 8.31688 16.758 8.399 16.742 8.48081L16.742 8.48085C16.0295 12.1121 15.5927 15.7449 15.4351 19.3793C15.4246 19.6218 15.2195 19.8098 14.977 19.7993C14.7346 19.7888 14.5465 19.5837 14.5571 19.3413C14.7166 15.6617 15.1588 11.9852 15.8795 8.31172C15.8939 8.23816 15.9073 8.16443 15.9195 8.0907C15.9593 7.85131 16.1856 7.68946 16.425 7.72921Z" fill="#26394F" style="fill:#26394F;fill:color(display-p3 0.1490 0.2235 0.3098);fill-opacity:1;"/>
<path fill-rule="evenodd" clip-rule="evenodd" d="M15.2994 -0.869589C15.2994 -0.869583 15.2994 -0.869578 15.2994 -0.869573L18.3116 1.16511L21.0107 -0.844272C21.5786 -1.2671 22.3627 -0.741523 22.1874 -0.0555713L22.1874 -0.0555464L21.0157 4.53006C21.0157 4.53006 21.0157 4.53006 21.0157 4.53006C20.7521 5.56162 20.7075 6.63693 20.8848 7.68675L20.4515 7.75993L20.8848 7.68676L22.0665 14.6831C22.103 14.8992 22.1366 15.1158 22.1673 15.3324C22.2014 15.5727 22.0342 15.7951 21.7939 15.8291C21.5536 15.8632 21.3312 15.696 21.2971 15.4557C21.2675 15.2467 21.2351 15.0378 21.1999 14.8295L21.1999 14.8295L20.0182 7.83311C19.8205 6.66224 19.8702 5.46297 20.1642 4.31251L20.1642 4.31251L21.2468 0.0755302L18.7639 1.924L18.7639 1.92403C18.5078 2.11461 18.1592 2.12271 17.8945 1.94392C17.8945 1.94391 17.8945 1.9439 17.8945 1.94389L15.1173 0.0679495L16.4729 4.16026C16.5493 4.39062 16.4244 4.63923 16.194 4.71554C15.9636 4.79185 15.715 4.66696 15.6387 4.4366L14.1654 -0.0106848C14.1654 -0.0106859 14.1654 -0.0106869 14.1654 -0.010688C13.9399 -0.691325 14.7051 -1.27101 15.2994 -0.869589ZM14.8074 -0.141382L14.8074 -0.141366L14.8074 -0.141382Z" fill="#26394F" style="fill:#26394F;fill:color(display-p3 0.1490 0.2235 0.3098);fill-opacity:1;"/>
<path fill-rule="evenodd" clip-rule="evenodd" d="M21.9759 18.9217C22.2186 18.9273 22.4107 19.1285 22.4051 19.3711C22.3783 20.5277 22.2704 21.6815 22.0821 22.824C22.0426 23.0634 21.8165 23.2256 21.577 23.1861C21.3375 23.1466 21.1754 22.9205 21.2149 22.681C21.3966 21.5792 21.5006 20.4663 21.5264 19.3508C21.5321 19.1082 21.7333 18.9161 21.9759 18.9217Z" fill="#26394F" style="fill:#26394F;fill:color(display-p3 0.1490 0.2235 0.3098);fill-opacity:1;"/>
<path fill-rule="evenodd" clip-rule="evenodd" d="M23.8694 9.71793L23.4317 9.67903C23.8694 9.71793 23.8694 9.71809 23.8694 9.71826L23.8694 9.71865L23.8693 9.71958L23.8691 9.72208C23.8689 9.72403 23.8686 9.72654 23.8683 9.72961C23.8677 9.73573 23.8668 9.74407 23.8657 9.75451C23.8633 9.77539 23.8598 9.80473 23.8547 9.84175C23.8445 9.91576 23.828 10.0207 23.8025 10.1502C23.7516 10.4089 23.6641 10.768 23.517 11.1767C23.2239 11.9909 22.686 13.0237 21.7071 13.841C21.5785 13.9484 21.4001 13.9733 21.247 13.9052L21.2406 13.9024C21.0189 13.8039 20.919 13.5442 21.0176 13.3224C21.0562 13.2356 21.1195 13.1675 21.1955 13.1226C21.9844 12.4438 22.4355 11.5862 22.6901 10.879C22.7362 10.7508 22.7757 10.6282 22.8093 10.5134L21.2697 11.3428C21.259 11.3485 21.2481 11.3538 21.2369 11.3587L21.1699 11.3879C20.9475 11.4849 20.6885 11.3833 20.5914 11.1608C20.4944 10.9384 20.5961 10.6794 20.8185 10.5824L20.8689 10.5605L23.2233 9.29219C23.3656 9.21553 23.5385 9.22318 23.6735 9.31213C23.8085 9.40107 23.8837 9.55693 23.8694 9.71793Z" fill="#26394F" style="fill:#26394F;fill:color(display-p3 0.1490 0.2235 0.3098);fill-opacity:1;"/>
<path fill-rule="evenodd" clip-rule="evenodd" d="M13.4183 9.31213C13.5533 9.22318 13.7262 9.21552 13.8685 9.29219L16.0774 10.482C16.291 10.5971 16.3709 10.8636 16.2558 11.0773C16.1407 11.2909 15.8742 11.3708 15.6605 11.2557L14.2826 10.5134C14.3105 10.6088 14.3425 10.7097 14.379 10.8146C14.6191 11.5048 15.0482 12.3542 15.8037 13.0406C15.9833 13.2038 15.9967 13.4817 15.8335 13.6613C15.6703 13.8409 15.3923 13.8542 15.2127 13.691C14.3144 12.8749 13.8194 11.8808 13.5489 11.1033C13.4132 10.713 13.3322 10.3721 13.2849 10.1271C13.2612 10.0043 13.2458 9.90513 13.2363 9.83516C13.2315 9.80016 13.2282 9.77242 13.226 9.75266C13.2249 9.74278 13.2241 9.73488 13.2235 9.72907C13.2232 9.72616 13.223 9.72377 13.2228 9.72192L13.2226 9.71953L13.2225 9.71826C13.2224 9.7181 13.2224 9.71794 13.6601 9.67903L13.2224 9.71794C13.2081 9.55694 13.2834 9.40107 13.4183 9.31213Z" fill="#26394F" style="fill:#26394F;fill:color(display-p3 0.1490 0.2235 0.3098);fill-opacity:1;"/>
<path fill-rule="evenodd" clip-rule="evenodd" d="M15.9551 24.9792C15.9551 24.7365 16.1518 24.5398 16.3945 24.5398H16.7816C17.0243 24.5398 17.221 24.7365 17.221 24.9792C17.221 25.2219 17.0243 25.4186 16.7816 25.4186H16.3945C16.1518 25.4186 15.9551 25.2219 15.9551 24.9792Z" fill="#26394F" style="fill:#26394F;fill:color(display-p3 0.1490 0.2235 0.3098);fill-opacity:1;"/>
<path fill-rule="evenodd" clip-rule="evenodd" d="M19.7862 21.5021C19.2178 20.7309 18.1294 20.5716 17.3638 21.1476C17.1699 21.2935 16.8944 21.2546 16.7485 21.0607C16.6026 20.8667 16.6415 20.5913 16.8354 20.4454C17.9915 19.5754 19.6354 19.816 20.4937 20.9808C20.4937 20.9808 20.4937 20.9808 20.4937 20.9808L20.6432 21.1837C20.7871 21.379 20.7455 21.6541 20.5501 21.7981C20.3547 21.942 20.0796 21.9003 19.9357 21.705L19.7862 21.5021L19.7862 21.5021Z" fill="#26394F" style="fill:#26394F;fill:color(display-p3 0.1490 0.2235 0.3098);fill-opacity:1;"/>
<path fill-rule="evenodd" clip-rule="evenodd" d="M15.9154 5.23156C15.8504 5.30415 15.7768 5.3863 15.7033 5.45974C15.5723 5.59079 15.4921 5.70136 15.442 5.81172C15.3931 5.91946 15.3625 6.04964 15.3625 6.23307C15.3625 6.32896 15.3589 6.43075 15.3557 6.52375C15.3546 6.55398 15.3536 6.58327 15.3527 6.61114C15.349 6.73191 15.3477 6.83759 15.3541 6.93353C15.3673 7.13383 15.4096 7.21785 15.4508 7.25903C15.6639 7.47208 16.1004 7.6418 16.4768 7.6418C16.6656 7.6418 16.886 7.60811 17.0889 7.54215C17.2963 7.47473 17.4514 7.38481 17.54 7.29623C17.6175 7.21875 17.6935 7.07727 17.7481 6.86938C17.8011 6.66762 17.8242 6.44015 17.8242 6.23307C17.8242 5.84126 17.679 5.43926 17.4748 5.23509L17.4748 5.23506C17.2372 4.99749 16.8177 4.80349 16.4767 4.80349C16.4009 4.80349 16.3095 4.83833 16.1692 4.96576C16.1002 5.02853 16.0312 5.1027 15.9528 5.18985C15.9407 5.20329 15.9282 5.21724 15.9154 5.23156ZM15.5781 4.31544C15.7847 4.12771 16.0807 3.92468 16.4767 3.92468C17.0795 3.92468 17.7153 4.23276 18.0962 4.61362C18.0962 4.61363 18.0962 4.61364 18.0963 4.61365" fill="#26394F" style="fill:#26394F;fill:color(display-p3 0.1490 0.2235 0.3098);fill-opacity:1;"/>
<path fill-rule="evenodd" clip-rule="evenodd" d="M21.0833 16.4035C21.0183 16.4761 20.9448 16.5582 20.8713 16.6317C20.7403 16.7627 20.6601 16.8733 20.61 16.9837C20.561 17.0914 20.5305 17.2216 20.5305 17.405C20.5305 17.5009 20.5269 17.6027 20.5236 17.6957C20.5226 17.7259 20.5215 17.7552 20.5207 17.7831C20.5169 17.9038 20.5157 18.0095 20.522 18.1055C20.5352 18.3058 20.5775 18.3898 20.6187 18.431C20.8318 18.644 21.2684 18.8137 21.6447 18.8137C21.8336 18.8137 22.0539 18.78 22.2569 18.7141C22.4643 18.6467 22.6194 18.5567 22.708 18.4682C22.7855 18.3907 22.8615 18.2492 22.9161 18.0413C22.9691 17.8396 22.9922 17.6121 22.9922 17.405C22.9922 17.0132 22.847 16.6112 22.6428 16.407L22.6428 16.407C22.4052 16.1694 21.9857 15.9754 21.6447 15.9754C21.5688 15.9754 21.4774 16.0103 21.3372 16.1377C21.2681 16.2005 21.1992 16.2746 21.1207 16.3618C21.1086 16.3752 21.0961 16.3892 21.0833 16.4035ZM20.7461 15.4874C20.9526 15.2996 21.2487 15.0966 21.6447 15.0966C22.2475 15.0966 22.8833 15.4047 23.2642 15.7856C23.2642 15.7856 23.2642 15.7856 23.2642 15.7856" fill="#26394F" style="fill:#26394F;fill:color(display-p3 0.1490 0.2235 0.3098);fill-opacity:1;"/>
<path fill-rule="evenodd" clip-rule="evenodd" d="M14.6654 20.2994C14.6004 20.372 14.5268 20.4542 14.4533 20.5276C14.3223 20.6587 14.2421 20.7692 14.192 20.8796C14.1431 20.9873 14.1125 21.1175 14.1125 21.3009C14.1125 21.3968 14.1089 21.4986 14.1057 21.5916C14.1046 21.6218 14.1036 21.6511 14.1027 21.679C14.099 21.7998 14.0977 21.9055 14.1041 22.0014C14.1173 22.2017 14.1596 22.2857 14.2008 22.3269C14.4139 22.5399 14.8504 22.7097 15.2268 22.7097C15.4156 22.7097 15.636 22.676 15.8389 22.61C16.0463 22.5426 16.2014 22.4527 16.29 22.3641C16.3675 22.2866 16.4435 22.1451 16.4981 21.9373C16.5511 21.7355 16.5742 21.508 16.5742 21.3009C16.5742 20.9091 16.4291 20.5071 16.2248 20.303L16.2248 20.3029C15.9872 20.0654 15.5677 19.8714 15.2267 19.8714C15.1509 19.8714 15.0595 19.9062 14.9192 20.0336C14.8502 20.0964 14.7812 20.1706 14.7028 20.2577C14.6907 20.2712 14.6782 20.2851 14.6654 20.2994ZM14.3281 19.3833C14.5347 19.1956 14.8307 18.9926 15.2267 18.9926C15.8295 18.9926 16.4653 19.3006 16.8462 19.6815C16.8462 19.6815 16.8462 19.6815 16.8463 19.6815" fill="#26394F" style="fill:#26394F;fill:color(display-p3 0.1490 0.2235 0.3098);fill-opacity:1;"/>
<path fill-rule="evenodd" clip-rule="evenodd" d="M19.0717 8.72839C19.3118 8.76355 19.478 8.9867 19.4428 9.22682L19.3333 9.97503C19.2981 10.2151 19.0749 10.3813 18.8348 10.3461C18.5947 10.311 18.4285 10.0878 18.4637 9.84771L18.5732 9.09949C18.6084 8.85938 18.8316 8.69323 19.0717 8.72839Z" fill="#26394F" style="fill:#26394F;fill:color(display-p3 0.1490 0.2235 0.3098);fill-opacity:1;"/>
<path fill-rule="evenodd" clip-rule="evenodd" d="M16.8339 12.044C17.0097 11.8768 17.2879 11.8838 17.4551 12.0596L17.8477 12.4724C18.015 12.6483 18.008 12.9264 17.8321 13.0936C17.6563 13.2609 17.3781 13.2539 17.2109 13.0781L16.8183 12.6653C16.651 12.4894 16.658 12.2113 16.8339 12.044Z" fill="#26394F" style="fill:#26394F;fill:color(display-p3 0.1490 0.2235 0.3098);fill-opacity:1;"/>
<path fill-rule="evenodd" clip-rule="evenodd" d="M19.4293 14.5639C19.6527 14.6586 19.757 14.9166 19.6622 15.14L19.3558 15.8623C19.261 16.0858 19.0031 16.19 18.7797 16.0953C18.5562 16.0005 18.452 15.7426 18.5467 15.5192L18.8531 14.7968C18.9479 14.5734 19.2059 14.4691 19.4293 14.5639Z" fill="#26394F" style="fill:#26394F;fill:color(display-p3 0.1490 0.2235 0.3098);fill-opacity:1;"/>
<path fill-rule="evenodd" clip-rule="evenodd" d="M16.3167 15.8869C16.5076 15.7371 16.7839 15.7705 16.9336 15.9614L17.3587 16.5033C17.5084 16.6942 17.4751 16.9704 17.2841 17.1202C17.0932 17.27 16.8169 17.2366 16.6671 17.0456L16.2421 16.5038C16.0923 16.3129 16.1257 16.0367 16.3167 15.8869Z" fill="#26394F" style="fill:#26394F;fill:color(display-p3 0.1490 0.2235 0.3098);fill-opacity:1;"/>
<path fill-rule="evenodd" clip-rule="evenodd" d="M17.2876 2.21689C17.4903 2.08342 17.7628 2.13952 17.8963 2.34219L18.2192 2.83239C18.3526 3.03507 18.2965 3.30756 18.0938 3.44103C17.8912 3.5745 17.6186 3.5184 17.4852 3.31573L17.1623 2.82553C17.0288 2.62285 17.085 2.35036 17.2876 2.21689Z" fill="#26394F" style="fill:#26394F;fill:color(display-p3 0.1490 0.2235 0.3098);fill-opacity:1;"/>
<path fill-rule="evenodd" clip-rule="evenodd" d="M19.1824 18.2715C19.3673 18.4286 19.3898 18.706 19.2326 18.8909L18.8817 19.3037C18.7245 19.4886 18.4472 19.5111 18.2623 19.3539C18.0774 19.1967 18.0549 18.9194 18.212 18.7345L18.5629 18.3217C18.7201 18.1368 18.9974 18.1143 19.1824 18.2715Z" fill="#26394F" style="fill:#26394F;fill:color(display-p3 0.1490 0.2235 0.3098);fill-opacity:1;"/>
</g>
<defs>
<clipPath id="clip0_80_9841">
<rect width="26" height="26" fill="white" style="fill:white;fill-opacity:1;"/>
</clipPath>
</defs>
</svg>
