<svg width="30" height="30" viewBox="0 0 30 30" fill="none" xmlns="http://www.w3.org/2000/svg">
<path d="M28.4649 18.2253C28.3238 18.0383 28.2462 17.7985 28.2462 17.5501V16.1501C28.2462 15.9144 28.317 15.6841 28.4455 15.5016L29.8624 13.4897C30.012 13.2774 30.042 12.9916 29.9406 12.744C29.8393 12.4962 29.6294 12.3423 29.393 12.3423H28.7918C28.3361 12.3423 27.879 12.4007 27.4332 12.516C27.1968 12.5771 27.0479 12.8489 27.1006 13.123C27.1533 13.3972 27.3876 13.5697 27.6241 13.5087C28.0073 13.4096 28.4002 13.3595 28.7918 13.3595H28.8216L27.7661 14.8582C27.51 15.2219 27.369 15.6807 27.369 16.1501V17.5501C27.369 18.045 27.5237 18.5227 27.8048 18.8951L28.7795 20.1869H28.5727C27.3498 20.1869 26.1678 19.7039 25.2171 18.8214V14.9405C25.4648 14.6844 25.7336 14.454 26.0187 14.2545C26.2262 14.1094 26.2929 13.7968 26.1677 13.5563C26.0427 13.3158 25.7731 13.2384 25.5656 13.3835C25.1726 13.6584 24.8059 13.9835 24.4755 14.3497L23.8639 15.0277C23.6914 15.2189 23.4649 15.3242 23.2261 15.3242H22.8627C22.8259 14.2498 22.2978 13.2927 21.4633 12.8072L19.4372 11.6282C19.2207 11.5022 18.9571 11.6037 18.8485 11.8546C18.7398 12.1057 18.8272 12.4113 19.0437 12.5373L19.1714 12.6116L18.7241 13.5914L16.7349 12.5888L17.173 11.4486L17.3719 11.5644C17.5885 11.6905 17.852 11.589 17.9606 11.338C18.0693 11.0869 17.9818 10.7813 17.7654 10.6553L15.191 9.15734C14.9081 8.99276 14.6187 8.85172 14.325 8.73129C14.3059 8.72179 14.2864 8.71325 14.2658 8.70681L14.2633 8.7062C13.3257 8.33229 12.3436 8.18141 11.3739 8.24624C11.3654 8.2457 11.357 8.24475 11.3485 8.24475C11.323 8.24475 11.2982 8.2478 11.274 8.25261C9.75916 8.37705 8.27986 9.02802 7.05476 10.1786L6.44874 10.7478C5.02709 11.2578 3.70603 12.0993 2.56667 13.2325C2.38281 13.4153 2.36164 13.7365 2.51936 13.9496C2.67702 14.1628 2.95392 14.1874 3.13778 14.0045C4.56984 12.5801 6.31341 11.6544 8.17992 11.3273C10.0494 10.9997 11.9543 11.2885 13.6884 12.1623L21.6045 16.1521C21.8536 16.2777 22.1177 16.3413 22.3894 16.3413H23.2263C23.6341 16.3413 24.0236 16.1837 24.3401 15.8939V17.9449C24.0293 17.6741 23.6505 17.5261 23.2591 17.5261H22.499C22.1389 17.5261 21.7858 17.6405 21.4779 17.857L19.8936 18.9714C17.263 20.8214 14.247 21.7663 11.1703 21.7086C8.09407 21.6493 5.10639 20.5871 2.53029 18.6367L2.51462 18.6248H3.8396C4.55171 18.6248 5.21434 18.3754 5.76674 17.9487C6.07189 18.8712 6.84336 19.5281 7.745 19.5281H8.30179C9.46987 19.5281 10.4201 18.4262 10.4201 17.0717V16.3542C10.4201 15.8235 10.0478 15.3917 9.59004 15.3917H7.25482C7.30079 15.1304 7.325 14.86 7.325 14.5832V13.6843C7.325 13.4034 7.12862 13.1758 6.8864 13.1758C6.64418 13.1758 6.4478 13.4034 6.4478 13.6843V14.5832C6.4478 16.2509 5.27774 17.6076 3.83954 17.6076H1.18619C1.009 17.4314 0.898763 17.1834 0.880049 16.9084C0.858236 16.5876 0.963793 16.2796 1.16964 16.0635L1.73982 15.4652C1.91941 15.2768 1.93327 14.9552 1.7707 14.7469C1.60812 14.5386 1.33087 14.5226 1.15116 14.7111L0.580983 15.3094C0.171975 15.7387 -0.0377337 16.3506 0.00559987 16.9883C0.0489335 17.6261 0.338701 18.1924 0.800634 18.5421L2.05052 19.4883C3.12778 20.3039 4.27346 20.9715 5.46598 21.4847C5.53926 23.0087 6.22757 24.3965 7.33921 25.2363C7.46939 25.3347 7.61851 25.3846 7.76863 25.3846C7.87547 25.3846 7.98284 25.3593 8.08418 25.3079C8.32793 25.1845 8.50015 24.9292 8.54495 24.6252L8.85776 22.5016C9.03764 22.5332 9.21811 22.5618 9.39905 22.5869L10.2663 24.0443C10.5858 24.5811 11.1123 24.9016 11.6748 24.9016C14.9676 24.9016 18.1789 23.5622 20.7171 21.13L23.4023 18.557C23.5742 18.5884 23.736 18.6748 23.8683 18.8096L24.4492 19.4016C25.5899 20.5639 27.0543 21.2039 28.5728 21.2039H29.3769C29.6143 21.2039 29.8309 21.042 29.9289 20.7915C30.0269 20.541 29.9893 20.2452 29.8331 20.0383L28.4649 18.2253ZM16.3881 10.9919L15.9303 12.1833L14.1245 11.2731L14.4479 9.87884C14.5654 9.93756 14.6821 9.99927 14.7974 10.0663L16.3881 10.9919ZM13.6188 9.53741L13.3037 10.8956C12.8072 10.6932 12.3003 10.5335 11.7869 10.4166V9.24739C12.4017 9.24488 13.0184 9.34131 13.6188 9.53741ZM8.51658 10.2519C9.26214 9.76268 10.0755 9.44926 10.9097 9.31832V10.2589C10.1177 10.1551 9.31554 10.1524 8.51658 10.2519ZM19.5309 13.998L19.9556 13.0678L21.0698 13.7161C21.5811 14.0137 21.9168 14.5815 21.978 15.2296C21.9701 15.2259 21.9619 15.2231 21.954 15.2192L19.5309 13.998ZM9.54279 16.409V17.0718C9.54279 17.8654 8.986 18.511 8.30167 18.511H7.74488C7.09166 18.511 6.55593 17.9224 6.50844 17.1788C6.67891 16.9435 6.82628 16.6853 6.94751 16.409H9.54279ZM16.969 21.6691L17.1484 22.5169C16.0558 23.0876 14.8991 23.4875 13.7116 23.7015L13.5482 22.578C14.7139 22.4113 15.8597 22.1065 16.969 21.6691ZM7.70383 24.2939C6.99441 23.7076 6.52499 22.8279 6.38289 21.846C6.9126 22.0353 7.45032 22.1942 7.99407 22.3232L7.70383 24.2939ZM10.9882 23.4667L10.5322 22.7004C10.7395 22.7131 10.9473 22.7216 11.1555 22.7256C11.2513 22.7274 11.3468 22.7284 11.4424 22.7284C11.854 22.7284 12.2644 22.7108 12.673 22.6769L12.84 23.8248C12.4536 23.8644 12.0648 23.8845 11.6748 23.8845C11.4006 23.8845 11.144 23.7283 10.9882 23.4667ZM20.1583 20.346C19.4718 21.0038 18.7326 21.5758 17.9545 22.0577L17.7972 21.3145C18.6771 20.9079 19.5305 20.4162 20.3482 19.841L21.615 18.9501L20.1583 20.346Z" fill="#2B3646" style="fill:#2B3646;fill:color(display-p3 0.1686 0.2118 0.2745);fill-opacity:1;"/>
<path d="M14.3712 13.6127C14.1613 13.4725 13.8932 13.5562 13.7723 13.7997L11.2432 18.8942C11.1224 19.1376 11.1945 19.4485 11.4045 19.5886C11.4734 19.6347 11.5486 19.6565 11.6229 19.6565C11.7747 19.6565 11.9223 19.565 12.0034 19.4015L14.5325 14.3071C14.6534 14.0637 14.5812 13.7528 14.3712 13.6127Z" fill="#2B3646" style="fill:#2B3646;fill:color(display-p3 0.1686 0.2118 0.2745);fill-opacity:1;"/>
<path d="M14.4672 18.9412C14.5361 18.9873 14.6113 19.0091 14.6856 19.0091C14.8373 19.0091 14.9849 18.9176 15.0661 18.7541L16.534 15.7973C16.6548 15.5539 16.5827 15.243 16.3727 15.1029C16.1627 14.9627 15.8946 15.0465 15.7738 15.29L14.3059 18.2468C14.185 18.4901 14.2572 18.8011 14.4672 18.9412Z" fill="#2B3646" style="fill:#2B3646;fill:color(display-p3 0.1686 0.2118 0.2745);fill-opacity:1;"/>
<path d="M17.8023 18.5433C17.954 18.5433 18.1017 18.4518 18.1828 18.2884L18.8005 17.0442C18.9214 16.8007 18.8492 16.4898 18.6393 16.3497C18.4293 16.2095 18.1612 16.2932 18.0403 16.5367L17.4226 17.7809C17.3018 18.0243 17.3739 18.3353 17.5839 18.4754C17.6529 18.5214 17.7281 18.5433 17.8023 18.5433Z" fill="#2B3646" style="fill:#2B3646;fill:color(display-p3 0.1686 0.2118 0.2745);fill-opacity:1;"/>
<path d="M3.37472 7.82375C3.0146 8.08536 2.79202 8.53562 2.77927 9.02819C2.76653 9.52077 2.96547 9.9856 3.31138 10.2718L3.67144 10.5697C3.74869 10.6336 3.83764 10.6644 3.92583 10.6644C4.06273 10.6644 4.19764 10.5902 4.28326 10.4511C4.42396 10.2224 4.37811 9.90478 4.18092 9.74169L3.82086 9.4438C3.71214 9.35389 3.65209 9.21352 3.65606 9.05864C3.66004 8.9039 3.72729 8.76794 3.84045 8.68569C4.21174 8.41594 4.43455 7.95157 4.43648 7.44354C4.43841 6.9355 4.21911 6.4689 3.84986 6.19542L3.667 6.05994C3.46273 5.90872 3.19162 5.97803 3.06126 6.21468C2.93085 6.45141 2.99062 6.76584 3.19471 6.91706L3.37764 7.05255C3.54244 7.17467 3.55957 7.36352 3.55928 7.43906C3.55899 7.5146 3.54045 7.70339 3.37472 7.82375Z" fill="#2B3646" style="fill:#2B3646;fill:color(display-p3 0.1686 0.2118 0.2745);fill-opacity:1;"/>
<path d="M7.02787 5.19325C6.66775 5.45486 6.44512 5.90512 6.43237 6.39769C6.41962 6.89027 6.61857 7.35511 6.96454 7.64133L7.3246 7.93922C7.40179 8.0031 7.4908 8.03389 7.57893 8.03389C7.71583 8.03389 7.85074 7.9597 7.93635 7.82055C8.07706 7.5919 8.03121 7.27428 7.83401 7.11119L7.47389 6.8133C7.36518 6.72339 7.30512 6.58302 7.3091 6.42814C7.31308 6.2734 7.38033 6.13744 7.49349 6.05519C7.86477 5.78544 8.08758 5.32107 8.08951 4.81304C8.09144 4.30501 7.87214 3.8384 7.5029 3.56493L7.32003 3.42944C7.11594 3.27829 6.84471 3.34746 6.7143 3.58418C6.58389 3.82084 6.6436 4.13534 6.84775 4.28656L7.03062 4.42205C7.19541 4.54417 7.21255 4.73302 7.21226 4.80856C7.21196 4.8841 7.1936 5.07289 7.02787 5.19325Z" fill="#2B3646" style="fill:#2B3646;fill:color(display-p3 0.1686 0.2118 0.2745);fill-opacity:1;"/>
</svg>
