<svg width="80" height="80" viewBox="0 0 80 80" fill="none" xmlns="http://www.w3.org/2000/svg">
<path d="M64.6875 65.4375H15.3125C11.875 65.4375 9.0625 62.625 9.0625 59.1875V20.625C9.0625 17.1875 11.875 14.375 15.3125 14.375H64.6875C68.125 14.375 70.9375 17.1875 70.9375 20.625V59.125C70.9375 62.625 68.125 65.4375 64.6875 65.4375Z" fill="#F2F4F6" style="fill:#F2F4F6;fill:color(display-p3 0.9490 0.9569 0.9647);fill-opacity:1;"/>
<path d="M9.0625 53.875V59.1875C9.0625 62.625 11.875 65.4375 15.3125 65.4375H64.6875C68.125 65.4375 70.9375 62.625 70.9375 59.1875V53.875H9.0625Z" fill="#FFAA29" style="fill:#FFAA29;fill:color(display-p3 1.0000 0.6650 0.1625);fill-opacity:1;"/>
<path d="M49 75.625H31L33.625 65.4375H46.375L49 75.625Z" fill="#F2F4F6" style="fill:#F2F4F6;fill:color(display-p3 0.9490 0.9569 0.9647);fill-opacity:1;"/>
<path d="M55.25 77.5H24.75C23.6875 77.5 22.875 76.6875 22.875 75.625C22.875 74.5625 23.6875 73.75 24.75 73.75C26.8125 73.75 28.75 72.6875 29.875 71C30.4375 70.125 31.625 69.875 32.5 70.4375C33.375 71 33.625 72.1875 33.0625 73.0625C32.875 73.3125 32.75 73.5625 32.5625 73.75H47.125C46.5625 72.9375 46.125 72 45.875 71L44.5625 65.875C44.3125 64.875 44.9375 63.875 45.9375 63.625C46.9375 63.375 47.9375 64 48.1875 65L49.5 70.125C50.0625 72.3125 52 73.8125 54.25 73.8125H55.25C56.3125 73.8125 57.125 74.625 57.125 75.6875C57.125 76.75 56.25 77.5 55.25 77.5Z" fill="#2B3646" style="fill:#2B3646;fill:color(display-p3 0.1686 0.2118 0.2745);fill-opacity:1;"/>
<path d="M55.25 77.5H24.75C23.6875 77.5 22.875 76.6875 22.875 75.625C22.875 74.5625 23.6875 73.75 24.75 73.75H55.1875C56.25 73.75 57.0625 74.5625 57.0625 75.625C57.0625 76.6875 56.25 77.5 55.25 77.5ZM64.6875 67.3125H15.3125C10.8125 67.3125 7.1875 63.6875 7.1875 59.1875V23.75C7.1875 22.6875 8 21.875 9.0625 21.875C10.125 21.875 10.9375 22.6875 10.9375 23.75V59.125C10.9375 61.5625 12.875 63.5 15.3125 63.5H64.6875C67.125 63.5 69.0625 61.5625 69.0625 59.125V23.75C69.0625 22.6875 69.875 21.875 70.9375 21.875C72 21.875 72.8125 22.6875 72.8125 23.75V59.125C72.8125 63.625 69.1875 67.3125 64.6875 67.3125Z" fill="#2B3646" style="fill:#2B3646;fill:color(display-p3 0.1686 0.2118 0.2745);fill-opacity:1;"/>
<path d="M70.9375 25.625C69.875 25.625 69.0625 24.8125 69.0625 23.75V20.625C69.0625 18.1875 67.125 16.25 64.6875 16.25H55.25C54.1875 16.25 53.375 15.4375 53.375 14.375C53.375 13.3125 54.1875 12.5 55.25 12.5H64.6875C69.1875 12.5 72.8125 16.125 72.8125 20.625V23.75C72.8125 24.8125 72 25.625 70.9375 25.625ZM9.0625 25.625C8 25.625 7.1875 24.8125 7.1875 23.75V20.625C7.1875 16.125 10.8125 12.5 15.3125 12.5H18.3125C19.375 12.5 20.1875 13.3125 20.1875 14.375C20.1875 15.4375 19.375 16.25 18.3125 16.25H15.3125C12.875 16.25 10.9375 18.1875 10.9375 20.625V23.75C10.9375 24.8125 10.125 25.625 9.0625 25.625Z" fill="#2B3646" style="fill:#2B3646;fill:color(display-p3 0.1686 0.2118 0.2745);fill-opacity:1;"/>
<path d="M40 57.5625C39.4696 57.5625 38.9609 57.7732 38.5858 58.1483C38.2107 58.5234 38 59.0321 38 59.5625C38 60.0929 38.2107 60.6016 38.5858 60.9767C38.9609 61.3518 39.4696 61.5625 40 61.5625C40.5304 61.5625 41.0391 61.3518 41.4142 60.9767C41.7893 60.6016 42 60.0929 42 59.5625C42 59.0321 41.7893 58.5234 41.4142 58.1483C41.0391 57.7732 40.5304 57.5625 40 57.5625Z" fill="#F2F4F6" style="fill:#F2F4F6;fill:color(display-p3 0.9490 0.9569 0.9647);fill-opacity:1;"/>
<path d="M31.125 16.25V31.25L55.3125 37.5C56.4375 37.5 57.375 36.6875 57.625 35.625L61.625 16.25H31.125Z" fill="#FFAA29" style="fill:#FFAA29;fill:color(display-p3 1.0000 0.6650 0.1625);fill-opacity:1;"/>
<path d="M55.375 7V37.5H24.875V7C24.875 4.625 26.8125 2.625 29.25 2.625H51.0625C53.4375 2.625 55.375 4.5625 55.375 7Z" fill="#F2F4F6" style="fill:#F2F4F6;fill:color(display-p3 0.9490 0.9569 0.9647);fill-opacity:1;"/>
<path d="M31.4375 2.8125H38.125V31.25H31.4375V2.8125Z" fill="#FFAA29" style="fill:#FFAA29;fill:color(display-p3 1.0000 0.6650 0.1625);fill-opacity:1;"/>
<path d="M55.375 38.0625H24.875C23.8125 38.0625 23 37.25 23 36.1875C23 35.125 23.8125 34.3125 24.875 34.3125H53.5V7C53.5 5.625 52.375 4.5 51 4.5H29.25C27.875 4.5 26.75 5.625 26.75 7V29.5C26.75 30.5625 25.9375 31.375 24.875 31.375C23.8125 31.375 23 30.5625 23 29.5V7C23 3.5625 25.8125 0.75 29.25 0.75H51.0625C54.5 0.75 57.3125 3.5625 57.3125 7V36.1875C57.25 37.1875 56.4375 38.0625 55.375 38.0625Z" fill="#2B3646" style="fill:#2B3646;fill:color(display-p3 0.1686 0.2118 0.2745);fill-opacity:1;"/>
</svg>
