<svg width="74" height="74" viewBox="0 0 74 74" fill="none" xmlns="http://www.w3.org/2000/svg">
<g filter="url(#filter0_d_76_8512)">
<rect x="9" y="9" width="52" height="52" rx="12" fill="white" style="fill:white;fill-opacity:1;"/>
</g>
<path d="M25.668 23C25.3144 23 24.9752 23.1405 24.7252 23.3906C24.4752 23.6406 24.3347 23.9797 24.3346 24.3333V36.3333C24.3321 36.51 24.3648 36.6854 24.4307 36.8494C24.4965 37.0133 24.5944 37.1626 24.7184 37.2884C24.8425 37.4142 24.9903 37.5141 25.1533 37.5823C25.3163 37.6505 25.4913 37.6857 25.668 37.6857C25.8447 37.6857 26.0196 37.6505 26.1826 37.5823C26.3456 37.5141 26.4935 37.4142 26.6175 37.2884C26.7416 37.1626 26.8394 37.0133 26.9053 36.8494C26.9712 36.6854 27.0038 36.51 27.0013 36.3333V25.6667H44.3346V43C44.3346 43.7534 43.7547 44.3333 43.0013 44.3333C42.2653 44.3333 41.668 43.7347 41.668 43V41.6667C41.668 40.9307 41.0706 40.3333 40.3346 40.3333H23.0013C22.2653 40.3333 21.668 40.9307 21.668 41.6667V43C21.668 45.2093 23.4586 47 25.668 47H43.0013C45.1946 47 47.0013 45.1933 47.0013 43V24.3333C47.0013 23.9797 46.8608 23.6406 46.6107 23.3906C46.3607 23.1405 46.0216 23 45.668 23H25.668ZM30.3346 29.6667C29.9666 29.6667 29.668 29.9653 29.668 30.3333V31.6667C29.668 32.0347 29.9666 32.3333 30.3346 32.3333H31.668C32.036 32.3333 32.3346 32.0347 32.3346 31.6667V30.3333C32.3346 29.9653 32.036 29.6667 31.668 29.6667H30.3346ZM36.3346 29.6667C35.5986 29.6667 35.0013 30.264 35.0013 31C35.0013 31.736 35.5986 32.3333 36.3346 32.3333H40.3346C41.0706 32.3333 41.668 31.736 41.668 31C41.668 30.264 41.0706 29.6667 40.3346 29.6667H36.3346ZM30.3346 35C29.9666 35 29.668 35.2987 29.668 35.6667V37C29.668 37.368 29.9666 37.6667 30.3346 37.6667H31.668C32.036 37.6667 32.3346 37.368 32.3346 37V35.6667C32.3346 35.2987 32.036 35 31.668 35H30.3346ZM36.3346 35C35.5986 35 35.0013 35.5973 35.0013 36.3333C35.0013 37.0693 35.5986 37.6667 36.3346 37.6667H40.3346C41.0706 37.6667 41.668 37.0693 41.668 36.3333C41.668 35.5973 41.0706 35 40.3346 35H36.3346Z" fill="#FFAA29" style="fill:#FFAA29;fill:color(display-p3 1.0000 0.6650 0.1625);fill-opacity:1;"/>
<defs>
<filter id="filter0_d_76_8512" x="0" y="0" width="74" height="74" filterUnits="userSpaceOnUse" color-interpolation-filters="sRGB">
<feFlood flood-opacity="0" result="BackgroundImageFix"/>
<feColorMatrix in="SourceAlpha" type="matrix" values="0 0 0 0 0 0 0 0 0 0 0 0 0 0 0 0 0 0 127 0" result="hardAlpha"/>
<feOffset dx="2" dy="2"/>
<feGaussianBlur stdDeviation="5.5"/>
<feComposite in2="hardAlpha" operator="out"/>
<feColorMatrix type="matrix" values="0 0 0 0 0.168627 0 0 0 0 0.211765 0 0 0 0 0.27451 0 0 0 0.1 0"/>
<feBlend mode="normal" in2="BackgroundImageFix" result="effect1_dropShadow_76_8512"/>
<feBlend mode="normal" in="SourceGraphic" in2="effect1_dropShadow_76_8512" result="shape"/>
</filter>
</defs>
</svg>
