<svg width="54" height="38" viewBox="0 0 54 38" fill="none" xmlns="http://www.w3.org/2000/svg">
<rect x="0.75" y="0.75" width="52.5" height="36.5" rx="6.25" fill="white" stroke="#EFEEEE" stroke-width="1.5"/>
<path d="M16.2503 10.25C15.6523 10.25 15.167 10.7353 15.167 11.3333V22.1667C15.167 22.7647 15.6523 23.25 16.2503 23.25H35.7503C36.3483 23.25 36.8337 22.7647 36.8337 22.1667V11.3333C36.8337 10.7353 36.3483 10.25 35.7503 10.25H16.2503ZM18.3218 12.4167H33.6789C33.7597 12.6445 33.8904 12.8514 34.0613 13.0224C34.2322 13.1933 34.4392 13.324 34.667 13.4048V20.0952C34.4392 20.176 34.2322 20.3067 34.0613 20.4776C33.8904 20.6486 33.7597 20.8555 33.6789 21.0833H18.3218C18.2409 20.8555 18.1103 20.6486 17.9394 20.4776C17.7684 20.3067 17.5615 20.176 17.3337 20.0952V13.4048C17.5615 13.324 17.7684 13.1933 17.9394 13.0224C18.1103 12.8514 18.2409 12.6445 18.3218 12.4167ZM26.0003 13.5C25.1384 13.5 24.3117 13.8424 23.7022 14.4519C23.0927 15.0614 22.7503 15.888 22.7503 16.75C22.7503 17.612 23.0927 18.4386 23.7022 19.0481C24.3117 19.6576 25.1384 20 26.0003 20C26.8623 20 27.6889 19.6576 28.2984 19.0481C28.9079 18.4386 29.2503 17.612 29.2503 16.75C29.2503 15.888 28.9079 15.0614 28.2984 14.4519C27.6889 13.8424 26.8623 13.5 26.0003 13.5ZM20.5837 15.6667C19.9857 15.6667 19.5003 16.1509 19.5003 16.75C19.5003 17.3491 19.9857 17.8333 20.5837 17.8333C21.1817 17.8333 21.667 17.3491 21.667 16.75C21.667 16.1509 21.1817 15.6667 20.5837 15.6667ZM31.417 15.6667C30.819 15.6667 30.3337 16.1509 30.3337 16.75C30.3337 17.3491 30.819 17.8333 31.417 17.8333C32.015 17.8333 32.5003 17.3491 32.5003 16.75C32.5003 16.1509 32.015 15.6667 31.417 15.6667ZM17.3231 25.4167L33.8312 29.7161C34.4108 29.8667 35.0009 29.5181 35.1515 28.9396L36.0698 25.4167H33.8312L33.5752 26.3921C33.0888 26.4343 32.6496 26.6937 32.3755 27.0967L25.922 25.4167H17.3231Z" fill="#B81B37"/>
</svg>
