<svg width="18" height="18" viewBox="0 0 18 18" fill="none" xmlns="http://www.w3.org/2000/svg">
<g opacity="0.4">
<path d="M15.5303 8.46978L10.2802 3.21978C9.98737 2.9269 9.51263 2.9269 9.21975 3.21978C8.92688 3.51265 8.92688 3.9874 9.21975 4.28028L13.1895 8.25003H3C2.586 8.25003 2.25 8.58603 2.25 9.00003C2.25 9.41403 2.586 9.75003 3 9.75003H13.1895L9.21975 13.7198C8.92688 14.0127 8.92688 14.4874 9.21975 14.7803C9.36637 14.9269 9.558 15 9.75 15C9.942 15 10.1336 14.9269 10.2802 14.7803L15.5303 9.53028C15.8231 9.2374 15.8231 8.76265 15.5303 8.46978Z" fill="#25344F"/>
</g>
</svg>
