<svg width="23" height="23" viewBox="0 0 23 23" fill="none" xmlns="http://www.w3.org/2000/svg">
<path d="M9.0625 0C4.06852 0 0 4.06852 0 9.0625C0 14.0565 4.06852 18.125 9.0625 18.125C11.2227 18.125 13.2086 17.3619 14.7681 16.0937L20.8997 22.2253C20.986 22.3153 21.0895 22.3871 21.204 22.4366C21.3185 22.4861 21.4417 22.5123 21.5664 22.5135C21.6912 22.5148 21.8149 22.4912 21.9304 22.444C22.0458 22.3969 22.1508 22.3272 22.239 22.239C22.3272 22.1508 22.3969 22.0458 22.444 21.9304C22.4912 21.8149 22.5148 21.6912 22.5135 21.5664C22.5123 21.4417 22.4861 21.3185 22.4366 21.204C22.3871 21.0895 22.3153 20.986 22.2253 20.8997L16.0937 14.7681C17.3619 13.2086 18.125 11.2227 18.125 9.0625C18.125 4.06852 14.0565 0 9.0625 0ZM9.0625 1.875C13.0432 1.875 16.25 5.08185 16.25 9.0625C16.25 11.0016 15.4851 12.7536 14.2444 14.0442C14.1679 14.1004 14.1004 14.1679 14.0442 14.2444C12.7536 15.4851 11.0016 16.25 9.0625 16.25C5.08184 16.25 1.875 13.0432 1.875 9.0625C1.875 5.08185 5.08184 1.875 9.0625 1.875Z" fill="#2A2C33"/>
</svg>
