<svg width="24" height="24" viewBox="0 0 24 24" fill="none" xmlns="http://www.w3.org/2000/svg">
<path d="M10.0799 1.43994C5.56867 1.43994 1.91992 5.08869 1.91992 9.59994C1.91992 14.1112 5.56867 17.7599 10.0799 17.7599C11.6905 17.7599 13.1812 17.2874 14.4449 16.4849L20.3399 22.3799L22.3799 20.3399L16.5599 14.5349C17.6062 13.1624 18.2399 11.4618 18.2399 9.59994C18.2399 5.08869 14.5912 1.43994 10.0799 1.43994ZM10.0799 3.35994C13.5355 3.35994 16.3199 6.14432 16.3199 9.59994C16.3199 13.0556 13.5355 15.8399 10.0799 15.8399C6.6243 15.8399 3.83992 13.0556 3.83992 9.59994C3.83992 6.14432 6.6243 3.35994 10.0799 3.35994Z" fill="white" style="fill:white;fill-opacity:1;"/>
</svg>
