<svg width="21" height="22" viewBox="0 0 21 22" fill="none" xmlns="http://www.w3.org/2000/svg">
<g clip-path="url(#clip0_1_1208)">
<path d="M10.52 1.32178C8.2765 1.32178 6.4668 3.13148 6.4668 5.37501V6.18566H3.26221L3.22421 6.54032L1.60291 20.7266L1.55225 21.1826H19.4878L19.4372 20.7266L17.8159 6.54032L17.7779 6.18566H14.5733V5.37501C14.5733 3.13148 12.7636 1.32178 10.52 1.32178ZM10.52 2.13242C12.3297 2.13242 13.7626 3.56531 13.7626 5.37501V6.18566H7.27744V5.37501C7.27744 3.56531 8.71032 2.13242 10.52 2.13242ZM3.99685 6.99631H6.4668V7.92095C6.22455 8.06187 6.06147 8.31836 6.06147 8.6176C6.06147 9.06568 6.42405 9.42825 6.87212 9.42825C7.32019 9.42825 7.68277 9.06568 7.68277 8.6176C7.68277 8.31836 7.51969 8.06187 7.27744 7.92095V6.99631H13.7626V7.92095C13.5204 8.06187 13.3573 8.31836 13.3573 8.6176C13.3573 9.06568 13.7199 9.42825 14.1679 9.42825C14.616 9.42825 14.9786 9.06568 14.9786 8.6176C14.9786 8.31836 14.8155 8.06187 14.5733 7.92095V6.99631H17.0432L18.5758 20.372H2.46422L3.99685 6.99631Z" fill="white" stroke="white" stroke-width="0.473131"/>
</g>
<defs>
<clipPath id="clip0_1_1208">
<rect width="20.2662" height="20.2662" fill="white" transform="translate(0.386719 0.91626)"/>
</clipPath>
</defs>
</svg>
