<svg width="26" height="26" viewBox="0 0 26 26" fill="none" xmlns="http://www.w3.org/2000/svg">
<path d="M7.58747 2.16879C7.35645 2.16879 7.12451 2.25512 6.94847 2.43116L3.23932 6.4323C2.83199 6.87105 3.14279 7.58334 3.74079 7.58334H6.4999V13C6.49787 13.1436 6.52439 13.2861 6.57793 13.4193C6.63146 13.5525 6.71093 13.6738 6.81173 13.776C6.91253 13.8782 7.03264 13.9594 7.16509 14.0148C7.29753 14.0702 7.43967 14.0988 7.58324 14.0988C7.72681 14.0988 7.86894 14.0702 8.00139 14.0148C8.13383 13.9594 8.25395 13.8782 8.35474 13.776C8.45554 13.6738 8.53502 13.5525 8.58855 13.4193C8.64208 13.2861 8.6686 13.1436 8.66657 13V7.58334H11.432C12.0311 7.58334 12.3419 6.87105 11.9335 6.4323L8.22435 2.43116C8.04831 2.25512 7.81849 2.16879 7.58747 2.16879ZM7.58324 16.25C6.98524 16.25 6.4999 16.7353 6.4999 17.3333C6.4999 17.9313 6.98524 18.4167 7.58324 18.4167C8.18124 18.4167 8.66657 17.9313 8.66657 17.3333C8.66657 16.7353 8.18124 16.25 7.58324 16.25ZM7.58324 20.5833C6.98524 20.5833 6.4999 21.0687 6.4999 21.6667C6.4999 22.2647 6.98524 22.75 7.58324 22.75C8.18124 22.75 8.66657 22.2647 8.66657 21.6667C8.66657 21.0687 8.18124 20.5833 7.58324 20.5833Z" fill="#2B3646" style="fill:#2B3646;fill:color(display-p3 0.1686 0.2118 0.2745);fill-opacity:1;"/>
<g opacity="0.3">
<path d="M17.3319 4.33333C17.3319 3.73533 17.8173 3.25 18.4153 3.25C19.0133 3.25 19.4986 3.73533 19.4986 4.33333C19.4986 4.93133 19.0133 5.41667 18.4153 5.41667C17.8173 5.41667 17.3319 4.93133 17.3319 4.33333Z" fill="#2B3646" style="fill:#2B3646;fill:color(display-p3 0.1686 0.2118 0.2745);fill-opacity:1;"/>
<path d="M17.3319 8.66667C17.3319 8.06867 17.8173 7.58333 18.4153 7.58333C19.0133 7.58333 19.4986 8.06867 19.4986 8.66667C19.4986 9.26467 19.0133 9.75 18.4153 9.75C17.8173 9.75 17.3319 9.26467 17.3319 8.66667Z" fill="#2B3646" style="fill:#2B3646;fill:color(display-p3 0.1686 0.2118 0.2745);fill-opacity:1;"/>
<path d="M17.638 12.2304C17.8379 12.0245 18.1114 11.9063 18.3983 11.9019C18.5433 11.8996 18.6872 11.9264 18.8216 11.9808C18.9559 12.0352 19.078 12.1159 19.1806 12.2183C19.2832 12.3207 19.3642 12.4427 19.4189 12.5769C19.4735 12.7112 19.5006 12.8551 19.4986 13V18.4167H22.2641C22.8631 18.4167 23.1739 19.129 22.7655 19.5677L19.0564 23.5688C18.7043 23.9209 18.1326 23.9209 17.7805 23.5688L14.0714 19.5677C13.664 19.129 13.9748 18.4167 14.5728 18.4167H17.3319V13C17.328 12.713 17.4381 12.4363 17.638 12.2304Z" fill="#2B3646" style="fill:#2B3646;fill:color(display-p3 0.1686 0.2118 0.2745);fill-opacity:1;"/>
</g>
</svg>
