<svg width="191" height="130" viewBox="0 0 191 130" fill="none" xmlns="http://www.w3.org/2000/svg">
<path d="M45.76 90.86C36.96 90.86 29.04 88.88 22 84.92C15.1067 80.96 9.68 75.5333 5.72 68.64C1.90667 61.7466 0 53.8266 0 44.88C0 36.08 1.90667 28.38 5.72 21.78C9.68 15.0333 15.1067 9.75331 22 5.93997C29.04 2.12664 37.0333 0.219971 45.98 0.219971C54.78 0.219971 62.5533 2.19997 69.3 6.15997C76.0467 9.97331 81.3267 15.3266 85.14 22.22C88.9533 28.9666 90.86 36.74 90.86 45.54C90.86 54.34 88.9533 62.1866 85.14 69.08C81.3267 75.8266 75.9733 81.18 69.08 85.14C62.3333 88.9533 54.56 90.86 45.76 90.86ZM48.18 87.34C56.54 87.34 62.7 83.7466 66.66 76.56C70.7667 69.3733 72.82 59.9866 72.82 48.4C72.82 37.84 71.4267 29.3333 68.64 22.88C66 16.28 62.48 11.44 58.08 8.35997C53.68 5.27997 48.9133 3.73997 43.78 3.73997C35.42 3.73997 28.9667 7.40664 24.42 14.74C20.02 22.0733 17.82 31.46 17.82 42.9C17.82 51.5533 19.0667 59.2533 21.56 66C24.0533 72.6 27.5733 77.8066 32.12 81.62C36.6667 85.4333 42.02 87.34 48.18 87.34Z" fill="url(#paint0_linear_39_2342)"/>
<path d="M104.624 86.24C104.037 86.24 103.45 85.9466 102.864 85.36C102.424 84.7733 102.497 84.1866 103.084 83.6L168.424 0.879969C168.717 0.43997 169.304 0.293303 170.184 0.439968C171.21 0.586637 171.724 1.02664 171.724 1.75997V120.56C171.724 122.027 171.137 123.053 169.964 123.64L158.304 129.36C156.984 130.093 156.324 129.653 156.324 128.04V21.12L166.444 13.64L114.964 77.88C114.524 78.32 114.45 78.6866 114.744 78.98C115.037 79.2733 115.477 79.42 116.064 79.42C124.277 79.42 131.61 79.42 138.064 79.42C144.517 79.2733 150.457 79.1266 155.884 78.98C161.31 78.8333 166.664 78.6866 171.944 78.54C177.37 78.3933 183.164 78.2466 189.324 78.1C189.764 78.1 189.984 78.9066 189.984 80.52C190.13 82.1333 190.13 83.7466 189.984 85.36C189.837 86.9733 189.544 87.78 189.104 87.78C183.384 87.4866 177.664 87.2666 171.944 87.12C166.224 86.8266 160.137 86.68 153.684 86.68C147.23 86.5333 139.97 86.46 131.904 86.46C123.984 86.3133 114.89 86.24 104.624 86.24Z" fill="url(#paint1_linear_39_2342)"/>
<defs>
<linearGradient id="paint0_linear_39_2342" x1="93.6056" y1="-162.949" x2="93.6056" y2="214.188" gradientUnits="userSpaceOnUse">
<stop offset="0.26" stop-color="#F5F5F5"/>
<stop offset="1" stop-color="white"/>
</linearGradient>
<linearGradient id="paint1_linear_39_2342" x1="93.6056" y1="-162.949" x2="93.6056" y2="214.188" gradientUnits="userSpaceOnUse">
<stop offset="0.26" stop-color="#F5F5F5"/>
<stop offset="1" stop-color="white"/>
</linearGradient>
</defs>
</svg>
