<svg width="181" height="94" viewBox="0 0 181 94" fill="none" xmlns="http://www.w3.org/2000/svg">
<path d="M45.76 93.86C36.96 93.86 29.04 91.88 22 87.92C15.1067 83.96 9.68 78.5333 5.72 71.64C1.90667 64.7467 0 56.8267 0 47.88C0 39.08 1.90667 31.38 5.72 24.78C9.68 18.0333 15.1067 12.7533 22 8.93999C29.04 5.12666 37.0333 3.21999 45.98 3.21999C54.78 3.21999 62.5533 5.19999 69.3 9.16C76.0467 12.9733 81.3267 18.3267 85.14 25.22C88.9533 31.9667 90.86 39.74 90.86 48.54C90.86 57.34 88.9533 65.1867 85.14 72.08C81.3267 78.8267 75.9733 84.18 69.08 88.14C62.3333 91.9533 54.56 93.86 45.76 93.86ZM48.18 90.34C56.54 90.34 62.7 86.7467 66.66 79.56C70.7667 72.3733 72.82 62.9867 72.82 51.4C72.82 40.84 71.4267 32.3333 68.64 25.88C66 19.28 62.48 14.44 58.08 11.36C53.68 8.27999 48.9133 6.73999 43.78 6.73999C35.42 6.73999 28.9667 10.4067 24.42 17.74C20.02 25.0733 17.82 34.46 17.82 45.9C17.82 54.5533 19.0667 62.2533 21.56 69C24.0533 75.6 27.5733 80.8067 32.12 84.62C36.6667 88.4333 42.02 90.34 48.18 90.34Z" fill="url(#paint0_linear_39_2344)"/>
<path d="M105.944 86.82C115.184 79.1933 122.81 72.5933 128.824 67.02C134.984 61.3 139.897 56.3133 143.564 52.06C147.23 47.66 149.87 43.6267 151.484 39.96C153.097 36.2933 153.904 32.5533 153.904 28.74C153.904 23.02 152.217 18.2533 148.844 14.44C145.617 10.6267 141.217 8.71999 135.644 8.71999C129.777 8.71999 124.864 11.14 120.904 15.98C116.944 20.82 113.57 27.64 110.784 36.44C110.637 36.7333 110.124 36.8067 109.244 36.66C108.364 36.5133 107.997 36.2933 108.144 36L117.164 1.23999C117.31 0.799993 117.824 0.726661 118.704 1.02C119.584 1.16666 119.877 1.38666 119.584 1.67999C118.997 4.17333 119.07 5.78666 119.804 6.52C120.684 7.25333 121.637 7.62 122.664 7.62C125.01 7.62 128.017 6.88666 131.684 5.41999C135.35 3.95333 140.044 3.21999 145.764 3.21999C153.537 3.21999 159.55 5.27333 163.804 9.37999C168.204 13.34 170.404 18.4733 170.404 24.78C170.404 29.18 169.304 33.4333 167.104 37.54C164.904 41.6467 161.75 45.7533 157.644 49.86C153.684 53.82 148.917 58 143.344 62.4C137.917 66.8 131.977 71.4933 125.524 76.48C124.937 76.92 124.79 77.2867 125.084 77.58C125.377 77.8733 125.817 78.02 126.404 78.02C136.084 78.02 144.077 77.9467 150.384 77.8C156.69 77.6533 161.677 77.2133 165.344 76.48C169.157 75.6 171.944 74.28 173.704 72.52C175.61 70.6133 176.93 68.0467 177.664 64.82C177.81 64.38 178.25 64.2333 178.984 64.38C179.864 64.5267 180.304 64.7467 180.304 65.04L176.564 88.58C176.564 89.1667 176.344 89.7533 175.904 90.34C175.61 90.78 175.17 91 174.584 91C164.17 91 153.097 91 141.364 91C129.63 91 118.337 91 107.484 91C106.75 91 106.164 90.4867 105.724 89.46C105.284 88.2867 105.357 87.4067 105.944 86.82Z" fill="url(#paint1_linear_39_2344)"/>
<defs>
<linearGradient id="paint0_linear_39_2344" x1="88.7849" y1="-116.37" x2="88.7849" y2="154.55" gradientUnits="userSpaceOnUse">
<stop offset="0.26" stop-color="#F5F5F5"/>
<stop offset="1" stop-color="white"/>
</linearGradient>
<linearGradient id="paint1_linear_39_2344" x1="88.7849" y1="-116.37" x2="88.7849" y2="154.55" gradientUnits="userSpaceOnUse">
<stop offset="0.26" stop-color="#F5F5F5"/>
<stop offset="1" stop-color="white"/>
</linearGradient>
</defs>
</svg>
