<svg width="16" height="16" viewBox="0 0 16 16" fill="none" xmlns="http://www.w3.org/2000/svg">
<path d="M15.7397 7.29293L9.5174 0.292877C9.17029 -0.0976258 8.60762 -0.0976258 8.2605 0.292877C7.91339 0.68338 7.91339 1.31638 8.2605 1.70689L12.9654 6.99993L0.888895 6.99993C0.398225 6.99993 0 7.44793 0 7.99994C0 8.55194 0.398225 8.99995 0.888895 8.99995H12.9654L8.2605 14.293C7.91339 14.6835 7.91339 15.3165 8.2605 15.707C8.43428 15.9025 8.66139 16 8.88895 16C9.11651 16 9.34362 15.9025 9.5174 15.707L15.7397 8.70694C16.0868 8.31644 16.0868 7.68344 15.7397 7.29293Z" fill="white"/>
</svg>
