<svg width="28" height="28" viewBox="0 0 28 28" fill="none" xmlns="http://www.w3.org/2000/svg">
<g clip-path="url(#clip0_75_4416)">
<path d="M5.72601 4.10942C5.51808 4.33013 5.40423 4.62312 5.4086 4.92632L5.4086 8.07953C5.38418 8.25828 5.40155 8.44026 5.45933 8.61116C5.51712 8.78206 5.61375 8.93724 5.74163 9.06449C5.86951 9.19175 6.02515 9.28762 6.19634 9.34456C6.36752 9.40151 6.54958 9.41799 6.72821 9.3927L9.87497 9.3927C10.0302 9.39586 10.1844 9.36802 10.3287 9.31081C10.473 9.25361 10.6044 9.16819 10.7153 9.05955C10.8262 8.95091 10.9143 8.82125 10.9744 8.67814C11.0345 8.53504 11.0655 8.38138 11.0655 8.22615C11.0655 8.07093 11.0345 7.91727 10.9744 7.77417C10.9143 7.63106 10.8262 7.5014 10.7153 7.39276C10.6044 7.28412 10.473 7.1987 10.3287 7.1415C10.1844 7.08429 10.0302 7.05645 9.87497 7.05961L9.70579 7.05961C12.8579 5.09978 17.0318 5.48346 19.7745 8.22616C21.5967 10.0484 22.3533 12.5002 22.0955 14.8814C22.0621 15.1891 22.1524 15.4974 22.3464 15.7385C22.4424 15.8579 22.5611 15.9572 22.6955 16.0308C22.8299 16.1043 22.9775 16.1507 23.1299 16.1672C23.2822 16.1837 23.4363 16.17 23.5834 16.127C23.7305 16.0839 23.8676 16.0123 23.987 15.9163C24.2281 15.7223 24.3823 15.4404 24.4157 15.1328C24.7452 12.0891 23.7607 8.91258 21.4244 6.57624C17.7008 2.85266 11.8486 2.53037 7.74168 5.58532L7.74168 4.92632C7.74501 4.69124 7.67725 4.46063 7.54727 4.26472C7.41729 4.06881 7.23115 3.91674 7.01326 3.82843C6.79537 3.74012 6.55588 3.7197 6.32618 3.76984C6.09648 3.81998 5.88729 3.93835 5.72601 4.10942ZM3.90289 12.1713C3.72095 12.3612 3.60853 12.6071 3.58386 12.869C3.25431 15.9126 4.23879 19.0891 6.57514 21.4255C10.2987 25.1491 16.1509 25.4713 20.2578 22.4164L20.2578 23.0754C20.2547 23.2306 20.2825 23.3848 20.3397 23.5291C20.3969 23.6734 20.4824 23.8049 20.591 23.9157C20.6996 24.0266 20.8293 24.1147 20.9724 24.1748C21.1155 24.235 21.2692 24.2659 21.4244 24.2659C21.5796 24.2659 21.7333 24.235 21.8764 24.1748C22.0195 24.1147 22.1491 24.0266 22.2578 23.9157C22.3664 23.8049 22.4518 23.6734 22.509 23.5291C22.5662 23.3848 22.5941 23.2306 22.5909 23.0754V19.9222C22.6153 19.7434 22.598 19.5615 22.5402 19.3906C22.4824 19.2197 22.3858 19.0645 22.2579 18.9372C22.13 18.81 21.9744 18.7141 21.8032 18.6572C21.632 18.6002 21.4499 18.5837 21.2713 18.609H18.1245C17.9685 18.6069 17.8135 18.6361 17.6689 18.6949C17.5243 18.7537 17.393 18.8409 17.2827 18.9514C17.1188 19.1157 17.0077 19.325 16.9634 19.5527C16.9191 19.7805 16.9437 20.0162 17.0341 20.2299C17.1245 20.4436 17.2765 20.6255 17.4707 20.7523C17.6649 20.8792 17.8926 20.9453 18.1245 20.9421H18.2937C15.1416 22.9019 10.9677 22.5183 8.22506 19.7756C6.40279 17.9533 5.64623 15.5016 5.90406 13.1203C5.93399 12.877 5.88652 12.6304 5.76839 12.4156C5.65026 12.2008 5.46747 12.0287 5.24596 11.9236C5.02445 11.8186 4.77549 11.786 4.5344 11.8304C4.29331 11.8749 4.07235 11.9941 3.90289 12.1713Z" fill="#2B3646" style="fill:#2B3646;fill:color(display-p3 0.1686 0.2118 0.2745);fill-opacity:1;"/>
</g>
<defs>
<clipPath id="clip0_75_4416">
<rect width="28" height="28" fill="white" style="fill:white;fill-opacity:1;"/>
</clipPath>
</defs>
</svg>
