<svg width="54" height="54" viewBox="0 0 54 54" fill="none" xmlns="http://www.w3.org/2000/svg">
<path d="M39.2766 23.625H34.1297C33.1172 23.625 32.2734 22.7812 32.2734 21.7687V20.925C32.8641 19.4484 33.3281 17.9719 33.6234 16.4531C33.75 15.9047 33.8344 15.3562 33.9188 14.8078L34.1719 13.1203C34.425 11.2641 33.1172 9.57655 31.3031 9.32343C29.4469 9.0703 27.7594 10.3781 27.5062 12.1922L27.2531 13.8797C26.4516 19.575 23.2875 24.6375 18.5625 27.8437H14.3438H13.5H8.85938V44.7187H14.3438L18.3094 46.1953C20.1656 46.8703 22.1484 47.25 24.0891 47.25H36.5766C38.6016 47.25 40.3313 45.8156 40.6688 43.8328L43.2422 29.5312L43.4109 28.5609C43.875 25.9875 41.8922 23.625 39.2766 23.625Z" fill="white" style="fill:white;fill-opacity:1;"/>
<path fill-rule="evenodd" clip-rule="evenodd" d="M23.9625 48.5156H36.5344C39.1922 48.5156 41.4703 46.6172 41.9766 44.0016L44.6766 28.8141C44.9719 27.2109 44.55 25.6078 43.4953 24.3422C42.4406 23.0766 40.9219 22.3594 39.2766 22.3594H30.7969C30.0797 22.3594 29.5312 22.9078 29.5312 23.625C29.5312 24.3422 30.0797 24.8906 30.7969 24.8906H39.2766C40.1203 24.8906 40.9641 25.2281 41.5125 25.9031C42.0609 26.5781 42.3141 27.4641 42.1453 28.3078L39.4453 43.4953C39.1922 44.9297 37.9688 45.9422 36.5344 45.9422H23.9625C22.2328 45.9422 20.5875 45.6469 18.9844 45.0563C18.3094 44.8453 17.5922 45.1406 17.3391 45.8156C17.1281 46.4906 17.4234 47.2078 18.0984 47.4609C19.9969 48.1781 21.9375 48.5156 23.9625 48.5156Z" fill="#444B54" style="fill:#444B54;fill:color(display-p3 0.2667 0.2941 0.3294);fill-opacity:1;"/>
<path d="M14.3438 45.9844H10.125C9.40781 45.9844 8.85938 45.4359 8.85938 44.7188C8.85938 44.0016 9.40781 43.4531 10.125 43.4531H13.0781V29.1094H10.125C9.40781 29.1094 8.85938 28.5609 8.85938 27.8438C8.85938 27.1266 9.40781 26.5781 10.125 26.5781H14.3438C15.0609 26.5781 15.6094 27.1266 15.6094 27.8438V44.7188C15.6094 45.4359 15.0609 45.9844 14.3438 45.9844Z" fill="#FFAA29" style="fill:#FFAA29;fill:color(display-p3 1.0000 0.6650 0.1625);fill-opacity:1;"/>
<path d="M18.5616 29.1094C18.1397 29.1094 17.76 28.8984 17.5069 28.5609C17.1272 27.9703 17.2537 27.2109 17.8444 26.7891C22.2741 23.7516 25.2272 18.9844 25.9444 13.7109L26.1975 12.0234C26.3662 10.8 26.9991 9.70312 28.0116 8.94374C28.9819 8.18437 30.2053 7.88905 31.4287 8.0578C32.6522 8.22655 33.7491 8.85936 34.5084 9.87186C35.2678 10.8844 35.5631 12.0656 35.3944 13.2891L35.1412 14.9766C34.8881 16.7062 34.5084 18.3937 33.96 20.0391C33.7491 20.7141 33.0319 21.0516 32.3569 20.8406C31.6819 20.6297 31.3444 19.9125 31.5553 19.2375C32.0616 17.7609 32.3991 16.2 32.61 14.6391L32.8631 12.9516C32.9475 12.4031 32.7787 11.8547 32.4412 11.3906C32.1037 10.9266 31.5975 10.6312 31.0491 10.5891C30.5006 10.5047 29.9522 10.6734 29.4881 11.0109C29.0241 11.3484 28.7287 11.8547 28.6866 12.4031L28.4334 14.0906C27.5897 20.0812 24.2569 25.4812 19.2366 28.9406C19.0678 29.025 18.8147 29.1094 18.5616 29.1094Z" fill="#444B54" style="fill:#444B54;fill:color(display-p3 0.2667 0.2941 0.3294);fill-opacity:1;"/>
</svg>
