<svg width="22" height="22" viewBox="0 0 22 22" fill="none" xmlns="http://www.w3.org/2000/svg">
<path d="M10.9993 11.4583C8.68975 11.4583 6.47476 11.7722 4.84163 12.3309C3.2085 12.8896 2.29102 13.6474 2.29102 14.4375C2.29102 15.2276 3.2085 15.9854 4.84163 16.5441C6.47476 17.1028 8.68975 17.4167 10.9993 17.4167C13.3089 17.4167 15.5239 17.1028 17.1571 16.5441C18.7902 15.9854 19.7077 15.2276 19.7077 14.4375C19.7077 13.6474 18.7902 12.8896 17.1571 12.3309C15.5239 11.7722 13.3089 11.4583 10.9993 11.4583Z" fill="#EF6C00" style="fill:#EF6C00;fill:color(display-p3 0.9373 0.4235 0.0000);fill-opacity:1;"/>
<path d="M10.9993 8.70833C8.68975 8.70833 6.47476 9.0222 4.84163 9.58091C3.2085 10.1396 2.29102 10.8974 2.29102 11.6875C2.29102 12.4776 3.2085 13.2354 4.84163 13.7941C6.47476 14.3528 8.68975 14.6667 10.9993 14.6667C13.3089 14.6667 15.5239 14.3528 17.1571 13.7941C18.7902 13.2354 19.7077 12.4776 19.7077 11.6875C19.7077 10.8974 18.7902 10.1396 17.1571 9.58091C15.5239 9.0222 13.3089 8.70833 10.9993 8.70833Z" fill="#EF6C00" style="fill:#EF6C00;fill:color(display-p3 0.9373 0.4235 0.0000);fill-opacity:1;"/>
<path d="M10.9993 5.95833C8.68975 5.95833 6.47476 6.2722 4.84163 6.83091C3.2085 7.38961 2.29102 8.14737 2.29102 8.93749C2.29102 9.72762 3.2085 10.4854 4.84163 11.0441C6.47476 11.6028 8.68975 11.9167 10.9993 11.9167C13.3089 11.9167 15.5239 11.6028 17.1571 11.0441C18.7902 10.4854 19.7077 9.72762 19.7077 8.93749C19.7077 8.14737 18.7902 7.38961 17.1571 6.83091C15.5239 6.2722 13.3089 5.95833 10.9993 5.95833Z" fill="#EF6C00" style="fill:#EF6C00;fill:color(display-p3 0.9373 0.4235 0.0000);fill-opacity:1;"/>
<path d="M10.9993 3.20833C8.68975 3.20833 6.47476 3.5222 4.84163 4.08091C3.2085 4.63961 2.29102 5.39737 2.29102 6.18749C2.29102 6.97762 3.2085 7.73538 4.84163 8.29408C6.47476 8.85279 8.68975 9.16666 10.9993 9.16666C13.3089 9.16666 15.5239 8.85279 17.1571 8.29408C18.7902 7.73538 19.7077 6.97762 19.7077 6.18749C19.7077 5.39737 18.7902 4.63961 17.1571 4.08091C15.5239 3.5222 13.3089 3.20833 10.9993 3.20833Z" fill="#EF6C00" style="fill:#EF6C00;fill:color(display-p3 0.9373 0.4235 0.0000);fill-opacity:1;"/>
<path d="M10.9993 17.4167C6.41602 17.4167 2.66777 16.2044 2.32493 14.6667H2.29102C2.29102 17.4167 6.44352 18.7917 10.9993 18.7917C15.5552 18.7917 19.7077 17.4167 19.7077 14.6667H19.6738C19.3309 16.2044 15.5827 17.4167 10.9993 17.4167Z" fill="#FFCC80" style="fill:#FFCC80;fill:color(display-p3 1.0000 0.8000 0.5020);fill-opacity:1;"/>
<path d="M10.9993 14.6667C6.41602 14.6667 2.66777 13.4544 2.32493 11.9167H2.29102C2.29102 14.6667 6.44352 16.0417 10.9993 16.0417C15.5552 16.0417 19.7077 14.6667 19.7077 11.9167H19.6738C19.3309 13.4544 15.5827 14.6667 10.9993 14.6667Z" fill="#FFCC80" style="fill:#FFCC80;fill:color(display-p3 1.0000 0.8000 0.5020);fill-opacity:1;"/>
<path d="M10.9993 11.9167C6.41602 11.9167 2.66777 10.7044 2.32493 9.16667H2.29102C2.29102 11.9167 6.44352 13.2917 10.9993 13.2917C15.5552 13.2917 19.7077 11.9167 19.7077 9.16667H19.6738C19.3309 10.7044 15.5827 11.9167 10.9993 11.9167Z" fill="#FFCC80" style="fill:#FFCC80;fill:color(display-p3 1.0000 0.8000 0.5020);fill-opacity:1;"/>
<path d="M10.9993 9.16667C6.41602 9.16667 2.66777 7.95438 2.32493 6.41667H2.29102C2.29102 9.16667 6.44352 10.5417 10.9993 10.5417C15.5552 10.5417 19.7077 9.16667 19.7077 6.41667H19.6738C19.3309 7.95438 15.5827 9.16667 10.9993 9.16667Z" fill="#FFCC80" style="fill:#FFCC80;fill:color(display-p3 1.0000 0.8000 0.5020);fill-opacity:1;"/>
<path d="M11 4.58333C9.54131 4.58333 8.14236 4.75234 7.11091 5.05318C6.07946 5.35402 5.5 5.76204 5.5 6.18749C5.5 6.61295 6.07946 7.02097 7.11091 7.32181C8.14236 7.62265 9.54131 7.79166 11 7.79166C12.4587 7.79166 13.8576 7.62265 14.8891 7.32181C15.9205 7.02097 16.5 6.61295 16.5 6.18749C16.5 5.76204 15.9205 5.35402 14.8891 5.05318C13.8576 4.75234 12.4587 4.58333 11 4.58333Z" fill="#BF360C" style="fill:#BF360C;fill:color(display-p3 0.7490 0.2118 0.0471);fill-opacity:1;"/>
<path d="M14.2088 14.8958C14.2088 15.5288 13.696 16.0417 13.063 16.0417C12.4301 16.0417 11.9172 15.5288 11.9172 14.8958V7.44792C11.9172 6.81496 14.2088 6.81496 14.2088 7.44792V14.8958ZM10.0838 10.6155C10.0838 11.2484 9.57097 11.7613 8.93801 11.7613C8.30505 11.7613 7.79218 11.2484 7.79218 10.6155V7.34983C7.79218 6.71687 10.0838 6.71687 10.0838 7.34983V10.6155ZM11.9172 5.95833C11.9172 6.46433 11.5065 6.875 11.0005 6.875C10.4945 6.875 10.0838 6.46433 10.0838 5.95833V8.70833C10.0838 8.20233 10.4945 7.79167 11.0005 7.79167C11.5065 7.79167 11.9172 8.20233 11.9172 8.70833V5.95833ZM14.2088 5.5V8.25C14.2088 7.744 14.6213 7.33333 14.8487 7.33333C14.8487 7.33333 14.2088 6.006 14.2088 5.5ZM7.79218 5.5V8.25C7.79218 7.744 7.37968 7.33333 7.15234 7.33333C7.15234 7.33333 7.79218 6.006 7.79218 5.5Z" fill="#BF360C" style="fill:#BF360C;fill:color(display-p3 0.7490 0.2118 0.0471);fill-opacity:1;"/>
</svg>
