<svg width="1520" height="42" viewBox="0 0 1520 42" fill="none" xmlns="http://www.w3.org/2000/svg">
<mask id="mask0_77_11878" style="mask-type:alpha" maskUnits="userSpaceOnUse" x="0" y="0" width="1520" height="42">
<rect width="1520" height="42" transform="matrix(-1 0 0 1 1520 0)" fill="#D9D9D9" style="fill:#D9D9D9;fill:color(display-p3 0.8510 0.8510 0.8510);fill-opacity:1;"/>
</mask>
<g mask="url(#mask0_77_11878)">
<path opacity="0.5" d="M-21.3672 33.569C-21.3672 33.569 144.348 -1.59733 254.995 0.0563642C346.392 1.42234 391.298 27.2088 482.658 29.1428C584.393 31.2964 638.305 -2.69393 739.224 4.48256C804.219 9.10445 833.453 27.4027 897.994 33.569C1026.99 45.8928 1100.66 0.592411 1230.58 9.75184C1305.96 15.0662 1342.25 44.7979 1417.46 38.8383C1460.26 35.4467 1520.01 16.4965 1520.01 16.4965V41.9998H-21.3672V33.569Z" fill="white" style="fill:white;fill-opacity:1;"/>
<path opacity="0.5" d="M657.379 33.5692C657.379 33.5692 808.965 -1.59714 910.179 0.0565473C993.783 1.42252 1034.86 27.209 1118.43 29.143C1211.49 31.2966 1260.81 -2.69374 1353.12 4.48274C1412.58 9.10463 1439.32 27.4029 1498.36 33.5692C1616.35 45.893 1683.74 0.592594 1802.59 9.75202C1871.54 15.0663 1904.74 44.7981 1973.53 38.8384C2012.68 35.4469 2067.34 16.4967 2067.34 16.4967V42H657.379V33.5692Z" fill="white" style="fill:white;fill-opacity:1;"/>
<path d="M1520.02 33.569C1520.02 33.569 1354.31 -1.59733 1243.66 0.0563642C1152.26 1.42234 1107.36 27.2088 1016 29.1428C914.263 31.2964 860.351 -2.69393 759.432 4.48256C694.437 9.10445 665.204 27.4027 600.662 33.569C471.671 45.8928 397.995 0.592411 268.077 9.75184C192.698 15.0662 156.404 44.7979 81.1958 38.8383C38.396 35.4467 -21.3514 16.4965 -21.3514 16.4965V41.9998H1520.02V33.569Z" fill="white" style="fill:white;fill-opacity:1;"/>
</g>
</svg>
