<svg width="511" height="14" viewBox="0 0 511 14" fill="none" xmlns="http://www.w3.org/2000/svg">
<mask id="mask0_38_37" style="mask-type:alpha" maskUnits="userSpaceOnUse" x="0" y="0" width="511" height="14">
<rect width="511" height="14" transform="matrix(-1 0 0 1 511 0)" fill="#D9D9D9" style="fill:#D9D9D9;fill:color(display-p3 0.8510 0.8510 0.8510);fill-opacity:1;"/>
</mask>
<g mask="url(#mask0_38_37)">
<path opacity="0.5" d="M-7.18359 11.1897C-7.18359 11.1897 48.5272 -0.532443 85.7252 0.0187881C116.451 0.474113 131.548 9.0696 162.262 9.71426C196.463 10.4321 214.588 -0.897975 248.515 1.49419C270.365 3.03482 280.193 9.13425 301.891 11.1897C345.256 15.2976 370.025 0.19747 413.701 3.25061C439.042 5.02205 451.244 14.9326 476.528 12.9461C490.916 11.8156 511.002 5.49884 511.002 5.49884V13.9999H-7.18359V11.1897Z" fill="white" style="fill:white;fill-opacity:1;"/>
<path opacity="0.5" d="M221 11.1897C221 11.1897 271.961 -0.532381 305.987 0.0188491C334.094 0.474174 347.903 9.06966 375.999 9.71432C407.284 10.4322 423.863 -0.897914 454.898 1.49425C474.885 3.03488 483.875 9.13431 503.723 11.1897C543.391 15.2977 566.048 0.197531 606 3.25067C629.181 5.02211 640.342 14.9327 663.47 12.9461C676.632 11.8156 695.006 5.4989 695.006 5.4989V14H221V11.1897Z" fill="white" style="fill:white;fill-opacity:1;"/>
<path d="M511.008 11.1897C511.008 11.1897 455.297 -0.532443 418.099 0.0187881C387.373 0.474113 372.276 9.0696 341.562 9.71426C307.361 10.4321 289.236 -0.897975 255.309 1.49419C233.459 3.03482 223.631 9.13425 201.933 11.1897C158.568 15.2976 133.8 0.19747 90.1232 3.25061C64.782 5.02205 52.5805 14.9326 27.2966 12.9461C12.9081 11.8156 -7.1781 5.49884 -7.1781 5.49884V13.9999H511.008V11.1897Z" fill="white" style="fill:white;fill-opacity:1;"/>
</g>
</svg>
