<svg width="53" height="11" viewBox="0 0 53 11" fill="none" xmlns="http://www.w3.org/2000/svg">
<g id="Group 1632521152">
<path id="Vector 138" d="M1 5.42318L3.83333 3.2437C5.50371 1.95879 7.82962 1.95879 9.5 3.2437V3.2437C11.1704 4.5286 13.4963 4.5286 15.1667 3.2437V3.2437C16.837 1.95879 19.163 1.95879 20.8333 3.2437V3.2437C22.5037 4.5286 24.8296 4.5286 26.5 3.2437V3.2437C28.1704 1.95879 30.4963 1.95879 32.1667 3.2437V3.2437C33.837 4.5286 36.163 4.5286 37.8333 3.2437V3.2437C39.5037 1.95879 41.8296 1.95879 43.5 3.2437V3.2437C45.1704 4.5286 47.4963 4.5286 49.1667 3.2437L52 1.06421" stroke="#FFAA29" style="stroke:#FFAA29;stroke:color(display-p3 1.0000 0.6650 0.1625);stroke-opacity:1;" stroke-width="2"/>
<path id="Vector 139" opacity="0.5" d="M1 10.0001L3.83333 7.8206C5.50371 6.5357 7.82962 6.5357 9.5 7.8206V7.8206C11.1704 9.10551 13.4963 9.10551 15.1667 7.8206V7.8206C16.837 6.5357 19.163 6.5357 20.8333 7.8206V7.8206C22.5037 9.10551 24.8296 9.10551 26.5 7.8206V7.8206C28.1704 6.5357 30.4963 6.5357 32.1667 7.8206V7.8206C33.837 9.10551 36.163 9.10551 37.8333 7.8206V7.8206C39.5037 6.5357 41.8296 6.5357 43.5 7.8206V7.8206C45.1704 9.10551 47.4963 9.10551 49.1667 7.8206L52 5.64111" stroke="#FFAA29" style="stroke:#FFAA29;stroke:color(display-p3 1.0000 0.6650 0.1625);stroke-opacity:1;" stroke-width="2"/>
</g>
</svg>
