<svg width="1920" height="38" viewBox="0 0 1920 38" fill="none" xmlns="http://www.w3.org/2000/svg">
<path d="M-10 7.6279C-10 7.6279 199.324 39.445 339.09 37.9488C454.538 36.713 511.261 13.3824 626.664 11.6326C755.171 9.68406 823.27 40.4372 950.747 33.9442C1032.85 29.7625 1069.77 13.2069 1151.3 7.6279C1314.24 -3.52221 1407.3 37.4638 1571.41 29.1767C1666.62 24.3686 1712.47 -2.53162 1807.47 2.86046C1861.53 5.929 1937 23.0744 1937 23.0744V0H-10V7.6279Z" fill="white" style="fill:white;fill-opacity:1;"/>
<path opacity="0.3" d="M1937 7.6279C1937 7.6279 1727.68 39.445 1587.91 37.9488C1472.46 36.713 1415.74 13.3824 1300.34 11.6326C1171.83 9.68406 1103.73 40.4372 976.253 33.9442C894.154 29.7625 857.228 13.2069 775.702 7.6279C612.765 -3.52221 519.701 37.4638 355.594 29.1767C260.378 24.3686 214.533 -2.53162 119.533 2.86046C65.4705 5.929 -10 23.0744 -10 23.0744V0H1937V7.6279Z" fill="white" style="fill:white;fill-opacity:1;"/>
<path opacity="0.3" d="M1522 7.6279C1522 7.6279 1330.52 39.445 1202.67 37.9488C1097.07 36.713 1045.18 13.3824 939.618 11.6326C822.067 9.68406 759.774 40.4372 643.166 33.9442C568.067 29.7625 534.288 13.2069 459.713 7.6279C310.668 -3.52221 225.539 37.4638 75.4236 29.1767C-11.6738 24.3686 -53.6102 -2.53162 -140.511 2.86046C-189.964 5.929 -259 23.0744 -259 23.0744V0H1522V7.6279Z" fill="white" style="fill:white;fill-opacity:1;"/>
</svg>
