<svg width="78" height="17" viewBox="0 0 78 17" fill="none" xmlns="http://www.w3.org/2000/svg">
<path d="M1 8.49573L5.22222 5.24786C7.71141 3.3331 11.1775 3.3331 13.6667 5.24786V5.24786C16.1559 7.16262 19.6219 7.16262 22.1111 5.24786V5.24786C24.6003 3.3331 28.0664 3.3331 30.5556 5.24786V5.24786C33.0447 7.16262 36.5108 7.16262 39 5.24786V5.24786C41.4892 3.3331 44.9553 3.3331 47.4444 5.24786V5.24786C49.9336 7.16262 53.3997 7.16262 55.8889 5.24786V5.24786C58.3781 3.3331 61.8441 3.3331 64.3333 5.24786V5.24786C66.8225 7.16262 70.2886 7.16262 72.7778 5.24786L77 2" stroke="#FFAA29" style="stroke:#FFAA29;stroke:color(display-p3 1.0000 0.6650 0.1625);stroke-opacity:1;" stroke-width="3"/>
<path opacity="0.5" d="M1 15.316L5.22222 12.0682C7.71141 10.1534 11.1775 10.1534 13.6667 12.0682V12.0682C16.1559 13.9829 19.6219 13.9829 22.1111 12.0682V12.0682C24.6003 10.1534 28.0664 10.1534 30.5556 12.0682V12.0682C33.0447 13.9829 36.5108 13.9829 39 12.0682V12.0682C41.4892 10.1534 44.9553 10.1534 47.4444 12.0682V12.0682C49.9336 13.9829 53.3997 13.9829 55.8889 12.0682V12.0682C58.3781 10.1534 61.8441 10.1534 64.3333 12.0682V12.0682C66.8225 13.9829 70.2886 13.9829 72.7778 12.0682L77 8.82031" stroke="#FFAA29" style="stroke:#FFAA29;stroke:color(display-p3 1.0000 0.6650 0.1625);stroke-opacity:1;" stroke-width="3"/>
</svg>
