<svg width="146" height="146" viewBox="0 0 146 146" fill="none" xmlns="http://www.w3.org/2000/svg">
<circle cx="73" cy="73" r="73" fill="white"/>
<path d="M92.2507 75.9452C92.0986 75.7641 91.8874 75.6427 91.6543 75.6026C91.4213 75.5625 91.1816 75.6063 90.9777 75.7262C90.7739 75.8461 90.6192 76.0343 90.541 76.2575C90.4628 76.4807 90.4662 76.7243 90.5507 76.9452C90.8424 77.3987 90.9985 77.926 91.0007 78.4652C91.0007 81.1652 86.4107 83.8252 79.8307 84.9152C79.5655 84.9603 79.329 85.1089 79.1734 85.3283C79.0177 85.5477 78.9556 85.82 79.0007 86.0852C79.0458 86.3504 79.1944 86.5869 79.4138 86.7425C79.6332 86.8982 79.9055 86.9603 80.1707 86.9152C88.0807 85.5652 93.0007 82.3452 93.0007 78.4652C92.9922 77.5714 92.7323 76.6981 92.2507 75.9452Z" fill="#B81B37"/>
<path d="M76.45 85.575L72.45 83.575C72.298 83.4872 72.1255 83.441 71.95 83.441C71.7745 83.441 71.602 83.4872 71.45 83.575C70.9 83.965 71 84.465 71 85.465C61.48 85.045 55 81.615 55 78.465C55.0096 77.9394 55.1655 77.4269 55.45 76.985C55.5435 76.8736 55.6115 76.7433 55.6494 76.603C55.6874 76.4626 55.6942 76.3157 55.6696 76.1725C55.645 76.0292 55.5894 75.8931 55.5067 75.7735C55.4241 75.6539 55.3164 75.5538 55.1911 75.4801C55.0658 75.4064 54.926 75.3609 54.7813 75.3468C54.6366 75.3326 54.4906 75.3502 54.3534 75.3983C54.2163 75.4463 54.0912 75.5237 53.987 75.6251C53.8828 75.7264 53.8019 75.8492 53.75 75.985C53.2755 76.7264 53.0159 77.5849 53 78.465C53 83.205 60.76 86.985 71 87.465V88.465C71.0005 88.6354 71.0446 88.8029 71.1281 88.9516C71.2115 89.1002 71.3316 89.225 71.4769 89.3142C71.6222 89.4034 71.7878 89.4539 71.9581 89.4611C72.1285 89.4682 72.2978 89.4317 72.45 89.355L76.45 87.355C76.6138 87.2711 76.7513 87.1436 76.8473 86.9865C76.9432 86.8295 76.994 86.649 76.994 86.465C76.994 86.2809 76.9432 86.1005 76.8473 85.9434C76.7513 85.7864 76.6138 85.6589 76.45 85.575Z" fill="#B81B37"/>
<path d="M65.0454 74.654C63.728 74.654 62.636 74.4547 61.7694 74.056C60.92 73.6573 60.296 73.094 59.8974 72.366C59.516 71.638 59.3427 70.7973 59.3774 69.844C59.3774 69.636 59.4727 69.532 59.6634 69.532H62.0294C62.2374 69.532 62.3414 69.636 62.3414 69.844C62.3414 70.5893 62.5667 71.1353 63.0174 71.482C63.4854 71.8287 64.1787 72.002 65.0974 72.002C66.0854 72.002 66.8394 71.8027 67.3594 71.404C67.8794 70.988 68.1394 70.4073 68.1394 69.662V69.142C68.1394 67.6687 67.16 66.932 65.2014 66.932H63.0954C62.8874 66.932 62.7834 66.828 62.7834 66.62V64.696C62.7834 64.488 62.8874 64.384 63.0954 64.384H64.9934C65.9467 64.384 66.6487 64.202 67.0994 63.838C67.55 63.4567 67.7754 62.8847 67.7754 62.122V61.55C67.7754 60.8913 67.55 60.406 67.0994 60.094C66.6487 59.782 65.9727 59.626 65.0714 59.626C64.1354 59.626 63.4507 59.7993 63.0174 60.146C62.584 60.4753 62.3674 61.004 62.3674 61.732C62.3674 61.94 62.2634 62.044 62.0554 62.044H59.7154C59.5074 62.044 59.4034 61.94 59.4034 61.732C59.4034 60.172 59.8887 58.9933 60.8594 58.196C61.8474 57.3987 63.3207 57 65.2794 57C67.186 57 68.59 57.364 69.4914 58.092C70.3927 58.82 70.8434 59.9207 70.8434 61.394C70.8434 62.4687 70.618 63.3527 70.1674 64.046C69.734 64.722 69.1274 65.19 68.3474 65.45V65.502C69.318 65.7967 70.0374 66.2907 70.5054 66.984C70.9907 67.66 71.2334 68.5267 71.2334 69.584C71.2334 71.2307 70.7047 72.4873 69.6474 73.354C68.59 74.2207 67.056 74.654 65.0454 74.654Z" fill="#231F20"/>
<path d="M74.809 74.342C74.6183 74.342 74.523 74.238 74.523 74.03V57.624C74.523 57.416 74.6183 57.312 74.809 57.312H80.061C82.7477 57.312 84.7497 57.936 86.067 59.184C87.3843 60.432 88.043 62.304 88.043 64.8V66.36C88.043 69.012 87.3843 71.0053 86.067 72.34C84.767 73.6747 82.765 74.342 80.061 74.342H74.809ZM77.643 71.664H79.853C81.6037 71.664 82.8863 71.2307 83.701 70.364C84.5157 69.48 84.923 68.154 84.923 66.386V64.774C84.923 63.162 84.5157 61.966 83.701 61.186C82.8863 60.3887 81.6037 59.99 79.853 59.99H77.643V71.664Z" fill="#231F20"/>
<circle cx="73" cy="73" r="64.5" stroke="#B81B37"/>
</svg>
