<svg width="40" height="40" viewBox="0 0 40 40" fill="none" xmlns="http://www.w3.org/2000/svg">
<g clip-path="url(#clip0_96_14509)">
<mask id="mask0_96_14509" style="mask-type:luminance" maskUnits="userSpaceOnUse" x="0" y="0" width="40" height="40">
<path d="M0 3.8147e-06H40V40H0V3.8147e-06Z" fill="white"/>
</mask>
<g mask="url(#mask0_96_14509)">
<path fill-rule="evenodd" clip-rule="evenodd" d="M11.7969 40H28.2031V37.2313C34.9237 35.6373 40 29.5497 40 22.3438V21.1719H0V22.3438C0 29.5497 5.0763 35.6373 11.7969 37.2313V40ZM14.1406 37.6563V35.2822L13.1631 35.1179C7.44328 34.156 2.93332 29.3723 2.39718 23.5156H37.6028C37.0667 29.3723 32.5567 34.156 26.8369 35.1179L25.8594 35.2822V37.6563H14.1406Z" fill="white"/>
<path fill-rule="evenodd" clip-rule="evenodd" d="M27.2302 9.75432C24.7793 8.14636 22.1004 7.10944 19.9996 7.10944C17.6798 7.10944 14.6398 8.37461 11.9609 10.311L13.334 12.2105C15.8204 10.4132 18.3783 9.45319 19.9996 9.45319C21.4538 9.45319 23.6779 10.2269 25.9446 11.714C28.1826 13.1823 30.2971 15.24 31.5909 17.603L33.6467 16.4774C32.1274 13.7028 29.7098 11.3811 27.2302 9.75432Z" fill="white"/>
<path fill-rule="evenodd" clip-rule="evenodd" d="M12.9928 18.5014C11.6536 19.3004 10.6226 20.49 10.0273 21.8833L12.1825 22.8042C12.5831 21.8667 13.2799 21.0593 14.1936 20.5141C15.5503 19.7047 16.4844 18.2127 16.4844 16.4844C16.4844 14.734 15.523 13.2282 14.1159 12.4265C13.8423 9.44459 11.3345 7.10936 8.28125 7.10936C5.25081 7.10936 2.65138 9.42411 2.36913 12.4262C0.961794 13.2278 0 14.7337 0 16.4844C0 18.2128 0.934424 19.7051 2.29154 20.5145L2.29156 20.5145C3.23812 21.079 3.99377 21.8996 4.38014 22.8041L6.53548 21.8834C5.92622 20.4571 4.79845 19.2806 3.49203 18.5015L2.89215 19.5074L3.49203 18.5015C2.80695 18.093 2.34375 17.3452 2.34375 16.4844C2.34375 15.4708 2.99685 14.6064 3.92224 14.2841L4.74696 13.9967L4.70739 13.1243C4.70476 13.0664 4.69949 13.017 4.69517 12.9819C4.69272 12.962 4.68983 12.9412 4.68776 12.9266C4.71141 11.0287 6.32884 9.45311 8.28125 9.45311C10.2089 9.45311 11.7741 11.0044 11.7966 12.9268C11.7946 12.9414 11.7917 12.9624 11.7892 12.9824C11.7849 13.0174 11.7797 13.0666 11.7771 13.1243L11.7375 13.9968L12.5622 14.2841C13.4876 14.6064 14.1406 15.4707 14.1406 16.4844C14.1406 17.3452 13.6775 18.0928 12.9928 18.5014L12.9928 18.5014Z" fill="white"/>
<path fill-rule="evenodd" clip-rule="evenodd" d="M9.45312 22.3438V17.6562H7.10938V22.3438H9.45312Z" fill="white"/>
<path fill-rule="evenodd" clip-rule="evenodd" d="M8.28177 19.3135L11.4542 16.1411L9.79688 14.4838L8.28177 15.9989L6.76666 14.4838L5.10938 16.1411L8.28177 19.3135Z" fill="white"/>
<path fill-rule="evenodd" clip-rule="evenodd" d="M37.5972 23.741C40.8007 20.5375 40.8007 15.3435 37.5972 12.14L36.772 11.3148L26.4902 21.5116L28.1406 23.1757L36.6827 14.7043C38.1933 16.9797 37.9457 20.0779 35.9399 22.0837L37.5972 23.741Z" fill="white"/>
<path fill-rule="evenodd" clip-rule="evenodd" d="M23.5156 14.1406H21.1719V16.4844H23.5156V14.1406Z" fill="white"/>
<path fill-rule="evenodd" clip-rule="evenodd" d="M25.8594 16.4844H23.5156V18.8281H25.8594V16.4844Z" fill="white"/>
<path fill-rule="evenodd" clip-rule="evenodd" d="M26.1584 10.6167L33.0609 1.41084L31.1857 0.00483799L24.2832 9.2107L26.1584 10.6167Z" fill="white"/>
<path fill-rule="evenodd" clip-rule="evenodd" d="M29.0215 12.9409L37.1095 6.8749L35.7032 4.99991L27.6152 11.0659L29.0215 12.9409Z" fill="white"/>
</g>
</g>
<defs>
<clipPath id="clip0_96_14509">
<rect width="40" height="40" fill="white"/>
</clipPath>
</defs>
</svg>
