<svg width="40" height="40" viewBox="0 0 40 40" fill="none" xmlns="http://www.w3.org/2000/svg">
<path d="M8.62305 23.5254C9.27461 23.5254 9.80469 24.0555 9.80469 24.707H12.1484C12.1484 22.7631 10.567 21.1816 8.62305 21.1816C6.67914 21.1816 5.09766 22.7631 5.09766 24.707V29.4141C5.09766 31.358 6.67914 32.9395 8.62305 32.9395C10.567 32.9395 12.1484 31.358 12.1484 29.4141H9.80469C9.80469 30.0657 9.27461 30.5958 8.62305 30.5958C7.97148 30.5958 7.44141 30.0657 7.44141 29.4141V24.707C7.44141 24.0555 7.97148 23.5254 8.62305 23.5254Z" fill="white"/>
<path d="M16.7871 21.1816C14.8432 21.1816 13.2617 22.7631 13.2617 24.707V32.9395H15.6055V28.2325H17.9688V32.9395H20.3125V24.707C20.3125 22.7631 18.731 21.1816 16.7871 21.1816ZM15.6055 25.8888V24.707C15.6055 24.0555 16.1355 23.5254 16.7871 23.5254C17.4387 23.5254 17.9688 24.0555 17.9688 24.707V25.8888H15.6055Z" fill="white"/>
<path d="M21.8945 32.9395H24.2383V28.2323H26.5918V25.8886H24.2383V23.5254H27.6953V21.1816H21.8945V32.9395Z" fill="white"/>
<path d="M29.1016 32.9395H34.9023V30.5957H31.4453V28.2325H33.7988V25.8888H31.4453V23.5254H34.9023V21.1816H29.1016V32.9395Z" fill="white"/>
<path d="M40 9.4043V2.35352H0V9.4043H7.06063V11.9686C5.69117 12.4528 4.70703 13.7598 4.70703 15.293V16.4745H2.35508V17.6464C2.35508 18.2977 1.82516 18.8277 1.17383 18.8277H0.00195312V35.2934H1.17383C1.82516 35.2934 2.35508 35.8234 2.35508 36.4747V37.6466H37.6465V36.4747C37.6465 35.8234 38.1764 35.2934 38.8277 35.2934H39.9996V18.8276H38.8277C38.1764 18.8276 37.6465 18.2977 37.6465 17.6463V16.4745H35.293V15.293C35.293 13.7598 34.3089 12.4527 32.9395 11.9685V9.40422L40 9.4043ZM2.34375 4.69727H37.6562V7.06055H2.34375V4.69727ZM7.05078 15.293C7.05078 14.6414 7.58094 14.1112 8.2325 14.1112C8.88406 14.1112 9.41414 14.6414 9.41414 15.293V16.4745H7.05078V15.293ZM35.503 18.8182C35.8574 19.8209 36.6532 20.6167 37.6559 20.9711V33.1498C36.6532 33.5043 35.8573 34.3001 35.503 35.3027H4.49859C4.14414 34.3001 3.34836 33.5042 2.3457 33.1498V20.9711C3.34836 20.6166 4.14422 19.8209 4.49859 18.8182H35.503ZM32.9493 16.4745H30.5859V15.293C30.5859 14.6414 31.116 14.1112 31.7676 14.1112C32.4191 14.1112 32.9493 14.6414 32.9493 15.293V16.4745ZM30.5957 11.9686C29.2262 12.4528 28.2421 13.7598 28.2421 15.293V16.4745H11.7579V15.293C11.7579 13.7598 10.7738 12.4527 9.40438 11.9685V9.40422H30.5957V11.9686Z" fill="white"/>
</svg>
