<svg width="195" height="138" viewBox="0 0 195 138" fill="none" xmlns="http://www.w3.org/2000/svg">
<path d="M46.6906 137.86C37.744 137.86 29.7506 135.88 22.7106 131.92C15.6706 127.96 10.1706 122.533 6.21063 115.64C2.25063 108.747 0.270625 100.827 0.270625 91.88C0.270625 83.2267 2.25063 75.5267 6.21063 68.78C10.1706 62.0333 15.6706 56.7533 22.7106 52.94C29.7506 49.1267 37.744 47.22 46.6906 47.22C55.784 47.22 63.7773 49.2 70.6706 53.16C77.564 56.9733 82.9173 62.3267 86.7306 69.22C90.544 75.9667 92.4506 83.74 92.4506 92.54C92.4506 101.34 90.4706 109.187 86.5106 116.08C82.6973 122.827 77.344 128.18 70.4506 132.14C63.5573 135.953 55.6373 137.86 46.6906 137.86ZM48.8906 133.68C56.664 133.68 62.384 130.233 66.0506 123.34C69.7173 116.447 71.5506 107.133 71.5506 95.4C71.5506 84.9867 70.304 76.5533 67.8106 70.1C65.3173 63.6467 62.0173 58.9533 57.9106 56.02C53.9506 52.94 49.5506 51.4 44.7106 51.4C37.084 51.4 31.2173 54.92 27.1106 61.96C23.004 69 20.9506 78.3133 20.9506 89.9C20.9506 98.4067 22.0506 105.96 24.2506 112.56C26.5973 119.16 29.8973 124.367 34.1506 128.18C38.404 131.847 43.3173 133.68 48.8906 133.68ZM165.834 72.08C172.874 72.08 178.448 73.4733 182.554 76.26C186.808 79.0467 189.888 82.5667 191.794 86.82C193.848 91.0733 194.874 95.4733 194.874 100.02C194.874 106.913 192.821 113.293 188.714 119.16C184.608 124.88 179.108 129.427 172.214 132.8C165.321 136.173 157.694 137.86 149.334 137.86C136.574 137.86 126.381 133.607 118.754 125.1C111.274 116.593 107.534 104.713 107.534 89.46C107.534 75.6733 110.688 62.18 116.994 48.98C123.301 35.78 132.394 23.9733 144.274 13.56C156.154 3.14666 170.308 -4.84667 186.734 -10.42C187.321 -10.5667 187.761 -10.2733 188.054 -9.54C188.348 -8.80667 188.274 -8.29334 187.834 -8.00001C174.341 -1.54667 163.121 6.81333 154.174 17.08C145.228 27.3467 138.481 38.4933 133.934 50.52C129.388 62.5467 127.114 74.4267 127.114 86.16C127.114 94.6667 128.214 102.513 130.414 109.7C132.761 116.74 136.061 122.387 140.314 126.64C144.568 130.893 149.554 133.02 155.274 133.02C161.288 133.02 166.128 130.673 169.794 125.98C173.461 121.287 175.294 114.687 175.294 106.18C175.294 98.7 173.681 92.54 170.454 87.7C167.374 82.7133 162.388 80.22 155.494 80.22C152.414 80.22 149.481 80.88 146.694 82.2C144.054 83.3733 141.048 85.2067 137.674 87.7C137.381 88.14 136.868 88.14 136.134 87.7C135.401 87.1133 135.181 86.6 135.474 86.16C139.288 81.9067 143.688 78.5333 148.674 76.04C153.661 73.4 159.381 72.08 165.834 72.08Z" fill="url(#paint0_linear_96_14283)"/>
<defs>
<linearGradient id="paint0_linear_96_14283" x1="97" y1="-83.6038" x2="97" y2="258.434" gradientUnits="userSpaceOnUse">
<stop offset="0.385" stop-color="white"/>
<stop offset="1" stop-color="white" stop-opacity="0"/>
</linearGradient>
</defs>
</svg>
