<svg width="178" height="152" viewBox="0 0 178 152" fill="none" xmlns="http://www.w3.org/2000/svg">
<path d="M46.8039 93.86C37.8572 93.86 29.8639 91.88 22.8239 87.92C15.7839 83.96 10.2839 78.5333 6.32391 71.64C2.36391 64.7467 0.383906 56.8267 0.383906 47.88C0.383906 39.2267 2.36391 31.5267 6.32391 24.78C10.2839 18.0333 15.7839 12.7533 22.8239 8.93999C29.8639 5.12666 37.8572 3.22 46.8039 3.22C55.8972 3.22 63.8906 5.2 70.7839 9.16C77.6772 12.9733 83.0306 18.3267 86.8439 25.22C90.6572 31.9667 92.5639 39.74 92.5639 48.54C92.5639 57.34 90.5839 65.1867 86.6239 72.08C82.8106 78.8267 77.4572 84.18 70.5639 88.14C63.6706 91.9533 55.7506 93.86 46.8039 93.86ZM49.0039 89.68C56.7772 89.68 62.4972 86.2333 66.1639 79.34C69.8306 72.4467 71.6639 63.1333 71.6639 51.4C71.6639 40.9867 70.4172 32.5533 67.9239 26.1C65.4306 19.6467 62.1306 14.9533 58.0239 12.02C54.0639 8.93999 49.6639 7.39999 44.8239 7.39999C37.1972 7.39999 31.3306 10.92 27.2239 17.96C23.1172 25 21.0639 34.3133 21.0639 45.9C21.0639 54.4067 22.1639 61.96 24.3639 68.56C26.7106 75.16 30.0106 80.3667 34.2639 84.18C38.5172 87.8467 43.4306 89.68 49.0039 89.68ZM111.168 151.5C110.581 151.647 110.068 151.353 109.628 150.62C109.334 149.887 109.481 149.373 110.068 149.08C119.161 145.707 126.641 141.82 132.508 137.42C138.521 133.167 143.288 128.62 146.808 123.78C150.328 118.94 152.821 114.1 154.288 109.26C155.754 104.567 156.488 100.167 156.488 96.06C156.488 90.78 155.534 86.0133 153.628 81.76C151.868 77.36 149.154 73.9133 145.488 71.42C141.821 68.9267 137.274 67.68 131.848 67.68C130.381 67.68 128.841 67.8267 127.228 68.12C125.761 68.2667 124.148 68.56 122.388 69C121.948 69.1467 121.581 68.78 121.288 67.9C120.994 67.02 121.068 66.5067 121.508 66.36C132.068 63.5733 139.694 59.54 144.388 54.26C149.228 48.98 151.648 41.5733 151.648 32.04C151.648 24.8533 150.401 19.2067 147.908 15.1C145.561 10.9933 141.748 8.93999 136.468 8.93999C130.308 8.93999 124.808 11.0667 119.968 15.32C115.128 19.4267 111.168 25.7333 108.088 34.24C107.941 34.5333 107.428 34.6067 106.548 34.46C105.668 34.3133 105.301 34.02 105.448 33.58L113.588 1.46C113.881 1.02 114.394 0.946661 115.128 1.24C116.008 1.38666 116.374 1.60666 116.228 1.89999C115.641 4.39333 115.788 6.08 116.668 6.95999C117.548 7.69333 118.501 8.06 119.528 8.06C121.874 8.06 125.028 7.25333 128.988 5.64C133.094 4.02666 138.008 3.22 143.728 3.22C152.821 3.22 159.641 5.78666 164.188 10.92C168.734 16.0533 171.008 21.8467 171.008 28.3C171.008 33.7267 169.688 39.0067 167.048 44.14C164.554 49.1267 160.814 53.4533 155.828 57.12C150.988 60.7867 145.121 63.3533 138.228 64.82L139.548 61.52C148.494 61.8133 155.754 63.5 161.328 66.58C166.901 69.66 171.008 73.5467 173.648 78.24C176.288 82.9333 177.608 87.9933 177.608 93.42C177.608 100.02 175.261 106.987 170.568 114.32C165.874 121.653 158.614 128.547 148.788 135C138.961 141.453 126.421 146.953 111.168 151.5Z" fill="url(#paint0_linear_96_14289)"/>
<defs>
<linearGradient id="paint0_linear_96_14289" x1="89.5" y1="-127.604" x2="89.5" y2="214.434" gradientUnits="userSpaceOnUse">
<stop offset="0.385" stop-color="white"/>
<stop offset="1" stop-color="white" stop-opacity="0"/>
</linearGradient>
</defs>
</svg>
