<svg width="30" height="23" viewBox="0 0 30 23" fill="none" xmlns="http://www.w3.org/2000/svg">
<path fill-rule="evenodd" clip-rule="evenodd" d="M6.51104 5.93333H15.0697C15.0232 6.28228 14.9992 6.63834 14.9992 7C14.9992 11.106 18.0925 14.4895 22.0759 14.9473L21.9841 15.2839C21.676 16.4102 20.6441 17.2 19.4755 17.2H9.96247C8.81268 17.2 7.79328 16.4368 7.46911 15.3346L3.77562 2.77813C3.72006 2.58927 3.55669 2.46667 3.36091 2.46667H1.73253C1.61768 2.46829 1.50366 2.44707 1.39709 2.40425C1.29052 2.36142 1.19352 2.29784 1.11173 2.21721C1.02994 2.13657 0.964999 2.04048 0.920671 1.93452C0.876343 1.82857 0.853516 1.71486 0.853516 1.6C0.853516 1.48515 0.876343 1.37144 0.920671 1.26548C0.964999 1.15952 1.02994 1.06343 1.11173 0.982795C1.19352 0.902156 1.29052 0.838577 1.39709 0.795752C1.50366 0.752926 1.61768 0.731709 1.73253 0.733333H3.36091C4.3178 0.733333 5.16756 1.37019 5.43786 2.28893H5.43956L6.51104 5.93333ZM22.9992 13.5C22.8231 13.5 22.6487 13.493 22.4762 13.4793C19.1309 13.2129 16.4992 10.4138 16.4992 7C16.4992 6.63671 16.529 6.28039 16.5863 5.93333C17.0952 2.85095 19.7726 0.5 22.9992 0.5C26.589 0.5 29.4992 3.41015 29.4992 7C29.4992 10.5899 26.589 13.5 22.9992 13.5ZM9.17354 19.441C9.4986 19.116 9.93948 18.9333 10.3992 18.9333C10.8589 18.9333 11.2998 19.116 11.6248 19.441C11.9499 19.7661 12.1325 20.207 12.1325 20.6667C12.1325 21.1264 11.9499 21.5673 11.6248 21.8923C11.2998 22.2174 10.8589 22.4 10.3992 22.4C9.93948 22.4 9.4986 22.2174 9.17354 21.8923C8.84848 21.5673 8.66586 21.1264 8.66586 20.6667C8.66586 20.207 8.84848 19.7661 9.17354 19.441ZM17.8402 19.441C18.1653 19.116 18.6061 18.9333 19.0659 18.9333C19.5256 18.9333 19.9664 19.116 20.2915 19.441C20.6166 19.7661 20.7992 20.207 20.7992 20.6667C20.7992 21.1264 20.6166 21.5673 20.2915 21.8923C19.9664 22.2174 19.5256 22.4 19.0659 22.4C18.6061 22.4 18.1653 22.2174 17.8402 21.8923C17.5151 21.5673 17.3325 21.1264 17.3325 20.6667C17.3325 20.207 17.5151 19.7661 17.8402 19.441ZM27.9992 7C27.9992 9.76142 25.7606 12 22.9992 12C22.9594 12 22.9196 11.9995 22.88 11.9986C20.1736 11.9353 17.9992 9.72158 17.9992 7C17.9992 4.23858 20.2378 2 22.9992 2C25.7606 2 27.9992 4.23858 27.9992 7Z" fill="white" style="fill:white;fill-opacity:1;"/>
<path d="M22.164 7.8258L20.9271 6.73831L19.8742 7.94742L22.351 10.125L23.9095 8.22346L26.1242 5.52134L24.8899 4.5L23.6775 5.97921L22.164 7.8258Z" fill="white" style="fill:white;fill-opacity:1;"/>
<path fill-rule="evenodd" clip-rule="evenodd" d="M27.9992 7C27.9992 9.76142 25.7606 12 22.9992 12C22.9594 12 22.9196 11.9995 22.88 11.9986C20.1736 11.9353 17.9992 9.72158 17.9992 7C17.9992 4.23858 20.2378 2 22.9992 2C25.7606 2 27.9992 4.23858 27.9992 7ZM20.9271 6.73831L22.164 7.8258L23.6775 5.97921L24.8899 4.5L26.1242 5.52134L23.9095 8.22346L22.351 10.125L19.8742 7.94742L20.9271 6.73831Z" fill="#1DAC70" style="fill:#1DAC70;fill:color(display-p3 0.1125 0.6750 0.4388);fill-opacity:1;"/>
</svg>
