<svg width="26" height="26" viewBox="0 0 26 26" fill="none" xmlns="http://www.w3.org/2000/svg">
<path d="M1.73253 1.73336C1.61768 1.73174 1.50366 1.75296 1.39709 1.79578C1.29052 1.83861 1.19352 1.90219 1.11173 1.98282C1.02994 2.06346 0.964999 2.15955 0.920671 2.26551C0.876343 2.37146 0.853516 2.48517 0.853516 2.60003C0.853516 2.71488 0.876343 2.82859 0.920671 2.93455C0.964999 3.04051 1.02994 3.1366 1.11173 3.21724C1.19352 3.29787 1.29052 3.36145 1.39709 3.40428C1.50366 3.4471 1.61768 3.46832 1.73253 3.4667H3.36091C3.55669 3.4667 3.72006 3.5893 3.77562 3.77815L7.46911 16.3347C7.79328 17.4368 8.81268 18.2 9.96247 18.2H19.4755C20.6441 18.2 21.676 17.4102 21.9841 16.2839L24.2354 8.02855C24.2705 7.89994 24.2755 7.76497 24.25 7.63412C24.2245 7.50328 24.1691 7.38008 24.0882 7.27412C24.0073 7.16816 23.903 7.08229 23.7835 7.02319C23.664 6.96409 23.5325 6.93335 23.3992 6.93336H6.51104L5.43956 3.28896H5.43786C5.16756 2.37022 4.3178 1.73336 3.36091 1.73336H1.73253ZM10.3992 19.9334C9.93948 19.9334 9.4986 20.116 9.17354 20.441C8.84848 20.7661 8.66586 21.207 8.66586 21.6667C8.66586 22.1264 8.84848 22.5673 9.17354 22.8923C9.4986 23.2174 9.93948 23.4 10.3992 23.4C10.8589 23.4 11.2998 23.2174 11.6248 22.8923C11.9499 22.5673 12.1325 22.1264 12.1325 21.6667C12.1325 21.207 11.9499 20.7661 11.6248 20.441C11.2998 20.116 10.8589 19.9334 10.3992 19.9334ZM19.0659 19.9334C18.6061 19.9334 18.1653 20.116 17.8402 20.441C17.5151 20.7661 17.3325 21.207 17.3325 21.6667C17.3325 22.1264 17.5151 22.5673 17.8402 22.8923C18.1653 23.2174 18.6061 23.4 19.0659 23.4C19.5256 23.4 19.9664 23.2174 20.2915 22.8923C20.6166 22.5673 20.7992 22.1264 20.7992 21.6667C20.7992 21.207 20.6166 20.7661 20.2915 20.441C19.9664 20.116 19.5256 19.9334 19.0659 19.9334Z" fill="white" style="fill:white;fill-opacity:1;"/>
<path d="M11 13.4488V11.5512H19V13.4488H11ZM13.981 8.5H16.019V16.5H13.981V8.5Z" fill="#FFAA29" style="fill:#FFAA29;fill:color(display-p3 1.0000 0.6650 0.1625);fill-opacity:1;"/>
</svg>
