<svg width="138" height="38" viewBox="0 0 138 38" fill="none" xmlns="http://www.w3.org/2000/svg">
<path d="M138 19.2139C138 29.494 129.666 37.8278 119.386 37.8278H19.3854C9.10548 37.8278 0.771973 29.4943 0.771973 19.2145C0.771973 8.93457 9.10547 0.601074 19.3854 0.601074H119.386C129.666 0.601074 137.999 8.93426 138 19.2139Z" fill="#B81B37"/>
<path d="M27.6993 18.5821C27.6738 15.8256 30.0142 14.4845 30.1212 14.4221C28.7958 12.538 26.7414 12.2805 26.0194 12.26C24.294 12.083 22.6203 13.2666 21.7414 13.2666C20.8449 13.2666 19.4914 12.2771 18.0326 12.3062C16.1554 12.3344 14.3993 13.3941 13.4361 15.0396C11.4484 18.3948 12.9309 23.3254 14.8352 26.0374C15.7879 27.3656 16.901 28.8487 18.3581 28.7965C19.7835 28.7392 20.3159 27.9104 22.0361 27.9104C23.7405 27.9104 24.2405 28.7965 25.7265 28.7631C27.2563 28.7392 28.2194 27.4289 29.1387 26.0887C30.2396 24.5664 30.6817 23.0671 30.6993 22.9901C30.6633 22.9781 27.7282 21.886 27.6993 18.5821Z" fill="white"/>
<path d="M24.8922 10.4759C25.6589 9.54112 26.1835 8.26935 26.0379 6.97876C24.9282 7.02665 23.5405 7.72711 22.7414 8.64139C22.0344 9.44704 21.4028 10.7676 21.5659 12.0094C22.8124 12.1001 24.0922 11.3962 24.8922 10.4759Z" fill="white"/>
<path d="M50.6978 26.7673H48.8686L47.8666 23.7365H44.3836L43.4291 26.7673H41.6482L45.0989 16.4493H47.2302L50.6978 26.7673ZM47.5645 22.465L46.6583 19.7708C46.5625 19.4955 46.3828 18.8474 46.1178 17.827H46.0856C45.9801 18.2659 45.8101 18.914 45.5766 19.7708L44.6865 22.465H47.5645Z" fill="white"/>
<path d="M59.5719 22.9558C59.5719 24.2211 59.2167 25.2213 58.5062 25.9555C57.8699 26.6091 57.0797 26.9355 56.1365 26.9355C55.1184 26.9355 54.387 26.5835 53.9415 25.8795H53.9093V29.7988H52.192V21.7765C52.192 20.9811 52.1703 20.1646 52.1284 19.3273H53.6387L53.7345 20.5066H53.7668C54.3395 19.618 55.2086 19.1746 56.3749 19.1746C57.2867 19.1746 58.0479 19.5211 58.6569 20.215C59.2674 20.9097 59.5719 21.8231 59.5719 22.9558ZM57.8224 23.0163C57.8224 22.2921 57.6532 21.6951 57.3133 21.2253C56.942 20.7353 56.4434 20.4903 55.8183 20.4903C55.3946 20.4903 55.0096 20.6267 54.6657 20.8958C54.3209 21.1671 54.0954 21.5215 53.9899 21.9603C53.9367 22.165 53.9101 22.3324 53.9101 22.4642V23.7048C53.9101 24.2459 54.0825 24.7026 54.4273 25.0755C54.772 25.4485 55.2199 25.6345 55.7708 25.6345C56.4176 25.6345 56.921 25.3942 57.2811 24.915C57.642 24.4351 57.8224 23.8025 57.8224 23.0163Z" fill="white"/>
<path d="M68.4621 22.9558C68.4621 24.2211 68.1069 25.2213 67.3956 25.9555C66.7601 26.6091 65.9699 26.9355 65.0267 26.9355C64.0085 26.9355 63.2772 26.5835 62.8325 25.8795H62.8003V29.7988H61.083V21.7765C61.083 20.9811 61.0613 20.1646 61.0194 19.3273H62.5297L62.6255 20.5066H62.6577C63.2296 19.618 64.0988 19.1746 65.2659 19.1746C66.1769 19.1746 66.9381 19.5211 67.5487 20.215C68.1568 20.9097 68.4621 21.8231 68.4621 22.9558ZM66.7126 23.0163C66.7126 22.2921 66.5426 21.6951 66.2027 21.2253C65.8314 20.7353 65.3344 20.4903 64.7085 20.4903C64.284 20.4903 63.8998 20.6267 63.555 20.8958C63.2103 21.1671 62.9856 21.5215 62.88 21.9603C62.8277 22.165 62.8003 22.3324 62.8003 22.4642V23.7048C62.8003 24.2459 62.9727 24.7026 63.3158 25.0755C63.6606 25.4477 64.1084 25.6345 64.661 25.6345C65.3078 25.6345 65.8112 25.3942 66.1713 24.915C66.5321 24.4351 66.7126 23.8025 66.7126 23.0163Z" fill="white"/>
<path d="M78.4018 23.8738C78.4018 24.7514 78.0852 25.4655 77.4497 26.0168C76.7514 26.6192 75.7791 26.92 74.5298 26.92C73.3764 26.92 72.4517 26.706 71.7517 26.2773L72.1496 24.8995C72.9035 25.3384 73.7308 25.5585 74.6321 25.5585C75.2789 25.5585 75.7823 25.4174 76.144 25.1368C76.5041 24.8561 76.6837 24.4793 76.6837 24.0095C76.6837 23.5908 76.5355 23.238 76.2383 22.9519C75.9426 22.6658 75.4489 22.3999 74.7594 22.1541C72.8826 21.4804 71.945 20.4934 71.945 19.1955C71.945 18.3473 72.2736 17.6518 72.9317 17.1107C73.5874 16.5687 74.4622 16.2981 75.556 16.2981C76.5315 16.2981 77.3418 16.4617 77.9886 16.7881L77.5593 18.1356C76.9551 17.8193 76.2721 17.6611 75.5077 17.6611C74.9036 17.6611 74.4315 17.8046 74.0932 18.0899C73.8073 18.345 73.6639 18.6559 73.6639 19.0241C73.6639 19.432 73.8274 19.7692 74.1561 20.0344C74.442 20.2794 74.9616 20.5446 75.7155 20.8306C76.6378 21.1881 77.3152 21.606 77.751 22.0851C78.1851 22.5627 78.4018 23.1605 78.4018 23.8738Z" fill="white"/>
<path d="M84.0797 20.5678H82.1868V24.18C82.1868 25.0988 82.5203 25.5578 83.1888 25.5578C83.4957 25.5578 83.7502 25.5322 83.9516 25.481L83.9991 26.7362C83.6608 26.858 83.2154 26.9192 82.6636 26.9192C81.9854 26.9192 81.4554 26.72 81.0728 26.3222C80.6918 25.9237 80.5001 25.2554 80.5001 24.3165V20.5663H79.3724V19.3257H80.5001V17.9635L82.1868 17.4735V19.3257H84.0797V20.5678Z" fill="white"/>
<path d="M92.6203 22.986C92.6203 24.1296 92.2803 25.0685 91.6021 25.8028C90.8909 26.5587 89.9468 26.9355 88.77 26.9355C87.6359 26.9355 86.7329 26.5734 86.0596 25.8493C85.3862 25.1251 85.0495 24.211 85.0495 23.1093C85.0495 21.9564 85.3958 21.0121 86.091 20.2778C86.7845 19.5428 87.7205 19.1753 88.8973 19.1753C90.0314 19.1753 90.944 19.5374 91.6327 20.2623C92.2916 20.9655 92.6203 21.8734 92.6203 22.986ZM90.8385 23.0395C90.8385 22.3534 90.6863 21.7649 90.3778 21.2741C90.0177 20.6802 89.503 20.3841 88.8361 20.3841C88.1458 20.3841 87.6214 20.681 87.2613 21.2741C86.9528 21.7657 86.8006 22.3634 86.8006 23.0705C86.8006 23.7567 86.9528 24.3452 87.2613 24.8352C87.6327 25.4291 88.1514 25.7252 88.8208 25.7252C89.4764 25.7252 89.9911 25.4229 90.3625 24.8197C90.679 24.3196 90.8385 23.7249 90.8385 23.0395Z" fill="white"/>
<path d="M98.2023 20.781C98.0323 20.7508 97.8511 20.7353 97.661 20.7353C97.0569 20.7353 96.5897 20.9547 96.2611 21.3943C95.9751 21.782 95.8317 22.272 95.8317 22.8635V26.7673H94.1152L94.1314 21.6703C94.1314 20.8128 94.1096 20.0321 94.0669 19.3281H95.5627L95.6255 20.7516H95.6731C95.8543 20.2623 96.1402 19.8685 96.5317 19.5731C96.9143 19.3071 97.3275 19.1746 97.773 19.1746C97.9317 19.1746 98.075 19.1854 98.2023 19.2048V20.781Z" fill="white"/>
<path d="M105.883 22.6953C105.883 22.9915 105.862 23.2411 105.82 23.445H100.668C100.688 24.18 100.937 24.7421 101.415 25.1298C101.85 25.4764 102.411 25.65 103.1 25.65C103.863 25.65 104.559 25.533 105.185 25.298L105.454 26.4455C104.723 26.7525 103.859 26.9053 102.863 26.9053C101.664 26.9053 100.723 26.5657 100.039 25.8873C99.3558 25.2089 99.0134 24.2979 99.0134 23.155C99.0134 22.0332 99.3316 21.0989 99.9687 20.3538C100.636 19.5583 101.537 19.1606 102.671 19.1606C103.785 19.1606 104.628 19.5583 105.201 20.3538C105.655 20.9857 105.883 21.7672 105.883 22.6953ZM104.245 22.2665C104.256 21.7765 104.144 21.3532 103.912 20.9958C103.614 20.536 103.158 20.3065 102.543 20.3065C101.982 20.3065 101.525 20.5306 101.176 20.9803C100.89 21.3377 100.72 21.7665 100.668 22.2658H104.245V22.2665Z" fill="white"/>
<path d="M43.5539 11.8176C43.535 12.1298 43.4996 12.3826 43.4477 12.5759C43.3981 12.7693 43.3144 12.937 43.1964 13.0792V13.1071H45.6742V9.19673H43.7203L43.5539 11.8176ZM42.6194 13.6732V14.6692H42.0283V13.1071H42.407C42.584 13.0139 42.7138 12.8613 42.7964 12.6493C42.8813 12.435 42.9344 12.1531 42.9557 11.8036L43.1504 8.63062H46.3113V13.1071H46.9485V14.6692H46.3574V13.6732H42.6194Z" fill="white"/>
<path d="M49.1219 13.7361C48.6075 13.7361 48.1945 13.5672 47.883 13.2294C47.5715 12.8893 47.4157 12.4315 47.4157 11.8561C47.4157 11.2806 47.5715 10.824 47.883 10.4862C48.1945 10.1461 48.6075 9.97601 49.1219 9.97601C49.634 9.97601 50.0458 10.1461 50.3573 10.4862C50.6688 10.824 50.8245 11.2806 50.8245 11.8561C50.8245 12.4292 50.6688 12.8858 50.3573 13.2259C50.0458 13.5661 49.634 13.7361 49.1219 13.7361ZM48.3325 12.845C48.5284 13.0826 48.7915 13.2015 49.1219 13.2015C49.4523 13.2015 49.7142 13.0838 49.9077 12.8485C50.1012 12.6109 50.198 12.2801 50.198 11.8561C50.198 11.4321 50.1012 11.1024 49.9077 10.8671C49.7142 10.6295 49.4523 10.5107 49.1219 10.5107C48.7915 10.5107 48.5284 10.6295 48.3325 10.8671C48.139 11.1047 48.0423 11.4344 48.0423 11.8561C48.0423 12.2777 48.139 12.6074 48.3325 12.845Z" fill="white"/>
<path d="M54.5554 11.1572H53.9466C53.8899 10.9685 53.7826 10.8135 53.6244 10.6924C53.4663 10.5712 53.2646 10.5107 53.0192 10.5107C52.6982 10.5107 52.441 10.6341 52.2475 10.8811C52.054 11.1257 51.9572 11.4507 51.9572 11.8561C51.9572 12.2684 52.054 12.5957 52.2475 12.838C52.4434 13.0803 52.7029 13.2015 53.0262 13.2015C53.2669 13.2015 53.4663 13.1455 53.6244 13.0337C53.7849 12.9219 53.8946 12.7646 53.9536 12.562H54.5625C54.5011 12.9114 54.3312 13.1945 54.0528 13.4111C53.7743 13.6278 53.4309 13.7361 53.0227 13.7361C52.5082 13.7361 52.0976 13.5672 51.7909 13.2294C51.4841 12.8893 51.3307 12.4315 51.3307 11.8561C51.3307 11.29 51.4841 10.8357 51.7909 10.4932C52.0976 10.1484 52.5059 9.97601 53.0156 9.97601C53.438 9.97601 53.7849 10.0902 54.0563 10.3185C54.33 10.5468 54.4964 10.8263 54.5554 11.1572Z" fill="white"/>
<path d="M57.8261 10.0389V10.5386H56.6368V13.6732H56.0279V10.5386H54.8386V10.0389H57.8261Z" fill="white"/>
<path d="M58.704 15.0326C58.5931 15.0326 58.5046 15.0256 58.4385 15.0116V14.5014C58.4951 14.5131 58.5754 14.5189 58.6792 14.5189C58.8515 14.5189 58.9895 14.4735 59.0933 14.3826C59.1972 14.2941 59.2845 14.1438 59.3553 13.9318L59.4402 13.6767L58.081 10.0389H58.7394L59.7588 13.0652H59.7694L60.7889 10.0389H61.4367L59.9889 13.9283C59.8308 14.3523 59.6597 14.6424 59.4756 14.7985C59.2939 14.9546 59.0367 15.0326 58.704 15.0326Z" fill="white"/>
<path d="M64.3746 13.6732V10.5386H62.5942V13.6732H61.9853V10.0389H64.987V13.6732H64.3746Z" fill="white"/>
<path d="M68.2754 13.6732V12.0378H66.4595V13.6732H65.8507V10.0389H66.4595V11.5381H68.2754V10.0389H68.8843V13.6732H68.2754Z" fill="white"/>
<path d="M71.2807 13.7361C70.7662 13.7361 70.3533 13.5672 70.0418 13.2294C69.7303 12.8893 69.5745 12.4315 69.5745 11.8561C69.5745 11.2806 69.7303 10.824 70.0418 10.4862C70.3533 10.1461 70.7662 9.97601 71.2807 9.97601C71.7928 9.97601 72.2045 10.1461 72.516 10.4862C72.8275 10.824 72.9833 11.2806 72.9833 11.8561C72.9833 12.4292 72.8275 12.8858 72.516 13.2259C72.2045 13.5661 71.7928 13.7361 71.2807 13.7361ZM70.4913 12.845C70.6872 13.0826 70.9503 13.2015 71.2807 13.2015C71.6111 13.2015 71.873 13.0838 72.0665 12.8485C72.26 12.6109 72.3568 12.2801 72.3568 11.8561C72.3568 11.4321 72.26 11.1024 72.0665 10.8671C71.873 10.6295 71.6111 10.5107 71.2807 10.5107C70.9503 10.5107 70.6872 10.6295 70.4913 10.8671C70.2978 11.1047 70.2011 11.4344 70.2011 11.8561C70.2011 12.2777 70.2978 12.6074 70.4913 12.845Z" fill="white"/>
<path d="M76.6434 10.5316H75.762V11.5485H76.5513C77.0092 11.5485 77.2381 11.3762 77.2381 11.0314C77.2381 10.8706 77.1873 10.7471 77.0859 10.6609C76.9844 10.5747 76.8369 10.5316 76.6434 10.5316ZM76.6009 12.0378H75.762V13.1805H76.7106C76.9325 13.1805 77.1024 13.1327 77.2204 13.0372C77.3384 12.9394 77.3974 12.7984 77.3974 12.6144C77.3974 12.23 77.1319 12.0378 76.6009 12.0378ZM75.1532 13.6732V10.0389H76.7283C77.0729 10.0389 77.3443 10.1216 77.5425 10.287C77.7407 10.4524 77.8398 10.6796 77.8398 10.9685C77.8398 11.1525 77.7808 11.3202 77.6628 11.4717C77.5472 11.6231 77.4044 11.7163 77.2345 11.7512V11.7792C77.4658 11.8118 77.651 11.905 77.7903 12.0588C77.9319 12.2125 78.0026 12.4024 78.0026 12.6284C78.0026 12.9499 77.8894 13.205 77.6628 13.3937C77.4386 13.58 77.1307 13.6732 76.739 13.6732H75.1532Z" fill="white"/>
</svg>
