<svg width="30" height="30" viewBox="0 0 30 30" fill="none" xmlns="http://www.w3.org/2000/svg">
<g clip-path="url(#clip0_214_579)">
<path d="M12.6284 2.71455C9.203 1.91151 6.27816 2.50773 4.39255 4.39334C2.50693 6.27895 1.91067 9.20384 2.71371 12.6292C3.49728 15.9716 5.52854 19.4121 8.43336 22.3169C12.8506 26.7341 18.4694 29.0481 22.7478 28.2121C23.1886 28.126 23.5233 27.7705 23.5809 27.3276C23.6346 26.914 23.4297 26.5307 23.0588 26.3509C21.6157 25.6514 20.0477 24.4929 18.6434 23.0886C17.0376 21.4828 15.7907 19.7208 15.1325 18.1272C14.539 16.6904 14.5023 15.5625 15.032 15.0329C15.5616 14.5032 16.6895 14.5399 18.1263 15.1334C19.7199 15.7916 21.4819 17.0385 23.0877 18.6443C24.492 20.0486 25.6505 21.6166 26.35 23.0597C26.5299 23.4306 26.9132 23.6356 27.3267 23.5818C27.5589 23.5516 27.7671 23.4452 27.925 23.2873C28.0683 23.144 28.1702 22.9583 28.2112 22.7487C29.0472 18.4702 26.7332 12.8514 22.316 8.4342C19.4112 5.52938 15.9707 3.49812 12.6284 2.71455ZM14.2891 12.7779C14.7059 13.1948 14.7059 13.873 14.2891 14.2899C13.8722 14.7067 13.194 14.7067 12.7771 14.2899C12.3603 13.873 12.3603 13.1948 12.7771 12.7779C13.194 12.3611 13.8722 12.3611 14.2891 12.7779ZM27.2573 22.5623C27.2508 22.5959 27.23 22.6094 27.2144 22.6148C26.4679 21.0825 25.2473 19.4294 23.775 17.9571C22.0808 16.2629 20.2065 14.9411 18.4974 14.2351C17.3561 13.7636 16.3565 13.5993 15.5627 13.7396C15.6177 13.1917 15.452 12.626 15.0662 12.1873L21.8379 12.1873C21.9721 12.1873 22.0936 12.1329 22.1815 12.0449C22.2694 11.957 22.3239 11.8355 22.3239 11.7013C22.3238 11.4329 22.1063 11.2154 21.8379 11.2154L5.11183 11.2152C4.84348 11.2153 4.62589 11.4329 4.62589 11.7012C4.62594 11.9696 4.84348 12.1871 5.11188 12.1871L12 12.1871C11.517 12.7363 11.3795 13.4846 11.5873 14.1475L6.09319 14.1476C5.82484 14.1476 5.60725 14.3652 5.60726 14.6335C5.6073 14.902 5.82484 15.1195 6.09324 15.1195L12.2478 15.1195C12.6772 15.468 13.2161 15.6159 13.7387 15.5635C13.5984 16.3573 13.7627 17.3568 14.2342 18.4982C14.9402 20.2073 16.262 22.0816 17.9562 23.7758C19.4278 25.2474 21.0803 26.4677 22.6138 27.2152C22.6084 27.2308 22.5949 27.2515 22.5615 27.2581C20.6686 27.628 18.4214 27.3157 16.063 26.3551C13.6162 25.3586 11.2155 23.7245 9.12058 21.6295C6.34203 18.851 4.40276 15.5758 3.65993 12.4073C2.93661 9.32159 3.44083 6.71958 5.07981 5.0806C6.71879 3.44162 9.3208 2.9374 12.4065 3.66077C15.5751 4.40361 18.8503 6.34292 21.6288 9.12142C23.7237 11.2164 25.3578 13.617 26.3544 16.0638C27.3149 18.4223 27.6272 20.6695 27.2573 22.5623Z" fill="#26394F" style="fill:#26394F;fill:color(display-p3 0.1490 0.2235 0.3098);fill-opacity:1;"/>
<path d="M4.98189 8.28291C4.71354 8.28296 4.49596 8.50055 4.49596 8.76885C4.496 9.0373 4.71354 9.25484 4.98194 9.25484L18.822 9.25484C18.9561 9.25484 19.0776 9.20041 19.1656 9.11248C19.2535 9.02456 19.3079 8.90305 19.3079 8.7689C19.3079 8.50046 19.0903 8.28291 18.8219 8.28291L4.98189 8.28291Z" fill="#26394F" style="fill:#26394F;fill:color(display-p3 0.1490 0.2235 0.3098);fill-opacity:1;"/>
<path d="M14.0367 6.32257C14.1708 6.32257 14.2923 6.26814 14.3803 6.18022C14.4682 6.09229 14.5226 5.97079 14.5226 5.83664C14.5226 5.56819 14.305 5.35065 14.0366 5.35065L6.62807 5.35065C6.35971 5.3507 6.14213 5.56828 6.14213 5.83659C6.14217 6.10503 6.35971 6.32257 6.62811 6.32257L14.0367 6.32257Z" fill="#26394F" style="fill:#26394F;fill:color(display-p3 0.1490 0.2235 0.3098);fill-opacity:1;"/>
<path d="M22.5137 14.1476C22.2453 14.1476 22.0277 14.3652 22.0277 14.6335C22.0278 14.902 22.2453 15.1195 22.5137 15.1195L23.8865 15.1195C24.0206 15.1195 24.1422 15.0651 24.2301 14.9771C24.318 14.8892 24.3724 14.7677 24.3724 14.6336C24.3724 14.3651 24.1549 14.1476 23.8865 14.1476L22.5137 14.1476Z" fill="#26394F" style="fill:#26394F;fill:color(display-p3 0.1490 0.2235 0.3098);fill-opacity:1;"/>
<path d="M7.29059 17.5658C7.29063 17.8343 7.50817 18.0518 7.77657 18.0518L12.2735 18.0518C12.4077 18.0518 12.5292 17.9973 12.6171 17.9094C12.705 17.8215 12.7594 17.7 12.7594 17.5658C12.7594 17.2974 12.5418 17.0798 12.2734 17.0798L7.77652 17.0799C7.50822 17.0799 7.29063 17.2975 7.29059 17.5658Z" fill="#26394F" style="fill:#26394F;fill:color(display-p3 0.1490 0.2235 0.3098);fill-opacity:1;"/>
<path d="M10.252 20.0122C9.98368 20.0122 9.7661 20.2298 9.7661 20.4981C9.76614 20.7666 9.98368 20.9841 10.2521 20.9841L13.4105 20.9841C13.5446 20.9841 13.6661 20.9297 13.754 20.8418C13.842 20.7538 13.8964 20.6323 13.8964 20.4982C13.8963 20.2297 13.6788 20.0122 13.4104 20.0122L10.252 20.0122Z" fill="#26394F" style="fill:#26394F;fill:color(display-p3 0.1490 0.2235 0.3098);fill-opacity:1;"/>
<path d="M13.8757 22.9446C13.6072 22.9445 13.3897 23.1621 13.3897 23.4305C13.3897 23.6989 13.6073 23.9164 13.8756 23.9164L15.4742 23.9164C15.6084 23.9164 15.7299 23.862 15.8178 23.7741C15.9058 23.6862 15.9602 23.5646 15.9602 23.4305C15.9601 23.1621 15.7426 22.9445 15.4742 22.9446L13.8757 22.9446Z" fill="#26394F" style="fill:#26394F;fill:color(display-p3 0.1490 0.2235 0.3098);fill-opacity:1;"/>
</g>
<defs>
<clipPath id="clip0_214_579">
<rect width="30" height="30" fill="white" style="fill:white;fill-opacity:1;"/>
</clipPath>
</defs>
</svg>
