<svg width="38" height="511" viewBox="0 0 38 511" fill="none" xmlns="http://www.w3.org/2000/svg">
<path d="M7.6279 629.271C7.6279 629.271 39.445 542.91 37.9488 485.247C36.7129 437.617 13.3823 414.215 11.6325 366.603C9.68404 313.585 40.4372 285.49 33.9442 232.897C29.7625 199.025 13.2069 183.791 7.62788 150.156C-3.52223 82.9331 37.4638 44.5379 29.1767 -23.1675C24.3685 -62.4504 -2.53165 -81.3646 2.86043 -120.559C5.92897 -142.863 23.0744 -174 23.0744 -174L-3.51121e-05 -174L0 629.271L7.6279 629.271Z" fill="#F2F4F6" style="fill:#F2F4F6;fill:color(display-p3 0.9490 0.9569 0.9647);fill-opacity:1;"/>
<path opacity="0.3" d="M7.6279 -174C7.6279 -174 39.445 -87.6394 37.9488 -29.9767C36.713 17.6536 13.3824 41.0558 11.6326 88.6672C9.68407 141.685 40.4372 169.781 33.9442 222.374C29.7625 256.245 13.2069 271.48 7.62793 305.115C-3.52218 372.337 37.4639 410.733 29.1768 478.438C24.3686 517.721 -2.53159 536.635 2.86049 575.829C5.92903 598.134 23.0745 629.271 23.0745 629.271L3.51121e-05 629.271L0 -174L7.6279 -174Z" fill="#F2F4F6" style="fill:#F2F4F6;fill:color(display-p3 0.9490 0.9569 0.9647);fill-opacity:1;"/>
<path opacity="0.3" d="M7.6279 -2.78418C7.6279 -2.78418 39.445 76.2134 37.9488 128.96C36.713 172.529 13.3824 193.936 11.6326 237.488C9.68407 285.986 40.4372 311.686 33.9442 359.795C29.7625 390.779 13.2069 404.714 7.62792 435.482C-3.52218 496.973 37.4639 532.095 29.1768 594.027C24.3686 629.961 -2.5316 647.263 2.86049 683.115C5.92903 703.518 23.0745 732 23.0745 732L3.21184e-05 732L0 -2.78418L7.6279 -2.78418Z" fill="#F2F4F6" style="fill:#F2F4F6;fill:color(display-p3 0.9490 0.9569 0.9647);fill-opacity:1;"/>
</svg>
