<svg width="80" height="80" viewBox="0 0 80 80" fill="none" xmlns="http://www.w3.org/2000/svg">
<path d="M74.7661 41.7533L75.202 41.7903C75.1816 42.0301 75.1966 42.2358 75.247 42.4073C75.3021 42.5792 75.3814 42.7114 75.485 42.8038C75.5929 42.9012 75.716 42.9558 75.8543 42.9676C75.9835 42.9786 76.1015 42.9561 76.2084 42.9002C76.3196 42.8492 76.4084 42.7616 76.4747 42.6371C76.5406 42.5173 76.5816 42.3629 76.5977 42.1738C76.613 41.994 76.5968 41.83 76.549 41.6819C76.5054 41.5389 76.4362 41.4238 76.3414 41.3368C76.2466 41.2498 76.1347 41.2008 76.0055 41.1898L76.0708 40.4219C76.3383 40.4447 76.5678 40.5316 76.7594 40.6826C76.9505 40.8382 77.093 41.0477 77.1867 41.3112C77.285 41.575 77.3193 41.8822 77.2895 42.2327C77.2593 42.5878 77.1736 42.8847 77.0325 43.1236C76.8914 43.3624 76.7163 43.5379 76.507 43.6502C76.3019 43.7675 76.0795 43.8159 75.8397 43.7955C75.6552 43.7798 75.491 43.7171 75.347 43.6073C75.2031 43.4975 75.0832 43.3503 74.9874 43.1656C74.8913 42.9856 74.8234 42.7731 74.7839 42.5282C74.7485 42.2883 74.7426 42.03 74.7661 41.7533ZM72.2886 41.8003C72.3157 41.4821 72.3761 41.2086 72.4699 40.9796C72.5683 40.7511 72.6913 40.5618 72.8387 40.4118C72.9904 40.2668 73.1572 40.1625 73.3391 40.099C73.5257 40.0359 73.7181 40.0128 73.9164 40.0297L73.847 40.8459C73.689 40.8464 73.5488 40.8833 73.4265 40.9565C73.3087 41.0301 73.2111 41.1402 73.1336 41.2869C73.0603 41.4386 73.0142 41.6252 72.9954 41.8465C72.9672 42.1786 73.0127 42.4356 73.1319 42.6176C73.2511 42.7996 73.4306 42.9008 73.6704 42.9212C73.8457 42.9361 73.9976 42.8979 74.1261 42.8067C74.2546 42.7154 74.3592 42.578 74.4399 42.3944C74.5201 42.2154 74.5712 41.9968 74.5932 41.7386L75.0567 41.778C75.0233 42.17 74.9449 42.5186 74.8214 42.824C74.7025 43.1298 74.5362 43.3641 74.3226 43.5271C74.1086 43.6947 73.8379 43.7646 73.5105 43.7368C73.2384 43.7136 73.0047 43.6217 72.8093 43.4611C72.6135 43.3051 72.4696 43.0862 72.3774 42.8043C72.2849 42.527 72.2553 42.1923 72.2886 41.8003Z" fill="#B81B37"/>
<path d="M73.0463 46.6208L73.6764 46.9498L73.0863 49.1276L72.3744 49.1001L73.0463 46.6208ZM74.8717 48.4318L73.3493 47.228L73.1787 47.1674L71.8874 46.1197L72.1289 45.2285L76.4598 48.8621L70.8868 49.8119L71.1283 48.9207L72.7281 48.6709L72.9279 48.7034L74.8717 48.4318Z" fill="#B81B37"/>
<path d="M74.658 53.7927L74.2937 54.5497L69.9146 52.4421L70.2789 51.6852L74.658 53.7927ZM73.5109 56.1762L73.0833 57.0645L71.9196 54.2315L68.6592 55.0508L69.0957 54.1437L72.3314 53.3279L73.5109 56.1762Z" fill="#B81B37"/>
<path d="M68.4167 58.022L68.8883 58.5539L67.561 60.3786L66.9057 60.0993L68.4167 58.022ZM69.4772 60.3644L68.4835 58.6973L68.3457 58.5799L67.5123 57.1409L68.0555 56.3942L70.8078 61.3323L65.2621 60.2344L65.8052 59.4877L67.3891 59.8242L67.5641 59.9258L69.4772 60.3644Z" fill="#B81B37"/>
<path d="M64.5968 64.5059L64.8981 64.8229C64.7236 64.9887 64.5983 65.1525 64.5222 65.3143C64.4493 65.4794 64.4208 65.6309 64.437 65.7688C64.4529 65.9133 64.5088 66.0358 64.6044 66.1365C64.6937 66.2304 64.7969 66.2919 64.914 66.3211C65.0309 66.3568 65.1555 66.3502 65.2877 66.3012C65.4166 66.2553 65.5498 66.1671 65.6873 66.0363C65.8182 65.912 65.9149 65.7786 65.9774 65.6361C66.0398 65.5002 66.0644 65.3682 66.0513 65.2402C66.0382 65.1122 65.987 65.0012 65.8977 64.9073L66.4563 64.3764C66.6413 64.571 66.7552 64.7883 66.7982 65.0284C66.8379 65.2717 66.8053 65.523 66.7005 65.7822C66.5989 66.0448 66.4206 66.2972 66.1656 66.5396C65.9073 66.7851 65.6461 66.9503 65.382 67.0353C65.1179 67.1202 64.8704 67.1352 64.6393 67.0802C64.4081 67.0318 64.2096 66.9203 64.0438 66.7459C63.9163 66.6117 63.8351 66.4557 63.8004 66.2781C63.7656 66.1004 63.7737 65.9107 63.8247 65.709C63.8723 65.5105 63.9626 65.3066 64.0956 65.0972C64.2284 64.8943 64.3955 64.6972 64.5968 64.5059ZM62.7127 62.8964C62.9442 62.6764 63.171 62.5119 63.3931 62.403C63.6184 62.2974 63.836 62.2374 64.0459 62.2231C64.2556 62.2154 64.4496 62.2481 64.6278 62.3214C64.8092 62.3981 64.9684 62.5085 65.1055 62.6528L64.5117 63.2171C64.3932 63.1126 64.264 63.0471 64.1239 63.0207C63.9869 62.9975 63.8408 63.0151 63.6855 63.0733C63.5299 63.1381 63.3717 63.2471 63.2106 63.4001C62.9691 63.6297 62.8325 63.8521 62.8008 64.0674C62.7691 64.2826 62.8362 64.4775 63.002 64.6519C63.1232 64.7794 63.2621 64.8517 63.4188 64.8688C63.5755 64.8859 63.745 64.8525 63.9272 64.7688C64.106 64.6882 64.2893 64.5587 64.4772 64.3801L64.7977 64.7173C64.5125 64.9883 64.2224 65.197 63.9273 65.3433C63.6354 65.4931 63.3554 65.558 63.0875 65.538C62.8162 65.5213 62.5674 65.3939 62.341 65.1557C62.1529 64.9577 62.0391 64.7338 61.9996 64.484C61.9567 64.2374 61.9944 63.9781 62.1127 63.7061C62.2275 63.4373 62.4276 63.1674 62.7127 62.8964Z" fill="#B81B37"/>
<path d="M60.0459 67.0208L60.2995 67.6849L58.4138 68.924L57.8991 68.4314L60.0459 67.0208ZM60.2117 69.5868L59.8701 67.6763L59.7826 67.5178L59.5105 65.8773L60.2822 65.3703L61.1152 70.9619L56.3135 67.978L57.0852 67.4709L58.4485 68.3446L58.5764 68.5014L60.2117 69.5868Z" fill="#B81B37"/>
<path d="M56.6941 72.5051L56.9967 73.1987L53.8913 74.5533L53.5887 73.8597L54.766 73.3462L53.1254 69.5854L53.8827 69.2551L55.5232 73.0159L56.6941 72.5051Z" fill="#B81B37"/>
<path d="M51.3126 75.5525L50.5195 75.7578L49.3018 71.053L50.0949 70.8477L51.3126 75.5525ZM50.2002 73.1942L50.3811 73.8932L49.4335 74.1384C49.0929 74.2266 48.7815 74.2426 48.4993 74.1866C48.2137 74.1362 47.9731 74.0192 47.7774 73.8356C47.5828 73.6564 47.4461 73.4145 47.3672 73.1098C47.2907 72.8141 47.2935 72.5385 47.3756 72.283C47.4576 72.0275 47.6107 71.8062 47.8348 71.6191C48.0556 71.4377 48.3362 71.3029 48.6768 71.2148L49.6245 70.9695L49.8054 71.6685L48.8577 71.9138C48.6785 71.9601 48.5286 72.0276 48.4081 72.1162C48.2843 72.2104 48.1987 72.3233 48.1516 72.4551C48.1055 72.5913 48.104 72.7423 48.1469 72.9081C48.191 73.0783 48.2656 73.2096 48.3707 73.3019C48.4771 73.3987 48.6066 73.456 48.7595 73.4738C48.909 73.4973 49.0733 73.4858 49.2525 73.4394L50.2002 73.1942Z" fill="#B81B37"/>
<path d="M36.5153 74.6929L36.4648 75.1274C36.2257 75.0996 36.0197 75.1083 35.8467 75.1534C35.6732 75.2032 35.5387 75.2784 35.4431 75.3791C35.3424 75.4839 35.284 75.6053 35.268 75.7432C35.2531 75.8719 35.2719 75.9906 35.3245 76.0992C35.372 76.2119 35.4569 76.3033 35.5792 76.3734C35.697 76.443 35.8501 76.4887 36.0386 76.5106C36.2179 76.5315 36.3822 76.5203 36.5317 76.4771C36.676 76.4379 36.7932 76.3723 36.8831 76.2802C36.973 76.1882 37.0254 76.0778 37.0403 75.949L37.8058 76.038C37.7749 76.3046 37.681 76.5313 37.5241 76.7181C37.3627 76.9044 37.1489 77.0403 36.8827 77.1259C36.6159 77.2161 36.3079 77.2408 35.9585 77.2003C35.6045 77.1591 35.3103 77.0644 35.0759 76.916C34.8415 76.7677 34.6714 76.5872 34.5657 76.3745C34.4548 76.1659 34.4132 75.9421 34.441 75.703C34.4623 75.5191 34.5301 75.3569 34.6443 75.2164C34.7584 75.0759 34.9093 74.9607 35.0968 74.8706C35.2797 74.78 35.4942 74.7187 35.7402 74.6867C35.9811 74.6588 36.2394 74.6609 36.5153 74.6929ZM36.5445 72.2151C36.8617 72.252 37.1333 72.3208 37.3592 72.4216C37.5846 72.527 37.77 72.6557 37.9154 72.8077C38.0557 72.9638 38.1548 73.1337 38.2127 73.3175C38.27 73.5059 38.2872 73.6989 38.2642 73.8966L37.4505 73.8021C37.4548 73.6441 37.4223 73.5029 37.3529 73.3784C37.283 73.2584 37.1759 73.1574 37.0316 73.0755C36.8823 72.9975 36.6972 72.9458 36.4766 72.9201C36.1455 72.8817 35.8872 72.9192 35.7016 73.0328C35.5161 73.1464 35.4094 73.3227 35.3816 73.5618C35.3613 73.7365 35.3948 73.8895 35.4821 74.0207C35.5693 74.152 35.7035 74.2608 35.8845 74.3471C36.0609 74.4328 36.2778 74.4906 36.5353 74.5205L36.4816 74.9825C36.0909 74.9372 35.7448 74.848 35.4433 74.7152C35.1414 74.5869 34.9122 74.4135 34.7559 74.195C34.595 73.976 34.5335 73.7032 34.5714 73.3768C34.6029 73.1055 34.7019 72.8748 34.8685 72.6844C35.0304 72.4936 35.2537 72.3564 35.5383 72.273C35.8183 72.189 36.1537 72.1697 36.5445 72.2151Z" fill="#B81B37"/>
<path d="M31.6721 72.7983L31.3218 73.4169L29.1654 72.7529L29.2171 72.0424L31.6721 72.7983ZM29.8 74.5609L31.0549 73.0805L31.1213 72.912L32.2123 71.6571L33.0948 71.9289L29.3157 76.1335L28.5564 70.5314L29.4389 70.8031L29.634 72.4105L29.5947 72.609L29.8 74.5609Z" fill="#B81B37"/>
<path d="M24.5014 74.1785L23.757 73.7891L26.0094 69.4828L26.7538 69.8722L24.5014 74.1785ZM22.1575 72.9525L21.2839 72.4956L24.1542 71.427L23.4441 68.1411L24.3361 68.6076L25.0435 71.8687L22.1575 72.9525Z" fill="#B81B37"/>
<path d="M20.4938 67.8023L19.9467 68.2562L18.1666 66.8697L18.4673 66.2239L20.4938 67.8023ZM18.1178 68.7853L19.8167 67.8469L19.9386 67.713L21.4041 66.9273L22.1326 67.4947L17.1068 70.0834L18.3862 64.5767L19.1147 65.1441L18.7263 66.716L18.6191 66.8877L18.1178 68.7853Z" fill="#B81B37"/>
<path d="M14.1581 63.7883L13.8314 64.0791C13.6714 63.8993 13.5118 63.7687 13.3526 63.6874C13.19 63.609 13.0395 63.5757 12.9011 63.5873C12.7562 63.5986 12.6319 63.6503 12.5282 63.7426C12.4314 63.8288 12.3665 63.9299 12.3335 64.046C12.294 64.1617 12.2966 64.2865 12.3412 64.4202C12.3828 64.5505 12.4667 64.6865 12.5928 64.8282C12.7128 64.9631 12.843 65.0641 12.9834 65.1313C13.1172 65.1981 13.2482 65.227 13.3766 65.2181C13.505 65.2092 13.6176 65.1616 13.7144 65.0755L14.2267 65.6511C14.0262 65.8296 13.8052 65.9364 13.5639 65.9715C13.3194 66.0032 13.0694 65.9624 12.8137 65.8492C12.5546 65.739 12.3081 65.5526 12.0742 65.2898C11.8373 65.0236 11.6807 64.7571 11.6044 64.4904C11.5282 64.2237 11.5213 63.9758 11.5838 63.7467C11.6398 63.5172 11.7577 63.3224 11.9374 63.1624C12.0757 63.0393 12.2342 62.9633 12.413 62.9344C12.5917 62.9054 12.781 62.9197 12.9809 62.9773C13.1777 63.0314 13.3786 63.1283 13.5836 63.2681C13.782 63.4075 13.9735 63.5809 14.1581 63.7883ZM15.8284 61.9579C16.0407 62.1965 16.1977 62.4286 16.2993 62.6541C16.3975 62.8828 16.4502 63.1022 16.4577 63.3124C16.4586 63.5223 16.4195 63.7151 16.3404 63.8908C16.2579 64.0696 16.1423 64.2251 15.9936 64.3574L15.449 63.7455C15.5573 63.6305 15.627 63.5034 15.658 63.3642C15.6856 63.2282 15.6729 63.0815 15.6197 62.9244C15.56 62.7668 15.4564 62.605 15.3087 62.4391C15.0871 62.1902 14.8693 62.0463 14.6552 62.0077C14.4411 61.969 14.2441 62.0296 14.0643 62.1896C13.9329 62.3066 13.8561 62.4431 13.8339 62.5991C13.8117 62.7552 13.8395 62.9256 13.9173 63.1105C13.992 63.2918 14.1155 63.4793 14.2878 63.673L13.9403 63.9822C13.6788 63.6883 13.4797 63.3915 13.343 63.0918C13.2029 62.7951 13.1472 62.5132 13.1759 62.2461C13.2015 61.9755 13.337 61.731 13.5825 61.5125C13.7865 61.3309 14.014 61.2245 14.2649 61.1932C14.5128 61.1585 14.7708 61.2046 15.0387 61.3317C15.3036 61.4553 15.5669 61.6641 15.8284 61.9579Z" fill="#B81B37"/>
<path d="M11.8085 59.1838L11.1364 59.4153L9.96032 57.4897L10.4696 56.9916L11.8085 59.1838ZM9.23846 59.2647L11.1592 58.9865L11.3205 58.9042L12.9691 58.6864L13.4503 59.4744L7.83427 60.1224L10.9751 55.4218L11.4564 56.2098L10.5382 57.5435L10.3773 57.6662L9.23846 59.2647Z" fill="#B81B37"/>
<path d="M6.43106 55.6564L5.72766 55.9354L4.47821 52.7863L5.1816 52.5072L5.65527 53.7011L9.4691 52.1879L9.77379 52.9558L5.95995 54.469L6.43106 55.6564Z" fill="#B81B37"/>
<path d="M3.55347 50.1568L3.37548 49.3572L8.11919 48.3013L8.29717 49.101L3.55347 50.1568ZM5.94849 49.1259L5.24372 49.2827L5.03104 48.3272C4.95461 47.9839 4.94924 47.6721 5.01491 47.392C5.07505 47.1083 5.20023 46.8718 5.39043 46.6825C5.57611 46.4942 5.82256 46.3658 6.12977 46.2974C6.42794 46.2311 6.7033 46.2433 6.95585 46.3341C7.20839 46.4248 7.42432 46.5854 7.60361 46.8158C7.77739 47.0426 7.90249 47.3277 7.97891 47.6711L8.19159 48.6266L7.48681 48.7835L7.27413 47.828C7.23391 47.6472 7.17161 47.4952 7.08723 47.3717C6.99732 47.2447 6.88735 47.1554 6.75731 47.1037C6.62275 47.0531 6.47189 47.0463 6.30474 47.0835C6.13306 47.1218 5.99929 47.1918 5.90344 47.2938C5.80308 47.3967 5.74137 47.5243 5.71833 47.6764C5.68977 47.825 5.69559 47.9896 5.73582 48.1704L5.94849 49.1259Z" fill="#B81B37"/>
<path d="M4.88468 35.4586L4.45222 35.3932C4.48823 35.1552 4.48667 34.949 4.44753 34.7746C4.40382 34.5994 4.33328 34.4624 4.23591 34.3634C4.13466 34.2591 4.01539 34.1966 3.87811 34.1758C3.74997 34.1564 3.63072 34.1712 3.52034 34.22C3.40609 34.2636 3.31181 34.3453 3.2375 34.4651C3.16389 34.5803 3.11288 34.7318 3.08449 34.9194C3.05748 35.0979 3.06299 35.2625 3.10102 35.4134C3.13516 35.559 3.19668 35.6783 3.28558 35.7713C3.37449 35.8644 3.48301 35.9206 3.61115 35.94L3.49584 36.7019C3.23042 36.6618 3.00707 36.5601 2.8258 36.3969C2.64522 36.2292 2.51677 36.0108 2.44045 35.7418C2.35955 35.4721 2.34542 35.1633 2.39805 34.8155C2.45137 34.4631 2.55623 34.1724 2.7126 33.9433C2.86898 33.7142 3.05526 33.5504 3.27143 33.4521C3.48371 33.3485 3.70884 33.3146 3.9468 33.3507C4.12985 33.3784 4.28962 33.4517 4.42609 33.5706C4.56257 33.6896 4.67256 33.8443 4.75608 34.0348C4.84028 34.2208 4.89413 34.4372 4.91761 34.6842C4.93721 34.9259 4.92623 35.1841 4.88468 35.4586ZM7.35998 35.5734C7.31219 35.8892 7.23403 36.1582 7.12549 36.3805C7.01238 36.6021 6.87735 36.783 6.7204 36.9231C6.55957 37.0579 6.38631 37.151 6.20064 37.2025C6.0104 37.2533 5.81688 37.2638 5.6201 37.234L5.74268 36.424C5.90035 36.4339 6.04262 36.4062 6.16949 36.3412C6.29179 36.2754 6.39639 36.1719 6.48331 36.0306C6.56635 35.884 6.62449 35.7008 6.65773 35.4812C6.70759 35.1517 6.67898 34.8922 6.57189 34.7028C6.4648 34.5134 6.29227 34.4007 6.0543 34.3647C5.88041 34.3384 5.72635 34.3666 5.59213 34.4492C5.45791 34.5319 5.34457 34.6622 5.25211 34.8402C5.16034 35.0135 5.09507 35.2283 5.05629 35.4846L4.59637 35.415C4.65524 35.026 4.75626 34.6832 4.89946 34.3866C5.03807 34.0892 5.21927 33.8662 5.44306 33.7175C5.66754 33.5642 5.94224 33.5122 6.26715 33.5614C6.53715 33.6022 6.76439 33.7092 6.94885 33.8822C7.13401 34.0506 7.26336 34.2785 7.33691 34.5658C7.41115 34.8486 7.41884 35.1844 7.35998 35.5734Z" fill="#B81B37"/>
<path d="M6.92346 30.6832L6.31715 30.3121L7.05396 28.1795L7.7623 28.2553L6.92346 30.6832ZM5.2254 28.7523L6.66244 30.0568L6.82851 30.1289L8.04567 31.2619L7.74414 32.1346L3.67022 28.215L9.29486 27.6462L8.99333 28.519L7.38026 28.6595L7.18316 28.6134L5.2254 28.7523Z" fill="#B81B37"/>
<path d="M5.77376 23.4559L6.18764 22.7249L10.4167 25.1192L10.0028 25.8502L5.77376 23.4559ZM7.07695 21.1541L7.56265 20.2962L8.53523 23.2003L11.843 22.5999L11.347 23.4759L8.06424 24.0745L7.07695 21.1541Z" fill="#B81B37"/>
<path d="M12.2183 19.7145L11.7826 19.1529L13.2266 17.4192L13.8623 17.7408L12.2183 19.7145ZM11.3137 17.3076L12.1959 19.0363L12.3257 19.1625L13.0629 20.653L12.472 21.3625L10.0494 16.2545L15.5112 17.7138L14.9202 18.4232L13.3619 17.9836L13.1939 17.8707L11.3137 17.3076Z" fill="#B81B37"/>
<path d="M16.4795 13.4435L16.1996 13.1075C16.3845 12.9534 16.5202 12.7982 16.6068 12.6418C16.6904 12.4818 16.7286 12.3325 16.7216 12.1938C16.7151 12.0486 16.6674 11.9227 16.5785 11.816C16.4956 11.7164 16.3966 11.6482 16.2817 11.6115C16.1673 11.5682 16.0426 11.5667 15.9075 11.6069C15.7759 11.6442 15.6372 11.7236 15.4914 11.8451C15.3527 11.9606 15.2475 12.0874 15.1757 12.2255C15.1046 12.357 15.0714 12.4871 15.0761 12.6157C15.0808 12.7443 15.1246 12.8583 15.2076 12.9579L14.6155 13.4511C14.4437 13.2449 14.3441 13.0205 14.3169 12.7782C14.2933 12.5328 14.3422 12.2842 14.4638 12.0324C14.5824 11.777 14.7768 11.5368 15.0471 11.3116C15.3209 11.0835 15.5923 10.9357 15.8614 10.8683C16.1305 10.8008 16.3785 10.802 16.6054 10.872C16.833 10.9354 17.0237 11.0596 17.1778 11.2446C17.2963 11.3868 17.367 11.5477 17.3901 11.7273C17.4132 11.9068 17.3927 12.0956 17.3287 12.2935C17.2682 12.4884 17.1647 12.6861 17.0183 12.8863C16.8725 13.0801 16.6929 13.2658 16.4795 13.4435ZM18.2542 15.1729C18.0089 15.3773 17.7718 15.5265 17.543 15.6207C17.3113 15.7113 17.0902 15.7569 16.8799 15.7574C16.6701 15.7515 16.4787 15.7061 16.3057 15.6213C16.1297 15.533 15.978 15.4124 15.8506 15.2594L16.4801 14.7351C16.5915 14.8471 16.7162 14.921 16.8543 14.9565C16.9894 14.9886 17.1363 14.9806 17.2952 14.9326C17.4546 14.8782 17.6197 14.7798 17.7904 14.6376C18.0464 14.4244 18.1973 14.2114 18.243 13.9986C18.2886 13.7859 18.2345 13.5871 18.0804 13.4021C17.9679 13.267 17.8339 13.1858 17.6787 13.1585C17.5234 13.1312 17.3522 13.1534 17.1649 13.225C16.9812 13.2937 16.7897 13.411 16.5906 13.5769L16.2929 13.2195C16.5952 12.9677 16.8983 12.7784 17.2023 12.6517C17.5034 12.5214 17.787 12.4749 18.0531 12.5123C18.3227 12.5468 18.5627 12.6902 18.773 12.9427C18.9477 13.1525 19.0467 13.3834 19.0697 13.6352C19.0963 13.8841 19.0417 14.1404 18.906 14.4041C18.7738 14.6648 18.5565 14.9211 18.2542 15.1729Z" fill="#B81B37"/>
<path d="M21.0921 11.2685L20.8829 10.5891L22.8464 9.47747L23.3274 10.0029L21.0921 11.2685ZM21.0963 8.69721L21.3108 10.6261L21.3876 10.79L21.5507 12.4449L20.7471 12.8998L20.2856 7.26537L24.8795 10.5602L24.076 11.0152L22.7735 10.0533L22.6562 9.88833L21.0963 8.69721Z" fill="#B81B37"/>
<path d="M24.8729 5.9566L24.6177 5.24418L27.8073 4.10176L28.0624 4.81417L26.8533 5.24727L28.2368 9.11001L27.4591 9.38859L26.0755 5.52585L24.8729 5.9566Z" fill="#B81B37"/>
<path d="M30.303 3.29358L31.1077 3.14009L32.0183 7.91382L31.2136 8.06731L30.303 3.29358ZM31.2604 5.71896L31.1251 5.00972L32.0867 4.82632C32.4322 4.76041 32.744 4.76456 33.022 4.83875C33.3037 4.90753 33.5362 5.03986 33.7197 5.23575C33.9022 5.4271 34.023 5.67735 34.082 5.9865C34.1392 6.28657 34.1186 6.56143 34.0201 6.81108C33.9217 7.06074 33.7546 7.27166 33.5189 7.44384C33.2868 7.61061 32.998 7.72694 32.6525 7.79285L31.6909 7.97625L31.5557 7.26701L32.5172 7.08361C32.6991 7.04892 32.853 6.99129 32.979 6.91072C33.1087 6.82474 33.2013 6.71754 33.2569 6.58914C33.3116 6.45619 33.323 6.30561 33.2909 6.13739C33.2579 5.96463 33.192 5.82879 33.093 5.72987C32.9932 5.6264 32.8676 5.56083 32.7162 5.53316C32.5686 5.50007 32.4038 5.50087 32.222 5.53556L31.2604 5.71896Z" fill="#B81B37"/>
<path d="M45.1965 5.06767L45.2768 4.63772C45.5134 4.68191 45.7195 4.68745 45.8952 4.65435C46.0718 4.61669 46.2112 4.55092 46.3135 4.45702C46.4212 4.35943 46.4877 4.24238 46.5132 4.10589C46.537 3.9785 46.5264 3.85881 46.4814 3.74682C46.4418 3.63113 46.3634 3.53409 46.2462 3.4557C46.1336 3.37816 45.984 3.32197 45.7975 3.28713C45.62 3.25399 45.4553 3.25382 45.3032 3.28662C45.1565 3.31572 45.0351 3.3731 44.9391 3.45875C44.843 3.54439 44.7831 3.65091 44.7593 3.7783L44.0018 3.63681C44.0511 3.37293 44.1604 3.15322 44.3297 2.97768C44.5036 2.80298 44.7263 2.68214 44.9978 2.61513C45.2701 2.54358 45.5792 2.54009 45.9249 2.60467C46.2753 2.67011 46.5622 2.78491 46.7858 2.94909C47.0094 3.11327 47.1666 3.30508 47.2575 3.52451C47.3537 3.74024 47.3797 3.9664 47.3356 4.20298C47.3016 4.38497 47.2228 4.54211 47.0992 4.6744C46.9756 4.8067 46.8172 4.9113 46.6239 4.9882C46.4351 5.06595 46.217 5.1123 45.9693 5.12726C45.7271 5.13852 45.4695 5.11865 45.1965 5.06767ZM44.9965 7.53754C44.6826 7.4789 44.4164 7.39152 44.198 7.27539C43.9804 7.1547 43.8043 7.01352 43.6697 6.85184C43.5405 6.68645 43.4534 6.51009 43.4083 6.32276C43.3641 6.13087 43.3603 5.93711 43.3968 5.74148L44.2021 5.89189C44.1869 6.04913 44.2096 6.19227 44.2702 6.3213C44.3317 6.44579 44.4316 6.55391 44.5698 6.64564C44.7135 6.73368 44.8945 6.7981 45.1129 6.83889C45.4405 6.90007 45.7007 6.88041 45.8937 6.77991C46.0867 6.67941 46.2053 6.51087 46.2495 6.27429C46.2818 6.1014 46.2589 5.94646 46.1809 5.80948C46.1029 5.67249 45.9766 5.55473 45.802 5.45619C45.6319 5.3585 45.4194 5.28587 45.1646 5.23828L45.2501 4.78104C45.6368 4.85327 45.9759 4.96605 46.2674 5.11938C46.5598 5.26815 46.7765 5.45693 46.9174 5.68571C47.0628 5.91534 47.1054 6.19167 47.045 6.51469C46.9949 6.78313 46.8802 7.00654 46.7009 7.18493C46.5262 7.36417 46.294 7.4856 46.0043 7.5492C45.7192 7.61366 45.3832 7.60977 44.9965 7.53754Z" fill="#B81B37"/>
<path d="M49.8616 7.25625L50.253 6.66282L52.3595 7.47131L52.2598 8.17669L49.8616 7.25625ZM51.8488 5.62443L50.4965 7.01655L50.4188 7.1801L49.2453 8.35825L48.3833 8.02739L52.4383 4.0883L52.8167 9.72895L51.9546 9.39809L51.8687 7.7812L51.9214 7.58577L51.8488 5.62443Z" fill="#B81B37"/>
<path d="M57.1142 6.34336L57.8311 6.78123L55.298 10.9286L54.5811 10.4908L57.1142 6.34336ZM59.3715 7.72209L60.2129 8.23594L57.2781 9.11178L57.7687 12.4376L56.9095 11.9129L56.42 8.61208L59.3715 7.72209Z" fill="#B81B37"/>
<path d="M60.6383 12.9036L61.214 12.4865L62.8994 13.9866L62.5572 14.6113L60.6383 12.9036ZM63.0736 12.0783L61.3169 12.9034L61.1865 13.029L59.6727 13.7171L58.9829 13.1032L64.1675 10.8492L62.5302 16.2603L61.8405 15.6464L62.3309 14.1033L62.4492 13.939L63.0736 12.0783Z" fill="#B81B37"/>
<path d="M66.7806 17.3815L67.1256 17.1128C67.2735 17.3027 67.4242 17.4434 67.5777 17.5351C67.7349 17.6238 67.8829 17.667 68.0217 17.6644C68.167 17.6627 68.2945 17.6192 68.404 17.5339C68.5063 17.4542 68.5776 17.3576 68.6181 17.2439C68.6652 17.131 68.6708 17.0064 68.6349 16.87C68.602 16.7373 68.5272 16.5961 68.4106 16.4464C68.2997 16.304 68.1764 16.1946 68.0407 16.1184C67.9116 16.043 67.7827 16.0056 67.654 16.006C67.5253 16.0065 67.4099 16.0466 67.3076 16.1262L66.8341 15.5183C67.0459 15.3533 67.2733 15.2612 67.5165 15.242C67.7625 15.2264 68.0093 15.2834 68.257 15.4132C68.5084 15.5401 68.7421 15.7423 68.9583 16.0198C69.1773 16.3009 69.3161 16.5771 69.3747 16.8482C69.4334 17.1193 69.424 17.3671 69.3466 17.5917C69.2757 17.817 69.1454 18.0036 68.9555 18.1515C68.8094 18.2653 68.6463 18.3308 68.4661 18.3479C68.2858 18.3651 68.0979 18.3384 67.9022 18.2679C67.7093 18.2011 67.5152 18.0912 67.3198 17.9383C67.131 17.7862 66.9512 17.6006 66.7806 17.3815ZM64.994 19.0987C64.7978 18.8467 64.6563 18.6049 64.5697 18.3731C64.4868 18.1386 64.4484 17.9161 64.4548 17.7059C64.4676 17.4964 64.5193 17.3066 64.6097 17.1364C64.7037 16.9634 64.8293 16.8158 64.9863 16.6935L65.4897 17.3398C65.3741 17.4475 65.2962 17.5697 65.2561 17.7065C65.2197 17.8405 65.2228 17.9877 65.2655 18.148C65.3148 18.3091 65.4076 18.4773 65.5442 18.6526C65.7489 18.9155 65.9569 19.0732 66.168 19.1259C66.3791 19.1785 66.5796 19.1309 66.7695 18.983C66.9083 18.8749 66.9938 18.7437 67.0262 18.5894C67.0586 18.4352 67.042 18.2633 66.9765 18.0737C66.9139 17.8879 66.8029 17.6927 66.6436 17.4882L67.0106 17.2024C67.2524 17.5127 67.4316 17.8219 67.5483 18.13C67.6687 18.4351 67.7058 18.7201 67.6597 18.9848C67.6165 19.2531 67.4652 19.4883 67.206 19.6902C66.9905 19.858 66.7566 19.9493 66.5041 19.9641C66.2544 19.9825 66.0001 19.9196 65.741 19.7752C65.4848 19.6346 65.2358 19.409 64.994 19.0987Z" fill="#B81B37"/>
<path d="M68.8233 22.1037L69.5093 21.9172L70.5551 23.9166L70.0139 24.3799L68.8233 22.1037ZM71.3931 22.1933L69.4581 22.3436L69.2917 22.415L67.6323 22.5229L67.2044 21.7047L72.851 21.4307L69.4053 25.9126L68.9773 25.0944L69.982 23.8246L70.1508 23.7128L71.3931 22.1933Z" fill="#B81B37"/>
<path d="M74.0023 26.0703L74.7229 25.8394L75.7566 29.0658L75.0359 29.2967L74.6441 28.0736L70.7366 29.3254L70.4846 28.5387L74.392 27.2868L74.0023 26.0703Z" fill="#B81B37"/>
<path d="M76.4897 31.6759L76.6154 32.4855L71.8131 33.231L71.6874 32.4215L76.4897 31.6759ZM74.0328 32.5492L74.7462 32.4384L74.8964 33.4057C74.9504 33.7533 74.9355 34.0648 74.8518 34.3401C74.7733 34.6192 74.6331 34.8471 74.431 35.0236C74.2335 35.1995 73.9792 35.3116 73.6682 35.3599C73.3663 35.4067 73.0923 35.3767 72.8462 35.2697C72.6001 35.1627 72.3951 34.9884 72.2311 34.7469C72.0724 34.5092 71.9661 34.2166 71.9122 33.869L71.762 32.9017L72.4755 32.791L72.6256 33.7583C72.654 33.9412 72.7063 34.097 72.7825 34.2257C72.864 34.3583 72.9679 34.4545 73.0943 34.5145C73.2253 34.5738 73.3754 34.5903 73.5446 34.5641C73.7184 34.5371 73.8565 34.4758 73.9587 34.3803C74.0656 34.2841 74.1354 34.1609 74.1683 34.0106C74.2065 33.8641 74.2113 33.6994 74.1829 33.5165L74.0328 32.5492Z" fill="#B81B37"/>
</svg>
