<svg width="12" height="11" viewBox="0 0 12 11" fill="none" xmlns="http://www.w3.org/2000/svg">
<path d="M11.8047 5.01389L7.13805 0.201353C6.87771 -0.0671177 6.45571 -0.0671177 6.19538 0.201353C5.93504 0.469824 5.93504 0.905015 6.19538 1.17349L9.72407 4.81245L0.666671 4.81245C0.298669 4.81245 0 5.12045 0 5.49996C0 5.87946 0.298669 6.18746 0.666671 6.18746L9.72407 6.18746L6.19538 9.82643C5.93504 10.0949 5.93504 10.5301 6.19538 10.7986C6.32571 10.933 6.49605 11 6.66671 11C6.83738 11 7.00771 10.933 7.13805 10.7986L11.8047 5.98602C12.0651 5.71755 12.0651 5.28236 11.8047 5.01389Z" fill="#231F20"/>
</svg>
