<svg width="12" height="12" viewBox="0 0 12 12" fill="none" xmlns="http://www.w3.org/2000/svg">
<path d="M11.8047 5.16038L7.13805 0.347838C6.87771 0.0793667 6.45571 0.0793667 6.19538 0.347838C5.93504 0.616308 5.93504 1.0515 6.19538 1.31997L9.72407 4.95894L0.666671 4.95894C0.298669 4.95894 0 5.26694 0 5.64644C0 6.02594 0.298669 6.33395 0.666671 6.33395L9.72407 6.33395L6.19538 9.97291C5.93504 10.2414 5.93504 10.6766 6.19538 10.945C6.32571 11.0795 6.49605 11.1465 6.66671 11.1465C6.83738 11.1465 7.00771 11.0795 7.13805 10.945L11.8047 6.13251C12.0651 5.86404 12.0651 5.42885 11.8047 5.16038Z" fill="white"/>
</svg>
