<svg width="22" height="22" viewBox="0 0 22 22" fill="none" xmlns="http://www.w3.org/2000/svg">
<g opacity="0.4">
<path fill-rule="evenodd" clip-rule="evenodd" d="M10.084 5.5H11.9173V10.6203L15.3155 14.0185L14.0191 15.3148L10.084 11.3797V5.5Z" fill="#2B3646" style="fill:#2B3646;fill:color(display-p3 0.1686 0.2118 0.2745);fill-opacity:1;"/>
<path fill-rule="evenodd" clip-rule="evenodd" d="M11.0007 3.66659C6.95056 3.66659 3.66732 6.94983 3.66732 10.9999C3.66732 15.05 6.95056 18.3333 11.0007 18.3333C15.0507 18.3333 18.334 15.05 18.334 10.9999C18.334 6.94983 15.0507 3.66659 11.0007 3.66659ZM1.83398 10.9999C1.83398 5.93731 5.93804 1.83325 11.0007 1.83325C16.0633 1.83325 20.1673 5.93731 20.1673 10.9999C20.1673 16.0625 16.0633 20.1666 11.0007 20.1666C5.93804 20.1666 1.83398 16.0625 1.83398 10.9999Z" fill="#2B3646" style="fill:#2B3646;fill:color(display-p3 0.1686 0.2118 0.2745);fill-opacity:1;"/>
</g>
</svg>
