<svg width="10" height="10" viewBox="0 0 10 10" fill="none" xmlns="http://www.w3.org/2000/svg">
<path d="M8.42284 0.101192C8.28966 -0.0338934 8.07398 -0.0338934 7.94079 0.101192L4.99989 3.08413L2.0592 0.101192C1.92602 -0.0338934 1.71034 -0.0338934 1.57716 0.101192L0.0998864 1.59958C-0.0332955 1.73466 -0.0332955 1.95343 0.0998864 2.08851L2.97023 4.99988L0.0998864 7.91124C-0.0332955 8.04633 -0.0332955 8.26509 0.0998864 8.40018L1.57716 9.89856C1.71034 10.0336 1.92602 10.0336 2.0592 9.89856L4.99989 6.91562L7.94079 9.89856C8.07398 10.0336 8.28966 10.0336 8.42284 9.89856L9.90011 8.39995C10.0333 8.26486 10.0333 8.0461 9.90011 7.91101L7.03 4.99988L9.90011 2.08874C10.0333 1.95366 10.0333 1.73489 9.90011 1.59981L8.42284 0.101192Z" fill="#25344F"/>
</svg>
