<svg width="24" height="23" viewBox="0 0 24 23" fill="none" xmlns="http://www.w3.org/2000/svg">
<path d="M8.26015 3.34766C5.36345 3.34766 3 5.71111 3 8.6078C3 10.5666 4.4765 12.4108 6.27638 14.3023C8.07627 16.1937 10.2917 18.1093 12.0568 19.8743C12.1913 20.0088 12.3737 20.0844 12.5639 20.0844C12.7541 20.0844 12.9365 20.0088 13.0711 19.8743C14.8361 18.1093 17.0515 16.1937 18.8514 14.3023C20.6513 12.4108 22.1278 10.5666 22.1278 8.6078C22.1278 5.71111 19.7644 3.34766 16.8677 3.34766C15.2052 3.34766 13.7579 4.2402 12.5639 5.75638C11.3699 4.2402 9.92256 3.34766 8.26015 3.34766ZM8.26015 4.78224C9.66058 4.78224 10.8263 5.52746 11.9578 7.31705C12.0225 7.41927 12.112 7.50347 12.2179 7.56182C12.3239 7.62016 12.4429 7.65076 12.5639 7.65076C12.6849 7.65076 12.8039 7.62016 12.9099 7.56182C13.0159 7.50347 13.1054 7.41927 13.1701 7.31705C14.3015 5.52746 15.4672 4.78224 16.8677 4.78224C18.9891 4.78224 20.6932 6.48632 20.6932 8.6078C20.6932 9.75731 19.5396 11.4995 17.8128 13.3141C16.2382 14.9689 14.2808 16.6977 12.5639 18.3716C10.847 16.6977 8.88965 14.9689 7.31497 13.3141C5.58816 11.4995 4.43459 9.75731 4.43459 8.6078C4.43459 6.48632 6.13866 4.78224 8.26015 4.78224Z" fill="#B81B37"/>
<path d="M8.26015 4.78224C9.66058 4.78224 10.8263 5.52746 11.9578 7.31705C12.0225 7.41927 12.112 7.50347 12.2179 7.56182C12.3239 7.62016 12.4429 7.65076 12.5639 7.65076C12.6849 7.65076 12.8039 7.62016 12.9099 7.56182C13.0159 7.50347 13.1054 7.41927 13.1701 7.31705C14.3015 5.52746 15.4672 4.78224 16.8677 4.78224C18.9891 4.78224 20.6932 6.48632 20.6932 8.6078C20.6932 9.75731 19.5396 11.4995 17.8128 13.3141C16.2382 14.9689 14.2808 16.6977 12.5639 18.3716C10.847 16.6977 8.88965 14.9689 7.31497 13.3141C5.58816 11.4995 4.43459 9.75731 4.43459 8.6078C4.43459 6.48632 6.13866 4.78224 8.26015 4.78224Z" fill="#B81B37"/>
<path fill-rule="evenodd" clip-rule="evenodd" d="M11.5353 7.58446L11.5351 7.58425C10.4558 5.87715 9.42637 5.28224 8.26015 5.28224C6.4148 5.28224 4.93459 6.76246 4.93459 8.6078C4.93459 9.03824 5.16038 9.66191 5.65112 10.4464C6.13186 11.2149 6.8282 12.0773 7.67717 12.9694C8.6544 13.9963 9.76727 15.0397 10.8895 16.0918C11.4505 16.6178 12.014 17.1461 12.5639 17.6755C13.1139 17.146 13.6773 16.6178 14.2383 16.0918C15.3605 15.0397 16.4734 13.9963 17.4506 12.9694C18.2996 12.0773 18.9959 11.2149 19.4767 10.4464C19.9674 9.66191 20.1932 9.03824 20.1932 8.6078C20.1932 6.76246 18.713 5.28224 16.8677 5.28224C15.7014 5.28224 14.672 5.87715 13.5927 7.58425L13.5925 7.58446C13.4827 7.75793 13.3309 7.90082 13.151 7.99983C12.9712 8.09884 12.7692 8.15076 12.5639 8.15076C12.3586 8.15076 12.1566 8.09884 11.9768 7.99983C11.797 7.90082 11.6451 7.75793 11.5353 7.58446ZM11.8914 4.99653C10.8394 3.94655 9.6219 3.34766 8.26015 3.34766C5.36345 3.34766 3 5.71111 3 8.6078C3 10.5666 4.4765 12.4108 6.27638 14.3023C7.30934 15.3877 8.47916 16.4812 9.62217 17.5496C10.4708 18.3428 11.3047 19.1223 12.0568 19.8743C12.1913 20.0088 12.3737 20.0844 12.5639 20.0844C12.7541 20.0844 12.9365 20.0088 13.0711 19.8743C13.8231 19.1223 14.657 18.3429 15.5056 17.5496L15.5056 17.5496L15.5057 17.5496C16.6487 16.4812 17.8185 15.3877 18.8514 14.3023C20.6513 12.4108 22.1278 10.5666 22.1278 8.6078C22.1278 5.71111 19.7644 3.34766 16.8677 3.34766C15.5059 3.34766 14.2884 3.94655 13.2364 4.99653C13.0041 5.22835 12.7798 5.48217 12.5639 5.75638C12.348 5.48217 12.1237 5.22835 11.8914 4.99653Z" fill="white"/>
</svg>
