<svg width="138" height="38" viewBox="0 0 138 38" fill="none" xmlns="http://www.w3.org/2000/svg">
<path d="M137.228 19.2143C137.228 29.4941 128.796 37.8276 118.396 37.8276H18.8325C8.43158 37.8276 0 29.4941 0 19.2143C0 8.93438 8.43159 0.600881 18.8325 0.600881H118.396C128.797 0.600881 137.228 8.93438 137.228 19.2143Z" fill="#B81B37"/>
<path d="M13.5353 8.67758C13.2844 8.93405 13.1392 9.33334 13.1392 9.85044V28.295C13.1392 28.8121 13.2844 29.2114 13.5353 29.4679L13.5972 29.5242L24.1834 19.1926V18.9487L13.5972 8.61712L13.5353 8.67758Z" fill="url(#paint0_linear_154_2886)"/>
<path d="M27.7079 22.6379L24.1831 19.1924V18.9484L27.7122 15.5028L27.7912 15.5476L31.9706 17.8694C33.1633 18.5283 33.1633 19.6125 31.9706 20.2755L27.7912 22.5931L27.7079 22.6379Z" fill="url(#paint1_linear_154_2886)"/>
<path d="M27.7909 22.5933L24.1828 19.0706L13.5347 29.4678C13.9308 29.8744 14.5768 29.9234 15.3115 29.5168L27.7909 22.5933Z" fill="url(#paint2_linear_154_2886)"/>
<path d="M27.7909 15.5481L15.3115 8.62458C14.5768 8.22216 13.9308 8.27115 13.5347 8.67774L24.1828 19.0708L27.7909 15.5481Z" fill="url(#paint3_linear_154_2886)"/>
<path d="M62.5985 20.3307C60.6297 20.3307 59.0214 21.7936 59.0214 23.8119C59.0214 25.8139 60.6297 27.2921 62.5985 27.2921C64.5714 27.2921 66.1797 25.8139 66.1797 23.8119C66.1797 21.7936 64.5714 20.3307 62.5985 20.3307ZM62.5985 25.9213C61.5182 25.9213 60.5889 25.0507 60.5889 23.8119C60.5889 22.5567 61.5182 21.7015 62.5985 21.7015C63.6787 21.7015 64.6123 22.5567 64.6123 23.8119C64.6123 25.0507 63.6787 25.9213 62.5985 25.9213ZM54.7937 20.3307C52.8208 20.3307 51.2166 21.7936 51.2166 23.8119C51.2166 25.8139 52.8208 27.2921 54.7937 27.2921C56.7656 27.2921 58.3707 25.8139 58.3707 23.8119C58.3707 21.7936 56.7656 20.3307 54.7937 20.3307ZM54.7937 25.9213C53.7124 25.9213 52.7799 25.0507 52.7799 23.8119C52.7799 22.5567 53.7124 21.7015 54.7937 21.7015C55.8739 21.7015 56.8033 22.5567 56.8033 23.8119C56.8033 25.0507 55.8739 25.9213 54.7937 25.9213ZM45.5063 21.3977V22.8769H49.1243C49.0184 23.7035 48.7355 24.3111 48.3018 24.7346C47.7737 25.2461 46.9512 25.8139 45.5063 25.8139C43.2799 25.8139 41.5364 24.0595 41.5364 21.8856C41.5364 19.7118 43.2799 17.9574 45.5063 17.9574C46.7102 17.9574 47.5862 18.4167 48.2326 19.0121L49.3003 17.9697C48.3961 17.1268 47.1932 16.4792 45.5063 16.4792C42.4532 16.4792 39.8872 18.9047 39.8872 21.8856C39.8872 24.8666 42.4532 27.2921 45.5063 27.2921C47.1566 27.2921 48.3961 26.7642 49.3705 25.774C50.369 24.7991 50.6802 23.4283 50.6802 22.3214C50.6802 21.9777 50.6509 21.6616 50.5985 21.3977H45.5063ZM83.4835 22.5444C83.1891 21.766 82.2806 20.3307 80.4303 20.3307C78.5967 20.3307 77.0701 21.7414 77.0701 23.8119C77.0701 25.7617 78.581 27.2921 80.6063 27.2921C82.244 27.2921 83.1891 26.3172 83.5778 25.7494L82.3624 24.9587C81.9569 25.5377 81.4047 25.9213 80.6063 25.9213C79.8132 25.9213 79.2442 25.5663 78.8796 24.8666L83.648 22.9403L83.4835 22.5444ZM78.6219 23.7035C78.581 22.3613 79.6895 21.6739 80.4837 21.6739C81.1061 21.6739 81.6342 21.9777 81.8102 22.4125L78.6219 23.7035ZM74.7462 27.0803H76.3136V16.8506H74.7462V27.0803ZM72.1792 21.1061H72.1268C71.7747 20.699 71.1031 20.3307 70.2524 20.3307C68.467 20.3307 66.8346 21.8611 66.8346 23.8232C66.8346 25.774 68.467 27.2921 70.2524 27.2921C71.1031 27.2921 71.7747 26.9207 72.1268 26.5013H72.1792V27.0005C72.1792 28.3314 71.451 29.0465 70.2765 29.0465C69.3188 29.0465 68.7247 28.3713 68.4795 27.8035L67.1164 28.359C67.5093 29.2817 68.5497 30.4172 70.2765 30.4172C72.1142 30.4172 73.6649 29.3615 73.6649 26.7928V20.5425H72.1792V21.1061ZM70.3865 25.9213C69.3062 25.9213 68.402 25.0384 68.402 23.8232C68.402 22.5966 69.3062 21.7015 70.3865 21.7015C71.451 21.7015 72.2903 22.5966 72.2903 23.8232C72.2903 25.0384 71.451 25.9213 70.3865 25.9213ZM90.822 16.8506H87.0731V27.0803H88.6364V23.2043H90.822C92.5581 23.2043 94.2607 21.9777 94.2607 20.0269C94.2607 18.0771 92.5539 16.8506 90.822 16.8506ZM90.8629 21.7813H88.6364V18.2735H90.8629C92.0301 18.2735 92.6964 19.2198 92.6964 20.0269C92.6964 20.8187 92.0301 21.7813 90.8629 21.7813ZM100.526 20.3113C99.3969 20.3113 98.2223 20.7982 97.7393 21.8775L99.1265 22.4452C99.4252 21.8775 99.9742 21.6933 100.555 21.6933C101.366 21.6933 102.188 22.169 102.201 23.0089V23.1163C101.918 22.9567 101.312 22.7204 100.567 22.7204C99.0731 22.7204 97.5507 23.5234 97.5507 25.0221C97.5507 26.3929 98.7745 27.2757 100.15 27.2757C101.202 27.2757 101.783 26.8123 102.147 26.2732H102.201V27.0639H103.71V23.1398C103.71 21.3261 102.323 20.3113 100.526 20.3113ZM100.338 25.9172C99.8264 25.9172 99.114 25.6696 99.114 25.0507C99.114 24.2589 100.002 23.9551 100.772 23.9551C101.46 23.9551 101.783 24.1034 102.201 24.2988C102.078 25.2461 101.243 25.9172 100.338 25.9172ZM109.211 20.5353L107.414 24.9699H107.361L105.503 20.5353H103.817L106.609 26.7325L105.016 30.1809H106.649L110.951 20.5353H109.211ZM95.1199 27.0803H96.6874V16.8506H95.1199V27.0803Z" fill="white"/>
<path d="M43.9765 12.782H44.6847C44.6478 13.1213 44.5507 13.425 44.3933 13.6931C44.2359 13.9611 44.0134 14.1738 43.7257 14.3312C43.438 14.4861 43.0789 14.5636 42.6486 14.5636C42.3338 14.5636 42.0474 14.5045 41.7891 14.3865C41.5334 14.2685 41.3133 14.1013 41.1289 13.8849C40.9445 13.666 40.8018 13.4041 40.701 13.0992C40.6026 12.7918 40.5535 12.45 40.5535 12.0738V11.5389C40.5535 11.1627 40.6026 10.8221 40.701 10.5172C40.8018 10.2098 40.9457 9.94666 41.1326 9.7278C41.3219 9.50895 41.5494 9.3405 41.815 9.22247C42.0805 9.10443 42.3793 9.04541 42.7113 9.04541C43.117 9.04541 43.4601 9.12164 43.7404 9.27411C44.0208 9.42657 44.2384 9.63805 44.3933 9.90855C44.5507 10.1766 44.6478 10.4877 44.6847 10.8418H43.9765C43.9421 10.5909 43.8781 10.3758 43.7847 10.1963C43.6912 10.0143 43.5585 9.87412 43.3863 9.77576C43.2142 9.67739 42.9892 9.62821 42.7113 9.62821C42.4728 9.62821 42.2625 9.6737 42.0805 9.76469C41.901 9.85568 41.7498 9.98478 41.6269 10.152C41.5064 10.3192 41.4154 10.5196 41.3539 10.7532C41.2924 10.9868 41.2617 11.2463 41.2617 11.5315V12.0738C41.2617 12.3369 41.2887 12.584 41.3428 12.8152C41.3994 13.0463 41.4842 13.2492 41.5973 13.4238C41.7105 13.5984 41.8543 13.7361 42.0289 13.8369C42.2035 13.9353 42.4101 13.9845 42.6486 13.9845C42.9511 13.9845 43.192 13.9365 43.3716 13.8406C43.5511 13.7447 43.6863 13.607 43.7773 13.4275C43.8708 13.248 43.9371 13.0328 43.9765 12.782Z" fill="white"/>
<path d="M46.3999 9.11918V14.4898H45.688V9.11918H46.3999ZM49.7086 9.11918L47.3774 12.0738H46.1159L46.0052 11.4836H46.9532L48.827 9.11918H49.7086ZM48.993 14.4898L46.9753 11.9815L47.3737 11.3582L49.8635 14.4898H48.993Z" fill="white"/>
<path d="M52.4972 9.59501L50.7193 14.4898H49.9926L52.0398 9.11918H52.5082L52.4972 9.59501ZM53.9874 14.4898L52.2058 9.59501L52.1947 9.11918H52.6632L54.7177 14.4898H53.9874ZM53.8952 12.5016V13.0844H50.8779V12.5016H53.8952Z" fill="white"/>
<path d="M55.164 9.11918H55.8759V10.7975C55.8759 11.0754 55.9165 11.293 55.9977 11.4504C56.0788 11.6078 56.2018 11.7184 56.3665 11.7824C56.5313 11.8463 56.7366 11.8783 56.9825 11.8783C57.1301 11.8783 57.2727 11.8721 57.4104 11.8598C57.5506 11.8475 57.687 11.8303 57.8198 11.8082C57.9526 11.786 58.0829 11.759 58.2108 11.727C58.3411 11.6951 58.469 11.6606 58.5944 11.6237V12.2065C58.4739 12.2434 58.3534 12.2779 58.233 12.3098C58.1149 12.3418 57.992 12.3688 57.8641 12.391C57.7387 12.4131 57.6034 12.4303 57.4583 12.4426C57.3157 12.4549 57.1571 12.4611 56.9825 12.4611C56.6038 12.4611 56.278 12.407 56.005 12.2988C55.7345 12.1881 55.5267 12.0111 55.3817 11.7676C55.2366 11.5242 55.164 11.2008 55.164 10.7975V9.11918ZM58.4137 9.11918H59.1256V14.4898H58.4137V9.11918Z" fill="white"/>
<path d="M62.4564 9.59501L60.6785 14.4898H59.9518L61.999 9.11918H62.4675L62.4564 9.59501ZM63.9466 14.4898L62.165 9.59501L62.1539 9.11918H62.6224L64.6769 14.4898H63.9466ZM63.8544 12.5016V13.0844H60.8371V12.5016H63.8544Z" fill="white"/>
<path d="M66.1376 13.2578L68.7824 9.11918H69.4943V14.4898H68.7824V10.3475L66.1376 14.4898H65.4294V9.11918H66.1376V13.2578ZM68.0262 7.7876H68.5795C68.5795 7.97941 68.5352 8.15031 68.4467 8.30031C68.3582 8.44786 68.2315 8.56343 68.0668 8.64704C67.902 8.73065 67.7065 8.77246 67.4803 8.77246C67.1385 8.77246 66.868 8.68147 66.6688 8.4995C66.4721 8.31507 66.3737 8.07777 66.3737 7.7876H66.927C66.927 7.93268 66.9688 8.06055 67.0524 8.17121C67.136 8.28187 67.2786 8.3372 67.4803 8.3372C67.677 8.3372 67.8172 8.28187 67.9008 8.17121C67.9844 8.06055 68.0262 7.93268 68.0262 7.7876Z" fill="white"/>
<path d="M72.7734 9.11918V14.4898H72.0726V9.11918H72.7734ZM74.4997 9.11918V9.70198H70.35V9.11918H74.4997Z" fill="white"/>
<path d="M78.7084 13.9107V14.4898H75.8645V13.9107H78.7084ZM76.0083 9.11918V14.4898H75.2964V9.11918H76.0083ZM78.3322 11.4283V12.0074H75.8645V11.4283H78.3322ZM78.6715 9.11918V9.70198H75.8645V9.11918H78.6715Z" fill="white"/>
<path d="M83.3782 11.9779H82.0171L82.0097 11.4061H83.2454C83.4495 11.4061 83.6278 11.3717 83.7802 11.3028C83.9327 11.234 84.0507 11.1356 84.1343 11.0078C84.2204 10.8774 84.2634 10.7225 84.2634 10.543C84.2634 10.3463 84.2253 10.1864 84.1491 10.0635C84.0753 9.93805 83.961 9.84707 83.806 9.79051C83.6536 9.73149 83.4593 9.70198 83.2232 9.70198H82.1757V14.4898H81.4638V9.11918H83.2232C83.4987 9.11918 83.7446 9.14746 83.961 9.20402C84.1774 9.25812 84.3606 9.34419 84.5106 9.46222C84.663 9.5778 84.7786 9.72535 84.8573 9.90486C84.936 10.0844 84.9753 10.2995 84.9753 10.5504C84.9753 10.7717 84.9188 10.9721 84.8057 11.1516C84.6925 11.3287 84.5352 11.4737 84.3335 11.5869C84.1343 11.7 83.9007 11.7725 83.6327 11.8045L83.3782 11.9779ZM83.345 14.4898H81.7367L82.1388 13.9107H83.345C83.5712 13.9107 83.763 13.8713 83.9204 13.7926C84.0802 13.714 84.202 13.6033 84.2856 13.4607C84.3692 13.3156 84.411 13.1447 84.411 12.948C84.411 12.7488 84.3753 12.5766 84.304 12.4316C84.2327 12.2865 84.1208 12.1746 83.9683 12.0959C83.8159 12.0172 83.6192 11.9779 83.3782 11.9779H82.3638L82.3712 11.4061H83.7581L83.9093 11.6127C84.1675 11.6348 84.3864 11.7086 84.5659 11.834C84.7454 11.957 84.8819 12.1143 84.9753 12.3061C85.0712 12.4979 85.1192 12.7094 85.1192 12.9406C85.1192 13.275 85.0454 13.5578 84.8979 13.789C84.7528 14.0177 84.5475 14.1922 84.2819 14.3127C84.0163 14.4308 83.704 14.4898 83.345 14.4898Z" fill="white"/>
<defs>
<linearGradient id="paint0_linear_154_2886" x1="23.2435" y1="28.4871" x2="9.25047" y2="14.155" gradientUnits="userSpaceOnUse">
<stop stop-color="#00A0FF"/>
<stop offset="0.0066" stop-color="#00A1FF"/>
<stop offset="0.2601" stop-color="#00BEFF"/>
<stop offset="0.5122" stop-color="#00D2FF"/>
<stop offset="0.7604" stop-color="#00DFFF"/>
<stop offset="1" stop-color="#00E3FF"/>
</linearGradient>
<linearGradient id="paint1_linear_154_2886" x1="33.5237" y1="19.0692" x2="12.8538" y2="19.0692" gradientUnits="userSpaceOnUse">
<stop stop-color="#FFE000"/>
<stop offset="0.4087" stop-color="#FFBD00"/>
<stop offset="0.7754" stop-color="#FFA500"/>
<stop offset="1" stop-color="#FF9C00"/>
</linearGradient>
<linearGradient id="paint2_linear_154_2886" x1="25.8289" y1="17.1555" x2="6.85322" y2="-2.27992" gradientUnits="userSpaceOnUse">
<stop stop-color="#FA2832"/>
<stop offset="1" stop-color="#AC1258"/>
</linearGradient>
<linearGradient id="paint3_linear_154_2886" x1="10.8543" y1="35.6045" x2="19.3278" y2="26.9257" gradientUnits="userSpaceOnUse">
<stop stop-color="#32A071"/>
<stop offset="0.0685" stop-color="#2DA771"/>
<stop offset="0.4762" stop-color="#15CF74"/>
<stop offset="0.8009" stop-color="#06E775"/>
<stop offset="1" stop-color="#00F076"/>
</linearGradient>
</defs>
</svg>
