<svg width="25" height="27" viewBox="0 0 25 27" fill="none" xmlns="http://www.w3.org/2000/svg">
<path d="M12.2491 0.52002C9.37086 0.52002 7.04914 2.84174 7.04914 5.72002V6.76002H2.93789L2.88914 7.21502L0.809141 25.415L0.744141 26H23.7541L23.6891 25.415L21.6091 7.21502L21.5604 6.76002H17.4491V5.72002C17.4491 2.84174 15.1274 0.52002 12.2491 0.52002ZM12.2491 1.56002C14.5709 1.56002 16.4091 3.3983 16.4091 5.72002V6.76002H8.08914V5.72002C8.08914 3.3983 9.92742 1.56002 12.2491 1.56002ZM3.88039 7.80002H7.04914V8.98627C6.73836 9.16705 6.52914 9.49611 6.52914 9.88002C6.52914 10.4549 6.9943 10.92 7.56914 10.92C8.14398 10.92 8.60914 10.4549 8.60914 9.88002C8.60914 9.49611 8.39992 9.16705 8.08914 8.98627V7.80002H16.4091V8.98627C16.0984 9.16705 15.8891 9.49611 15.8891 9.88002C15.8891 10.4549 16.3543 10.92 16.9291 10.92C17.504 10.92 17.9691 10.4549 17.9691 9.88002C17.9691 9.49611 17.7599 9.16705 17.4491 8.98627V7.80002H20.6179L22.5841 24.96H1.91414L3.88039 7.80002Z" fill="#231F20" stroke="#231F20" stroke-width="0.5"/>
</svg>
