<svg width="25" height="27" viewBox="0 0 25 27" fill="none" xmlns="http://www.w3.org/2000/svg">
<path d="M12.505 1C9.62672 1 7.305 3.32172 7.305 6.2V7.24H3.19375L3.145 7.695L1.065 25.895L1 26.48H24.01L23.945 25.895L21.865 7.695L21.8162 7.24H17.705V6.2C17.705 3.32172 15.3833 1 12.505 1ZM12.505 2.04C14.8267 2.04 16.665 3.87828 16.665 6.2V7.24H8.345V6.2C8.345 3.87828 10.1833 2.04 12.505 2.04ZM4.13625 8.28H7.305V9.46625C6.99422 9.64703 6.785 9.97609 6.785 10.36C6.785 10.9348 7.25016 11.4 7.825 11.4C8.39984 11.4 8.865 10.9348 8.865 10.36C8.865 9.97609 8.65578 9.64703 8.345 9.46625V8.28H16.665V9.46625C16.3542 9.64703 16.145 9.97609 16.145 10.36C16.145 10.9348 16.6102 11.4 17.185 11.4C17.7598 11.4 18.225 10.9348 18.225 10.36C18.225 9.97609 18.0158 9.64703 17.705 9.46625V8.28H20.8737L22.84 25.44H2.17L4.13625 8.28Z" fill="#B81B37" stroke="#B81B37" stroke-width="0.5"/>
</svg>
