<svg width="28" height="28" viewBox="0 0 28 28" fill="none" xmlns="http://www.w3.org/2000/svg">
<path d="M8.74967 4.08325C5.2161 4.08325 2.33301 6.96634 2.33301 10.4999C2.33301 12.8893 4.13413 15.1391 6.32975 17.4464C8.52537 19.7536 11.2279 22.0904 13.381 24.2436C13.5451 24.4076 13.7677 24.4998 13.9997 24.4998C14.2317 24.4998 14.4542 24.4076 14.6183 24.2436C16.7715 22.0904 19.474 19.7536 21.6696 17.4464C23.8652 15.1391 25.6663 12.8893 25.6663 10.4999C25.6663 6.96634 22.7833 4.08325 19.2497 4.08325C17.2218 4.08325 15.4562 5.17204 13.9997 7.02157C12.5432 5.17204 10.7776 4.08325 8.74967 4.08325ZM8.74967 5.83325C10.458 5.83325 11.88 6.74232 13.2603 8.92537C13.3392 9.05007 13.4484 9.15278 13.5776 9.22396C13.7069 9.29513 13.8521 9.33245 13.9997 9.33245C14.1473 9.33245 14.2924 9.29513 14.4217 9.22396C14.551 9.15278 14.6602 9.05007 14.7391 8.92537C16.1193 6.74232 17.5413 5.83325 19.2497 5.83325C21.8376 5.83325 23.9163 7.91199 23.9163 10.4999C23.9163 11.9022 22.5091 14.0274 20.4027 16.241C18.4818 18.2595 16.094 20.3684 13.9997 22.4104C11.9053 20.3684 9.51758 18.2595 7.59668 16.241C5.49022 14.0274 4.08301 11.9022 4.08301 10.4999C4.08301 7.91199 6.16175 5.83325 8.74967 5.83325Z" fill="#B81B37"/>
</svg>
