<svg width="22" height="22" viewBox="0 0 22 22" fill="none" xmlns="http://www.w3.org/2000/svg">
<path d="M11.0007 1.83334C5.94618 1.83334 1.83398 5.94554 1.83398 11C1.83398 16.0545 5.94618 20.1667 11.0007 20.1667C16.0551 20.1667 20.1673 16.0545 20.1673 11C20.1673 5.94554 16.0551 1.83334 11.0007 1.83334ZM11.0007 3.20834C15.312 3.20834 18.7923 6.68865 18.7923 11C18.7923 15.3114 15.312 18.7917 11.0007 18.7917C6.68929 18.7917 3.20898 15.3114 3.20898 11C3.20898 6.68865 6.68929 3.20834 11.0007 3.20834ZM11.0007 6.41668C10.7575 6.41668 10.5244 6.51325 10.3525 6.68516C10.1806 6.85707 10.084 7.09023 10.084 7.33334C10.084 7.57646 10.1806 7.80962 10.3525 7.98152C10.5244 8.15343 10.7575 8.25001 11.0007 8.25001C11.2438 8.25001 11.4769 8.15343 11.6488 7.98152C11.8207 7.80962 11.9173 7.57646 11.9173 7.33334C11.9173 7.09023 11.8207 6.85707 11.6488 6.68516C11.4769 6.51325 11.2438 6.41668 11.0007 6.41668ZM10.9899 9.61516C10.8077 9.61801 10.6341 9.69305 10.5072 9.8238C10.3803 9.95456 10.3105 10.1303 10.3132 10.3125V15.3542C10.3119 15.4453 10.3287 15.5357 10.3627 15.6203C10.3966 15.7048 10.4471 15.7818 10.511 15.8466C10.575 15.9115 10.6512 15.963 10.7353 15.9982C10.8193 16.0334 10.9095 16.0515 11.0007 16.0515C11.0918 16.0515 11.182 16.0334 11.266 15.9982C11.3501 15.963 11.4263 15.9115 11.4903 15.8466C11.5542 15.7818 11.6047 15.7048 11.6386 15.6203C11.6726 15.5357 11.6894 15.4453 11.6882 15.3542V10.3125C11.6895 10.2205 11.6723 10.1291 11.6377 10.0439C11.603 9.95862 11.5516 9.88118 11.4865 9.81615C11.4214 9.75112 11.3439 9.69982 11.2586 9.6653C11.1733 9.63077 11.0819 9.61373 10.9899 9.61516Z" fill="#2B3646" style="fill:#2B3646;fill:color(display-p3 0.1686 0.2118 0.2745);fill-opacity:1;"/>
</svg>
