<svg width="32" height="32" viewBox="0 0 32 32" fill="none" xmlns="http://www.w3.org/2000/svg">
<path d="M16 3C14.0833 3 12.5186 3.75476 11.502 4.89844C10.4853 6.04212 10 7.52778 10 9C10 10.4722 10.4853 11.9579 11.502 13.1016C12.5186 14.2452 14.0833 15 16 15C19.3019 15 22 12.3019 22 9C22 5.69814 19.3019 3 16 3ZM16 5C18.221 5 20 6.77902 20 9C20 11.221 18.221 13 16 13C14.5833 13 13.6481 12.5048 12.998 11.7734C12.348 11.0421 12 10.0278 12 9C12 7.97222 12.348 6.95788 12.998 6.22656C13.6481 5.49524 14.5833 5 16 5ZM15.998 16.957C13.6409 16.957 10.8129 17.5757 8.46289 18.5996C7.28789 19.1116 6.23248 19.7225 5.41797 20.4707C4.60345 21.2189 3.98633 22.1651 3.98633 23.2773C3.98633 25.1071 5.17533 26.5813 6.68359 27.2891C8.76711 28.2672 11.9391 28.8328 15.3574 28.9082C18.7757 28.9836 22.4072 28.5528 25.3027 27.2832C26.8523 26.6043 28.013 25.0938 28.0117 23.2773C28.0117 22.1651 27.3946 21.2189 26.5801 20.4707C25.7656 19.7225 24.7102 19.1116 23.5352 18.5996C21.1852 17.5757 18.3552 16.957 15.998 16.957ZM15.998 18.957C17.9899 18.957 20.6671 19.532 22.7363 20.4336C23.771 20.8844 24.6557 21.419 25.2266 21.9434C25.7975 22.4678 26.0117 22.9216 26.0117 23.2773V23.2793C26.0124 24.2488 25.4065 25.054 24.5 25.4512C22.0266 26.5356 18.6113 26.981 15.4004 26.9102C12.1895 26.8393 9.14968 26.2374 7.5332 25.4785C6.59947 25.0403 5.98633 24.2496 5.98633 23.2773C5.98633 22.9216 6.20059 22.4678 6.77148 21.9434C7.34238 21.419 8.22709 20.8844 9.26172 20.4336C11.331 19.532 14.0062 18.957 15.998 18.957Z" fill="#2B3646" style="fill:#2B3646;fill:color(display-p3 0.1686 0.2118 0.2745);fill-opacity:1;"/>
</svg>
