<svg width="22" height="22" viewBox="0 0 22 22" fill="none" xmlns="http://www.w3.org/2000/svg">
<path opacity="0.4" d="M14.7596 12.1916L13.4305 10.8625C13.568 10.1444 13.3617 9.47221 12.8117 8.84582C12.2617 8.21943 11.5513 7.97498 10.6805 8.11248L9.3513 6.78332C9.61102 6.66109 9.87457 6.56943 10.1419 6.50832C10.4093 6.44721 10.6957 6.41665 11.0013 6.41665C12.1471 6.41665 13.1211 6.81769 13.9232 7.61978C14.7253 8.42186 15.1263 9.39582 15.1263 10.5416C15.1263 10.8472 15.0957 11.1337 15.0346 11.401C14.9735 11.6684 14.8819 11.9319 14.7596 12.1916ZM17.693 15.0791L16.3638 13.7958C16.9444 13.3528 17.46 12.8677 17.9107 12.3406C18.3614 11.8135 18.7471 11.2139 19.068 10.5416C18.3041 8.99859 17.2079 7.77255 15.7794 6.86352C14.351 5.9545 12.7582 5.49998 11.0013 5.49998C10.5582 5.49998 10.1228 5.53054 9.69505 5.59165C9.26727 5.65276 8.84714 5.74443 8.43464 5.86665L7.0138 4.44582C7.64019 4.18609 8.28186 3.9913 8.9388 3.86144C9.59575 3.73158 10.2832 3.66665 11.0013 3.66665C13.3082 3.66665 15.3631 4.3045 17.1659 5.58019C18.9687 6.85589 20.2749 8.50971 21.0846 10.5416C20.7332 11.443 20.2711 12.2795 19.6982 13.051C19.1253 13.8226 18.4569 14.4986 17.693 15.0791ZM18.1513 20.7167L14.3013 16.9125C13.7666 17.0805 13.228 17.2066 12.6857 17.2906C12.1433 17.3746 11.5819 17.4166 11.0013 17.4166C8.69436 17.4166 6.6395 16.7788 4.83672 15.5031C3.03394 14.2274 1.72769 12.5736 0.917969 10.5416C1.2388 9.73193 1.64366 8.9795 2.13255 8.28436C2.62144 7.58922 3.17908 6.96665 3.80547 6.41665L1.28464 3.84998L2.56797 2.56665L19.4346 19.4333L18.1513 20.7167ZM5.0888 7.69998C4.64575 8.09721 4.24089 8.53262 3.87422 9.00623C3.50755 9.47984 3.19436 9.99165 2.93464 10.5416C3.69852 12.0847 4.79471 13.3107 6.22318 14.2198C7.65165 15.1288 9.24436 15.5833 11.0013 15.5833C11.3069 15.5833 11.6048 15.5642 11.8951 15.526C12.1853 15.4878 12.4832 15.4458 12.7888 15.4L11.9638 14.5292C11.7957 14.575 11.6353 14.6094 11.4826 14.6323C11.3298 14.6552 11.1694 14.6666 11.0013 14.6666C9.85547 14.6666 8.88151 14.2656 8.07943 13.4635C7.27734 12.6614 6.8763 11.6875 6.8763 10.5416C6.8763 10.3736 6.88776 10.2132 6.91068 10.0604C6.93359 9.90762 6.96797 9.74721 7.0138 9.57915L5.0888 7.69998Z" fill="#231F20"/>
</svg>
