<svg width="40" height="40" viewBox="0 0 40 40" fill="none" xmlns="http://www.w3.org/2000/svg">
<g clip-path="url(#clip0_96_16547)">
<path d="M38.9688 18.6874L27.2501 6.96869C26.586 6.30463 25.7031 5.9375 24.7656 5.9375C22.8281 5.9375 21.25 7.51556 21.25 9.45312C21.25 9.87488 21.3281 10.289 21.4688 10.6796C20.6485 11.0468 19.8203 11.4218 18.7109 11.9296C18.3984 10.5548 17.4765 9.3985 16.2421 8.78113C15.4218 5.73425 12.6642 3.59375 9.45312 3.59375V5.9375C11.1954 5.9375 12.7264 6.88293 13.5391 8.32031C11.2344 8.61725 9.45312 10.5859 9.45312 12.9688C9.45312 13.9999 9.78912 14.9609 10.3595 15.7343C7.38281 17.0859 3.71887 18.7421 0 20.4141V36.4062H40V21.1719C40 20.2032 39.6094 19.3204 38.9688 18.6874ZM37.6562 27.0312H18.8281V22.3438H35.3125V21.1719C35.3125 20.5234 35.8359 20 36.4844 20C37.1329 20 37.6562 20.5234 37.6562 21.1719V27.0312ZM23.9374 10.2814C23.7189 10.0626 23.5938 9.76562 23.5938 9.45312C23.5938 8.80463 24.1171 8.28125 24.7656 8.28125C25.0781 8.28125 25.3751 8.40637 25.5939 8.62488L34.9689 17.9999C34.2422 18.3438 33.6563 18.9297 33.3124 19.6564L23.9374 10.2814ZM14.1406 10.625C15.4297 10.625 16.4844 11.6797 16.4844 12.9688C16.4844 14.2578 15.4297 15.3125 14.1406 15.3125C12.8516 15.3125 11.7969 14.2578 11.7969 12.9688C11.7969 11.6797 12.8516 10.625 14.1406 10.625ZM12.4765 17.3517C12.9922 17.547 13.5547 17.6562 14.1406 17.6562C16.1563 17.6562 17.8827 16.3751 18.5468 14.5782C20.4532 13.7109 22.0782 12.9767 22.9376 12.5861L30.3516 20H16.4844V28.2031C16.4844 28.8516 15.961 29.375 15.3125 29.375C14.664 29.375 14.1406 28.8516 14.1406 28.2031V20H6.62506C8.3905 19.2032 10.4376 18.2812 12.4765 17.3517ZM11.7969 22.3438V27.0312H2.34375V22.3438H11.7969ZM2.34375 34.0625V29.375H12.0001C12.4844 30.7422 13.7891 31.7188 15.3125 31.7188C16.8359 31.7188 18.1406 30.7422 18.6249 29.375H37.6562V34.0625H2.34375Z" fill="white"/>
</g>
<defs>
<clipPath id="clip0_96_16547">
<rect width="40" height="40" fill="white"/>
</clipPath>
</defs>
</svg>
