<svg width="40" height="40" viewBox="0 0 40 40" fill="none" xmlns="http://www.w3.org/2000/svg">
<path d="M31.869 4.91633C28.6986 1.74594 24.4835 0 20 0C15.5165 0 11.3014 1.74594 8.13109 4.91625C4.96078 8.08656 3.21484 12.3017 3.21484 16.7852C3.21484 21.2686 4.96078 25.4838 8.13109 28.6541C10.4283 30.9513 13.2742 32.4998 16.3731 33.1791V40H18.7169V33.5221C19.1417 33.554 19.5696 33.5705 20 33.5705C20.4305 33.5705 20.8584 33.5541 21.2831 33.5221V40H23.6269V33.1791C26.7258 32.5 29.5717 30.9513 31.8689 28.6541C35.0392 25.4838 36.7852 21.2687 36.7852 16.7852C36.7852 12.3017 35.0393 8.08664 31.869 4.91633ZM20 31.2267C12.037 31.2267 5.55852 24.7483 5.55852 16.7852C5.55852 8.82219 12.037 2.34375 20 2.34375C27.963 2.34375 34.4415 8.82219 34.4415 16.7852C34.4415 24.7483 27.963 31.2267 20 31.2267Z" fill="white"/>
<path d="M21.9892 6.06946H15.293V26.7448H17.6367V17.7326H21.9892C25.2048 17.7326 27.8208 15.1166 27.8208 11.901C27.8208 8.68547 25.2047 6.06946 21.9892 6.06946ZM21.9892 15.3888H17.6367V8.41321H21.9892C23.9124 8.41321 25.477 9.97782 25.477 11.901C25.477 13.8242 23.9124 15.3888 21.9892 15.3888Z" fill="white"/>
</svg>
