<svg width="40" height="40" viewBox="0 0 40 40" fill="none" xmlns="http://www.w3.org/2000/svg">
<g clip-path="url(#clip0_96_16583)">
<path d="M32.8405 23.2073V17.8385H33.9366V5.47055C33.9366 2.45406 31.4826 0 28.4661 0C25.4496 0 22.9955 2.45406 22.9955 5.47055V17.8385H24.0916V23.2073C21.7627 24.8159 20.2109 27.6677 20.2109 30.9115C20.2109 35.9229 23.9141 40 28.4661 40C33.018 40 36.7213 35.923 36.7213 30.9115C36.7213 27.6677 35.1695 24.8159 32.8405 23.2073ZM28.4661 37.6562C25.2065 37.6562 22.5546 34.6305 22.5546 30.9115C22.5546 27.1923 25.2065 24.1667 28.4661 24.1667C31.7257 24.1667 34.3775 27.1924 34.3775 30.9115C34.3775 34.6305 31.7256 37.6562 28.4661 37.6562ZM31.5929 5.47055V15.4948H25.3392V5.47055C25.3392 3.74641 26.742 2.34375 28.466 2.34375C30.1902 2.34375 31.5929 3.74641 31.5929 5.47055ZM30.4968 17.8385V22.1015C29.8469 21.9198 29.1666 21.8229 28.4661 21.8229C27.7655 21.8229 27.0853 21.9198 26.4354 22.1015V17.8385H30.4968Z" fill="white"/>
<path d="M16.3281 0C15.4181 0 14.5889 0.352812 13.9702 0.92875C13.3229 0.351328 12.47 0 11.5364 0C10.6028 0 9.74992 0.351328 9.10273 0.92875C8.48391 0.352812 7.65477 0 6.74477 0C4.83492 0 3.28125 1.55375 3.28125 3.46352V8.59375C3.28125 11.8375 4.83305 14.6892 7.16195 16.2979V22.1615H6.06586V34.5295C6.06586 37.5459 8.52 40 11.5364 40C14.5529 40 17.007 37.5459 17.007 34.5295V22.1615H15.9109V16.2979C18.2398 14.6893 19.7916 11.8375 19.7916 8.59375V3.46352C19.7916 1.55375 18.2379 0 16.3281 0ZM11.5364 15.3385C8.2768 15.3385 5.625 12.3128 5.625 8.59375V3.46352C5.625 2.84609 6.12727 2.34375 6.74477 2.34375C7.36219 2.34375 7.86453 2.84609 7.86453 3.46352V9.01039H10.2206V3.65953C10.2206 2.93398 10.8109 2.34375 11.5364 2.34375C12.262 2.34375 12.8522 2.93406 12.8522 3.65953V9.01039H15.2083V3.46352C15.2083 2.84609 15.7106 2.34375 16.328 2.34375C16.9455 2.34375 17.4478 2.84609 17.4478 3.46352V8.59375C17.4479 12.3128 14.796 15.3385 11.5364 15.3385ZM8.40961 24.5052H14.6633V34.5295C14.6633 36.2536 13.2605 37.6562 11.5365 37.6562C9.81234 37.6562 8.40969 36.2535 8.40969 34.5295L8.40961 24.5052ZM9.5057 22.1615V17.4038C10.1556 17.5854 10.8359 17.6823 11.5364 17.6823C12.2369 17.6823 12.9172 17.5855 13.5671 17.4038V22.1616H9.5057V22.1615Z" fill="white"/>
<path d="M28.4688 27.006C26.5302 27.006 24.9531 28.7579 24.9531 30.9114H27.2969C27.2969 30.0649 27.8335 29.3497 28.4688 29.3497C29.104 29.3497 29.6406 30.0649 29.6406 30.9114H31.9844C31.9844 28.7579 30.4073 27.006 28.4688 27.006Z" fill="white"/>
</g>
<defs>
<clipPath id="clip0_96_16583">
<rect width="40" height="40" fill="white"/>
</clipPath>
</defs>
</svg>
