<svg width="33" height="40" viewBox="0 0 33 40" fill="none" xmlns="http://www.w3.org/2000/svg">
<g clip-path="url(#clip0_96_16578)">
<path fill-rule="evenodd" clip-rule="evenodd" d="M33 16.56C33 7.42 25.6268 0 16.5 0C7.39312 0 0 7.42 0 16.56C0 21.14 1.85326 25.28 4.84239 28.26C5.08152 28.5 5.42029 28.66 5.77899 28.66C6.5163 28.66 7.11413 28.06 7.11413 27.32C7.11413 26.94 6.97464 26.6 6.71558 26.34C4.22464 23.84 2.69022 20.36 2.69022 16.56C2.69022 8.92 8.86775 2.68 16.4801 2.68C24.0924 2.68 30.3098 8.9 30.3098 16.56C30.3098 20.4 28.7754 23.86 26.2645 26.38L14.6069 38.08L16.5 40L28.1975 28.26C31.1667 25.28 33 21.14 33 16.56Z" fill="white"/>
<path fill-rule="evenodd" clip-rule="evenodd" d="M24.1539 19.7599L20.0289 9.31995L16.5615 15.4199L13.0742 9.31995L8.96909 19.7599H7.77344V21.3199H13.9709V19.7599H13.0542L13.951 17.1599L16.5615 21.4399L19.172 17.1599L20.0687 19.7599H19.1321V21.3199H25.3695V19.7599H24.1539Z" fill="white"/>
</g>
<defs>
<clipPath id="clip0_96_16578">
<rect width="33" height="40" fill="white"/>
</clipPath>
</defs>
</svg>
