<svg width="40" height="40" viewBox="0 0 40 40" fill="none" xmlns="http://www.w3.org/2000/svg">
<mask id="mask0_96_16550" style="mask-type:luminance" maskUnits="userSpaceOnUse" x="0" y="0" width="40" height="40">
<path d="M0 3.8147e-06H40V40H0V3.8147e-06Z" fill="white"/>
</mask>
<g mask="url(#mask0_96_16550)">
<path fill-rule="evenodd" clip-rule="evenodd" d="M24.6875 15.3125C24.6875 17.2541 26.2615 18.8281 28.2031 18.8281C30.1447 18.8281 31.7188 17.2541 31.7188 15.3125C31.7188 13.3709 30.1447 11.7969 28.2031 11.7969C26.2615 11.7969 24.6875 13.3709 24.6875 15.3125ZM28.2031 16.4844C27.556 16.4844 27.0312 15.9597 27.0312 15.3125C27.0312 14.6653 27.556 14.1406 28.2031 14.1406C28.8503 14.1406 29.375 14.6653 29.375 15.3125C29.375 15.9597 28.8503 16.4844 28.2031 16.4844Z" fill="white"/>
<path fill-rule="evenodd" clip-rule="evenodd" d="M31.7187 4.55446L36.4063 3.61696V6.00656L31.7187 6.94406V4.55446ZM31.7187 9.33422V15.3125H29.375V2.63304L38.75 0.758043V7.92797L31.7187 9.33422Z" fill="white"/>
<path fill-rule="evenodd" clip-rule="evenodd" d="M1.25 40H22.3438V3.8147e-06H1.25V40ZM3.59375 37.6563V2.34375H20V37.6563H3.59375Z" fill="white"/>
<path fill-rule="evenodd" clip-rule="evenodd" d="M8.28125 8.28125C8.28125 10.2228 9.85529 11.7969 11.7969 11.7969C13.7385 11.7969 15.3125 10.2228 15.3125 8.28125C15.3125 6.33967 13.7385 4.76562 11.7969 4.76562C9.85529 4.76562 8.28125 6.33967 8.28125 8.28125ZM11.7969 9.45313C11.1497 9.45313 10.625 8.92842 10.625 8.28125C10.625 7.63408 11.1497 7.10938 11.7969 7.10938C12.444 7.10938 12.9688 7.63408 12.9688 8.28125C12.9688 8.92842 12.444 9.45313 11.7969 9.45313Z" fill="white"/>
<path fill-rule="evenodd" clip-rule="evenodd" d="M8.28125 17.6562C8.28125 19.5978 9.85529 21.1719 11.7969 21.1719C13.7385 21.1719 15.3125 19.5978 15.3125 17.6562C15.3125 15.7147 13.7385 14.1406 11.7969 14.1406C9.85529 14.1406 8.28125 15.7147 8.28125 17.6562ZM11.7969 18.8281C11.1497 18.8281 10.625 18.3034 10.625 17.6562C10.625 17.0091 11.1497 16.4844 11.7969 16.4844C12.444 16.4844 12.9688 17.0091 12.9688 17.6562C12.9688 18.3034 12.444 18.8281 11.7969 18.8281Z" fill="white"/>
<path fill-rule="evenodd" clip-rule="evenodd" d="M5.9375 29.375C5.9375 32.611 8.56084 35.2344 11.7969 35.2344C15.0329 35.2344 17.6562 32.611 17.6562 29.375C17.6562 26.139 15.0329 23.5156 11.7969 23.5156C8.56084 23.5156 5.9375 26.139 5.9375 29.375ZM11.7969 32.8906C9.85526 32.8906 8.28125 31.3166 8.28125 29.375C8.28125 27.4334 9.85526 25.8594 11.7969 25.8594C13.7385 25.8594 15.3125 27.4334 15.3125 29.375C15.3125 31.3166 13.7385 32.8906 11.7969 32.8906Z" fill="white"/>
<path fill-rule="evenodd" clip-rule="evenodd" d="M12.9688 28.2031H10.625V30.5469H12.9688V28.2031Z" fill="white"/>
<path fill-rule="evenodd" clip-rule="evenodd" d="M32.8906 35.2344H21.1719V37.5781H32.8906C34.8322 37.5781 36.4062 36.0041 36.4062 34.0625C36.4062 32.1209 34.8322 30.5469 32.8906 30.5469H28.2031C27.556 30.5469 27.0312 30.0222 27.0312 29.375C27.0312 28.7278 27.556 28.2031 28.2031 28.2031H38.75V25.8594H28.2031C26.2615 25.8594 24.6875 27.4334 24.6875 29.375C24.6875 31.3166 26.2615 32.8906 28.2031 32.8906H32.8906C33.5378 32.8906 34.0625 33.4153 34.0625 34.0625C34.0625 34.7097 33.5378 35.2344 32.8906 35.2344Z" fill="white"/>
</g>
</svg>
