<svg width="22" height="22" viewBox="0 0 22 22" fill="none" xmlns="http://www.w3.org/2000/svg">
<path d="M3.20898 8.25C3.96798 8.25 4.58398 8.866 4.58398 9.625V17.875C4.58398 18.634 3.96798 19.25 3.20898 19.25C2.44998 19.25 1.83398 18.634 1.83398 17.875V9.625C1.83398 8.866 2.44998 8.25 3.20898 8.25Z" fill="#1DAC70" style="fill:#1DAC70;fill:color(display-p3 0.1125 0.6750 0.4388);fill-opacity:1;"/>
<path d="M15.6131 19.25H8.2513C7.23839 19.25 6.41797 18.4296 6.41797 17.4167V8.95401C6.41797 8.50118 6.58572 8.06393 6.88914 7.72751L9.37422 4.96651L9.88297 2.72435C10.0058 2.18076 10.576 1.86085 11.0994 2.0506C11.8831 2.33293 12.8346 2.9801 12.8346 4.45868C12.8346 6.07751 11.918 8.25001 11.918 8.25001H18.3346C19.343 8.25001 20.168 9.07501 20.168 10.0833V10.9459C20.168 11.3218 20.0891 11.6939 19.9361 12.0368L17.1842 18.2288C16.9083 18.8494 16.2923 19.25 15.6131 19.25Z" fill="#1DAC70" style="fill:#1DAC70;fill:color(display-p3 0.1125 0.6750 0.4388);fill-opacity:1;"/>
</svg>
