<svg width="20" height="20" viewBox="0 0 20 20" fill="none" xmlns="http://www.w3.org/2000/svg">
<path fill-rule="evenodd" clip-rule="evenodd" d="M13.7708 11.8855C12.9513 13.1563 11.6944 14.5695 9.99992 16.1251C8.30547 14.5695 7.04853 13.1563 6.22909 11.8855C5.40964 10.6147 4.99992 9.48619 4.99992 8.50008C4.99992 6.98619 5.48256 5.74661 6.44783 4.78133C7.41311 3.81605 8.59714 3.33341 9.99992 3.33341C11.4027 3.33341 12.5867 3.81605 13.552 4.78133C14.5173 5.74661 14.9999 6.98619 14.9999 8.50008C14.9999 9.48619 14.5902 10.6147 13.7708 11.8855ZM4.9895 13.0313C6.09367 14.6633 7.76381 16.4306 9.99992 18.3334C12.236 16.4306 13.9062 14.6633 15.0103 13.0313C16.1145 11.3994 16.6666 9.88897 16.6666 8.50008C16.6666 6.41675 15.9964 4.75703 14.6562 3.52091C13.3159 2.2848 11.7638 1.66675 9.99992 1.66675C8.23603 1.66675 6.68395 2.2848 5.34367 3.52091C4.00339 4.75703 3.33325 6.41675 3.33325 8.50008C3.33325 9.88897 3.88534 11.3994 4.9895 13.0313Z" fill="#231F20"/>
<path d="M9.99992 10.0001C10.4583 10.0001 10.8506 9.83689 11.177 9.5105C11.5034 9.18411 11.6666 8.79175 11.6666 8.33341C11.6666 7.87508 11.5034 7.48272 11.177 7.15633C10.8506 6.82994 10.4583 6.66675 9.99992 6.66675C9.54158 6.66675 9.14922 6.82994 8.82283 7.15633C8.49645 7.48272 8.33325 7.87508 8.33325 8.33341C8.33325 8.79175 8.49645 9.18411 8.82283 9.5105C9.14922 9.83689 9.54158 10.0001 9.99992 10.0001Z" fill="#B81B37"/>
</svg>
