<svg width="66" height="62" viewBox="0 0 66 62" fill="none" xmlns="http://www.w3.org/2000/svg">
<path fill-rule="evenodd" clip-rule="evenodd" d="M13.2429 43.1915L13.8088 5.8416L14.4772 5.4523C18.1565 3.30913 22.434 2.08189 27 2.08189C32.0215 2.08189 36.695 3.56636 40.6073 6.12171L41.8617 6.94102L13.2429 43.1915ZM12.5845 47.3853L41.5453 10.7016L40.9857 47.6394L40.363 48.0359C36.5012 50.4944 31.9177 51.9181 27 51.9181C22.1885 51.9181 17.697 50.5553 13.8884 48.1938L12.5845 47.3853ZM43.0869 46.3757L43.6665 8.12134L46.0258 10.9075C49.7029 15.2501 51.9181 20.8677 51.9181 27C51.9181 33.4032 49.5024 39.2458 45.5297 43.6609L43.0869 46.3757ZM11.1108 46.492L8.79239 44.012C4.62849 39.5578 2.08189 33.575 2.08189 27C2.08189 20.1539 4.8434 13.9491 9.31594 9.44443L11.7086 7.03452L11.1108 46.492ZM27 0C21.5396 0 16.4549 1.62201 12.2052 4.41081C4.85636 9.23332 0 17.5494 0 27C0 35.6963 4.11246 43.4327 10.4947 48.3692C10.8327 48.6306 11.1771 48.8843 11.5276 49.1298C15.9096 52.1989 21.246 54 27 54C32.8195 54 38.2118 52.1577 42.6215 49.0246C49.5055 44.1334 54 36.0915 54 27C54 18.5103 50.0804 10.9351 43.956 5.98709C43.734 5.80778 43.5092 5.63191 43.2815 5.45956C38.7551 2.03307 33.1135 0 27 0Z" fill="#231F20"/>
<circle cx="52.5" cy="48.5" r="12" fill="#15CF74" stroke="#F8F8F8" stroke-width="3"/>
<path fill-rule="evenodd" clip-rule="evenodd" d="M51.0301 49.3213L55.8276 44L58 45.6341L51.3592 53L47 49.5159L48.8532 47.5813L51.0301 49.3213Z" fill="white"/>
<circle cx="46.5" cy="3.5" r="1.5" fill="#B81B37"/>
</svg>
