<svg width="20" height="21" viewBox="0 0 20 21" fill="none" xmlns="http://www.w3.org/2000/svg">
<path d="M9.99984 11.895C9.30539 11.895 8.71511 11.652 8.229 11.1659C7.74289 10.6797 7.49984 10.0895 7.49984 9.39502V4.39502C7.49984 3.70058 7.74289 3.1103 8.229 2.62419C8.71511 2.13808 9.30539 1.89502 9.99984 1.89502C10.6943 1.89502 11.2846 2.13808 11.7707 2.62419C12.2568 3.1103 12.4998 3.70058 12.4998 4.39502V9.39502C12.4998 10.0895 12.2568 10.6797 11.7707 11.1659C11.2846 11.652 10.6943 11.895 9.99984 11.895ZM9.1665 17.7284V15.1659C7.72206 14.9714 6.52761 14.3256 5.58317 13.2284C4.63873 12.1311 4.1665 10.8534 4.1665 9.39502H5.83317C5.83317 10.5478 6.23942 11.5304 7.05192 12.3429C7.86442 13.1554 8.84706 13.5617 9.99984 13.5617C11.1526 13.5617 12.1353 13.1554 12.9478 12.3429C13.7603 11.5304 14.1665 10.5478 14.1665 9.39502H15.8332C15.8332 10.8534 15.3609 12.1311 14.4165 13.2284C13.4721 14.3256 12.2776 14.9714 10.8332 15.1659V17.7284H9.1665ZM9.99984 10.2284C10.2359 10.2284 10.4339 10.1485 10.5936 9.98877C10.7533 9.82905 10.8332 9.63113 10.8332 9.39502V4.39502C10.8332 4.15891 10.7533 3.96099 10.5936 3.80127C10.4339 3.64155 10.2359 3.56169 9.99984 3.56169C9.76373 3.56169 9.56581 3.64155 9.40609 3.80127C9.24636 3.96099 9.1665 4.15891 9.1665 4.39502V9.39502C9.1665 9.63113 9.24636 9.82905 9.40609 9.98877C9.56581 10.1485 9.76373 10.2284 9.99984 10.2284Z" fill="#231F20"/>
</svg>
