<svg width="46" height="34" viewBox="0 0 46 34" fill="none" xmlns="http://www.w3.org/2000/svg">
<rect width="46" height="34" rx="6" fill="#E8EAEC" style="fill:#E8EAEC;fill:color(display-p3 0.9098 0.9176 0.9255);fill-opacity:1;"/>
<g clip-path="url(#clip0_92_202)">
<path d="M14.7115 26.9561V25.6288C14.7115 25.1211 14.3992 24.7886 13.8632 24.7886C13.5952 24.7886 13.3037 24.8762 13.1034 25.1649C12.9472 24.9226 12.7235 24.7886 12.3878 24.7886C12.164 24.7886 11.9402 24.8556 11.7633 25.0979V24.8324H11.2949V26.9561H11.7633V25.7834C11.7633 25.4071 11.9637 25.2293 12.2759 25.2293C12.5882 25.2293 12.7443 25.4278 12.7443 25.7834V26.9561H13.2127V25.7834C13.2127 25.4071 13.4364 25.2293 13.7253 25.2293C14.0375 25.2293 14.1936 25.4278 14.1936 25.7834V26.9561H14.7115ZM21.659 24.8324H20.8992V24.1906H20.4308V24.8324H20.0067V25.2525H20.4308V26.2267C20.4308 26.7138 20.6312 26.9999 21.1672 26.9999C21.3676 26.9999 21.5914 26.9329 21.7475 26.8453L21.6122 26.4458C21.4769 26.5334 21.3207 26.5566 21.2089 26.5566C20.9851 26.5566 20.8966 26.4226 20.8966 26.2035V25.2525H21.6564V24.8324H21.659ZM25.635 24.786C25.367 24.786 25.1874 24.92 25.0755 25.0953V24.8298H24.6072V26.9535H25.0755V25.7577C25.0755 25.4046 25.2317 25.2035 25.5231 25.2035C25.6116 25.2035 25.7235 25.2267 25.8145 25.2473L25.9498 24.804C25.8562 24.786 25.7235 24.786 25.635 24.786ZM19.6268 25.0077C19.403 24.853 19.0908 24.786 18.7551 24.786C18.2191 24.786 17.8626 25.0515 17.8626 25.4716C17.8626 25.8247 18.1306 26.0257 18.599 26.0901L18.8227 26.1133C19.0673 26.1571 19.2026 26.2241 19.2026 26.335C19.2026 26.4896 19.0231 26.6004 18.7109 26.6004C18.3986 26.6004 18.1514 26.4896 17.9953 26.3788L17.7715 26.7319C18.0161 26.9097 18.3518 26.9973 18.6874 26.9973C19.3119 26.9973 19.671 26.7087 19.671 26.3118C19.671 25.9355 19.3796 25.737 18.9346 25.67L18.7109 25.6468C18.5105 25.6236 18.3544 25.5798 18.3544 25.4484C18.3544 25.2937 18.5105 25.2061 18.7577 25.2061C19.0257 25.2061 19.2937 25.3169 19.429 25.3839L19.6268 25.0077ZM32.0882 24.786C31.8201 24.786 31.6406 24.92 31.5287 25.0953V24.8298H31.0603V26.9535H31.5287V25.7577C31.5287 25.4046 31.6848 25.2035 31.9763 25.2035C32.0647 25.2035 32.1766 25.2267 32.2677 25.2473L32.403 24.8092C32.3119 24.786 32.1792 24.786 32.0882 24.786ZM26.1034 25.8942C26.1034 26.536 26.5509 26.9999 27.2431 26.9999C27.5553 26.9999 27.7791 26.9329 28.0029 26.7577L27.7791 26.3814C27.5996 26.5154 27.4226 26.5798 27.2197 26.5798C26.8398 26.5798 26.5717 26.3144 26.5717 25.8942C26.5717 25.4948 26.8398 25.2293 27.2197 25.2087C27.42 25.2087 27.5996 25.2757 27.7791 25.4071L28.0029 25.0308C27.7791 24.853 27.5553 24.7886 27.2431 24.7886C26.5509 24.786 26.1034 25.2525 26.1034 25.8942ZM30.4358 25.8942V24.8324H29.9675V25.0979C29.8113 24.8994 29.5876 24.7886 29.2961 24.7886C28.6924 24.7886 28.2241 25.2525 28.2241 25.8942C28.2241 26.536 28.6924 26.9999 29.2961 26.9999C29.6084 26.9999 29.8322 26.8891 29.9675 26.6906V26.9561H30.4358V25.8942ZM28.7159 25.8942C28.7159 25.518 28.9605 25.2087 29.3638 25.2087C29.7437 25.2087 30.0117 25.4973 30.0117 25.8942C30.0117 26.2705 29.7437 26.5798 29.3638 26.5798C28.9631 26.5566 28.7159 26.268 28.7159 25.8942ZM23.111 24.786C22.4865 24.786 22.0389 25.2293 22.0389 25.8917C22.0389 26.5566 22.4865 26.9973 23.1344 26.9973C23.4466 26.9973 23.7589 26.9097 24.0061 26.7087L23.7823 26.3762C23.6028 26.5102 23.379 26.5979 23.1578 26.5979C22.8664 26.5979 22.5775 26.4638 22.5099 26.0901H24.0946C24.0946 26.0231 24.0946 25.9793 24.0946 25.9123C24.1154 25.2293 23.7121 24.786 23.111 24.786ZM23.111 25.1855C23.4024 25.1855 23.6028 25.3633 23.647 25.6932H22.5307C22.5749 25.4071 22.7753 25.1855 23.111 25.1855ZM34.7475 25.8942V23.9922H34.2791V25.0979C34.123 24.8994 33.8992 24.7886 33.6078 24.7886C33.0041 24.7886 32.5357 25.2525 32.5357 25.8942C32.5357 26.536 33.0041 26.9999 33.6078 26.9999C33.92 26.9999 34.1438 26.8891 34.2791 26.6906V26.9561H34.7475V25.8942ZM33.0275 25.8942C33.0275 25.518 33.2721 25.2087 33.6754 25.2087C34.0553 25.2087 34.3233 25.4973 34.3233 25.8942C34.3233 26.2705 34.0553 26.5798 33.6754 26.5798C33.2721 26.5566 33.0275 26.268 33.0275 25.8942ZM17.3474 25.8942V24.8324H16.879V25.0979C16.7229 24.8994 16.4991 24.7886 16.2077 24.7886C15.604 24.7886 15.1356 25.2525 15.1356 25.8942C15.1356 26.536 15.604 26.9999 16.2077 26.9999C16.5199 26.9999 16.7437 26.8891 16.879 26.6906V26.9561H17.3474V25.8942ZM15.6066 25.8942C15.6066 25.518 15.8512 25.2087 16.2545 25.2087C16.6344 25.2087 16.9024 25.4973 16.9024 25.8942C16.9024 26.2705 16.6344 26.5798 16.2545 26.5798C15.8512 26.5566 15.6066 26.268 15.6066 25.8942Z" fill="#26394F" style="fill:#26394F;fill:color(display-p3 0.1477 0.2251 0.3083);fill-opacity:1;"/>
<path d="M26.5067 8.70361H19.4707V21.2242H26.5067V8.70361Z" fill="#FF5A00" style="fill:#FF5A00;fill:color(display-p3 1.0000 0.3529 0.0000);fill-opacity:1;"/>
<path d="M19.94 14.9639C19.94 12.4201 21.1473 10.1624 23 8.70361C21.6365 7.64175 19.9165 7 18.0404 7C13.5961 7 10 10.5619 10 14.9639C10 19.366 13.5961 22.9278 18.0404 22.9278C19.9165 22.9278 21.6365 22.2861 23 21.2242C21.1447 19.7861 19.94 17.5077 19.94 14.9639Z" fill="#EB001B" style="fill:#EB001B;fill:color(display-p3 0.9216 0.0000 0.1059);fill-opacity:1;"/>
<path d="M36 14.9639C36 19.366 32.4039 22.9278 27.9596 22.9278C26.0835 22.9278 24.3635 22.2861 23 21.2242C24.8761 19.7629 26.06 17.5077 26.06 14.9639C26.06 12.4201 24.8527 10.1624 23 8.70361C24.3609 7.64175 26.0809 7 27.957 7C32.4039 7 36 10.5851 36 14.9639Z" fill="#F79E1B" style="fill:#F79E1B;fill:color(display-p3 0.9686 0.6196 0.1059);fill-opacity:1;"/>
</g>
<defs>
<clipPath id="clip0_92_202">
<rect width="26" height="20" fill="white" style="fill:white;fill-opacity:1;" transform="translate(10 7)"/>
</clipPath>
</defs>
</svg>
