<svg width="30" height="30" viewBox="0 0 30 30" fill="none" xmlns="http://www.w3.org/2000/svg">
<path d="M16.3158 2.62468C17.634 1.95101 19.2469 2.38177 20.0501 3.62545C20.5521 4.40276 21.4007 4.89181 22.327 4.94039C23.8039 5.01488 24.986 6.19703 25.0605 7.67391C25.1058 8.60019 25.5949 9.44875 26.3754 9.95076C27.6191 10.754 28.0499 12.3701 27.3762 13.685C26.9519 14.5109 26.9519 15.489 27.3762 16.3149C28.0499 17.6331 27.6191 19.246 26.3754 20.0492C25.5981 20.5512 25.1091 21.3998 25.0605 22.3261C24.986 23.8029 23.8039 24.9851 22.327 25.0596C21.4007 25.1049 20.5521 25.594 20.0501 26.3745C19.2469 27.6182 17.6308 28.049 16.3158 27.3753C15.49 26.951 14.5118 26.951 13.686 27.3753C12.3678 28.049 10.7549 27.6182 9.95167 26.3745C9.44966 25.5972 8.60111 25.1082 7.67482 25.0596C6.19795 24.9851 5.0158 23.8029 4.94131 22.3261C4.89596 21.3998 4.40691 20.5512 3.62637 20.0492C2.38269 19.246 1.95193 17.6299 2.62559 16.3149C3.04987 15.489 3.04987 14.5109 2.62559 13.685C1.95193 12.3669 2.38269 10.754 3.62637 9.95076C4.40367 9.44875 4.89273 8.60019 4.94131 7.67391C5.0158 6.19703 6.19795 5.01488 7.67482 4.94039C8.60111 4.89505 9.44966 4.406 9.95167 3.62545C10.7549 2.38177 12.371 1.95101 13.686 2.62468C14.5118 3.04572 15.49 3.04572 16.3158 2.62468Z" fill="#1DAC70" style="fill:#1DAC70;fill:color(display-p3 0.1125 0.6750 0.4388);fill-opacity:1;"/>
<path d="M9.27488 13.6565L10.5599 13.3122L11.9139 18.3656L10.9177 18.6326L8.45367 16.5692L9.13457 19.1104L7.84234 19.4566L6.48828 14.4032L7.49175 14.1343L9.95578 16.1977L9.27488 13.6565Z" fill="white" style="fill:white;fill-opacity:1;"/>
<path d="M13.6811 16.5922L15.6375 16.068L15.9625 17.2808L12.7139 18.1513L11.3598 13.0979L14.5723 12.2371L14.8954 13.4427L12.9751 13.9572L13.1627 14.6575L14.9025 14.1913L15.2217 15.3825L13.4819 15.8487L13.6811 16.5922Z" fill="white" style="fill:white;fill-opacity:1;"/>
<path d="M17.6312 16.8337L14.8622 12.1594L16.2555 11.7861L17.8883 14.7608L17.9376 11.3354L18.9555 11.0626L20.7109 14.0045L20.6448 10.61L22.0309 10.2386L21.9772 15.6692L20.6128 16.0348L19.0401 13.3999L18.9957 16.4681L17.6312 16.8337Z" fill="white" style="fill:white;fill-opacity:1;"/>
<path d="M15.0006 25.8272C9.05422 25.8272 4.21875 20.9917 4.21875 15.0453C4.21875 9.09896 9.05422 4.26349 15.0006 4.26349C20.947 4.26349 25.7824 9.09896 25.7824 15.0453C25.7824 20.9917 20.947 25.8272 15.0006 25.8272ZM15.0006 4.80112C9.35219 4.80112 4.75315 9.39693 4.75315 15.0486C4.75315 20.697 9.34895 25.296 15.0006 25.296C20.6522 25.296 25.248 20.7002 25.248 15.0486C25.248 9.39693 20.649 4.80112 15.0006 4.80112Z" fill="white" style="fill:white;fill-opacity:1;"/>
</svg>
