<svg width="30" height="30" viewBox="0 0 30 30" fill="none" xmlns="http://www.w3.org/2000/svg">
<path fill-rule="evenodd" clip-rule="evenodd" d="M5.52245 4.25427C5.01211 4.25427 4.59835 3.82467 4.59835 3.29462C4.59835 2.76463 5.01213 2.33497 5.52245 2.33497H11.3535C11.6676 2.33497 11.9222 2.07056 11.9222 1.7444C11.9222 1.41823 11.6676 1.15382 11.3535 1.15382H5.52245C4.38399 1.15382 3.46094 2.11226 3.46094 3.29462C3.46094 4.47709 4.38401 5.43542 5.52245 5.43542H26.7841C27.9226 5.43542 28.8456 4.47705 28.8456 3.29462C28.8456 2.11229 27.9226 1.15382 26.7841 1.15382H14.0074C13.6934 1.15382 13.4387 1.41823 13.4387 1.7444C13.4387 2.07056 13.6934 2.33497 14.0074 2.33497H26.7841C27.2944 2.33497 27.7081 2.76459 27.7081 3.29462C27.7081 3.82471 27.2944 4.25427 26.7841 4.25427H5.52245Z" fill="#26394F" style="fill:#26394F;fill:color(display-p3 0.1490 0.2235 0.3098);fill-opacity:1;"/>
<path fill-rule="evenodd" clip-rule="evenodd" d="M9.10058 8.85394C9.41466 8.85394 9.66928 8.58953 9.66928 8.26337V4.84487C9.66928 4.5187 9.41466 4.25429 9.10058 4.25429C8.59018 4.25429 8.17647 3.82471 8.17647 3.29464C8.17647 2.76463 8.59019 2.33499 9.10058 2.33499C9.41466 2.33499 9.66928 2.07058 9.66928 1.74442C9.66928 1.41825 9.41466 1.15384 9.10058 1.15384C7.96202 1.15384 7.03906 2.1123 7.03906 3.29464C7.03906 4.27221 7.66991 5.09662 8.53187 5.35296V8.26337C8.53187 8.58953 8.78649 8.85394 9.10058 8.85394Z" fill="#26394F" style="fill:#26394F;fill:color(display-p3 0.1490 0.2235 0.3098);fill-opacity:1;"/>
<path fill-rule="evenodd" clip-rule="evenodd" d="M9.10308 27.342C9.11614 27.345 9.14615 27.3532 9.19605 27.3742C9.2797 27.4095 9.38466 27.4662 9.51112 27.5459C9.73257 27.6853 9.96935 27.8621 10.2198 28.049C10.2592 28.0784 10.299 28.1081 10.3391 28.1379C10.6114 28.3405 10.9239 28.5695 11.1987 28.7025C11.3278 28.765 11.5331 28.8498 11.7674 28.846C11.8991 28.8438 12.0464 28.8134 12.1817 28.7329C12.3149 28.6537 12.399 28.5484 12.4502 28.4486L12.4503 28.4482C13.2628 26.8608 12.8773 24.0388 10.6301 21.8792C10.4207 21.6779 10.0612 21.6607 9.82711 21.8407C9.59299 22.0206 9.57294 22.3297 9.78232 22.5309C11.6127 24.29 11.9611 26.4657 11.5449 27.727C11.4174 27.6439 11.2639 27.533 11.0834 27.3986C11.0465 27.3712 11.0088 27.3431 10.9703 27.3143C10.7236 27.13 10.4463 26.9228 10.1834 26.7572C10.0297 26.6605 9.86457 26.5672 9.69713 26.4966C9.53626 26.4287 9.32937 26.3627 9.10302 26.3627C8.87667 26.3627 8.66981 26.4288 8.50904 26.4966C8.34168 26.5672 8.17657 26.6605 8.02296 26.7573C7.76017 26.9228 7.48283 27.1299 7.23613 27.3142C7.1976 27.343 7.15982 27.3712 7.12296 27.3986C6.94239 27.5329 6.78898 27.6438 6.66147 27.7269C6.24466 26.4653 6.59322 24.2901 8.42357 22.5309C8.63294 22.3296 8.61288 22.0206 8.37876 21.8406C8.14463 21.6607 7.78511 21.6779 7.57574 21.8792C5.32889 24.0387 4.94287 26.86 5.75611 28.4482C5.75614 28.4483 5.75617 28.4483 5.7562 28.4484C5.8073 28.5482 5.89127 28.6536 6.02446 28.7329C6.15983 28.8134 6.30718 28.8439 6.43898 28.846C6.67325 28.8498 6.87853 28.7649 7.00752 28.7025C7.28227 28.5695 7.59482 28.3405 7.8672 28.1379C7.90735 28.1081 7.94717 28.0783 7.98665 28.0489C8.23706 27.862 8.47384 27.6853 8.69525 27.5459C8.82171 27.4662 8.92666 27.4095 9.01029 27.3742C9.06009 27.3532 9.09003 27.3451 9.10308 27.342ZM6.39211 27.8748C6.39194 27.8748 6.39185 27.8749 6.39185 27.8749C6.39185 27.8749 6.39193 27.8748 6.39211 27.8748ZM6.7973 28.0547C6.79727 28.0546 6.79724 28.0546 6.79722 28.0545L6.7973 28.0547Z" fill="#26394F" style="fill:#26394F;fill:color(display-p3 0.1490 0.2235 0.3098);fill-opacity:1;"/>
<path fill-rule="evenodd" clip-rule="evenodd" d="M10.1022 23.6138C9.70985 24.3507 8.49239 24.3506 8.10006 23.6138L10.1022 23.6138ZM8.10006 23.6138C7.57055 22.6197 6.70091 20.8954 5.96261 18.9974C5.22852 17.1103 4.60547 15.0052 4.60547 13.2646C4.60547 11.8063 5.04055 10.435 5.80662 9.41284C6.57254 8.39091 7.71208 7.67283 9.10119 7.67283C10.4903 7.67283 11.6298 8.39092 12.3957 9.41285C13.1618 10.435 13.5968 11.8063 13.5968 13.2646C13.5968 15.0052 12.9738 17.1103 12.2397 18.9974C11.5013 20.8954 10.6317 22.6197 10.1022 23.6138M9.10115 23.1446C8.57826 22.159 7.74694 20.5013 7.04132 18.6874C6.31638 16.8238 5.74288 14.8416 5.74288 13.2646C5.74288 11.9615 6.13401 10.7813 6.7628 9.9423C7.39174 9.10313 8.21571 8.65048 9.10119 8.65048C9.98662 8.65048 10.8106 9.10312 11.4395 9.9423C12.0683 10.7813 12.4594 11.9615 12.4594 13.2646C12.4594 14.8416 11.8859 16.8238 11.161 18.6874C10.4553 20.5013 9.62401 22.159 9.10115 23.1446Z" fill="#26394F" style="fill:#26394F;fill:color(display-p3 0.1490 0.2235 0.3098);fill-opacity:1;"/>
<path fill-rule="evenodd" clip-rule="evenodd" d="M9.10141 13.1186C7.70376 13.1186 6.47552 12.6135 5.69119 11.8464C5.48384 11.6437 5.12451 11.6238 4.88859 11.802C4.65267 11.9802 4.62951 12.2891 4.83686 12.4918C5.84326 13.4761 7.38605 14.0962 9.10141 14.0962C10.8168 14.0962 12.3596 13.4761 13.366 12.4918C13.5733 12.2891 13.5502 11.9802 13.3142 11.802C13.0783 11.6238 12.719 11.6437 12.5116 11.8464C11.7273 12.6135 10.4991 13.1186 9.10141 13.1186Z" fill="#26394F" style="fill:#26394F;fill:color(display-p3 0.1490 0.2235 0.3098);fill-opacity:1;"/>
<path fill-rule="evenodd" clip-rule="evenodd" d="M7.8791 16.943C8.14951 17.0803 8.49825 17.0032 8.65802 16.7708L9.10289 16.1236L9.54768 16.7708C9.70744 17.0032 10.0562 17.0803 10.3266 16.943C10.597 16.8057 10.6867 16.5059 10.527 16.2735L9.93929 15.4185L9.93929 15.4185C9.56328 14.8714 8.64254 14.8714 8.26652 15.4185C8.26651 15.4185 8.26651 15.4185 8.2665 15.4185L7.67878 16.2734C7.519 16.5059 7.60869 16.8056 7.8791 16.943Z" fill="#26394F" style="fill:#26394F;fill:color(display-p3 0.1490 0.2235 0.3098);fill-opacity:1;"/>
<path fill-rule="evenodd" clip-rule="evenodd" d="M9.87144 11.3734C10.1855 11.3734 10.4401 11.1545 10.4401 10.8846V10.6835C10.4401 10.4135 10.1855 10.1947 9.87144 10.1947C9.55735 10.1947 9.30273 10.4135 9.30273 10.6835V10.8846C9.30273 11.1545 9.55735 11.3734 9.87144 11.3734Z" fill="#26394F" style="fill:#26394F;fill:color(display-p3 0.1490 0.2235 0.3098);fill-opacity:1;"/>
<path fill-rule="evenodd" clip-rule="evenodd" d="M23.0347 27.342C23.0478 27.345 23.0778 27.3532 23.1277 27.3742C23.2113 27.4095 23.3163 27.4662 23.4428 27.5459C23.6642 27.6853 23.901 27.8621 24.1514 28.049C24.1909 28.0784 24.2306 28.1081 24.2707 28.1379C24.543 28.3405 24.8556 28.5695 25.1304 28.7025C25.2594 28.765 25.4647 28.8498 25.699 28.846C25.8308 28.8438 25.978 28.8134 26.1133 28.7329C26.2466 28.6537 26.3306 28.5484 26.3818 28.4486L26.382 28.4482C27.1945 26.8608 26.8089 24.0388 24.5618 21.8792C24.3524 21.6779 23.9929 21.6607 23.7587 21.8407C23.5246 22.0206 23.5046 22.3297 23.714 22.5309C25.5444 24.29 25.8928 26.4657 25.4765 27.727C25.349 27.6439 25.1956 27.533 25.015 27.3986C24.9782 27.3712 24.9404 27.3431 24.902 27.3143C24.6553 27.13 24.3779 26.9228 24.115 26.7572C23.9614 26.6605 23.7962 26.5672 23.6288 26.4966C23.4679 26.4287 23.261 26.3627 23.0347 26.3627C22.8083 26.3627 22.6015 26.4288 22.4407 26.4966C22.2733 26.5672 22.1082 26.6605 21.9546 26.7573C21.6918 26.9228 21.4145 27.1299 21.1678 27.3142C21.1292 27.343 21.0915 27.3712 21.0546 27.3986C20.874 27.5329 20.7206 27.6438 20.5931 27.7269C20.1763 26.4653 20.5249 24.2901 22.3552 22.5309C22.5646 22.3296 22.5445 22.0206 22.3104 21.8406C22.0763 21.6607 21.7167 21.6779 21.5074 21.8792C19.2605 24.0387 18.8745 26.86 19.6878 28.4482C19.6878 28.4483 19.6878 28.4483 19.6878 28.4484C19.7389 28.5482 19.8229 28.6536 19.9561 28.7329C20.0915 28.8134 20.2388 28.8439 20.3706 28.846C20.6049 28.8498 20.8102 28.7649 20.9392 28.7025C21.2139 28.5695 21.5265 28.3405 21.7988 28.1379C21.839 28.1081 21.8788 28.0783 21.9183 28.0489C22.1687 27.862 22.4055 27.6853 22.6269 27.5459C22.7533 27.4662 22.8583 27.4095 22.9419 27.3742C22.9917 27.3532 23.0217 27.3451 23.0347 27.342ZM20.3237 27.8748C20.3236 27.8748 20.3235 27.8749 20.3235 27.8749C20.3235 27.8749 20.3236 27.8748 20.3237 27.8748ZM20.7289 28.0547C20.7289 28.0546 20.7289 28.0546 20.7289 28.0545L20.7289 28.0547Z" fill="#26394F" style="fill:#26394F;fill:color(display-p3 0.1490 0.2235 0.3098);fill-opacity:1;"/>
<path fill-rule="evenodd" clip-rule="evenodd" d="M24.0339 23.6138C23.6415 24.3507 22.424 24.3506 22.0317 23.6138L24.0339 23.6138ZM22.0317 23.6138C21.5022 22.6197 20.6326 20.8954 19.8943 18.9974C19.1602 17.1103 18.5371 15.0052 18.5371 13.2646C18.5371 11.8063 18.9722 10.435 19.7383 9.41284C20.5042 8.39091 21.6437 7.67283 23.0328 7.67283C24.4219 7.67283 25.5614 8.39092 26.3273 9.41285C27.0934 10.435 27.5285 11.8063 27.5285 13.2646C27.5285 15.0052 26.9054 17.1103 26.1713 18.9974C25.433 20.8954 24.5633 22.6197 24.0339 23.6138M23.0328 23.1446C22.5099 22.159 21.6786 20.5013 20.973 18.6874C20.248 16.8238 19.6745 14.8416 19.6745 13.2646C19.6745 11.9615 20.0657 10.7813 20.6944 9.9423C21.3234 9.10313 22.1474 8.65048 23.0328 8.65048C23.9183 8.65048 24.7422 9.10312 25.3712 9.9423C25.9999 10.7813 26.3911 11.9615 26.3911 13.2646C26.3911 14.8416 25.8175 16.8238 25.0926 18.6874C24.387 20.5013 23.5556 22.159 23.0328 23.1446Z" fill="#26394F" style="fill:#26394F;fill:color(display-p3 0.1490 0.2235 0.3098);fill-opacity:1;"/>
<path fill-rule="evenodd" clip-rule="evenodd" d="M23.0331 13.1186C21.6354 13.1186 20.4072 12.6135 19.6228 11.8464C19.4155 11.6437 19.0561 11.6238 18.8202 11.802C18.5843 11.9802 18.5611 12.2891 18.7685 12.4918C19.7749 13.4761 21.3177 14.0962 23.0331 14.0962C24.7484 14.0962 26.2912 13.4761 27.2976 12.4918C27.505 12.2891 27.4818 11.9802 27.2459 11.802C27.01 11.6238 26.6506 11.6437 26.4433 11.8464C25.6589 12.6135 24.4307 13.1186 23.0331 13.1186Z" fill="#26394F" style="fill:#26394F;fill:color(display-p3 0.1490 0.2235 0.3098);fill-opacity:1;"/>
<path fill-rule="evenodd" clip-rule="evenodd" d="M21.8107 16.943C22.0812 17.0803 22.4299 17.0032 22.5897 16.7708L23.0345 16.1236L23.4793 16.7708C23.6391 17.0032 23.9878 17.0803 24.2582 16.943C24.5286 16.8057 24.6184 16.5059 24.4586 16.2735L23.8709 15.4185L23.8709 15.4185C23.4949 14.8714 22.5742 14.8714 22.1982 15.4185C22.1982 15.4185 22.1981 15.4185 22.1981 15.4185L21.6104 16.2734C21.4506 16.5059 21.5403 16.8056 21.8107 16.943Z" fill="#26394F" style="fill:#26394F;fill:color(display-p3 0.1490 0.2235 0.3098);fill-opacity:1;"/>
<path fill-rule="evenodd" clip-rule="evenodd" d="M23.8031 11.3734C24.1172 11.3734 24.3718 11.1545 24.3718 10.8846V10.6835C24.3718 10.4135 24.1172 10.1947 23.8031 10.1947C23.489 10.1947 23.2344 10.4135 23.2344 10.6835V10.8846C23.2344 11.1545 23.489 11.3734 23.8031 11.3734Z" fill="#26394F" style="fill:#26394F;fill:color(display-p3 0.1490 0.2235 0.3098);fill-opacity:1;"/>
<path fill-rule="evenodd" clip-rule="evenodd" d="M22.8721 8.85394C23.1861 8.85394 23.4408 8.58953 23.4408 8.26337V4.84487C23.4408 4.5187 23.1861 4.25429 22.8721 4.25429C22.3617 4.25429 21.948 3.82471 21.948 3.29464C21.948 2.76463 22.3617 2.33499 22.8721 2.33499C23.1861 2.33499 23.4408 2.07058 23.4408 1.74442C23.4408 1.41825 23.1861 1.15384 22.8721 1.15384C21.7335 1.15384 20.8105 2.1123 20.8105 3.29464C20.8105 4.27221 21.4414 5.09662 22.3034 5.35296V8.26337C22.3034 8.58953 22.558 8.85394 22.8721 8.85394Z" fill="#26394F" style="fill:#26394F;fill:color(display-p3 0.1490 0.2235 0.3098);fill-opacity:1;"/>
<path d="M12.448 14C13.2826 14.2248 13.7923 14.8959 13.7771 15.75C13.7599 16.7163 12.1131 16.5394 12.005 17.5C11.8827 18.5873 14.0351 18.6236 13.7771 19.6875C13.6062 20.3924 12.448 21 12.448 21" stroke="#26394F" style="stroke:#26394F;stroke:color(display-p3 0.1490 0.2235 0.3098);stroke-opacity:1;" stroke-linecap="round"/>
<path fill-rule="evenodd" clip-rule="evenodd" d="M15.8023 23.0307C15.7179 23.2237 15.493 23.3116 15.3 23.2272C14.5384 22.8938 14.135 22.1612 14.2731 21.3432C14.3256 21.0324 14.5051 20.8297 14.7136 20.7009C14.8963 20.588 15.1133 20.5252 15.2738 20.4788C15.2777 20.4777 15.2816 20.4766 15.2855 20.4754C15.4705 20.4219 15.597 20.3841 15.6932 20.3295C15.7724 20.2844 15.8016 20.2444 15.8163 20.1893C15.8309 20.1351 15.8267 20.0873 15.7595 20.0003C15.6782 19.895 15.5489 19.7919 15.368 19.65C15.3638 19.6467 15.3596 19.6435 15.3554 19.6402C15.1989 19.5175 14.9914 19.3549 14.8527 19.1592C14.6902 18.93 14.6051 18.6314 14.7434 18.2925C14.823 18.0974 15.0456 18.0038 15.2407 18.0834C15.4357 18.163 15.5293 18.3856 15.4497 18.5806C15.4303 18.6283 15.4294 18.6536 15.475 18.7181C15.5408 18.8108 15.658 18.9081 15.8387 19.0497C15.8468 19.0561 15.855 19.0625 15.8634 19.0691C16.0181 19.1902 16.2194 19.3477 16.3633 19.5342C16.5293 19.7491 16.6466 20.0377 16.5532 20.3866C16.4726 20.6877 16.2775 20.8747 16.0702 20.9926C15.89 21.095 15.6813 21.1552 15.5241 21.2005C15.5151 21.2031 15.5062 21.2057 15.4976 21.2082C15.3143 21.2612 15.1971 21.2989 15.1146 21.3498C15.0535 21.3876 15.0342 21.4175 15.0253 21.4702C14.9464 21.9373 15.1595 22.3329 15.6059 22.5283C15.7988 22.6128 15.8868 22.8377 15.8023 23.0307Z" fill="#26394F" style="fill:#26394F;fill:color(display-p3 0.1490 0.2235 0.3098);fill-opacity:1;"/>
</svg>
