<svg width="30" height="30" viewBox="0 0 30 30" fill="none" xmlns="http://www.w3.org/2000/svg">
<path d="M13.1996 1.79999C11.8796 1.79999 10.7996 2.87999 10.7996 4.19999C10.7996 4.91999 11.0998 5.57999 11.6398 5.99999C11.5798 6.05999 11.4596 6.12022 11.3996 6.24022C10.9796 5.70022 10.3196 5.39999 9.59956 5.39999C8.27956 5.39999 7.19956 6.47999 7.19956 7.79999C7.19956 8.51999 7.4998 9.17999 8.0398 9.59999C7.9798 9.65999 7.85956 9.72022 7.79956 9.84022C7.37956 9.36022 6.71956 8.99999 5.99956 8.99999C4.67956 8.99999 3.59956 10.08 3.59956 11.4C3.59956 11.8385 3.72714 12.2452 3.93472 12.6H2.39956C2.32005 12.5989 2.24112 12.6136 2.16734 12.6432C2.09355 12.6728 2.0264 12.7169 1.96978 12.7727C1.91316 12.8285 1.8682 12.895 1.83751 12.9684C1.80682 13.0417 1.79102 13.1205 1.79102 13.2C1.79102 13.2795 1.80682 13.3582 1.83751 13.4316C1.8682 13.5049 1.91316 13.5715 1.96978 13.6273C2.0264 13.6831 2.09355 13.7271 2.16734 13.7568C2.24112 13.7864 2.32005 13.8011 2.39956 13.8V27C2.32005 26.9989 2.24112 27.0136 2.16734 27.0432C2.09355 27.0728 2.0264 27.1169 1.96978 27.1727C1.91316 27.2285 1.8682 27.295 1.83751 27.3684C1.80682 27.4417 1.79102 27.5205 1.79102 27.6C1.79102 27.6795 1.80682 27.7582 1.83751 27.8316C1.8682 27.9049 1.91316 27.9715 1.96978 28.0273C2.0264 28.0831 2.09355 28.1271 2.16734 28.1568C2.24112 28.1864 2.32005 28.2011 2.39956 28.2H27.5996C27.6791 28.2011 27.758 28.1864 27.8318 28.1568C27.9056 28.1271 27.9727 28.0831 28.0293 28.0273C28.086 27.9715 28.1309 27.9049 28.1616 27.8316C28.1923 27.7582 28.2081 27.6795 28.2081 27.6C28.2081 27.5205 28.1923 27.4417 28.1616 27.3684C28.1309 27.295 28.086 27.2285 28.0293 27.1727C27.9727 27.1169 27.9056 27.0728 27.8318 27.0432C27.758 27.0136 27.6791 26.9989 27.5996 27V13.8C27.6791 13.8011 27.758 13.7864 27.8318 13.7568C27.9056 13.7271 27.9727 13.6831 28.0293 13.6273C28.086 13.5715 28.1309 13.5049 28.1616 13.4316C28.1923 13.3582 28.2081 13.2795 28.2081 13.2C28.2081 13.1205 28.1923 13.0417 28.1616 12.9684C28.1309 12.895 28.086 12.8285 28.0293 12.7727C27.9727 12.7169 27.9056 12.6728 27.8318 12.6432C27.758 12.6136 27.6791 12.5989 27.5996 12.6H26.0644C26.272 12.2452 26.3996 11.8385 26.3996 11.4C26.3996 10.08 25.3196 8.99999 23.9996 8.99999C23.2796 8.99999 22.6196 9.30022 22.1996 9.84022C22.1396 9.78022 22.0793 9.65999 21.9593 9.59999C22.4393 9.17999 22.7996 8.51999 22.7996 7.79999C22.7996 6.47999 21.7196 5.39999 20.3996 5.39999C19.6796 5.39999 19.0196 5.70022 18.5996 6.24022C18.5396 6.18022 18.4793 6.05999 18.3593 5.99999C18.8993 5.57999 19.1996 4.91999 19.1996 4.19999C19.1996 2.87999 18.1196 1.79999 16.7996 1.79999C16.0796 1.79999 15.4196 2.10022 14.9996 2.64022C14.5796 2.10022 13.9196 1.79999 13.1996 1.79999ZM13.1996 2.99999C13.8596 2.99999 14.3996 3.53999 14.3996 4.19999C14.3996 4.85999 13.8596 5.39999 13.1996 5.39999C12.5396 5.39999 11.9996 4.85999 11.9996 4.19999C11.9996 3.53999 12.5396 2.99999 13.1996 2.99999ZM16.7996 2.99999C17.4596 2.99999 17.9996 3.53999 17.9996 4.19999C17.9996 4.85999 17.4596 5.39999 16.7996 5.39999C16.1396 5.39999 15.5996 4.85999 15.5996 4.19999C15.5996 3.53999 16.1396 2.99999 16.7996 2.99999ZM9.59956 6.59999C10.2596 6.59999 10.7996 7.13999 10.7996 7.79999C10.7996 8.45999 10.2596 8.99999 9.59956 8.99999C8.93956 8.99999 8.39956 8.45999 8.39956 7.79999C8.39956 7.13999 8.93956 6.59999 9.59956 6.59999ZM13.1996 6.59999C13.8596 6.59999 14.3996 7.13999 14.3996 7.79999C14.3996 8.45999 13.8596 8.99999 13.1996 8.99999C12.5396 8.99999 11.9996 8.45999 11.9996 7.79999C11.9996 7.13999 12.5396 6.59999 13.1996 6.59999ZM16.7996 6.59999C17.4596 6.59999 17.9996 7.13999 17.9996 7.79999C17.9996 8.45999 17.4596 8.99999 16.7996 8.99999C16.1396 8.99999 15.5996 8.45999 15.5996 7.79999C15.5996 7.13999 16.1396 6.59999 16.7996 6.59999ZM20.3996 6.59999C21.0596 6.59999 21.5996 7.13999 21.5996 7.79999C21.5996 8.45999 21.0596 8.99999 20.3996 8.99999C19.7396 8.99999 19.1996 8.45999 19.1996 7.79999C19.1996 7.13999 19.7396 6.59999 20.3996 6.59999ZM5.99956 10.2C6.65956 10.2 7.19956 10.74 7.19956 11.4C7.19956 12.06 6.65956 12.6 5.99956 12.6C5.33956 12.6 4.79956 12.06 4.79956 11.4C4.79956 10.74 5.33956 10.2 5.99956 10.2ZM9.59956 10.2C10.2596 10.2 10.7996 10.74 10.7996 11.4C10.7996 12.06 10.2596 12.6 9.59956 12.6C8.93956 12.6 8.39956 12.06 8.39956 11.4C8.39956 10.74 8.93956 10.2 9.59956 10.2ZM13.1996 10.2C13.8596 10.2 14.3996 10.74 14.3996 11.4C14.3996 12.06 13.8596 12.6 13.1996 12.6C12.5396 12.6 11.9996 12.06 11.9996 11.4C11.9996 10.74 12.5396 10.2 13.1996 10.2ZM16.7996 10.2C17.4596 10.2 17.9996 10.74 17.9996 11.4C17.9996 12.06 17.4596 12.6 16.7996 12.6C16.1396 12.6 15.5996 12.06 15.5996 11.4C15.5996 10.74 16.1396 10.2 16.7996 10.2ZM20.3996 10.2C21.0596 10.2 21.5996 10.74 21.5996 11.4C21.5996 12.06 21.0596 12.6 20.3996 12.6C19.7396 12.6 19.1996 12.06 19.1996 11.4C19.1996 10.74 19.7396 10.2 20.3996 10.2ZM23.9996 10.2C24.6596 10.2 25.1996 10.74 25.1996 11.4C25.1996 12.06 24.6596 12.6 23.9996 12.6C23.3396 12.6 22.7996 12.06 22.7996 11.4C22.7996 10.74 23.3396 10.2 23.9996 10.2ZM3.59956 13.8H5.99956H26.3996V27H3.59956V13.8ZM13.4996 16.1402C10.9796 16.1402 8.69933 17.7598 7.85933 20.1598C7.79933 20.2798 7.79933 20.4605 7.85933 20.5805C8.69933 22.9805 10.9796 24.6 13.4996 24.6C15.7196 24.6 17.76 23.3395 18.78 21.4195L21.18 23.7598C21.3 23.8798 21.4196 23.9402 21.5996 23.9402C21.6596 23.9402 21.7798 23.9405 21.8398 23.8805C22.0798 23.7605 22.1996 23.5802 22.1996 23.3402V17.4C22.1996 17.16 22.0798 16.9798 21.8398 16.8598C21.5998 16.7998 21.36 16.8005 21.18 16.9805L18.78 19.3195C17.76 17.3995 15.7196 16.1402 13.4996 16.1402ZM13.4996 17.4C15.4796 17.4 17.2198 18.6 17.9398 20.4C17.2198 22.2 15.4796 23.4 13.4996 23.4C11.5196 23.4 9.77933 22.2 9.05933 20.4C9.77933 18.6 11.5196 17.4 13.4996 17.4ZM20.9996 18.8402V21.9598L19.4398 20.4L20.9996 18.8402ZM11.3996 19.8C11.2404 19.8 11.0878 19.8632 10.9753 19.9757C10.8628 20.0882 10.7996 20.2409 10.7996 20.4C10.7996 20.5591 10.8628 20.7117 10.9753 20.8243C11.0878 20.9368 11.2404 21 11.3996 21C11.5587 21 11.7113 20.9368 11.8238 20.8243C11.9363 20.7117 11.9996 20.5591 11.9996 20.4C11.9996 20.2409 11.9363 20.0882 11.8238 19.9757C11.7113 19.8632 11.5587 19.8 11.3996 19.8Z" fill="#2B3646" style="fill:#2B3646;fill:color(display-p3 0.1686 0.2118 0.2745);fill-opacity:1;"/>
</svg>
