<svg width="30" height="30" viewBox="0 0 30 30" fill="none" xmlns="http://www.w3.org/2000/svg">
<path fill-rule="evenodd" clip-rule="evenodd" d="M0 18.6475C0 20.8965 1.82319 22.7197 4.07227 22.7197H8.00859C8.2513 22.7197 8.44805 22.523 8.44805 22.2803C8.44805 22.0376 8.2513 21.8408 8.00859 21.8408H4.07227C2.30861 21.8408 0.878906 20.4111 0.878906 18.6475V11.3525C0.878906 9.58893 2.30861 8.15918 4.07227 8.15918H19.5428C19.7855 8.15918 19.9822 7.96243 19.9822 7.71973C19.9822 7.47703 19.7855 7.28028 19.5428 7.28028H4.07227C1.82319 7.28028 0 9.10353 0 11.3525V18.6475Z" fill="#2B3646" style="fill:#2B3646;fill:color(display-p3 0.1686 0.2118 0.2745);fill-opacity:1;"/>
<path fill-rule="evenodd" clip-rule="evenodd" d="M9.48438 22.2802C9.48438 22.5229 9.68112 22.7197 9.92383 22.7197H25.9281C28.1771 22.7197 30.0004 20.8964 30.0004 18.6474V11.3525C30.0004 9.10347 28.1771 7.28021 25.9281 7.28021H21.458C21.2153 7.28021 21.0186 7.47696 21.0186 7.71967C21.0186 7.96237 21.2153 8.15912 21.458 8.15912H25.9281C27.6917 8.15912 29.1215 9.58887 29.1215 11.3525V18.6474C29.1215 20.411 27.6917 21.8408 25.9281 21.8408H9.92383C9.68112 21.8408 9.48438 22.0375 9.48438 22.2802Z" fill="#2B3646" style="fill:#2B3646;fill:color(display-p3 0.1686 0.2118 0.2745);fill-opacity:1;"/>
<path fill-rule="evenodd" clip-rule="evenodd" d="M2.89063 15.15C2.59619 14.8237 2.5963 14.8236 2.59643 14.8235L2.59762 14.8224L2.60036 14.82C2.60262 14.818 2.60575 14.8152 2.60974 14.8116C2.61772 14.8046 2.62915 14.7945 2.64395 14.7817C2.67355 14.756 2.71666 14.7191 2.77274 14.6725C2.88488 14.5793 3.04898 14.4471 3.26065 14.2876C3.68377 13.9688 4.29825 13.5399 5.06897 13.0952C6.60737 12.2077 8.78547 11.2474 11.3173 10.988C11.5588 10.9633 11.7745 11.139 11.7993 11.3804C11.824 11.6219 11.6483 11.8376 11.4069 11.8624C9.03797 12.1051 6.98032 13.0072 5.50818 13.8565C4.77363 14.2803 4.18913 14.6885 3.7896 14.9895C3.72067 15.0415 3.65729 15.0902 3.59963 15.1352C3.68236 15.1945 3.7765 15.2604 3.88157 15.3318C4.34968 15.6499 5.03311 16.0756 5.8886 16.5015C7.60252 17.3549 9.98893 18.2004 12.7092 18.2004C14.3975 18.2004 16.0245 17.6666 17.4595 16.9876C17.6789 16.8837 17.9409 16.9774 18.0447 17.1968C18.1485 17.4162 18.0548 17.6782 17.8354 17.782C16.3384 18.4904 14.5774 19.0793 12.7092 19.0793C9.81029 19.0793 7.28742 18.1799 5.49685 17.2883C4.6001 16.8418 3.88247 16.395 3.3876 16.0587C3.14003 15.8905 2.94784 15.7497 2.81646 15.65C2.75076 15.6002 2.70024 15.5606 2.66557 15.5331C2.64823 15.5193 2.63485 15.5085 2.62552 15.5009C2.62086 15.4971 2.61721 15.4941 2.61457 15.4919L2.61139 15.4893L2.61038 15.4885L2.61002 15.4882C2.60988 15.488 2.60975 15.4879 2.89063 15.15ZM2.89063 15.15L2.59619 14.8237C2.50155 14.9091 2.44866 15.0315 2.45126 15.1589C2.45387 15.2864 2.5117 15.4065 2.60975 15.4879L2.89063 15.15Z" fill="#2B3646" style="fill:#2B3646;fill:color(display-p3 0.1686 0.2118 0.2745);fill-opacity:1;"/>
<path fill-rule="evenodd" clip-rule="evenodd" d="M27.4519 18.0052C27.5721 17.8557 27.5814 17.6456 27.475 17.4861L25.8171 15L27.475 12.5139C27.5811 12.3548 27.5721 12.1453 27.4527 11.9958C27.3333 11.8464 27.131 11.7913 26.9523 11.8597L23.0071 13.3697C21.848 13.8136 20.5512 13.7139 19.4762 13.0961C17.8396 12.1551 15.6784 11.1178 13.3072 10.9459C13.0651 10.9283 12.8547 11.1103 12.8371 11.3524C12.8196 11.5945 13.0016 11.8049 13.2436 11.8225C15.4134 11.9798 17.4344 12.9359 19.0382 13.8581L19.0383 13.8582C20.3433 14.608 21.9164 14.7286 23.3214 14.1905C23.3214 14.1905 23.3214 14.1905 23.3215 14.1905L25.9788 13.1734L24.9233 14.7562C24.8248 14.9038 24.8248 15.0962 24.9233 15.2438L25.9713 16.8153L23.3854 15.8087C23.3854 15.8087 23.3853 15.8087 23.3853 15.8087C23.3853 15.8087 23.3852 15.8087 23.3852 15.8087C22.3492 15.4047 21.2206 15.3611 20.1742 15.6649C19.9411 15.7326 19.807 15.9764 19.8747 16.2095C19.9424 16.4425 20.1862 16.5766 20.4192 16.5089C21.2817 16.2585 22.2119 16.2945 23.0662 16.6276L26.95 18.1394C27.1287 18.209 27.3318 18.1546 27.4519 18.0052Z" fill="#2B3646" style="fill:#2B3646;fill:color(display-p3 0.1686 0.2118 0.2745);fill-opacity:1;"/>
<path fill-rule="evenodd" clip-rule="evenodd" d="M10.4426 16.9329C10.6544 16.8144 10.73 16.5467 10.6115 16.3349L9.12579 13.679C9.00729 13.4672 8.73953 13.3915 8.52772 13.51C8.3159 13.6285 8.24025 13.8963 8.35875 14.1081L9.84451 16.764C9.963 16.9758 10.2308 17.0514 10.4426 16.9329Z" fill="#2B3646" style="fill:#2B3646;fill:color(display-p3 0.1686 0.2118 0.2745);fill-opacity:1;"/>
<path fill-rule="evenodd" clip-rule="evenodd" d="M13.3337 17.1833C13.5495 17.0721 13.6342 16.8071 13.5231 16.5913L11.711 13.0748C11.5999 12.8591 11.3349 12.7743 11.1191 12.8855C10.9034 12.9967 10.8186 13.2617 10.9298 13.4774L12.7418 16.9939C12.8529 17.2097 13.118 17.2944 13.3337 17.1833Z" fill="#2B3646" style="fill:#2B3646;fill:color(display-p3 0.1686 0.2118 0.2745);fill-opacity:1;"/>
<path fill-rule="evenodd" clip-rule="evenodd" d="M16.1378 16.5148C16.3451 16.3886 16.4108 16.1182 16.2846 15.9109L14.5961 13.138C14.4699 12.9307 14.1995 12.8649 13.9922 12.9912C13.7849 13.1174 13.7192 13.3878 13.8454 13.5951L15.5339 16.368C15.6601 16.5753 15.9305 16.641 16.1378 16.5148Z" fill="#2B3646" style="fill:#2B3646;fill:color(display-p3 0.1686 0.2118 0.2745);fill-opacity:1;"/>
<path d="M5.90039 15.4395C5.65764 15.4395 5.46094 15.2428 5.46094 15C5.46094 14.7572 5.65764 14.5605 5.90039 14.5605C6.14309 14.5605 6.33984 14.7572 6.33984 15C6.33984 15.2428 6.14309 15.4395 5.90039 15.4395Z" fill="#2B3646" style="fill:#2B3646;fill:color(display-p3 0.1686 0.2118 0.2745);fill-opacity:1;"/>
<path fill-rule="evenodd" clip-rule="evenodd" d="M18.3314 18.6116C19.8474 19.4868 21.7858 18.9674 22.661 17.4514C22.7824 17.2412 22.7104 16.9725 22.5002 16.8511L17.7716 14.1211C17.6706 14.0628 17.5507 14.047 17.4381 14.0772C17.3255 14.1073 17.2295 14.181 17.1712 14.2819C16.296 15.7979 16.8154 17.7363 18.3314 18.6116L18.3314 18.6116ZM21.6437 17.3715C20.9388 18.1825 19.7363 18.4078 18.7709 17.8504C17.8054 17.293 17.3992 16.139 17.7492 15.123L21.6437 17.3715Z" fill="#2B3646" style="fill:#2B3646;fill:color(display-p3 0.1686 0.2118 0.2745);fill-opacity:1;"/>
<path fill-rule="evenodd" clip-rule="evenodd" d="M4.03994 11.0701C4.34563 11.0701 4.59345 10.8223 4.59345 10.5166C4.59345 10.2109 4.34563 9.96309 4.03994 9.96309C3.73425 9.96309 3.48644 10.2109 3.48644 10.5166C3.48644 10.8223 3.73425 11.0701 4.03994 11.0701ZM4.03994 11.5683C4.62076 11.5683 5.0916 11.0974 5.0916 10.5166C5.0916 9.93578 4.62076 9.46494 4.03994 9.46494C3.45913 9.46494 2.98828 9.93578 2.98828 10.5166C2.98828 11.0974 3.45913 11.5683 4.03994 11.5683Z" fill="#2B3646" style="fill:#2B3646;fill:color(display-p3 0.1686 0.2118 0.2745);fill-opacity:1;"/>
<path fill-rule="evenodd" clip-rule="evenodd" d="M23.2752 11.2915C23.3516 11.2915 23.4136 11.2296 23.4136 11.1531C23.4136 11.0767 23.3516 11.0148 23.2752 11.0148C23.1988 11.0148 23.1368 11.0767 23.1368 11.1531C23.1368 11.2296 23.1988 11.2915 23.2752 11.2915ZM23.2752 11.7897C23.6267 11.7897 23.9117 11.5047 23.9117 11.1531C23.9117 10.8016 23.6267 10.5166 23.2752 10.5166C22.9237 10.5166 22.6387 10.8016 22.6387 11.1531C22.6387 11.5047 22.9237 11.7897 23.2752 11.7897Z" fill="#2B3646" style="fill:#2B3646;fill:color(display-p3 0.1686 0.2118 0.2745);fill-opacity:1;"/>
<path fill-rule="evenodd" clip-rule="evenodd" d="M5.09205 20.5351C5.45888 20.5351 5.75626 20.2377 5.75626 19.8709C5.75626 19.504 5.45888 19.2067 5.09205 19.2067C4.72522 19.2067 4.42784 19.504 4.42784 19.8709C4.42784 20.2377 4.72522 20.5351 5.09205 20.5351ZM5.09205 21.0332C5.734 21.0332 6.25441 20.5128 6.25441 19.8709C6.25441 19.2289 5.734 18.7085 5.09205 18.7085C4.45009 18.7085 3.92969 19.2289 3.92969 19.8709C3.92969 20.5128 4.45009 21.0332 5.09205 21.0332Z" fill="#2B3646" style="fill:#2B3646;fill:color(display-p3 0.1686 0.2118 0.2745);fill-opacity:1;"/>
<path d="M15.8304 17.8782C15.8304 18.3368 15.4587 18.7085 15.0002 18.7085C14.5416 18.7085 14.1699 18.3368 14.1699 17.8782C14.1699 17.4197 14.5416 17.048 15.0002 17.048C15.4587 17.048 15.8304 17.4197 15.8304 17.8782Z" fill="white" style="fill:white;fill-opacity:1;"/>
<path fill-rule="evenodd" clip-rule="evenodd" d="M15.0002 18.2103C15.1836 18.2103 15.3323 18.0616 15.3323 17.8782C15.3323 17.6948 15.1836 17.5461 15.0002 17.5461C14.8168 17.5461 14.6681 17.6948 14.6681 17.8782C14.6681 18.0616 14.8168 18.2103 15.0002 18.2103ZM15.0002 18.7085C15.4587 18.7085 15.8304 18.3368 15.8304 17.8782C15.8304 17.4197 15.4587 17.048 15.0002 17.048C14.5416 17.048 14.1699 17.4197 14.1699 17.8782C14.1699 18.3368 14.5416 18.7085 15.0002 18.7085Z" fill="#2B3646" style="fill:#2B3646;fill:color(display-p3 0.1686 0.2118 0.2745);fill-opacity:1;"/>
<path d="M26.6794 19.8985C26.6794 20.3418 26.3201 20.7011 25.8768 20.7011C25.4335 20.7011 25.0742 20.3418 25.0742 19.8985C25.0742 19.4553 25.4335 19.0959 25.8768 19.0959C26.3201 19.0959 26.6794 19.4553 26.6794 19.8985Z" fill="white" style="fill:white;fill-opacity:1;"/>
<path fill-rule="evenodd" clip-rule="evenodd" d="M25.8768 20.203C26.0449 20.203 26.1812 20.0667 26.1812 19.8985C26.1812 19.7304 26.0449 19.5941 25.8768 19.5941C25.7087 19.5941 25.5724 19.7304 25.5724 19.8985C25.5724 20.0667 25.7087 20.203 25.8768 20.203ZM25.8768 20.7011C26.3201 20.7011 26.6794 20.3418 26.6794 19.8985C26.6794 19.4553 26.3201 19.0959 25.8768 19.0959C25.4335 19.0959 25.0742 19.4553 25.0742 19.8985C25.0742 20.3418 25.4335 20.7011 25.8768 20.7011Z" fill="#2B3646" style="fill:#2B3646;fill:color(display-p3 0.1686 0.2118 0.2745);fill-opacity:1;"/>
<path d="M25.0741 19.0683C25.0741 19.7866 24.4918 20.369 23.7734 20.369C23.055 20.369 22.4727 19.7866 22.4727 19.0683C22.4727 18.3499 23.055 17.7675 23.7734 17.7675C24.4918 17.7675 25.0741 18.3499 25.0741 19.0683Z" fill="white" style="fill:white;fill-opacity:1;"/>
<path fill-rule="evenodd" clip-rule="evenodd" d="M23.7734 19.8708C24.2166 19.8708 24.576 19.5115 24.576 19.0683C24.576 18.625 24.2166 18.2657 23.7734 18.2657C23.3301 18.2657 22.9708 18.625 22.9708 19.0683C22.9708 19.5115 23.3301 19.8708 23.7734 19.8708ZM23.7734 20.369C24.4918 20.369 25.0741 19.7866 25.0741 19.0683C25.0741 18.3499 24.4918 17.7675 23.7734 17.7675C23.055 17.7675 22.4727 18.3499 22.4727 19.0683C22.4727 19.7866 23.055 20.369 23.7734 20.369Z" fill="#2B3646" style="fill:#2B3646;fill:color(display-p3 0.1686 0.2118 0.2745);fill-opacity:1;"/>
<path d="M22.1404 10.2122C22.1404 10.7471 21.7067 11.1808 21.1718 11.1808C20.6368 11.1808 20.2031 10.7471 20.2031 10.2122C20.2031 9.6772 20.6368 9.24353 21.1718 9.24353C21.7067 9.24353 22.1404 9.6772 22.1404 10.2122Z" fill="white" style="fill:white;fill-opacity:1;"/>
<path fill-rule="evenodd" clip-rule="evenodd" d="M21.1718 10.6826C21.4316 10.6826 21.6422 10.472 21.6422 10.2122C21.6422 9.95233 21.4316 9.74169 21.1718 9.74169C20.9119 9.74169 20.7013 9.95233 20.7013 10.2122C20.7013 10.472 20.9119 10.6826 21.1718 10.6826ZM21.1718 11.1808C21.7067 11.1808 22.1404 10.7471 22.1404 10.2122C22.1404 9.6772 21.7067 9.24353 21.1718 9.24353C20.6368 9.24353 20.2031 9.6772 20.2031 10.2122C20.2031 10.7471 20.6368 11.1808 21.1718 11.1808Z" fill="#2B3646" style="fill:#2B3646;fill:color(display-p3 0.1686 0.2118 0.2745);fill-opacity:1;"/>
</svg>
