<svg width="30" height="30" viewBox="0 0 30 30" fill="none" xmlns="http://www.w3.org/2000/svg">
<path d="M13 2C12.7348 2 12.4804 2.10536 12.2929 2.29289C12.1054 2.48043 12 2.73478 12 3C12 8.057 5 12 5 19C5 24.3178 10.7635 27.7559 12.793 27.9785C12.861 27.9929 12.9304 28.0001 13 28C13.2652 28 13.5196 27.8946 13.7071 27.7071C13.8946 27.5196 14 27.2652 14 27C13.9999 26.8515 13.9668 26.7048 13.9029 26.5707C13.839 26.4365 13.7461 26.3183 13.6309 26.2246V26.2227C12.7209 25.4847 11 23.3437 11 21.3887C11 18.1797 14 17 14 17C12.289 21.84 17.8954 22.4248 19.0234 27.2168H19.0254C19.0747 27.4387 19.198 27.6371 19.3752 27.7795C19.5524 27.9219 19.7727 27.9996 20 28C20.2106 27.9995 20.4157 27.9325 20.5859 27.8086C20.604 27.7955 20.6216 27.7818 20.6387 27.7676C20.8014 27.6619 25 24.885 25 19C25 16.5974 23.7983 12.4705 22.9336 10.6426L22.9316 10.6367L22.9297 10.6328C22.856 10.4463 22.728 10.2862 22.5622 10.1733C22.3964 10.0605 22.2005 10.0001 22 10C21.7665 10.0002 21.5403 10.0822 21.3609 10.2317C21.1815 10.3811 21.06 10.5887 21.0176 10.8184V10.8223C21.0151 10.8332 20.5558 12.873 19 14C19 9.28837 15.5984 4.42161 13.8047 2.4082C13.7778 2.37175 13.7484 2.33716 13.7168 2.30469C13.6238 2.20854 13.5124 2.13203 13.3893 2.07969C13.2662 2.02735 13.1338 2.00026 13 2Z" fill="#FFAA29" style="fill:#FFAA29;fill:color(display-p3 1.0000 0.6650 0.1625);fill-opacity:1;"/>
</svg>
