<svg width="30" height="30" viewBox="0 0 30 30" fill="none" xmlns="http://www.w3.org/2000/svg">
<path d="M20.5355 5.25984H7.30477C7.19599 5.25984 7.09166 5.30306 7.01474 5.37998C6.93782 5.4569 6.89461 5.56122 6.89461 5.67C6.89461 5.87203 6.90469 6.07149 6.92016 6.26953H4.10156C3.96234 6.26783 3.82359 6.25292 3.68719 6.225C3.60174 5.90408 3.59122 5.5678 3.65646 5.24216C3.7217 4.91652 3.86094 4.61025 4.06342 4.34701C4.2659 4.08377 4.5262 3.87061 4.8242 3.72401C5.12221 3.57742 5.44992 3.5013 5.78203 3.50156H16.6805C16.7892 3.50156 16.8936 3.45835 16.9705 3.38143C17.0474 3.30451 17.0906 3.20019 17.0906 3.09141C17.0906 2.98263 17.0474 2.8783 16.9705 2.80138C16.8936 2.72446 16.7892 2.68125 16.6805 2.68125H5.78203C5.38955 2.68107 5.00089 2.75823 4.63825 2.90834C4.27561 3.05845 3.94611 3.27856 3.66859 3.55609C3.39106 3.83361 3.17095 4.16311 3.02084 4.52575C2.87073 4.88839 2.79357 5.27705 2.79375 5.66953C2.79375 5.72414 2.79797 5.77852 2.80102 5.83359C2.53284 5.63117 2.31503 5.36954 2.16457 5.06911C2.01411 4.76868 1.93507 4.43756 1.93359 4.10156C1.93347 3.81683 1.98946 3.53486 2.09837 3.27177C2.20728 3.00869 2.36696 2.76964 2.5683 2.5683C2.76964 2.36696 3.00869 2.20728 3.27177 2.09837C3.53486 1.98946 3.81683 1.93347 4.10156 1.93359H15C15.1088 1.93359 15.2131 1.89038 15.29 1.81346C15.3669 1.73654 15.4102 1.63222 15.4102 1.52344C15.4102 1.41466 15.3669 1.31033 15.29 1.23341C15.2131 1.15649 15.1088 1.11328 15 1.11328H4.10156C3.70908 1.1131 3.32042 1.19026 2.95778 1.34037C2.59514 1.49048 2.26564 1.71059 1.98812 1.98812C1.71059 2.26564 1.49048 2.59514 1.34037 2.95778C1.19026 3.32042 1.1131 3.70908 1.11328 4.10156C1.11612 4.71069 1.30386 5.30459 1.65165 5.80468C1.99944 6.30477 2.49088 6.68746 3.06094 6.90211C3.29901 7.42441 3.68193 7.86745 4.16424 8.17865C4.64656 8.48985 5.20803 8.65615 5.78203 8.65781H7.50422C7.89396 9.56833 8.45661 10.3946 9.16102 11.0909C7.89328 12.3211 7.94531 14.4042 7.94789 14.5003C7.95142 14.6066 7.99612 14.7074 8.07256 14.7814C8.149 14.8554 8.25119 14.8968 8.35758 14.8969H8.37141C8.48012 14.8933 8.58295 14.8466 8.65728 14.7672C8.73161 14.6878 8.77134 14.5821 8.76773 14.4734C8.76773 14.4537 8.72086 12.6068 9.77695 11.6374C10.2579 12.0212 10.7834 12.3454 11.3421 12.603C10.5745 13.8698 10.6922 15.4624 10.6983 15.5365C10.707 15.6388 10.7538 15.734 10.8294 15.8035C10.905 15.8729 11.0039 15.9114 11.1066 15.9115C11.1178 15.9115 11.13 15.9115 11.1408 15.9101C11.2489 15.901 11.3491 15.8495 11.4193 15.7668C11.4896 15.6841 11.5243 15.5769 11.5158 15.4688C11.5146 15.4526 11.4035 13.9526 12.1137 12.9089C12.7479 13.1209 13.4073 13.2482 14.0749 13.2874C13.8272 14.1754 13.8021 15.1107 14.0018 16.0106C14.0277 16.1163 14.0945 16.2074 14.1875 16.2638C14.2806 16.3202 14.3922 16.3373 14.4979 16.3114C14.6035 16.2856 14.6946 16.2187 14.751 16.1257C14.8074 16.0327 14.8246 15.9211 14.7987 15.8154C14.7952 15.8006 14.4705 14.4265 14.9409 13.3017H16.68C17.7835 13.3031 18.8414 13.7424 19.6213 14.523C20.4013 15.3037 20.8397 16.3619 20.8402 17.4654C20.8398 18.8474 20.2906 20.1727 19.3133 21.1498C18.336 22.1269 17.0106 22.6758 15.6286 22.6758H15.5859C15.5815 22.6758 15.5773 22.6758 15.5726 22.6772C13.9399 22.4491 12.3569 21.9491 10.8895 21.1978C10.8354 21.1699 10.7756 21.1545 10.7147 21.1525C10.6538 21.1506 10.5933 21.1623 10.5374 21.1867C10.4816 21.211 10.4319 21.2476 10.3919 21.2936C10.352 21.3396 10.3228 21.3939 10.3064 21.4526C9.76969 23.3808 10.4705 24.4247 11.2704 24.9825C10.7466 26.8015 11.4033 28.2077 12.3323 28.8192C12.3778 28.8491 12.4288 28.8697 12.4823 28.8797C12.5358 28.8897 12.5908 28.889 12.644 28.8776C12.6972 28.8661 12.7476 28.8442 12.7923 28.8131C12.837 28.782 12.875 28.7424 12.9042 28.6964C13.4859 27.78 14.2566 26.8448 16.2525 25.0587H17.4394C20.4754 25.0586 23.3871 23.8525 25.5339 21.7057C27.6807 19.5588 28.8867 16.6471 28.8867 13.6111C28.8842 11.397 28.0036 9.27423 26.438 7.70861C24.8723 6.14298 22.7496 5.26233 20.5355 5.25984ZM25.301 20.763C23.6402 20.7286 22.2462 20.1466 21.4223 19.1459C21.5804 18.5982 21.6605 18.031 21.6602 17.4609C21.6594 16.7035 21.4845 15.9564 21.1491 15.2773C22.4236 14.9348 25.598 13.7902 27.4303 10.5872C27.8504 11.5398 28.0671 12.5695 28.0664 13.6106C28.073 16.257 27.0861 18.8094 25.301 20.763ZM5.78203 7.8375C5.47288 7.83601 5.1676 7.76854 4.88662 7.6396C4.60563 7.51067 4.3554 7.32324 4.15266 7.08984H7.02891C7.0766 7.34195 7.13698 7.59149 7.20984 7.8375H5.78203ZM7.72734 6.07969H17.3672C17.8209 6.59531 18.042 7.65398 17.947 8.90086C17.8277 10.4651 17.2439 11.9372 16.5441 12.48H14.5252C12.7907 12.4776 11.1223 11.8145 9.8594 10.6256C8.59651 9.43672 7.83404 7.81133 7.72711 6.08016L7.72734 6.07969ZM17.5837 12.5667C18.2752 11.6412 18.6715 10.2028 18.7659 8.96367C18.8548 7.79648 18.7017 6.79594 18.3417 6.08086H20.5355C21.8288 6.08148 23.1002 6.41506 24.2272 7.04947C25.3543 7.68388 26.299 8.59776 26.9705 9.70312C25.2441 13.2087 21.6703 14.3046 20.7056 14.5416C19.9566 13.5075 18.839 12.8006 17.5837 12.5667ZM12.4755 27.8585C12.0398 27.3593 11.6363 26.3742 12.1451 24.9412C12.1776 24.8498 12.1766 24.7497 12.1422 24.6589C12.1079 24.5681 12.0425 24.4924 11.9576 24.4453C11.1263 23.9843 10.8061 23.2341 10.9866 22.1602C12.1164 22.6882 13.3042 23.0822 14.5256 23.3339C14.4402 23.4987 14.3951 23.6815 14.3939 23.8671C14.394 24.103 14.4641 24.3336 14.5953 24.5297C14.7265 24.7258 14.913 24.8786 15.131 24.9687C13.7285 26.262 13.0041 27.097 12.4755 27.8585ZM23.1021 22.6038C21.4067 23.6724 19.4434 24.2391 17.4394 24.2384H15.5859C15.4891 24.2359 15.3971 24.1958 15.3295 24.1264C15.2619 24.0571 15.224 23.9641 15.224 23.8672C15.224 23.7704 15.2619 23.6774 15.3295 23.608C15.3971 23.5387 15.4891 23.4985 15.5859 23.4961H15.6286C16.7786 23.4958 17.9046 23.167 18.8741 22.5483C19.8435 21.9296 20.616 21.0469 21.1005 20.0039C22.0393 20.8799 23.2435 21.4176 24.5224 21.5316C24.0795 21.9277 23.6044 22.2864 23.1021 22.6038Z" fill="#26394F" style="fill:#26394F;fill:color(display-p3 0.1490 0.2235 0.3098);fill-opacity:1;"/>
<path d="M22.3033 7.7468C22.7813 7.89132 23.2396 8.09401 23.6681 8.35031C23.7612 8.4026 23.871 8.41654 23.9741 8.38917C24.0773 8.3618 24.1658 8.29528 24.2207 8.20374C24.2756 8.11221 24.2927 8.00286 24.2683 7.89894C24.2439 7.79502 24.1799 7.7047 24.09 7.64719C23.6036 7.35581 23.0832 7.12533 22.5405 6.96094C22.489 6.94536 22.4348 6.9401 22.3812 6.94545C22.3276 6.95079 22.2756 6.96664 22.2281 6.9921C22.1806 7.01755 22.1386 7.0521 22.1045 7.09379C22.0704 7.13547 22.0448 7.18347 22.0292 7.23504C22.0137 7.28661 22.0084 7.34074 22.0137 7.39434C22.0191 7.44795 22.0349 7.49997 22.0604 7.54745C22.0858 7.59493 22.1204 7.63693 22.1621 7.67105C22.2038 7.70518 22.2518 7.73075 22.3033 7.74633V7.7468Z" fill="#26394F" style="fill:#26394F;fill:color(display-p3 0.1490 0.2235 0.3098);fill-opacity:1;"/>
<path d="M12.5391 8.9599C12.7592 8.9599 12.9745 8.89461 13.1576 8.77228C13.3406 8.64995 13.4833 8.47608 13.5676 8.27265C13.6519 8.06923 13.6739 7.84538 13.631 7.62943C13.588 7.41347 13.482 7.21511 13.3263 7.05941C13.1706 6.90372 12.9722 6.79769 12.7563 6.75473C12.5403 6.71177 12.3165 6.73382 12.113 6.81808C11.9096 6.90234 11.7357 7.04504 11.6134 7.22811C11.4911 7.41119 11.4258 7.62643 11.4258 7.84662C11.4261 8.14178 11.5435 8.42477 11.7522 8.63349C11.9609 8.8422 12.2439 8.95959 12.5391 8.9599ZM12.5391 7.55365C12.597 7.55365 12.6536 7.57083 12.7018 7.60302C12.75 7.63522 12.7876 7.68097 12.8097 7.7345C12.8319 7.78804 12.8377 7.84694 12.8264 7.90377C12.8151 7.9606 12.7872 8.01281 12.7462 8.05378C12.7053 8.09475 12.653 8.12265 12.5962 8.13396C12.5394 8.14526 12.4805 8.13946 12.4269 8.11729C12.3734 8.09511 12.3277 8.05756 12.2955 8.00938C12.2633 7.96121 12.2461 7.90456 12.2461 7.84662C12.2462 7.76896 12.2771 7.69451 12.332 7.6396C12.387 7.58468 12.4614 7.55377 12.5391 7.55365Z" fill="#26394F" style="fill:#26394F;fill:color(display-p3 0.1490 0.2235 0.3098);fill-opacity:1;"/>
</svg>
