<svg width="30" height="30" viewBox="0 0 30 30" fill="none" xmlns="http://www.w3.org/2000/svg">
<path d="M24.6106 13.7564C24.745 13.4786 24.8157 13.1743 24.8176 12.8658V5.89685C24.8176 5.89169 24.8162 5.88677 24.8159 5.88161C24.7977 3.33442 19.7209 1.34106 13.2418 1.34106C6.76273 1.34106 1.6857 3.33442 1.66766 5.88278C1.66766 5.88794 1.66602 5.89286 1.66602 5.89802V12.8648C1.66602 14.205 2.98344 15.3961 5.38906 16.2436C5.25407 16.5223 5.1832 16.8278 5.18164 17.1375V24.1054C5.18164 26.6601 10.2676 28.6593 16.7574 28.6593C23.2473 28.6593 28.3332 26.659 28.3332 24.1054V17.1375C28.3332 15.799 27.0163 14.6081 24.6106 13.7564ZM27.5129 17.1375C27.5129 18.9408 23.191 20.8711 16.7574 20.8711C10.3238 20.8711 6.00195 18.9408 6.00195 17.1375C6.00575 16.9125 6.06742 16.6923 6.18102 16.4981C6.57102 16.6139 6.98258 16.7217 7.41711 16.8185C7.38511 16.9219 7.36791 17.0293 7.36602 17.1375C7.36602 19.05 12.0905 20.0508 16.7574 20.0508C21.4243 20.0508 26.1488 19.05 26.1488 17.1375C26.1488 16.12 24.8448 15.4598 23.4727 15.0466C23.7103 14.8735 23.9301 14.6772 24.129 14.4607C26.2524 15.1755 27.5129 16.1669 27.5129 17.1375ZM22.5097 15.6375C24.4531 16.1032 25.3285 16.7217 25.3285 17.1375C25.3285 17.9908 21.9896 19.2304 16.7574 19.2304C11.5252 19.2304 8.18633 17.9908 8.18633 17.1375C8.18755 17.0828 8.20109 17.0291 8.22594 16.9804C9.88145 17.2752 11.56 17.4211 13.2416 17.4164C16.9077 17.4164 20.3511 16.7526 22.5097 15.6382V15.6375ZM13.2418 2.16138C19.6749 2.16138 23.9966 4.09192 23.9966 5.89521C23.9966 7.69849 19.6749 9.62927 13.2418 9.62927C6.80867 9.62927 2.48703 7.69872 2.48703 5.89521C2.48703 4.09169 6.80867 2.16138 13.2418 2.16138ZM2.48633 12.8648V7.60685C4.17383 9.28849 8.29883 10.4496 13.2418 10.4496C18.1848 10.4496 22.3102 9.28849 23.9973 7.60685V12.8648C23.9863 13.184 23.87 13.4905 23.6666 13.7367C23.2818 14.1992 22.8045 14.5761 22.2652 14.8429C20.2332 15.9408 16.8598 16.5961 13.2418 16.5961C11.5242 16.6025 9.80994 16.4456 8.12211 16.1273C7.44897 15.9983 6.78381 15.8307 6.12992 15.6253C3.84852 14.9076 2.48633 13.875 2.48633 12.8648ZM27.5129 24.1054C27.5129 25.9085 23.191 27.839 16.7574 27.839C10.3238 27.839 6.00195 25.9085 6.00195 24.1054V18.8496C7.68945 20.5312 11.8142 21.6914 16.7574 21.6914C21.7006 21.6914 25.8254 20.5308 27.5129 18.8496V24.1054Z" fill="#26394F" style="fill:#26394F;fill:color(display-p3 0.1490 0.2235 0.3098);fill-opacity:1;"/>
<path d="M15.0524 24.3447C14.6493 23.9517 13.8744 23.3038 13.0065 23.1428C12.9349 23.1295 12.861 23.1355 12.7924 23.1603C12.7239 23.185 12.6631 23.2276 12.6165 23.2836C12.5698 23.3396 12.539 23.407 12.527 23.4789C12.5151 23.5508 12.5225 23.6246 12.5486 23.6927C12.8622 24.4793 12.8622 25.3562 12.5486 26.1428C12.5251 26.2049 12.517 26.2718 12.5251 26.3376C12.5331 26.4035 12.557 26.4665 12.5948 26.5211C12.6325 26.5757 12.6829 26.6203 12.7417 26.6511C12.8005 26.682 12.8659 26.6981 12.9322 26.6981C13.5651 26.6981 14.5365 25.9914 15.0463 25.4962C16.0147 26.3838 17.0069 26.8375 18.0008 26.8375C19.0996 26.8375 20.1967 26.2879 21.2615 25.2046C21.3005 25.1647 21.3311 25.1172 21.3511 25.0651C21.3712 25.013 21.3804 24.9573 21.3782 24.9014C21.3761 24.8456 21.3625 24.7908 21.3384 24.7404C21.3143 24.6901 21.2801 24.6451 21.238 24.6084C19.0879 22.727 17.0085 22.6406 15.0524 24.3447ZM13.54 25.6213C13.6225 25.1549 13.6225 24.6776 13.54 24.2111C13.8766 24.4074 14.1873 24.6449 14.4651 24.9182C14.1868 25.1897 13.8761 25.4259 13.54 25.6213ZM18.0004 26.0172C17.2269 26.0172 16.4324 25.6499 15.6311 24.9245C17.1545 23.6203 18.6707 23.6259 20.3528 24.9395C19.5571 25.6549 18.7672 26.0172 18.0004 26.0172Z" fill="#26394F" style="fill:#26394F;fill:color(display-p3 0.1490 0.2235 0.3098);fill-opacity:1;"/>
<path d="M13.2425 8.80893C17.9091 8.80893 22.6334 7.80815 22.6334 5.89565C22.6334 3.98315 17.9091 2.9826 13.2425 2.9826C8.57586 2.9826 3.85156 3.98432 3.85156 5.89565C3.85156 7.80698 8.57586 8.80893 13.2425 8.80893ZM13.2425 3.80292C18.4745 3.80292 21.8131 5.04253 21.8131 5.89565C21.8131 6.74878 18.4745 7.98862 13.2425 7.98862C8.01055 7.98862 4.67187 6.74995 4.67187 5.89565C4.67187 5.04136 8.01055 3.80292 13.2425 3.80292Z" fill="#26394F" style="fill:#26394F;fill:color(display-p3 0.1490 0.2235 0.3098);fill-opacity:1;"/>
<path d="M12.1916 15.341C13.1856 15.341 14.1777 14.8872 15.1461 13.9996C15.5606 14.4122 16.0429 14.7506 16.5718 15C16.588 15.0082 16.6048 15.0152 16.622 15.021C16.8027 15.0991 16.9913 15.1575 17.1845 15.1954C17.256 15.2087 17.3298 15.2027 17.3983 15.1781C17.4667 15.1534 17.5274 15.111 17.574 15.0552C17.6207 14.9994 17.6517 14.9322 17.6638 14.8604C17.6759 14.7887 17.6687 14.715 17.6429 14.647C17.3296 13.8602 17.3296 12.9833 17.6429 12.1966C17.669 12.1285 17.6764 12.0547 17.6645 11.9828C17.6526 11.9109 17.6217 11.8435 17.575 11.7875C17.5284 11.7315 17.4677 11.6889 17.3991 11.6642C17.3305 11.6395 17.2566 11.6334 17.185 11.6468C16.3178 11.808 15.5425 12.4556 15.1393 12.8486C13.1837 11.1454 11.1048 11.2314 8.95325 13.1123C8.9111 13.149 8.8769 13.1939 8.85275 13.2443C8.8286 13.2947 8.81501 13.3495 8.81282 13.4054C8.81062 13.4612 8.81987 13.5169 8.83999 13.569C8.86011 13.6212 8.89068 13.6687 8.92982 13.7085C9.99575 14.7914 11.0929 15.341 12.1916 15.341ZM16.6508 12.716C16.5688 13.1826 16.5693 13.66 16.6525 14.1264C16.3154 13.9301 16.0043 13.6923 15.7265 13.4186C16.0046 13.1476 16.315 12.9119 16.6508 12.7169V12.716ZM14.5609 13.4271C13.7596 14.1536 12.9639 14.5197 12.1916 14.5197C11.4247 14.5197 10.6349 14.1574 9.83919 13.4416C11.5218 12.1289 13.0384 12.1242 14.5609 13.428V13.4271Z" fill="#26394F" style="fill:#26394F;fill:color(display-p3 0.1490 0.2235 0.3098);fill-opacity:1;"/>
</svg>
