<svg width="46" height="34" viewBox="0 0 46 34" fill="none" xmlns="http://www.w3.org/2000/svg">
<rect width="46" height="34" rx="6" fill="#E8EAEC" style="fill:#E8EAEC;fill:color(display-p3 0.9098 0.9176 0.9255);fill-opacity:1;"/>
<path fill-rule="evenodd" clip-rule="evenodd" d="M8.42153 12.0016C8.75208 11.9998 9.73448 11.915 10.1506 13.2602C10.4309 14.1664 10.8774 15.6507 11.4901 17.7132H11.7397C12.3967 15.5388 12.8481 14.0545 13.0938 13.2602C13.5143 11.901 14.5654 12.0017 14.9859 12.0017L18.2298 12.0017V21.6673H14.9235V15.9712H14.7018L12.8587 21.6673H10.3711L8.52801 15.967H8.3063V21.6673H5V12.0017L8.42153 12.0016ZM22.9776 12.0017V17.7021H23.2413L25.4833 13.0147C25.9185 12.0819 26.846 12.0017 26.846 12.0017H30.0455V21.6674H26.6702V15.967H26.4064L24.2084 20.6544C23.7732 21.5829 22.8017 21.6674 22.8017 21.6674H19.6022V12.0017H22.9776ZM41.7122 16.5949C41.2414 17.8728 39.7628 18.7881 38.1259 18.7881H34.5861V21.6674H31.3764V16.5949H41.7122Z" fill="#0CBA7A" style="fill:#0CBA7A;fill:color(display-p3 0.0456 0.7292 0.4800);fill-opacity:1;"/>
<path opacity="0.5" fill-rule="evenodd" clip-rule="evenodd" d="M38.2796 12.0027H31.207C31.3754 14.1546 33.3101 15.9968 35.3129 15.9968H41.9342C42.3163 14.2083 41.0009 12.0027 38.2796 12.0027Z" fill="#0CBA7A" style="fill:#0CBA7A;fill:color(display-p3 0.0456 0.7292 0.4800);fill-opacity:1;"/>
</svg>
