<svg width="30" height="30" viewBox="0 0 30 30" fill="none" xmlns="http://www.w3.org/2000/svg">
<g id="Capa_1" clip-path="url(#clip0_107_29)">
<path id="Vector" d="M7.10987 10.9617C7.27247 11.2433 7.63135 11.3372 7.91026 11.1762C8.19051 11.0144 8.28655 10.656 8.12471 10.3758L7.24581 8.85351C7.08397 8.5732 6.72561 8.47722 6.44542 8.63906C6.16516 8.80083 6.06913 9.15919 6.23096 9.43945L7.10987 10.9617Z" fill="#26394F" style="fill:#26394F;fill:color(display-p3 0.1490 0.2235 0.3098);fill-opacity:1;"/>
<path id="Vector_2" d="M14.3556 11.1762C14.6349 11.3373 14.9936 11.2429 15.156 10.9617L16.0349 9.43943C16.1967 9.15918 16.1007 8.80082 15.8204 8.63904C15.54 8.47721 15.1819 8.57324 15.02 8.8535L14.1411 10.3758C13.9793 10.656 14.0753 11.0144 14.3556 11.1762Z" fill="#26394F" style="fill:#26394F;fill:color(display-p3 0.1490 0.2235 0.3098);fill-opacity:1;"/>
<path id="Vector_3" d="M11.1328 10.3125C11.4564 10.3125 11.7188 10.0502 11.7188 9.72656V7.96875C11.7188 7.64514 11.4564 7.38281 11.1328 7.38281C10.8092 7.38281 10.5469 7.64514 10.5469 7.96875V9.72656C10.5469 10.0502 10.8092 10.3125 11.1328 10.3125Z" fill="#26394F" style="fill:#26394F;fill:color(display-p3 0.1490 0.2235 0.3098);fill-opacity:1;"/>
<path id="Vector_4" d="M19.4531 16.7578C19.4531 16.4342 19.1907 16.1719 18.8672 16.1719C18.5436 16.1719 18.2812 16.4342 18.2812 16.7578V18.5156C18.2812 18.8392 18.5436 19.1016 18.8672 19.1016C19.1907 19.1016 19.4531 18.8392 19.4531 18.5156V16.7578Z" fill="#26394F" style="fill:#26394F;fill:color(display-p3 0.1490 0.2235 0.3098);fill-opacity:1;"/>
<path id="Vector_5" d="M14.1798 17.4282C13.8995 17.5899 13.8035 17.9483 13.9653 18.2285L14.8442 19.7508C15.0068 20.0324 15.3657 20.1263 15.6446 19.9653C15.9249 19.8035 16.0209 19.4451 15.8591 19.1649L14.9802 17.6426C14.8183 17.3624 14.46 17.2663 14.1798 17.4282Z" fill="#26394F" style="fill:#26394F;fill:color(display-p3 0.1490 0.2235 0.3098);fill-opacity:1;"/>
<path id="Vector_6" d="M22.8903 19.7508L23.7692 18.2285C23.9311 17.9483 23.835 17.5899 23.5548 17.4281C23.2744 17.2664 22.9162 17.3624 22.7544 17.6426L21.8755 19.1648C21.7137 19.4451 21.8097 19.8035 22.0899 19.9652C22.3693 20.1265 22.728 20.032 22.8903 19.7508Z" fill="#26394F" style="fill:#26394F;fill:color(display-p3 0.1490 0.2235 0.3098);fill-opacity:1;"/>
<path id="Vector_7" d="M2.34375 17.3432H10.748C10.1271 18.4181 9.72252 19.6094 9.56654 20.8434C9.51926 21.2176 9.29338 21.5482 8.96238 21.7276C8.20488 22.1378 7.73438 22.9278 7.73438 23.7891C7.73438 25.0814 8.78578 26.1328 10.0781 26.1328H16.2305C16.554 26.1328 16.8164 25.8705 16.8164 25.5469C16.8164 25.2233 16.554 24.9609 16.2305 24.9609H10.0781C9.43195 24.9609 8.90625 24.4352 8.90625 23.7891C8.90625 23.3583 9.14162 22.9632 9.52055 22.7579C10.1828 22.399 10.6347 21.7382 10.7291 20.9903C11.2271 17.0515 14.5774 13.8281 18.8672 13.8281C23.0142 13.8281 26.4865 16.8912 27.0052 20.9902C27.0996 21.7383 27.5514 22.3992 28.2139 22.7579C28.5928 22.9632 28.8281 23.3583 28.8281 23.7891C28.8281 24.4352 28.3024 24.9609 27.6562 24.9609H21.5039C21.1804 24.9609 20.918 25.2233 20.918 25.5469C20.918 25.8705 21.1804 26.1328 21.5039 26.1328H27.6562C28.9486 26.1328 30 25.0814 30 23.7891C30 22.9278 29.5295 22.1379 28.7721 21.7276C28.4409 21.5482 28.2151 21.2177 28.1678 20.8433C27.6579 16.8134 24.5648 13.5168 20.4974 12.7985C20.2682 7.84107 16.1822 3.86719 11.1328 3.86719C6.27393 3.86719 2.25141 7.57248 1.79965 12.3501C1.77932 12.5664 1.64232 12.7526 1.44205 12.8361C0.566074 13.2014 0 14.0508 0 15C0 16.2923 1.05141 17.3437 2.34375 17.3432ZM1.89311 13.9177C2.49422 13.6671 2.90549 13.1084 2.96637 12.46C3.36645 8.22937 6.87727 5.03906 11.1328 5.03906C15.4829 5.03906 19.0243 8.41377 19.3163 12.6679C19.1668 12.6608 19.017 12.6562 18.8672 12.6562C15.9079 12.6562 13.2711 14.0263 11.5491 16.1719H2.34375C1.69758 16.1719 1.17188 15.6462 1.17188 15C1.17188 14.5252 1.455 14.1004 1.89311 13.9177Z" fill="#26394F" style="fill:#26394F;fill:color(display-p3 0.1490 0.2235 0.3098);fill-opacity:1;"/>
<path id="Vector_8" d="M18.8672 26.1328C19.1908 26.1328 19.4531 25.8705 19.4531 25.5469C19.4531 25.2233 19.1908 24.9609 18.8672 24.9609C18.5436 24.9609 18.2812 25.2233 18.2812 25.5469C18.2812 25.8705 18.5436 26.1328 18.8672 26.1328Z" fill="#26394F" style="fill:#26394F;fill:color(display-p3 0.1490 0.2235 0.3098);fill-opacity:1;"/>
</g>
<defs>
<clipPath id="clip0_107_29">
<rect width="30" height="30" fill="white" style="fill:white;fill-opacity:1;"/>
</clipPath>
</defs>
</svg>
