<svg width="63" height="51" viewBox="0 0 63 51" fill="none" xmlns="http://www.w3.org/2000/svg">
<path fill-rule="evenodd" clip-rule="evenodd" d="M0 25.8082C18.1554 8.31533 28.1737 3.39483 45.8465 0C42.772 1.23499 41.3916 2.1992 39.297 4.2104V21.1299C39.297 23.7137 37.2025 25.8082 34.6188 25.8082H0ZM16.1399 20.974C17.4317 20.974 18.479 19.9268 18.479 18.6349C18.479 17.343 17.4317 16.2958 16.1399 16.2958C14.848 16.2958 13.8007 17.343 13.8007 18.6349C13.8007 19.9268 14.848 20.974 16.1399 20.974Z" fill="white" style="fill:white;fill-opacity:1;"/>
<path d="M18.479 18.6349C18.479 19.9268 17.4317 20.974 16.1399 20.974C14.848 20.974 13.8007 19.9268 13.8007 18.6349C13.8007 17.343 14.848 16.2958 16.1399 16.2958C17.4317 16.2958 18.479 17.343 18.479 18.6349Z" fill="#FFAA29" style="fill:#FFAA29;fill:color(display-p3 1.0000 0.6650 0.1625);fill-opacity:1;"/>
<circle cx="40.076" cy="48.9654" r="1.09158" fill="white" style="fill:white;fill-opacity:1;"/>
<circle cx="40.076" cy="45.8465" r="1.09158" fill="white" style="fill:white;fill-opacity:1;"/>
<circle cx="43.1971" cy="45.8465" r="1.09158" fill="white" style="fill:white;fill-opacity:1;"/>
<circle cx="40.076" cy="42.7278" r="1.09158" fill="white" style="fill:white;fill-opacity:1;"/>
<circle cx="43.1971" cy="42.7278" r="1.09158" fill="white" style="fill:white;fill-opacity:1;"/>
<circle cx="46.3142" cy="42.7278" r="1.09158" fill="white" style="fill:white;fill-opacity:1;"/>
<circle cx="40.076" cy="39.609" r="1.09158" fill="white" style="fill:white;fill-opacity:1;"/>
<circle cx="43.1971" cy="39.609" r="1.09158" fill="white" style="fill:white;fill-opacity:1;"/>
<circle cx="46.3142" cy="39.609" r="1.09158" fill="white" style="fill:white;fill-opacity:1;"/>
<circle cx="49.4314" cy="39.609" r="1.09158" fill="white" style="fill:white;fill-opacity:1;"/>
<circle cx="40.076" cy="36.4901" r="1.09158" fill="white" style="fill:white;fill-opacity:1;"/>
<circle cx="43.1971" cy="36.4901" r="1.09158" fill="white" style="fill:white;fill-opacity:1;"/>
<circle cx="46.3142" cy="36.4901" r="1.09158" fill="white" style="fill:white;fill-opacity:1;"/>
<circle cx="49.4314" cy="36.4901" r="1.09158" fill="white" style="fill:white;fill-opacity:1;"/>
<circle cx="52.5486" cy="36.4901" r="1.09158" fill="white" style="fill:white;fill-opacity:1;"/>
<circle cx="40.076" cy="33.3713" r="1.09158" fill="white" style="fill:white;fill-opacity:1;"/>
<circle cx="43.1971" cy="33.3713" r="1.09158" fill="white" style="fill:white;fill-opacity:1;"/>
<circle cx="46.3142" cy="33.3713" r="1.09158" fill="white" style="fill:white;fill-opacity:1;"/>
<circle cx="49.4314" cy="33.3713" r="1.09158" fill="white" style="fill:white;fill-opacity:1;"/>
<circle cx="52.5486" cy="33.3713" r="1.09158" fill="white" style="fill:white;fill-opacity:1;"/>
<circle cx="55.6697" cy="33.3713" r="1.09158" fill="white" style="fill:white;fill-opacity:1;"/>
<circle cx="40.076" cy="30.2525" r="1.09158" fill="white" style="fill:white;fill-opacity:1;"/>
<circle cx="43.1971" cy="30.2525" r="1.09158" fill="white" style="fill:white;fill-opacity:1;"/>
<circle cx="46.3142" cy="30.2525" r="1.09158" fill="white" style="fill:white;fill-opacity:1;"/>
<circle cx="49.4314" cy="30.2525" r="1.09158" fill="white" style="fill:white;fill-opacity:1;"/>
<circle cx="52.5486" cy="30.2525" r="1.09158" fill="white" style="fill:white;fill-opacity:1;"/>
<circle cx="55.6697" cy="30.2525" r="1.09158" fill="white" style="fill:white;fill-opacity:1;"/>
<circle cx="58.7869" cy="30.2525" r="1.09158" fill="white" style="fill:white;fill-opacity:1;"/>
<circle cx="40.076" cy="27.1337" r="1.09158" fill="white" style="fill:white;fill-opacity:1;"/>
<circle cx="43.1971" cy="27.1337" r="1.09158" fill="white" style="fill:white;fill-opacity:1;"/>
<circle cx="46.3142" cy="27.1337" r="1.09158" fill="white" style="fill:white;fill-opacity:1;"/>
<circle cx="49.4314" cy="27.1337" r="1.09158" fill="white" style="fill:white;fill-opacity:1;"/>
<circle cx="52.5486" cy="27.1337" r="1.09158" fill="white" style="fill:white;fill-opacity:1;"/>
<circle cx="55.6697" cy="27.1337" r="1.09158" fill="white" style="fill:white;fill-opacity:1;"/>
<circle cx="58.7869" cy="27.1337" r="1.09158" fill="white" style="fill:white;fill-opacity:1;"/>
<circle cx="61.908" cy="27.1337" r="1.09158" fill="white" style="fill:white;fill-opacity:1;"/>
</svg>
