<svg width="22" height="22" viewBox="0 0 22 22" fill="none" xmlns="http://www.w3.org/2000/svg">
<path d="M3.01858 10.3519L9.43525 3.93522C9.79321 3.57726 10.3735 3.57726 10.7314 3.93522C11.0894 4.29317 11.0894 4.87342 10.7314 5.23138L5.8795 10.0833H18.3333C18.8393 10.0833 19.25 10.494 19.25 11C19.25 11.506 18.8393 11.9166 18.3333 11.9166H5.8795L10.7314 16.7685C11.0894 17.1265 11.0894 17.7068 10.7314 18.0647C10.5522 18.2439 10.318 18.3333 10.0833 18.3333C9.84867 18.3333 9.61446 18.2439 9.43525 18.0647L3.01858 11.648C2.66062 11.2901 2.66062 10.7098 3.01858 10.3519Z" fill="#2B3646" style="fill:#2B3646;fill:color(display-p3 0.1686 0.2118 0.2745);fill-opacity:1;"/>
</svg>
