<svg width="54" height="38" viewBox="0 0 54 38" fill="none" xmlns="http://www.w3.org/2000/svg">
<rect x="0.75" y="0.75" width="52.5" height="36.5" rx="6.25" fill="white" stroke="#EFEEEE" stroke-width="1.5"/>
<g clip-path="url(#clip0_39_2029)">
<path d="M18.2561 29.9495V28.4231C18.2561 27.8392 17.9078 27.4569 17.3099 27.4569C17.011 27.4569 16.6859 27.5576 16.4624 27.8896C16.2883 27.611 16.0387 27.4569 15.6643 27.4569C15.4147 27.4569 15.1651 27.5339 14.9677 27.8125V27.5073H14.4453V29.9495H14.9677V28.6009C14.9677 28.1682 15.1912 27.9637 15.5395 27.9637C15.8878 27.9637 16.0619 28.1919 16.0619 28.6009V29.9495H16.5843V28.6009C16.5843 28.1682 16.8339 27.9637 17.1561 27.9637C17.5044 27.9637 17.6785 28.1919 17.6785 28.6009V29.9495H18.2561ZM26.0053 27.5073H25.1578V26.7692H24.6354V27.5073H24.1623V27.9904H24.6354V29.1107C24.6354 29.6709 24.8588 29.9999 25.4567 29.9999C25.6802 29.9999 25.9298 29.9228 26.1039 29.8221L25.953 29.3627C25.8021 29.4634 25.628 29.4901 25.5032 29.4901C25.2536 29.4901 25.1549 29.336 25.1549 29.0841V27.9904H26.0024V27.5073H26.0053ZM30.44 27.4539C30.1411 27.4539 29.9408 27.608 29.816 27.8096V27.5043H29.2936V29.9466H29.816V28.5713C29.816 28.1652 29.9901 27.9341 30.3152 27.9341C30.4139 27.9341 30.5387 27.9607 30.6403 27.9844L30.7912 27.4746C30.6867 27.4539 30.5387 27.4539 30.44 27.4539ZM23.7385 27.7088C23.4889 27.531 23.1407 27.4539 22.7663 27.4539C22.1684 27.4539 21.7708 27.7592 21.7708 28.2423C21.7708 28.6484 22.0697 28.8795 22.5921 28.9536L22.8417 28.9803C23.1145 29.0307 23.2655 29.1078 23.2655 29.2352C23.2655 29.4131 23.0652 29.5405 22.7169 29.5405C22.3687 29.5405 22.0929 29.4131 21.9188 29.2856L21.6692 29.6917C21.942 29.8962 22.3164 29.9969 22.6908 29.9969C23.3874 29.9969 23.7879 29.665 23.7879 29.2085C23.7879 28.7758 23.4628 28.5476 22.9665 28.4705L22.7169 28.4439C22.4935 28.4172 22.3193 28.3668 22.3193 28.2156C22.3193 28.0378 22.4935 27.937 22.7692 27.937C23.0681 27.937 23.3671 28.0645 23.518 28.1415L23.7385 27.7088ZM37.6378 27.4539C37.3388 27.4539 37.1386 27.608 37.0138 27.8096V27.5043H36.4914V29.9466H37.0138V28.5713C37.0138 28.1652 37.1879 27.9341 37.513 27.9341C37.6116 27.9341 37.7364 27.9607 37.838 27.9844L37.9889 27.4806C37.8874 27.4539 37.7393 27.4539 37.6378 27.4539ZM30.9624 28.7284C30.9624 29.4664 31.4616 29.9999 32.2336 29.9999C32.5819 29.9999 32.8315 29.9228 33.0811 29.7213L32.8315 29.2886C32.6313 29.4427 32.4339 29.5168 32.2075 29.5168C31.7838 29.5168 31.4848 29.2115 31.4848 28.7284C31.4848 28.269 31.7838 27.9637 32.2075 27.94C32.431 27.94 32.6313 28.017 32.8315 28.1682L33.0811 27.7355C32.8315 27.531 32.5819 27.4569 32.2336 27.4569C31.4616 27.4539 30.9624 27.9904 30.9624 28.7284ZM35.7948 28.7284V27.5073H35.2724V27.8125C35.0982 27.5843 34.8486 27.4569 34.5236 27.4569C33.8502 27.4569 33.3278 27.9904 33.3278 28.7284C33.3278 29.4664 33.8502 29.9999 34.5236 29.9999C34.8719 29.9999 35.1215 29.8725 35.2724 29.6442V29.9495H35.7948V28.7284ZM33.8764 28.7284C33.8764 28.2957 34.1492 27.94 34.599 27.94C35.0228 27.94 35.3217 28.2719 35.3217 28.7284C35.3217 29.1611 35.0228 29.5168 34.599 29.5168C34.1521 29.4901 33.8764 29.1582 33.8764 28.7284ZM27.6248 27.4539C26.9282 27.4539 26.429 27.9637 26.429 28.7254C26.429 29.4901 26.9282 29.9969 27.6509 29.9969C27.9992 29.9969 28.3474 29.8962 28.6232 29.665L28.3736 29.2826C28.1733 29.4368 27.9237 29.5375 27.677 29.5375C27.3519 29.5375 27.0298 29.3834 26.9543 28.9536H28.7218C28.7218 28.8766 28.7218 28.8262 28.7218 28.7491C28.7451 27.9637 28.2952 27.4539 27.6248 27.4539ZM27.6248 27.9133C27.9498 27.9133 28.1733 28.1178 28.2226 28.4972H26.9775C27.0269 28.1682 27.2504 27.9133 27.6248 27.9133ZM40.6039 28.7284V26.541H40.0815V27.8125C39.9074 27.5843 39.6578 27.4569 39.3327 27.4569C38.6594 27.4569 38.137 27.9904 38.137 28.7284C38.137 29.4664 38.6594 29.9999 39.3327 29.9999C39.681 29.9999 39.9306 29.8725 40.0815 29.6442V29.9495H40.6039V28.7284ZM38.6855 28.7284C38.6855 28.2957 38.9583 27.94 39.4082 27.94C39.8319 27.94 40.1309 28.2719 40.1309 28.7284C40.1309 29.1611 39.8319 29.5168 39.4082 29.5168C38.9583 29.4901 38.6855 29.1582 38.6855 28.7284ZM21.1961 28.7284V27.5073H20.6737V27.8125C20.4996 27.5843 20.25 27.4569 19.9249 27.4569C19.2516 27.4569 18.7291 27.9904 18.7291 28.7284C18.7291 29.4664 19.2516 29.9999 19.9249 29.9999C20.2732 29.9999 20.5228 29.8725 20.6737 29.6442V29.9495H21.1961V28.7284ZM19.2545 28.7284C19.2545 28.2957 19.5273 27.94 19.9771 27.94C20.4009 27.94 20.6998 28.2719 20.6998 28.7284C20.6998 29.1611 20.4009 29.5168 19.9771 29.5168C19.5273 29.4901 19.2545 29.1582 19.2545 28.7284Z" fill="black"/>
<path d="M31.4123 8.95923H23.5645V23.3579H31.4123V8.95923Z" fill="#FF5A00"/>
<path d="M24.0869 16.1585C24.0869 13.2331 25.4335 10.6367 27.5 8.95915C25.9792 7.73802 24.0607 7 21.9682 7C17.011 7 13 11.0961 13 16.1585C13 21.2209 17.011 25.317 21.9682 25.317C24.0607 25.317 25.9792 24.579 27.5 23.3579C25.4306 21.704 24.0869 19.0839 24.0869 16.1585Z" fill="#EB001B"/>
<path d="M42 16.1585C42 21.2209 37.989 25.317 33.0318 25.317C30.9393 25.317 29.0208 24.579 27.5 23.3579C29.5926 21.6773 30.9131 19.0839 30.9131 16.1585C30.9131 13.2331 29.5665 10.6367 27.5 8.95915C29.0179 7.73802 30.9363 7 33.0289 7C37.989 7 42 11.1228 42 16.1585Z" fill="#F79E1B"/>
</g>
<defs>
<clipPath id="clip0_39_2029">
<rect width="29" height="23" fill="white" transform="translate(13 7)"/>
</clipPath>
</defs>
</svg>
