<svg width="54" height="38" viewBox="0 0 54 38" fill="none" xmlns="http://www.w3.org/2000/svg">
<rect x="0.75" y="0.75" width="52.5" height="36.5" rx="6.25" fill="white" stroke="#EFEEEE" stroke-width="1.5"/>
<path d="M22.9096 13.1934L18.459 23.8317H15.5541L13.3655 15.3426C13.2307 14.8191 13.1156 14.6286 12.7116 14.4063C12.0498 14.0479 10.9612 13.7117 10 13.5023L10.0673 13.1935H14.7409C15.3369 13.1935 15.8728 13.5918 16.0076 14.2783L17.1648 20.4355L20.0232 13.1935L22.9096 13.1934ZM34.288 20.3568C34.3009 17.5506 30.4117 17.3979 30.4396 16.1425C30.4472 15.7592 30.8098 15.3537 31.6039 15.2514C31.9982 15.1988 33.0833 15.1603 34.3133 15.7259L34.7953 13.471C34.1336 13.2304 33.283 13 32.2258 13C29.5105 13 27.599 14.4467 27.5828 16.5168C27.5651 18.0475 28.9466 18.9018 29.9887 19.4116C31.0588 19.9332 31.4166 20.2663 31.4128 20.7341C31.4059 21.4482 30.559 21.7602 29.7692 21.7742C28.3876 21.7958 27.5863 21.4003 26.9463 21.1017L26.449 23.4341C27.09 23.7289 28.2768 23.9849 29.505 24C32.391 23.9999 34.2789 22.5686 34.288 20.3568ZM41.4585 23.8318H44L41.7824 13.1935H39.4362C38.909 13.1935 38.4645 13.5015 38.2665 13.9733L34.1465 23.8318H37.0302L37.6026 22.243H41.1276L41.4585 23.8318ZM38.3929 20.0626L39.8396 16.068L40.6719 20.0626H38.3929ZM26.8356 13.1934L24.5626 23.8317H21.8147L24.0884 13.1934H26.8356Z" fill="#1A2ADF"/>
</svg>
