<svg width="54" height="38" viewBox="0 0 54 38" fill="none" xmlns="http://www.w3.org/2000/svg">
<rect x="0.75" y="0.75" width="52.5" height="36.5" rx="6.25" fill="white" stroke="#EFEEEE" stroke-width="1.5"/>
<path d="M10.0996 14.2999H13.3996C13.6996 14.2999 14.5996 14.1999 14.9996 15.5999C15.2996 16.4999 15.6996 17.8999 16.2996 19.9999H16.4996C17.0996 17.7999 17.5996 16.2999 17.7996 15.5999C18.1996 14.1999 19.1996 14.2999 19.5996 14.2999H22.6996V23.8999H19.4996V18.1999H19.2996L17.5996 23.8999H15.1996L13.4996 18.1999H13.1996V23.8999H10.0996M23.9996 14.2999H27.1996V19.9999H27.4996L29.5996 15.2999C29.9996 14.3999 30.8996 14.2999 30.8996 14.2999H33.8996V23.8999H30.6996V18.1999H30.4996L28.3996 22.8999C27.9996 23.7999 26.9996 23.8999 26.9996 23.8999H23.9996M38.1996 20.9999V23.8999H35.1996V18.8999H44.9996C44.5996 20.0999 43.1996 20.9999 41.5996 20.9999" fill="#0F754E"/>
<path d="M45.2 18.3C45.6 16.5 44.4 14.3 41.8 14.3H35C35.2 16.4 37 18.3 38.9 18.3" fill="url(#paint0_linear_39_2045)"/>
<defs>
<linearGradient id="paint0_linear_39_2045" x1="44" y1="13" x2="36" y2="13" gradientUnits="userSpaceOnUse">
<stop stop-color="#1F5CD7"/>
<stop offset="1" stop-color="#02AEFF"/>
</linearGradient>
</defs>
</svg>
