<svg width="32" height="32" viewBox="0 0 32 32" fill="none" xmlns="http://www.w3.org/2000/svg">
<g id="Purchase Order">
<path id="Vector" d="M6.66797 4C6.31436 4.00004 5.97524 4.14052 5.7252 4.39056C5.47516 4.6406 5.33467 4.97972 5.33464 5.33333V17.3333C5.33214 17.51 5.36478 17.6854 5.43066 17.8494C5.49655 18.0133 5.59436 18.1626 5.71842 18.2884C5.84248 18.4142 5.99031 18.5141 6.15332 18.5823C6.31633 18.6505 6.49127 18.6857 6.66797 18.6857C6.84467 18.6857 7.01961 18.6505 7.18262 18.5823C7.34563 18.5141 7.49346 18.4142 7.61752 18.2884C7.74158 18.1626 7.83939 18.0133 7.90527 17.8494C7.97116 17.6854 8.0038 17.51 8.0013 17.3333V6.66667H25.3346V24C25.3346 24.7534 24.7547 25.3333 24.0013 25.3333C23.2653 25.3333 22.668 24.7347 22.668 24V22.6667C22.668 21.9307 22.0706 21.3333 21.3346 21.3333H4.0013C3.2653 21.3333 2.66797 21.9307 2.66797 22.6667V24C2.66797 26.2093 4.45864 28 6.66797 28H24.0013C26.1946 28 28.0013 26.1933 28.0013 24V5.33333C28.0013 4.97972 27.8608 4.6406 27.6107 4.39056C27.3607 4.14052 27.0216 4.00004 26.668 4H6.66797ZM11.3346 10.6667C10.9666 10.6667 10.668 10.9653 10.668 11.3333V12.6667C10.668 13.0347 10.9666 13.3333 11.3346 13.3333H12.668C13.036 13.3333 13.3346 13.0347 13.3346 12.6667V11.3333C13.3346 10.9653 13.036 10.6667 12.668 10.6667H11.3346ZM17.3346 10.6667C16.5986 10.6667 16.0013 11.264 16.0013 12C16.0013 12.736 16.5986 13.3333 17.3346 13.3333H21.3346C22.0706 13.3333 22.668 12.736 22.668 12C22.668 11.264 22.0706 10.6667 21.3346 10.6667H17.3346ZM11.3346 16C10.9666 16 10.668 16.2987 10.668 16.6667V18C10.668 18.368 10.9666 18.6667 11.3346 18.6667H12.668C13.036 18.6667 13.3346 18.368 13.3346 18V16.6667C13.3346 16.2987 13.036 16 12.668 16H11.3346ZM17.3346 16C16.5986 16 16.0013 16.5973 16.0013 17.3333C16.0013 18.0693 16.5986 18.6667 17.3346 18.6667H21.3346C22.0706 18.6667 22.668 18.0693 22.668 17.3333C22.668 16.5973 22.0706 16 21.3346 16H17.3346Z" fill="#FFAA29" style="fill:#FFAA29;fill:color(display-p3 1.0000 0.6650 0.1625);fill-opacity:1;"/>
</g>
</svg>
