<svg width="28" height="28" viewBox="0 0 28 28" fill="none" xmlns="http://www.w3.org/2000/svg">
<path d="M2.04176 3.49997C1.92581 3.49833 1.81069 3.51975 1.7031 3.56298C1.5955 3.60622 1.49757 3.67041 1.41499 3.75183C1.33242 3.83324 1.26685 3.93025 1.2221 4.03723C1.17734 4.1442 1.1543 4.25901 1.1543 4.37497C1.1543 4.49092 1.17734 4.60573 1.2221 4.7127C1.26685 4.81968 1.33242 4.91669 1.41499 4.99811C1.49757 5.07952 1.5955 5.14371 1.7031 5.18695C1.81069 5.23018 1.92581 5.25161 2.04176 5.24997H3.64934C4.07397 5.24997 4.42793 5.54334 4.50839 5.9609L4.68271 6.87236L6.56373 16.7514C6.90388 18.5338 8.47425 19.8333 10.2893 19.8333H21.2109C23.0259 19.8333 24.597 18.5343 24.9365 16.7514L26.8175 6.87236C26.8416 6.74587 26.8375 6.61562 26.8055 6.49089C26.7735 6.36616 26.7144 6.25003 26.6323 6.15079C26.5503 6.05155 26.4473 5.97164 26.3308 5.91676C26.2144 5.86187 26.0872 5.83338 25.9584 5.8333H6.26523L6.22763 5.63392C5.99248 4.40153 4.90416 3.49997 3.64934 3.49997H2.04176ZM6.59905 7.5833H24.9011L23.2172 16.4244C23.0329 17.3926 22.197 18.0833 21.2109 18.0833H10.2893C9.30356 18.0833 8.46821 17.3925 8.28297 16.4244V16.4233L6.59905 7.5833ZM11.6668 21C11.2026 21 10.7575 21.1843 10.4293 21.5125C10.1011 21.8407 9.91676 22.2858 9.91676 22.75C9.91676 23.2141 10.1011 23.6592 10.4293 23.9874C10.7575 24.3156 11.2026 24.5 11.6668 24.5C12.1309 24.5 12.576 24.3156 12.9042 23.9874C13.2324 23.6592 13.4168 23.2141 13.4168 22.75C13.4168 22.2858 13.2324 21.8407 12.9042 21.5125C12.576 21.1843 12.1309 21 11.6668 21ZM19.8334 21C19.3693 21 18.9242 21.1843 18.596 21.5125C18.2678 21.8407 18.0834 22.2858 18.0834 22.75C18.0834 23.2141 18.2678 23.6592 18.596 23.9874C18.9242 24.3156 19.3693 24.5 19.8334 24.5C20.2976 24.5 20.7427 24.3156 21.0709 23.9874C21.399 23.6592 21.5834 23.2141 21.5834 22.75C21.5834 22.2858 21.399 21.8407 21.0709 21.5125C20.7427 21.1843 20.2976 21 19.8334 21Z" fill="#04A3E9"/>
</svg>
