<svg width="80" height="80" viewBox="0 0 80 80" fill="none" xmlns="http://www.w3.org/2000/svg">
<path d="M52.5 15L2.5 33.75V58.75L27.5 71.25V46.25L77.5 27.5L52.5 15Z" fill="#F2F4F6" style="fill:#F2F4F6;fill:color(display-p3 0.9490 0.9569 0.9647);fill-opacity:1;"/>
<path d="M78.5643 25.9375C78.0643 25.5625 77.4393 25.5 76.8143 25.75L26.8143 44.5C25.8143 44.875 25.3768 45.9375 25.6893 46.9375C26.0018 47.6875 26.6893 48.125 27.4393 48.125V69.25L26.7518 69.5C25.7518 69.875 25.3143 70.9375 25.6268 71.9375C25.9393 72.6875 26.6268 73.125 27.3768 73.125C27.6268 73.125 27.8143 73.0625 28.0643 73L78.0643 54.25C78.8143 54 79.2518 53.25 79.2518 52.5V27.5C79.3768 26.875 79.0643 26.3125 78.5643 25.9375Z" fill="#FFAA29" style="fill:#FFAA29;fill:color(display-p3 1.0000 0.6650 0.1625);fill-opacity:1;"/>
<path d="M27.4981 48.125C27.1856 48.125 26.9356 48.0625 26.6856 47.9375L1.68561 35.4375C0.998109 35.0625 0.560609 34.375 0.623109 33.625C0.685609 32.875 1.12311 32.25 1.81061 31.9375L14.6856 27.125C15.6856 26.75 16.7481 27.25 17.1231 28.25C17.4981 29.25 16.9981 30.3125 15.9981 30.6875L7.18561 34L27.6231 44.1875L39.7481 39.625C40.7481 39.25 41.8106 39.75 42.1856 40.75C42.5606 41.75 42.0606 42.8125 41.0606 43.1875L28.1856 48C27.9356 48.0625 27.7481 48.125 27.4981 48.125ZM67.8106 33C67.0606 33 66.3106 32.5625 66.0606 31.8125C65.6856 30.8125 66.1856 29.75 67.1856 29.375L72.8106 27.25L52.3731 17.0625L44.1231 20.1875C43.1231 20.5625 42.0606 20.0625 41.6856 19.0625C41.3106 18.0625 41.8106 17 42.8106 16.625L51.8106 13.25C52.3106 13.0625 52.8106 13.125 53.3106 13.3125L78.3106 25.8125C78.9981 26.125 79.3731 26.8125 79.3731 27.5625C79.3731 28.3125 78.8731 28.9375 78.1856 29.25L68.4981 32.875C68.3106 32.9375 68.0606 33 67.8106 33Z" fill="#2B3646" style="fill:#2B3646;fill:color(display-p3 0.1686 0.2118 0.2745);fill-opacity:1;"/>
<path d="M61.25 62.5V34.375L31.25 18.75L18.125 23.75L47.5 38.75V67.5L61.25 62.5Z" fill="#F2F4F6" style="fill:#F2F4F6;fill:color(display-p3 0.9490 0.9569 0.9647);fill-opacity:1;"/>
<path d="M47.4995 69.375C47.1245 69.375 46.7495 69.25 46.437 69.0625C45.937 68.6875 45.6245 68.125 45.6245 67.5V39.875L17.2495 25.4375C16.562 25.125 16.187 24.4375 16.2495 23.6875C16.312 22.9375 16.7495 22.3125 17.437 22.0625L30.562 17.0625C31.062 16.875 31.6245 16.875 32.1245 17.125L62.1245 32.75C62.7495 33.0625 63.1245 33.6875 63.1245 34.4375V62.5625C63.1245 63.375 62.6245 64.0625 61.8745 64.3125L48.1245 69.3125C47.937 69.3125 47.687 69.375 47.4995 69.375ZM22.7495 24L48.3745 37.0625C48.9995 37.375 49.3745 38 49.3745 38.75V64.8125L59.3745 61.1875V35.5L31.1245 20.8125L22.7495 24ZM27.4995 60.625C27.187 60.625 26.937 60.5625 26.687 60.4375L1.68704 47.9375C0.749541 47.5 0.374541 46.375 0.874541 45.4375C1.31204 44.5 2.43704 44.125 3.37454 44.625L28.3745 57.125C29.312 57.5625 29.687 58.6875 29.187 59.625C28.8745 60.25 28.187 60.625 27.4995 60.625ZM27.4995 73.125C27.187 73.125 26.937 73.0625 26.687 72.9375L1.68704 60.4375C0.749541 60 0.374541 58.875 0.874541 57.9375C1.31204 57 2.43704 56.625 3.37454 57.125L28.3745 69.625C29.312 70.0625 29.687 71.1875 29.187 72.125C28.8745 72.75 28.187 73.125 27.4995 73.125Z" fill="#2B3646" style="fill:#2B3646;fill:color(display-p3 0.1686 0.2118 0.2745);fill-opacity:1;"/>
</svg>
