<svg width="176" height="151" viewBox="0 0 176 151" fill="none" xmlns="http://www.w3.org/2000/svg">
<path d="M45.76 92.86C36.96 92.86 29.04 90.88 22 86.92C15.1067 82.96 9.68 77.5333 5.72 70.64C1.90667 63.7466 0 55.8266 0 46.88C0 38.08 1.90667 30.38 5.72 23.78C9.68 17.0333 15.1067 11.7533 22 7.93996C29.04 4.12663 37.0333 2.21997 45.98 2.21997C54.78 2.21997 62.5533 4.19997 69.3 8.15997C76.0467 11.9733 81.3267 17.3266 85.14 24.22C88.9533 30.9666 90.86 38.74 90.86 47.54C90.86 56.34 88.9533 64.1866 85.14 71.08C81.3267 77.8266 75.9733 83.18 69.08 87.14C62.3333 90.9533 54.56 92.86 45.76 92.86ZM48.18 89.34C56.54 89.34 62.7 85.7466 66.66 78.56C70.7667 71.3733 72.82 61.9866 72.82 50.4C72.82 39.84 71.4267 31.3333 68.64 24.88C66 18.28 62.48 13.44 58.08 10.36C53.68 7.27997 48.9133 5.73997 43.78 5.73997C35.42 5.73997 28.9667 9.40663 24.42 16.74C20.02 24.0733 17.82 33.46 17.82 44.9C17.82 53.5533 19.0667 61.2533 21.56 68C24.0533 74.6 27.5733 79.8066 32.12 83.62C36.6667 87.4333 42.02 89.34 48.18 89.34Z" fill="url(#paint0_linear_39_2343)"/>
<path d="M110.344 150.5C109.757 150.647 109.244 150.28 108.804 149.4C108.51 148.667 108.657 148.227 109.244 148.08C118.777 144.853 126.624 141.04 132.784 136.64C138.944 132.387 143.784 127.767 147.304 122.78C150.97 117.94 153.537 113.1 155.004 108.26C156.47 103.42 157.204 98.9466 157.204 94.84C157.204 89.7066 156.324 85.0133 154.564 80.76C152.804 76.36 150.09 72.9133 146.424 70.42C142.904 67.78 138.284 66.46 132.564 66.46C130.95 66.46 129.264 66.5333 127.504 66.68C125.89 66.8266 124.13 67.1933 122.224 67.78C121.784 67.9266 121.417 67.56 121.124 66.68C120.83 65.8 120.977 65.2866 121.564 65.14C132.71 62.2066 140.63 58.1 145.324 52.82C150.017 47.54 152.364 40.28 152.364 31.04C152.364 23.8533 150.97 18.1333 148.184 13.88C145.544 9.62663 141.217 7.49996 135.204 7.49996C128.897 7.49996 123.397 9.5533 118.704 13.66C114.01 17.7666 110.197 24.2933 107.264 33.24C107.117 33.5333 106.604 33.6066 105.724 33.46C104.844 33.3133 104.477 33.02 104.624 32.58L112.764 0.459968C113.057 0.0199653 113.57 -0.0533692 114.304 0.239965C115.184 0.386634 115.55 0.606633 115.404 0.899963C114.817 3.3933 114.964 5.07997 115.844 5.95996C116.724 6.6933 117.677 7.05997 118.704 7.05997C121.05 7.05997 124.204 6.2533 128.164 4.63997C132.124 3.02663 136.89 2.21997 142.464 2.21997C151.117 2.21997 157.717 4.78663 162.264 9.91996C166.81 15.0533 169.084 20.8466 169.084 27.3C169.084 32.7266 167.764 38.0066 165.124 43.14C162.63 48.1266 158.964 52.5266 154.124 56.34C149.43 60.0066 143.71 62.5 136.964 63.82L139.164 60.74C147.524 60.8866 154.344 62.5 159.624 65.58C165.05 68.5133 169.01 72.4 171.504 77.24C174.144 81.9333 175.464 86.92 175.464 92.2C175.464 98.9466 173.19 105.987 168.644 113.32C164.097 120.8 156.984 127.767 147.304 134.22C137.77 140.82 125.45 146.247 110.344 150.5Z" fill="url(#paint1_linear_39_2343)"/>
<defs>
<linearGradient id="paint0_linear_39_2343" x1="86.4016" y1="-189.548" x2="86.4016" y2="248.707" gradientUnits="userSpaceOnUse">
<stop offset="0.26" stop-color="#F5F5F5"/>
<stop offset="1" stop-color="white"/>
</linearGradient>
<linearGradient id="paint1_linear_39_2343" x1="86.4016" y1="-189.548" x2="86.4016" y2="248.707" gradientUnits="userSpaceOnUse">
<stop offset="0.26" stop-color="#F5F5F5"/>
<stop offset="1" stop-color="white"/>
</linearGradient>
</defs>
</svg>
