<svg width="167" height="91" viewBox="0 0 167 91" fill="none" xmlns="http://www.w3.org/2000/svg">
<path d="M45.76 90.86C36.96 90.86 29.04 88.88 22 84.92C15.1067 80.96 9.68 75.5333 5.72 68.64C1.90667 61.7466 0 53.8266 0 44.88C0 36.08 1.90667 28.38 5.72 21.78C9.68 15.0333 15.1067 9.75331 22 5.93997C29.04 2.12664 37.0333 0.219971 45.98 0.219971C54.78 0.219971 62.5533 2.19997 69.3 6.15997C76.0467 9.97331 81.3267 15.3266 85.14 22.22C88.9533 28.9666 90.86 36.74 90.86 45.54C90.86 54.34 88.9533 62.1866 85.14 69.08C81.3267 75.8266 75.9733 81.18 69.08 85.14C62.3333 88.9533 54.56 90.86 45.76 90.86ZM48.18 87.34C56.54 87.34 62.7 83.7466 66.66 76.56C70.7667 69.3733 72.82 59.9866 72.82 48.4C72.82 37.84 71.4267 29.3333 68.64 22.88C66 16.28 62.48 11.44 58.08 8.35997C53.68 5.27997 48.9133 3.73997 43.78 3.73997C35.42 3.73997 28.9667 7.40664 24.42 14.74C20.02 22.0733 17.82 31.46 17.82 42.9C17.82 51.5533 19.0667 59.2533 21.56 66C24.0533 72.6 27.5733 77.8066 32.12 81.62C36.6667 85.4333 42.02 87.34 48.18 87.34Z" fill="url(#paint0_linear_39_2345)"/>
<path d="M108.804 88C108.51 88 108.364 87.56 108.364 86.68C108.364 85.8 108.51 85.36 108.804 85.36C114.817 85.36 119.29 84.9933 122.224 84.26C125.304 83.5266 127.357 82.06 128.384 79.86C129.41 77.66 129.924 74.4333 129.924 70.18V29.92C129.924 24.3466 129.41 20.46 128.384 18.26C127.504 16.06 125.524 15.18 122.444 15.62C119.364 16.06 114.744 17.6733 108.584 20.46C107.997 20.7533 107.484 20.5333 107.044 19.8C106.75 18.92 106.897 18.3333 107.484 18.04L142.904 1.09997C143.49 0.806639 144.004 0.879971 144.444 1.31997C144.884 1.75997 145.104 2.19997 145.104 2.63997V70.18C145.104 74.4333 145.544 77.66 146.424 79.86C147.45 82.06 149.43 83.5266 152.364 84.26C155.297 84.9933 159.77 85.36 165.784 85.36C166.224 85.36 166.444 85.8 166.444 86.68C166.444 87.56 166.224 88 165.784 88C161.824 88 157.424 87.9266 152.584 87.78C147.89 87.6333 142.83 87.56 137.404 87.56C131.977 87.56 126.844 87.6333 122.004 87.78C117.164 87.9266 112.764 88 108.804 88Z" fill="url(#paint1_linear_39_2345)"/>
<defs>
<linearGradient id="paint0_linear_39_2345" x1="81.96" y1="-114" x2="81.96" y2="150" gradientUnits="userSpaceOnUse">
<stop offset="0.26" stop-color="#F5F5F5"/>
<stop offset="1" stop-color="white"/>
</linearGradient>
<linearGradient id="paint1_linear_39_2345" x1="81.96" y1="-114" x2="81.96" y2="150" gradientUnits="userSpaceOnUse">
<stop offset="0.26" stop-color="#F5F5F5"/>
<stop offset="1" stop-color="white"/>
</linearGradient>
</defs>
</svg>
