<svg width="54" height="54" viewBox="0 0 54 54" fill="none" xmlns="http://www.w3.org/2000/svg">
<circle cx="27" cy="27" r="27" fill="#B81B37"/>
<path fill-rule="evenodd" clip-rule="evenodd" d="M21.1341 18.65V19.24H17.0685L16.977 20.0946L16.9768 20.0964L14.8969 38.2953L14.7764 39.38H38.7919L38.6712 38.2939L36.5914 20.0957L36.5913 20.0946L36.4997 19.24H32.4341V18.65C32.4341 15.5232 29.9109 13 26.7841 13C23.6573 13 21.1341 15.5232 21.1341 18.65ZM26.7841 14.94C24.7109 14.94 23.0741 16.5768 23.0741 18.65V19.24H30.4941V18.65C30.4941 16.5768 28.8573 14.94 26.7841 14.94ZM16.9536 37.44H36.6146L34.7515 21.18H32.4341V21.686C32.7499 21.956 32.9541 22.3554 32.9541 22.81C32.9541 23.6334 32.2875 24.3 31.4641 24.3C30.6408 24.3 29.9741 23.6334 29.9741 22.81C29.9741 22.3554 30.1784 21.956 30.4941 21.686V21.18H23.0741V21.686C23.3899 21.956 23.5941 22.3554 23.5941 22.81C23.5941 23.6334 22.9275 24.3 22.1041 24.3C21.2808 24.3 20.6141 23.6334 20.6141 22.81C20.6141 22.3554 20.8184 21.956 21.1341 21.686V21.18H18.8168L16.9536 37.44Z" fill="white"/>
<path fill-rule="evenodd" clip-rule="evenodd" d="M25.931 30.1388L29.4201 26L31 27.271L26.1703 33L23 30.2901L24.3477 28.7855L25.931 30.1388Z" fill="#FFE5AE"/>
</svg>
