<svg width="54" height="54" viewBox="0 0 54 54" fill="none" xmlns="http://www.w3.org/2000/svg">
<circle cx="27" cy="27" r="27" fill="#B81B37"/>
<path d="M15.542 33.4634H23.792V35.3384H15.542V33.4634Z" fill="white"/>
<path d="M25.4192 13.6301V19.4322H15.2121C12.8895 19.4323 11 21.3217 11 23.6443V36.1578C11 38.4803 12.8895 40.3698 15.2121 40.3698H34.4375C36.76 40.3698 38.6496 38.4803 38.6496 36.1578L38.6499 32.1925C41.246 31.0799 43 28.5056 43 25.6811V13.6301H25.4192ZM12.875 23.6443C12.875 22.3556 13.9234 21.3073 15.2121 21.3073H25.4192V24.2135H12.875V23.6443ZM12.875 26.0885H25.4321C25.4852 27.0144 25.7178 27.9033 26.1035 28.7135H12.875V26.0885ZM36.7746 36.1578C36.7746 37.4464 35.7262 38.4948 34.4375 38.4948H15.2121C13.9234 38.4948 12.875 37.4464 12.875 36.1578V30.5885H27.4061C28.0442 31.2468 28.8159 31.7864 29.6929 32.1623L34.2096 34.0981L36.7746 32.9988V36.1578ZM41.125 25.6811C41.125 27.7546 39.8936 29.6221 37.9877 30.4389L34.2096 32.0581L30.4316 30.4389C28.5257 29.6221 27.2943 27.7546 27.2943 25.6811V15.5052H41.125V25.6811Z" fill="white"/>
<path d="M29.293 25.6811C29.293 26.954 30.049 28.1006 31.2191 28.6022L34.21 29.884L37.201 28.6022C38.3712 28.1007 39.1272 26.9541 39.1272 25.6811V17.5034H29.293V25.6811ZM37.2522 19.3784V25.6811C37.2522 26.203 36.9422 26.6732 36.4623 26.8788L34.21 27.8441L31.9577 26.8788C31.4779 26.6732 31.1679 26.203 31.1679 25.6811V19.3784H37.2522Z" fill="#FFE5AE"/>
</svg>
