<svg width="54" height="54" viewBox="0 0 54 54" fill="none" xmlns="http://www.w3.org/2000/svg">
<circle cx="27" cy="27" r="27" fill="#B81B37"/>
<path d="M44.4229 26.0395L40.5449 19.9248H32.4475V16.5H10.041V18.5146H30.433V32.6837H20.948C20.5049 31.0707 19.0266 29.8819 17.2748 29.8819C15.5231 29.8819 14.0447 31.0707 13.6019 32.6837H11.0483V34.6982H13.6019C14.0447 36.3112 15.5234 37.5 17.2748 37.5C19.0266 37.5 20.5049 36.3112 20.9477 34.6982H33.5159C33.959 36.3112 35.4374 37.5 37.1888 37.5C38.9406 37.5 40.419 36.3112 40.8618 34.6982H44.4229V26.0395ZM17.2748 35.4854C16.2854 35.4854 15.4803 34.6804 15.4803 33.691C15.4803 32.7015 16.2854 31.8965 17.2748 31.8965C18.2645 31.8965 19.0696 32.7015 19.0696 33.691C19.0696 34.6804 18.2645 35.4854 17.2748 35.4854ZM37.1891 35.4854C36.1994 35.4854 35.3944 34.6804 35.3944 33.691C35.3944 32.7015 36.1994 31.8965 37.1891 31.8965C38.1786 31.8965 38.9836 32.7015 38.9836 33.691C38.9836 34.6804 38.1786 35.4854 37.1891 35.4854ZM42.4084 32.6837H40.862C40.4192 31.0707 38.9406 29.8819 37.1891 29.8819C35.4374 29.8819 33.959 31.0707 33.5159 32.6837H32.4473V21.9393H39.4369L42.4084 26.6245V32.6837Z" fill="white"/>
<path d="M10.041 19.9246H17.1678V21.9391H10.041V19.9246Z" fill="#FFE5AE"/>
<path d="M12.5977 26.5847H19.7242V28.5993H12.5977V26.5847Z" fill="#FFE5AE"/>
<path d="M11.3193 22.9575H18.4459V24.9721H11.3193V22.9575Z" fill="#FFE5AE"/>
</svg>
