<svg width="16" height="16" viewBox="0 0 16 16" fill="none" xmlns="http://www.w3.org/2000/svg">
<path d="M0.260335 7.29293L6.4826 0.292877C6.82971 -0.0976258 7.39238 -0.0976258 7.7395 0.292877C8.08661 0.68338 8.08661 1.31638 7.7395 1.70689L3.03458 6.99993L15.1111 6.99993C15.6018 6.99993 16 7.44793 16 7.99994C16 8.55194 15.6018 8.99995 15.1111 8.99995H3.03458L7.7395 14.293C8.08661 14.6835 8.08661 15.3165 7.7395 15.707C7.56572 15.9025 7.33861 16 7.11105 16C6.88349 16 6.65638 15.9025 6.4826 15.707L0.260335 8.70694C-0.0867786 8.31644 -0.0867786 7.68344 0.260335 7.29293Z" fill="white"/>
</svg>
