<svg width="22" height="22" viewBox="0 0 22 22" fill="none" xmlns="http://www.w3.org/2000/svg">
<path d="M9.53268 1.46666C9.33819 1.46666 9.15166 1.54392 9.01414 1.68145C8.87661 1.81897 8.79935 2.0055 8.79935 2.19999C8.79935 5.90846 3.66602 8.79999 3.66602 13.9333C3.66602 17.8331 7.89258 20.3543 9.38086 20.5176C9.43078 20.5281 9.48166 20.5334 9.53268 20.5333C9.72717 20.5333 9.9137 20.4561 10.0512 20.3185C10.1888 20.181 10.266 19.9945 10.266 19.8C10.266 19.6911 10.2416 19.5835 10.1948 19.4851C10.148 19.3868 10.0798 19.3001 9.99531 19.2314V19.2299C9.32798 18.6887 8.06602 17.1187 8.06602 15.685C8.06602 13.3318 10.266 12.4667 10.266 12.4667C9.01128 16.016 13.1227 16.4448 13.9499 19.959H13.9513C13.9874 20.1217 14.0779 20.2672 14.2078 20.3716C14.3377 20.476 14.4993 20.5331 14.666 20.5333C14.8205 20.5329 14.9708 20.4838 15.0957 20.393C15.1089 20.3834 15.1218 20.3733 15.1344 20.3629C15.2537 20.2854 18.3327 18.249 18.3327 13.9333C18.3327 12.1714 17.4515 9.14503 16.8173 7.80455L16.8159 7.80025L16.8145 7.79739C16.7604 7.66059 16.6666 7.54319 16.545 7.46044C16.4234 7.37768 16.2798 7.33339 16.1327 7.33333C15.9614 7.33349 15.7956 7.39359 15.664 7.5032C15.5324 7.61282 15.4433 7.76504 15.4122 7.93346V7.93632C15.4104 7.94433 15.0736 9.44021 13.9327 10.2667C13.9327 6.81146 11.4381 3.24251 10.1228 1.76601C10.103 1.73927 10.0815 1.71391 10.0583 1.6901C9.99012 1.61959 9.90845 1.56348 9.81815 1.5251C9.72786 1.48672 9.63079 1.46685 9.53268 1.46666Z" fill="#FF0000" style="fill:#FF0000;fill:color(display-p3 1.0000 0.0000 0.0000);fill-opacity:1;"/>
</svg>
