<svg width="22" height="22" viewBox="0 0 22 22" fill="none" xmlns="http://www.w3.org/2000/svg">
<path d="M10.9993 8.70833L2.29102 19.7849C2.29102 19.7849 5.19364 22 10.9993 22C16.8051 22 19.7077 19.7849 19.7077 19.7849L10.9993 8.70833Z" fill="url(#paint0_linear_75_744)" style=""/>
<path d="M18.3327 14.8179C18.3327 14.8179 15.8898 16.5 10.9993 16.5C6.10893 16.5 3.66602 14.8179 3.66602 14.8179L7.00727 10.9908L7.17227 10.7983L7.34643 10.6013L10.9993 6.41667L14.6523 10.6013L14.8264 10.7983L14.9914 10.9908L18.3327 14.8179Z" fill="url(#paint1_linear_75_744)" style=""/>
<path d="M16.5 9.95501C16.5 9.95501 15.8858 10.3033 14.6529 10.6013C13.7592 10.8167 12.5446 11 11 11C9.45542 11 8.24083 10.8167 7.34708 10.6013C6.11417 10.3033 5.5 9.95501 5.5 9.95501L9.41417 5.49542L9.82667 5.02334L10.2438 4.55126L10.6608 4.07459L11 3.68959L11.3392 4.07459L11.7562 4.55126L12.1733 5.02334L12.5858 5.49542L16.5 9.95501Z" fill="url(#paint2_linear_75_744)" style=""/>
<path opacity="0.07" d="M12.4392 3.14875L13.75 1.89292L11.9167 1.64083L11 0L10.0833 1.64083L8.25 1.89292L9.56083 3.14875L9.295 5.04167L10.2438 4.55125L9.82667 5.02333L11 4.41833L12.1733 5.02333L11.7562 4.55125L12.705 5.04167L12.4392 3.14875ZM11.3392 4.07458L11 3.90042L10.6608 4.07458L9.58375 4.63375L9.80375 3.06625L8.74958 2.05333L10.2254 1.85167L11 0.4675L11.7746 1.85167L13.2504 2.05333L12.1963 3.06625L12.4163 4.63375L11.3392 4.07458Z" fill="black" style="fill:black;fill-opacity:1;"/>
<path d="M11 0L11.9167 1.639L13.75 1.89062L12.4401 3.15058L12.7041 5.04167L11 4.15983L9.29592 5.04167L9.56037 3.15058L8.25 1.89108L10.0833 1.63946L11 0Z" fill="#EDBE00" style="fill:#EDBE00;fill:color(display-p3 0.9294 0.7451 0.0000);fill-opacity:1;"/>
<path d="M10.0833 6.875C9.57687 6.875 9.16667 7.28521 9.16667 7.79167C9.16667 8.29812 9.57687 8.70833 10.0833 8.70833C10.5898 8.70833 11 8.29812 11 7.79167C11 7.28521 10.5898 6.875 10.0833 6.875ZM12.6042 8.25C12.2247 8.25 11.9167 8.558 11.9167 8.9375C11.9167 9.317 12.2247 9.625 12.6042 9.625C12.9837 9.625 13.2917 9.317 13.2917 8.9375C13.2917 8.558 12.9837 8.25 12.6042 8.25ZM11 19.25C10.747 19.25 10.5417 19.4553 10.5417 19.7083C10.5417 19.9613 10.747 20.1667 11 20.1667C11.253 20.1667 11.4583 19.9613 11.4583 19.7083C11.4583 19.4553 11.253 19.25 11 19.25ZM15.5833 17.875C15.0769 17.875 14.6667 18.2852 14.6667 18.7917C14.6667 19.2981 15.0769 19.7083 15.5833 19.7083C16.0898 19.7083 16.5 19.2981 16.5 18.7917C16.5 18.2852 16.0898 17.875 15.5833 17.875ZM7.5625 17.875C7.183 17.875 6.875 18.183 6.875 18.5625C6.875 18.942 7.183 19.25 7.5625 19.25C7.942 19.25 8.25 18.942 8.25 18.5625C8.25 18.183 7.942 17.875 7.5625 17.875Z" fill="#50E6FF" style="fill:#50E6FF;fill:color(display-p3 0.3137 0.9020 1.0000);fill-opacity:1;"/>
<path d="M8.47852 12.375C8.09902 12.375 7.79102 12.683 7.79102 13.0625C7.79102 13.442 8.09902 13.75 8.47852 13.75C8.85802 13.75 9.16602 13.442 9.16602 13.0625C9.16602 12.683 8.85802 12.375 8.47852 12.375ZM10.541 14.2083C10.288 14.2083 10.0827 14.4137 10.0827 14.6667C10.0827 14.9197 10.288 15.125 10.541 15.125C10.794 15.125 10.9993 14.9197 10.9993 14.6667C10.9993 14.4137 10.794 14.2083 10.541 14.2083ZM13.5202 13.2917C13.1407 13.2917 12.8327 13.5997 12.8327 13.9792C12.8327 14.3587 13.1407 14.6667 13.5202 14.6667C13.8997 14.6667 14.2077 14.3587 14.2077 13.9792C14.2077 13.5997 13.8997 13.2917 13.5202 13.2917Z" fill="#EDBE00" style="fill:#EDBE00;fill:color(display-p3 0.9294 0.7451 0.0000);fill-opacity:1;"/>
<path opacity="0.05" d="M12.1732 5.02333L11.7561 4.55125L10.9999 4.16167L10.2436 4.55125L9.82656 5.02333L9.41406 5.49542L10.9999 4.675L12.5857 5.49542L12.1732 5.02333Z" fill="black" style="fill:black;fill-opacity:1;"/>
<defs>
<linearGradient id="paint0_linear_75_744" x1="10.9993" y1="22" x2="10.9993" y2="8.70833" gradientUnits="userSpaceOnUse">
<stop offset="0.108" stop-color="#0D7044" style="stop-color:#0D7044;stop-color:color(display-p3 0.0510 0.4392 0.2667);stop-opacity:1;"/>
<stop offset="0.433" stop-color="#11945A" style="stop-color:#11945A;stop-color:color(display-p3 0.0667 0.5804 0.3529);stop-opacity:1;"/>
</linearGradient>
<linearGradient id="paint1_linear_75_744" x1="10.9993" y1="16.5" x2="10.9993" y2="6.41667" gradientUnits="userSpaceOnUse">
<stop offset="0.108" stop-color="#0D7044" style="stop-color:#0D7044;stop-color:color(display-p3 0.0510 0.4392 0.2667);stop-opacity:1;"/>
<stop offset="0.433" stop-color="#11945A" style="stop-color:#11945A;stop-color:color(display-p3 0.0667 0.5804 0.3529);stop-opacity:1;"/>
</linearGradient>
<linearGradient id="paint2_linear_75_744" x1="11" y1="11" x2="11" y2="3.68959" gradientUnits="userSpaceOnUse">
<stop offset="0.108" stop-color="#0D7044" style="stop-color:#0D7044;stop-color:color(display-p3 0.0510 0.4392 0.2667);stop-opacity:1;"/>
<stop offset="0.433" stop-color="#11945A" style="stop-color:#11945A;stop-color:color(display-p3 0.0667 0.5804 0.3529);stop-opacity:1;"/>
</linearGradient>
</defs>
</svg>
