<svg width="54" height="54" viewBox="0 0 54 54" fill="none" xmlns="http://www.w3.org/2000/svg">
<path d="M25.3135 43.6109C37.8854 43.6109 48.0948 36.7344 48.0948 27.2844C48.0948 17.8344 37.8854 11 25.3135 11C17.2135 11 10.126 14.6703 6.076 19.3109C5.52756 19.9438 6.24475 20.8719 7.00413 20.4922C8.98694 19.4375 11.3916 18.8047 13.9229 18.8047C20.2088 18.8047 25.3135 22.6438 25.3135 27.3266C25.3135 32.0094 20.2088 35.8484 13.9229 35.8484C11.3916 35.8484 8.98694 35.2156 7.00413 34.1609C6.24475 33.7391 5.52756 34.6672 6.076 35.3422C10.126 39.9406 17.2557 43.6109 25.3135 43.6109Z" fill="white" style="fill:white;fill-opacity:1;"/>
<path d="M25.3135 27.2844C25.3135 32.0094 20.2088 35.8062 13.9229 35.8062C11.3916 35.8062 8.98694 35.1734 7.00413 34.1187C6.24475 33.6969 5.52756 34.625 6.076 35.3C10.126 39.9406 17.2557 43.6109 25.3135 43.6109C37.8854 43.6109 48.0948 36.7344 48.0948 27.2844C48.0948 17.8344 37.8854 11 25.3135 11C17.2135 11 10.126 14.6703 6.076 19.3109C5.52756 19.9438 6.24475 20.8719 7.00413 20.4922C8.98694 19.4375 11.3916 18.8047 13.9229 18.8047" stroke="#2B3646" style="stroke:#2B3646;stroke:color(display-p3 0.1686 0.2118 0.2745);stroke-opacity:1;" stroke-width="3" stroke-miterlimit="10" stroke-linecap="round" stroke-linejoin="round"/>
<path d="M25.3137 14.4172C22.9934 14.4172 20.8418 14.7547 18.859 15.3031C18.4793 15.3875 18.4793 15.9359 18.859 16.0203C24.1746 17.539 28.098 21.4625 28.6465 26.1453H42.0621C43.4543 26.1453 44.3402 24.7109 43.7918 23.4875C41.4715 18.1719 34.173 14.4172 25.3137 14.4172ZM42.1043 28.4234H28.6887C28.1402 33.1062 24.2168 37.0297 18.9012 38.5484C18.5215 38.6328 18.5215 39.1812 18.9012 39.2656C20.884 39.814 23.0355 40.1516 25.3559 40.1516C34.2152 40.1516 41.4715 36.3969 43.8762 31.0812C44.4246 29.8578 43.4965 28.4234 42.1043 28.4234Z" fill="#FFAA29" style="fill:#FFAA29;fill:color(display-p3 1.0000 0.6650 0.1625);fill-opacity:1;"/>
<path d="M29.1531 25.0062C28.5489 25.0062 27.9695 25.2462 27.5422 25.6735C27.115 26.1007 26.875 26.6802 26.875 27.2844C26.875 27.8885 27.115 28.468 27.5422 28.8952C27.9695 29.3225 28.5489 29.5625 29.1531 29.5625C29.7573 29.5625 30.3368 29.3225 30.764 28.8952C31.1912 28.468 31.4312 27.8885 31.4312 27.2844C31.4312 26.6802 31.1912 26.1007 30.764 25.6735C30.3368 25.2462 29.7573 25.0062 29.1531 25.0062Z" fill="white" style="fill:white;fill-opacity:1;"/>
<path d="M7.80469 43.611H42.3984" stroke="#2B3646" style="stroke:#2B3646;stroke:color(display-p3 0.1686 0.2118 0.2745);stroke-opacity:1;" stroke-width="3" stroke-miterlimit="10" stroke-linecap="round" stroke-linejoin="round"/>
</svg>
