<svg width="46" height="34" viewBox="0 0 46 34" fill="none" xmlns="http://www.w3.org/2000/svg">
<rect width="46" height="34" rx="6" fill="#E8EAEC" style="fill:#E8EAEC;fill:color(display-p3 0.9098 0.9176 0.9255);fill-opacity:1;"/>
<g clip-path="url(#clip0_92_201)">
<path d="M20.5234 22.1546H17.5137L19.3962 11.8787H22.4057L20.5234 22.1546Z" fill="#0282EC" style="fill:#0282EC;fill:color(display-p3 0.0077 0.5096 0.9250);fill-opacity:1;"/>
<path d="M31.4346 12.1299C30.841 11.922 29.8994 11.6924 28.7351 11.6924C25.7629 11.6924 23.6699 13.0916 23.6571 15.092C23.6324 16.568 25.1556 17.3877 26.2949 17.8799C27.4593 18.3827 27.8551 18.7109 27.8551 19.1592C27.8432 19.8476 26.9142 20.1649 26.0476 20.1649C24.846 20.1649 24.2022 20.0013 23.2237 19.6183L22.8274 19.4541L22.4062 21.7609C23.1121 22.0448 24.4127 22.2967 25.7629 22.3078C28.9209 22.3078 30.9769 20.9302 31.0013 18.7984C31.0133 17.6286 30.209 16.7323 28.4749 15.9999C27.4222 15.5297 26.7776 15.2126 26.7776 14.7316C26.7899 14.2942 27.3228 13.8463 28.5111 13.8463C29.4896 13.8243 30.2085 14.032 30.7531 14.2397L31.0253 14.3488L31.4346 12.1299Z" fill="#0282EC" style="fill:#0282EC;fill:color(display-p3 0.0077 0.5096 0.9250);fill-opacity:1;"/>
<path d="M35.4339 18.5142C35.6817 17.9239 36.6355 15.6391 36.6355 15.6391C36.623 15.661 36.8828 15.0378 37.0315 14.6553L37.2418 15.5407C37.2418 15.5407 37.8117 18.0005 37.9355 18.5142C37.4651 18.5142 36.0283 18.5142 35.4339 18.5142ZM39.149 11.8787H36.821C36.103 11.8787 35.5576 12.0644 35.2479 12.7313L30.7773 22.1545H33.9353C33.9353 22.1545 34.4553 20.8862 34.567 20.613C34.9135 20.613 37.9855 20.613 38.4312 20.613C38.5176 20.9738 38.7903 22.1545 38.7903 22.1545H41.577L39.149 11.8787Z" fill="#0282EC" style="fill:#0282EC;fill:color(display-p3 0.0077 0.5096 0.9250);fill-opacity:1;"/>
<path d="M15.0011 11.8787L12.0535 18.8859L11.7315 17.4648C11.1865 15.8249 9.4775 14.0433 7.57031 13.1574L10.2701 22.1438H13.4528L18.1836 11.8787H15.0011Z" fill="#0282EC" style="fill:#0282EC;fill:color(display-p3 0.0077 0.5096 0.9250);fill-opacity:1;"/>
<path d="M9.31572 11.8787H4.47337L4.42383 12.0863C8.20116 12.939 10.7028 14.9946 11.7306 17.4652L10.678 12.7425C10.5047 12.0861 9.97207 11.9003 9.31572 11.8787Z" fill="#FAA61A" style="fill:#FAA61A;fill:color(display-p3 0.9804 0.6510 0.1020);fill-opacity:1;"/>
</g>
<defs>
<clipPath id="clip0_92_201">
<rect width="37.1538" height="10.6154" fill="white" style="fill:white;fill-opacity:1;" transform="translate(4.42383 11.6924)"/>
</clipPath>
</defs>
</svg>
