<svg width="331" height="21" viewBox="0 0 331 21" fill="none" xmlns="http://www.w3.org/2000/svg">
<path d="M422.027 16.7585C422.027 16.7585 376.655 0.0126504 346.359 0.800123C321.335 1.45059 309.04 13.7298 284.026 14.6508C256.171 15.6763 241.41 -0.509535 213.778 2.90784C195.982 5.10874 187.978 13.8222 170.307 16.7585C134.989 22.627 114.817 1.05539 79.2454 5.41702C58.6067 7.94765 48.6694 22.1056 28.0775 19.2677C16.3589 17.6527 0.00012232 8.62877 0.00012232 8.62877L0.000122706 20.7732L422.027 20.7732L422.027 16.7585Z" fill="#F2F4F6" style="fill:#F2F4F6;fill:color(display-p3 0.9490 0.9569 0.9647);fill-opacity:1;"/>
<path opacity="0.3" d="M5.08117e-07 16.7585C5.08117e-07 16.7585 45.3727 0.0126475 75.6679 0.800118C100.692 1.45058 112.987 13.7298 138.002 14.6508C165.857 15.6763 180.618 -0.509546 208.249 2.90782C226.045 5.10872 234.049 13.8222 251.72 16.7585C287.038 22.627 307.21 1.05537 342.782 5.417C363.421 7.94762 373.358 22.1056 393.95 19.2677C405.668 17.6526 422.027 8.62874 422.027 8.62874L422.027 20.7732L6.3573e-07 20.7732L5.08117e-07 16.7585Z" fill="#F2F4F6" style="fill:#F2F4F6;fill:color(display-p3 0.9490 0.9569 0.9647);fill-opacity:1;"/>
<path opacity="0.3" d="M89.9551 16.7585C89.9551 16.7585 131.459 0.0126476 159.172 0.800118C182.062 1.45058 193.309 13.7298 216.191 14.6508C241.671 15.6763 255.173 -0.509546 280.449 2.90782C296.727 5.10872 304.049 13.8222 320.214 16.7585C352.521 22.627 370.973 1.05537 403.512 5.417C422.391 7.94763 431.481 22.1056 450.317 19.2677C461.036 17.6526 476.001 8.62875 476.001 8.62875L476.001 20.7732L89.9551 20.7732L89.9551 16.7585Z" fill="#F2F4F6" style="fill:#F2F4F6;fill:color(display-p3 0.9490 0.9569 0.9647);fill-opacity:1;"/>
</svg>
