<svg width="40" height="12" viewBox="0 0 40 12" fill="none" xmlns="http://www.w3.org/2000/svg">
<path d="M1 5.53635L4.16667 3.10045C6.03356 1.66438 8.63311 1.66438 10.5 3.10045V3.10045C12.3669 4.53652 14.9664 4.53652 16.8333 3.10045V3.10045C18.7002 1.66438 21.2998 1.66438 23.1667 3.10045V3.10045C25.0336 4.53652 27.6331 4.53652 29.5 3.10045V3.10045C31.3669 1.66438 33.9664 1.66438 35.8333 3.10045L39 5.53635" stroke="#FFAA29" style="stroke:#FFAA29;stroke:color(display-p3 1.0000 0.6650 0.1625);stroke-opacity:1;" stroke-width="2.25"/>
<path opacity="0.5" d="M1 10.6517L4.16667 8.2158C6.03356 6.77973 8.63311 6.77973 10.5 8.2158V8.2158C12.3669 9.65188 14.9664 9.65188 16.8333 8.2158V8.2158C18.7002 6.77973 21.2998 6.77973 23.1667 8.2158V8.2158C25.0336 9.65188 27.6331 9.65188 29.5 8.2158V8.2158C31.3669 6.77973 33.9664 6.77973 35.8333 8.2158L39 10.6517" stroke="#FFAA29" style="stroke:#FFAA29;stroke:color(display-p3 1.0000 0.6650 0.1625);stroke-opacity:1;" stroke-width="2.25"/>
</svg>
