<svg width="42" height="42" viewBox="0 0 42 42" fill="none" xmlns="http://www.w3.org/2000/svg">
<path d="M4.25928 37.8901L6.61653 29.2845C5.16228 26.7662 4.39753 23.9085 4.3984 20.9816C4.40278 11.8247 11.8543 4.375 21.012 4.375C25.4562 4.37675 29.6264 6.10663 32.7633 9.24525C35.8993 12.3848 37.6265 16.5567 37.6248 20.9947C37.6213 30.1516 30.168 37.6022 21.012 37.6022C21.0112 37.6022 21.012 37.6022 21.012 37.6022H21.005C18.2252 37.6014 15.4925 36.904 13.0662 35.5801L4.25928 37.8901Z" fill="white"/>
<path d="M4.25938 38.3276C4.14388 38.3276 4.03188 38.2821 3.94876 38.1981C3.83938 38.087 3.79651 37.9251 3.83763 37.7755L6.14676 29.344C4.71526 26.8013 3.96013 23.9138 3.96188 20.9825C3.96538 11.5833 11.6138 3.9375 21.0121 3.9375C25.5709 3.93925 29.854 5.71463 33.0731 8.93638C36.2923 12.159 38.0641 16.4413 38.0624 20.9948C38.0589 30.3931 30.4096 38.0398 21.0121 38.0398C18.2218 38.0389 15.4611 37.3503 13.0111 36.0474L4.37051 38.3128C4.33376 38.3233 4.29701 38.3276 4.25938 38.3276Z" fill="white"/>
<path d="M21.0124 4.375C25.4565 4.37675 29.6268 6.10663 32.7636 9.24525C35.8996 12.3848 37.6269 16.5568 37.6251 20.9948C37.6216 30.1516 30.1684 37.6023 21.0124 37.6023H21.0054C18.2255 37.6014 15.4929 36.904 13.0665 35.5801L4.25964 37.8901L6.61689 29.2845C5.16264 26.7663 4.39789 23.9085 4.39876 20.9816C4.40314 11.8248 11.8546 4.375 21.0124 4.375ZM21.0124 3.5C11.3734 3.5 3.52814 11.3418 3.52376 20.9816C3.52289 23.9278 4.26664 26.831 5.67714 29.4009L3.41526 37.66C3.33301 37.9619 3.41701 38.2839 3.63751 38.5061C3.80376 38.6741 4.02864 38.766 4.25964 38.766C4.33401 38.766 4.40839 38.7564 4.48189 38.7371L12.958 36.5146C15.4325 37.7991 18.2063 38.4772 21.0054 38.4781C30.6514 38.4781 38.4966 30.6355 38.501 20.9956C38.5028 16.324 36.6854 11.9315 33.384 8.6275C30.0809 5.32262 25.6875 3.50175 21.0124 3.5Z" fill="#CFD8DC"/>
<path d="M30.7786 11.2279C28.1711 8.61867 24.7053 7.18105 21.0163 7.18018C13.4003 7.18018 7.20614 13.3717 7.20264 20.9824C7.20176 23.5908 7.93151 26.13 9.31401 28.3289L9.64301 28.8513L8.24739 33.9447L13.4738 32.5744L13.9786 32.8737C16.0979 34.1319 18.5286 34.7969 21.0066 34.7978H21.0119C28.6226 34.7978 34.8168 28.6054 34.8194 20.9938C34.8203 17.3057 33.3861 13.8372 30.7786 11.2279Z" fill="#40C351"/>
<path fill-rule="evenodd" clip-rule="evenodd" d="M16.8595 14.0394C16.5488 13.3481 16.2216 13.3341 15.925 13.3219C15.6826 13.3114 15.4061 13.3123 15.1296 13.3123C14.8531 13.3123 14.4033 13.4164 14.0227 13.832C13.6421 14.2476 12.5693 15.2513 12.5693 17.2935C12.5693 19.3358 14.0568 21.3098 14.2642 21.5863C14.4716 21.8628 17.136 26.1879 21.3552 27.8521C24.8613 29.2346 25.5753 28.9599 26.3366 28.8908C27.0978 28.8216 28.7927 27.8871 29.1383 26.9176C29.484 25.9481 29.484 25.1178 29.3807 24.9445C29.2766 24.7713 29.0001 24.668 28.5853 24.4598C28.1706 24.2515 26.1292 23.2479 25.7486 23.1096C25.368 22.9714 25.0915 22.9023 24.8141 23.3179C24.5376 23.7326 23.7422 24.668 23.4998 24.9445C23.2575 25.2219 23.0151 25.2569 22.6003 25.0486C22.1856 24.8404 20.8486 24.4029 19.2622 22.9889C18.0285 21.889 17.1955 20.5301 16.9531 20.1145C16.7107 19.6998 16.9268 19.4749 17.1351 19.2675C17.3215 19.0811 17.5498 18.7828 17.7581 18.5404C17.9655 18.298 18.0346 18.1248 18.1728 17.8483C18.3111 17.5709 18.242 17.3285 18.1378 17.1211C18.0355 16.9129 17.2287 14.8601 16.8595 14.0394Z" fill="white"/>
</svg>
